<svg width="934" height="356" viewBox="0 0 934 356" fill="none" xmlns="http://www.w3.org/2000/svg">
<rect width="125" height="20" transform="translate(0.5 0.946289)" fill="black"/>
<path d="M35.8782 5.74629H37.4782V16.9463H35.8782V11.9543H29.4462V16.9463H27.8462V5.74629H29.4462V10.5623H35.8782V5.74629ZM42.5106 15.5543H49.0386V16.9463H40.9106V5.74629H48.8146V7.13829H42.5106V10.5783H48.1266V11.9383H42.5106V15.5543ZM51.7094 16.9463V5.74629H53.3094V16.9463H51.7094ZM64.5025 14.9303V11.2823H66.0385V15.6503C64.9185 16.5943 63.3665 17.0743 61.7985 17.0743C58.3585 17.0743 55.8305 14.6583 55.8305 11.3463C55.8305 8.03429 58.3585 5.61829 61.8305 5.61829C63.6065 5.61829 65.1105 6.21029 66.1345 7.34629L65.1425 8.33829C64.2145 7.44229 63.1585 7.04229 61.8945 7.04229C59.3025 7.04229 57.4305 8.85029 57.4305 11.3463C57.4305 13.8103 59.3025 15.6503 61.8785 15.6503C62.8225 15.6503 63.7025 15.4423 64.5025 14.9303ZM77.2139 5.74629H78.8139V16.9463H77.2139V11.9543H70.7819V16.9463H69.1819V5.74629H70.7819V10.5623H77.2139V5.74629ZM84.4703 16.9463V7.13829H80.6302V5.74629H89.8942V7.13829H86.0543V16.9463H84.4703ZM94.8402 17.0743C93.1282 17.0743 91.4482 16.4983 90.5522 15.6663L91.1442 14.4183C91.9762 15.1703 93.4002 15.7143 94.8402 15.7143C96.7762 15.7143 97.6082 14.9623 97.6082 13.9863C97.6082 11.2503 90.8242 12.9783 90.8242 8.81829C90.8242 7.09029 92.1682 5.61829 95.1122 5.61829C96.4242 5.61829 97.7842 5.97029 98.7122 6.61029L98.1842 7.89029C97.2082 7.26629 96.1042 6.97829 95.1122 6.97829C93.2082 6.97829 92.3922 7.77829 92.3922 8.75429C92.3922 11.4903 99.1762 9.77829 99.1762 13.8903C99.1762 15.6023 97.8002 17.0743 94.8402 17.0743Z" fill="white"/>
<rect width="473" height="20" transform="translate(165.5 0.946289)" fill="black"/>
<path d="M354.643 5.74629H356.163L352.419 16.9463H350.739L347.683 8.00229L344.627 16.9463H342.915L339.171 5.74629H340.819L343.843 14.8503L346.995 5.74629H348.467L351.555 14.8983L354.643 5.74629ZM358.201 16.9463V5.74629H359.801V16.9463H358.201ZM363.234 16.9463V5.74629H367.954C371.554 5.74629 374.002 8.01829 374.002 11.3463C374.002 14.6743 371.554 16.9463 367.954 16.9463H363.234ZM364.834 15.5543H367.858C370.626 15.5543 372.402 13.8583 372.402 11.3463C372.402 8.83429 370.626 7.13829 367.858 7.13829H364.834V15.5543ZM376.533 16.9463V5.74629H378.133V16.9463H376.533ZM383.79 16.9463V7.13829H379.95V5.74629H389.214V7.13829H385.374V16.9463H383.79ZM399.068 5.74629H400.668V16.9463H399.068V11.9543H392.636V16.9463H391.036V5.74629H392.636V10.5623H399.068V5.74629Z" fill="white"/>
<rect width="255" height="20" transform="translate(678.5 0.946289)" fill="black"/>
<path d="M780.451 14.9303V11.2823H781.987V15.6503C780.867 16.5943 779.315 17.0743 777.747 17.0743C774.307 17.0743 771.779 14.6583 771.779 11.3463C771.779 8.03429 774.307 5.61829 777.779 5.61829C779.555 5.61829 781.059 6.21029 782.083 7.34629L781.091 8.33829C780.163 7.44229 779.107 7.04229 777.843 7.04229C775.251 7.04229 773.379 8.85029 773.379 11.3463C773.379 13.8103 775.251 15.6503 777.827 15.6503C778.771 15.6503 779.651 15.4423 780.451 14.9303ZM794.362 16.9463H792.618L790.202 13.5063C789.978 13.5223 789.738 13.5383 789.498 13.5383H786.73V16.9463H785.13V5.74629H789.498C792.41 5.74629 794.17 7.21829 794.17 9.65029C794.17 11.3783 793.274 12.6263 791.706 13.1863L794.362 16.9463ZM789.45 12.1783C791.498 12.1783 792.57 11.2503 792.57 9.65029C792.57 8.05029 791.498 7.13829 789.45 7.13829H786.73V12.1783H789.45ZM805.203 16.9463L803.971 14.1463H798.019L796.787 16.9463H795.139L800.211 5.74629H801.795L806.883 16.9463H805.203ZM798.579 12.8663H803.411L800.995 7.37829L798.579 12.8663ZM808.634 16.9463V5.74629H813.354C816.954 5.74629 819.402 8.01829 819.402 11.3463C819.402 14.6743 816.954 16.9463 813.354 16.9463H808.634ZM810.234 15.5543H813.258C816.026 15.5543 817.802 13.8583 817.802 11.3463C817.802 8.83429 816.026 7.13829 813.258 7.13829H810.234V15.5543ZM823.533 15.5543H830.061V16.9463H821.933V5.74629H829.837V7.13829H823.533V10.5783H829.149V11.9383H823.533V15.5543ZM835.996 17.0743C834.284 17.0743 832.604 16.4983 831.708 15.6663L832.3 14.4183C833.132 15.1703 834.556 15.7143 835.996 15.7143C837.932 15.7143 838.764 14.9623 838.764 13.9863C838.764 11.2503 831.98 12.9783 831.98 8.81829C831.98 7.09029 833.324 5.61829 836.268 5.61829C837.58 5.61829 838.94 5.97029 839.868 6.61029L839.34 7.89029C838.364 7.26629 837.26 6.97829 836.268 6.97829C834.364 6.97829 833.548 7.77829 833.548 8.75429C833.548 11.4903 840.332 9.77829 840.332 13.8903C840.332 15.6023 838.956 17.0743 835.996 17.0743Z" fill="white"/>
<path d="M0.5 65.9463H125.5" stroke="black"/>
<path d="M3.6685 86.5543H9.4125V87.9463H1.3645V86.8583L5.9245 82.4583C7.1085 81.3063 7.3325 80.6023 7.3325 79.8983C7.3325 78.7463 6.5165 78.0423 4.9485 78.0423C3.7485 78.0423 2.7725 78.4263 2.0845 79.2583L0.9965 78.3143C1.8605 77.2423 3.3485 76.6183 5.0925 76.6183C7.4285 76.6183 8.9325 77.8183 8.9325 79.7383C8.9325 80.8263 8.6125 81.8023 7.0925 83.2583L3.6685 86.5543ZM14.008 81.2103C17.352 81.2103 18.664 82.6023 18.664 84.5863C18.664 86.5223 17.288 88.0743 14.424 88.0743C12.84 88.0743 11.272 87.5623 10.312 86.7143L11.048 85.4503C11.8 86.1543 13.048 86.6503 14.408 86.6503C16.104 86.6503 17.064 85.8663 17.064 84.6503C17.064 83.3863 16.264 82.6023 13.672 82.6023H11.128L11.72 76.7463H18.04V78.1383H13.064L12.76 81.2103H14.008Z" fill="black"/>
<path d="M0.5 97.9463H125.5" stroke="black"/>
<path d="M5.88319 113.45C8.12319 113.658 9.25919 114.922 9.25919 116.65C9.25919 118.538 7.86719 120.074 5.01919 120.074C3.41919 120.074 1.85119 119.562 0.907188 118.714L1.64319 117.45C2.39519 118.154 3.64319 118.65 5.01919 118.65C6.69919 118.65 7.65919 117.882 7.65919 116.666C7.65919 115.482 6.81119 114.714 4.89119 114.714H3.99519V113.594L6.81119 110.138H1.41919V108.746H8.81119V109.834L5.88319 113.45ZM12.8813 118.554H18.6253V119.946H10.5773V118.858L15.1373 114.458C16.3213 113.306 16.5453 112.602 16.5453 111.898C16.5453 110.746 15.7293 110.042 14.1613 110.042C12.9613 110.042 11.9853 110.426 11.2973 111.258L10.2093 110.314C11.0733 109.242 12.5613 108.618 14.3053 108.618C16.6413 108.618 18.1453 109.818 18.1453 111.738C18.1453 112.826 17.8253 113.802 16.3053 115.258L12.8813 118.554Z" fill="black"/>
<path d="M0.5 129.946H125.5" stroke="black"/>
<path d="M5.78944 145.45C8.02944 145.658 9.16544 146.922 9.16544 148.65C9.16544 150.538 7.77344 152.074 4.92544 152.074C3.32544 152.074 1.75744 151.562 0.813438 150.714L1.54944 149.45C2.30144 150.154 3.54944 150.65 4.92544 150.65C6.60544 150.65 7.56544 149.882 7.56544 148.666C7.56544 147.482 6.71744 146.714 4.79744 146.714H3.90144V145.594L6.71744 142.138H1.32544V140.746H8.71744V141.834L5.78944 145.45ZM17.5857 146.074C18.8657 146.57 19.5697 147.498 19.5697 148.778C19.5697 150.81 17.8417 152.074 15.1057 152.074C12.3857 152.074 10.6737 150.81 10.6737 148.778C10.6737 147.498 11.3777 146.554 12.6417 146.074C11.6177 145.594 11.0737 144.762 11.0737 143.658C11.0737 141.786 12.6897 140.618 15.1057 140.618C17.5377 140.618 19.1697 141.786 19.1697 143.658C19.1697 144.762 18.6097 145.594 17.5857 146.074ZM15.1057 141.914C13.6017 141.914 12.6577 142.602 12.6577 143.722C12.6577 144.826 13.5697 145.514 15.1057 145.514C16.6577 145.514 17.6017 144.826 17.6017 143.722C17.6017 142.602 16.6097 141.914 15.1057 141.914ZM15.1057 150.778C16.8817 150.778 17.9697 149.994 17.9697 148.73C17.9697 147.498 16.8817 146.73 15.1057 146.73C13.3297 146.73 12.2737 147.498 12.2737 148.73C12.2737 149.994 13.3297 150.778 15.1057 150.778Z" fill="black"/>
<path d="M0.5 161.946H125.5" stroke="black"/>
<path d="M4.49831 177.21C7.84231 177.21 9.15431 178.602 9.15431 180.586C9.15431 182.522 7.77831 184.074 4.91431 184.074C3.33031 184.074 1.76231 183.562 0.802313 182.714L1.53831 181.45C2.29031 182.154 3.53831 182.65 4.89831 182.65C6.59431 182.65 7.55431 181.866 7.55431 180.65C7.55431 179.386 6.75431 178.602 4.16231 178.602H1.61831L2.21031 172.746H8.53031V174.138H3.55431L3.25031 177.21H4.49831ZM15.1418 184.074C12.5178 184.074 10.5658 181.994 10.5658 178.346C10.5658 174.698 12.5178 172.618 15.1418 172.618C17.7498 172.618 19.7018 174.698 19.7018 178.346C19.7018 181.994 17.7498 184.074 15.1418 184.074ZM15.1418 182.65C16.8858 182.65 18.1018 181.21 18.1018 178.346C18.1018 175.482 16.8858 174.042 15.1418 174.042C13.3818 174.042 12.1658 175.482 12.1658 178.346C12.1658 181.21 13.3818 182.65 15.1418 182.65Z" fill="black"/>
<path d="M0.5 193.946H125.5" stroke="black"/>
<path d="M6.54438 209.146C8.76838 209.146 10.3844 210.474 10.3844 212.538C10.3844 214.698 8.64038 216.074 6.41638 216.074C3.40838 216.074 1.71238 214.058 1.71238 210.49C1.71238 206.666 3.87238 204.618 7.00838 204.618C8.06438 204.618 9.07238 204.826 9.79238 205.274L9.18438 206.522C8.60838 206.138 7.84038 205.994 7.04038 205.994C4.76838 205.994 3.31238 207.418 3.31238 210.218C3.31238 210.346 3.31238 210.474 3.32838 210.618C3.96838 209.658 5.15238 209.146 6.54438 209.146ZM6.35238 214.778C7.80838 214.778 8.83238 213.93 8.83238 212.602C8.83238 211.29 7.84038 210.442 6.27238 210.442C4.75238 210.442 3.69638 211.386 3.69638 212.618C3.69638 213.77 4.62438 214.778 6.35238 214.778ZM15.9554 209.45C18.1954 209.658 19.3314 210.922 19.3314 212.65C19.3314 214.538 17.9394 216.074 15.0914 216.074C13.4914 216.074 11.9234 215.562 10.9794 214.714L11.7154 213.45C12.4674 214.154 13.7154 214.65 15.0914 214.65C16.7714 214.65 17.7314 213.882 17.7314 212.666C17.7314 211.482 16.8834 210.714 14.9634 210.714H14.0674V209.594L16.8834 206.138H11.4914V204.746H18.8834V205.834L15.9554 209.45Z" fill="black"/>
<path d="M0.5 225.946H125.5" stroke="black"/>
<path d="M1.20563 236.746H9.65363V237.834L5.12563 247.946H3.42963L7.86163 238.138H2.74163V240.138H1.20563V236.746ZM14.0549 241.21C17.3989 241.21 18.7109 242.602 18.7109 244.586C18.7109 246.522 17.3349 248.074 14.4709 248.074C12.8869 248.074 11.3189 247.562 10.3589 246.714L11.0949 245.45C11.8469 246.154 13.0949 246.65 14.4549 246.65C16.1509 246.65 17.1109 245.866 17.1109 244.65C17.1109 243.386 16.3109 242.602 13.7189 242.602H11.1749L11.7669 236.746H18.0869V238.138H13.1109L12.8069 241.21H14.0549Z" fill="black"/>
<path d="M0.5 257.946H125.5" stroke="black"/>
<path d="M0.915188 268.746H5.02719V279.946H3.44319V270.138H0.915188V268.746ZM12.1331 280.074C9.50906 280.074 7.55706 277.994 7.55706 274.346C7.55706 270.698 9.50906 268.618 12.1331 268.618C14.7411 268.618 16.6931 270.698 16.6931 274.346C16.6931 277.994 14.7411 280.074 12.1331 280.074ZM12.1331 278.65C13.8771 278.65 15.0931 277.21 15.0931 274.346C15.0931 271.482 13.8771 270.042 12.1331 270.042C10.3731 270.042 9.15706 271.482 9.15706 274.346C9.15706 277.21 10.3731 278.65 12.1331 278.65ZM22.8849 280.074C20.2609 280.074 18.3089 277.994 18.3089 274.346C18.3089 270.698 20.2609 268.618 22.8849 268.618C25.4929 268.618 27.4449 270.698 27.4449 274.346C27.4449 277.994 25.4929 280.074 22.8849 280.074ZM22.8849 278.65C24.6289 278.65 25.8449 277.21 25.8449 274.346C25.8449 271.482 24.6289 270.042 22.8849 270.042C21.1249 270.042 19.9089 271.482 19.9089 274.346C19.9089 277.21 21.1249 278.65 22.8849 278.65Z" fill="black"/>
<path d="M0.5 289.946H125.5" stroke="black"/>
<path d="M165.915 33.7463H170.027V44.9463H168.443V35.1383H165.915V33.7463ZM177.133 45.0743C174.509 45.0743 172.557 42.9943 172.557 39.3463C172.557 35.6983 174.509 33.6183 177.133 33.6183C179.741 33.6183 181.693 35.6983 181.693 39.3463C181.693 42.9943 179.741 45.0743 177.133 45.0743ZM177.133 43.6503C178.877 43.6503 180.093 42.2103 180.093 39.3463C180.093 36.4823 178.877 35.0423 177.133 35.0423C175.373 35.0423 174.157 36.4823 174.157 39.3463C174.157 42.2103 175.373 43.6503 177.133 43.6503ZM187.885 45.0743C185.261 45.0743 183.309 42.9943 183.309 39.3463C183.309 35.6983 185.261 33.6183 187.885 33.6183C190.493 33.6183 192.445 35.6983 192.445 39.3463C192.445 42.9943 190.493 45.0743 187.885 45.0743ZM187.885 43.6503C189.629 43.6503 190.845 42.2103 190.845 39.3463C190.845 36.4823 189.629 35.0423 187.885 35.0423C186.125 35.0423 184.909 36.4823 184.909 39.3463C184.909 42.2103 186.125 43.6503 187.885 43.6503Z" fill="black"/>
<path d="M165.5 65.9463H253.5" stroke="black"/>
<g clip-path="url(#clip0_1329_18858)">
<rect width="20" height="20" transform="translate(165.5 71.9463)" fill="white"/>
<path d="M181.531 74.9463L172.625 83.9463L168.469 79.7463L165.5 82.7463L172.625 89.9463L184.5 77.9463L181.531 74.9463Z" fill="black"/>
</g>
<path d="M165.5 97.9463H253.5" stroke="black"/>
<g clip-path="url(#clip1_1329_18858)">
<rect width="20" height="20" transform="translate(165.5 103.946)" fill="white"/>
<path d="M181.531 106.946L172.625 115.946L168.469 111.746L165.5 114.746L172.625 121.946L184.5 109.946L181.531 106.946Z" fill="black"/>
</g>
<path d="M165.5 129.946H253.5" stroke="black"/>
<g clip-path="url(#clip2_1329_18858)">
<rect width="20" height="20" transform="translate(165.5 135.946)" fill="white"/>
<path d="M181.531 138.946L172.625 147.946L168.469 143.746L165.5 146.746L172.625 153.946L184.5 141.946L181.531 138.946Z" fill="black"/>
</g>
<path d="M165.5 161.946H253.5" stroke="black"/>
<g clip-path="url(#clip3_1329_18858)">
<rect width="20" height="20" transform="translate(165.5 167.946)" fill="white"/>
<path d="M181.531 170.946L172.625 179.946L168.469 175.746L165.5 178.746L172.625 185.946L184.5 173.946L181.531 170.946Z" fill="black"/>
</g>
<path d="M165.5 193.946H253.5" stroke="black"/>
<g clip-path="url(#clip4_1329_18858)">
<rect width="20" height="20" transform="translate(165.5 199.946)" fill="white"/>
<path d="M181.531 202.946L172.625 211.946L168.469 207.746L165.5 210.746L172.625 217.946L184.5 205.946L181.531 202.946Z" fill="black"/>
</g>
<path d="M197.893 205.994L195.989 207.05L197.893 208.122L197.397 209.002L195.461 207.866L195.477 210.042H194.517L194.533 207.866L192.597 209.002L192.101 208.122L194.021 207.05L192.101 205.994L192.597 205.098L194.533 206.234L194.517 204.074H195.477L195.461 206.234L197.397 205.098L197.893 205.994Z" fill="black"/>
<path d="M165.5 225.946H253.5" stroke="black"/>
<g clip-path="url(#clip5_1329_18858)">
<rect width="20" height="20" transform="translate(165.5 231.946)" fill="white"/>
<path d="M181.531 234.946L172.625 243.946L168.469 239.746L165.5 242.746L172.625 249.946L184.5 237.946L181.531 234.946Z" fill="black"/>
</g>
<path d="M197.893 237.994L195.989 239.05L197.893 240.122L197.397 241.002L195.461 239.866L195.477 242.042H194.517L194.533 239.866L192.597 241.002L192.101 240.122L194.021 239.05L192.101 237.994L192.597 237.098L194.533 238.234L194.517 236.074H195.477L195.461 238.234L197.397 237.098L197.893 237.994Z" fill="black"/>
<path d="M165.5 257.946H253.5" stroke="black"/>
<rect width="20" height="20" transform="translate(165.5 263.946)" fill="white"/>
<path d="M165.5 289.946H253.5" stroke="black"/>
<path d="M293.9 33.7463H298.012V44.9463H296.428V35.1383H293.9V33.7463ZM302.669 43.5543H308.413V44.9463H300.365V43.8583L304.925 39.4583C306.109 38.3063 306.333 37.6023 306.333 36.8983C306.333 35.7463 305.517 35.0423 303.949 35.0423C302.749 35.0423 301.773 35.4263 301.085 36.2583L299.997 35.3143C300.861 34.2423 302.349 33.6183 304.093 33.6183C306.429 33.6183 307.933 34.8183 307.933 36.7383C307.933 37.8263 307.613 38.8023 306.093 40.2583L302.669 43.5543ZM313.009 38.2103C316.353 38.2103 317.665 39.6023 317.665 41.5863C317.665 43.5223 316.289 45.0743 313.425 45.0743C311.841 45.0743 310.273 44.5623 309.313 43.7143L310.049 42.4503C310.801 43.1543 312.049 43.6503 313.409 43.6503C315.105 43.6503 316.065 42.8663 316.065 41.6503C316.065 40.3863 315.265 39.6023 312.673 39.6023H310.129L310.721 33.7463H317.041V35.1383H312.065L311.761 38.2103H313.009Z" fill="black"/>
<path d="M293.5 65.9463H381.5" stroke="black"/>
<g clip-path="url(#clip6_1329_18858)">
<rect width="20" height="20" transform="translate(293.5 71.9463)" fill="white"/>
<path d="M309.531 74.9463L300.625 83.9463L296.469 79.7463L293.5 82.7463L300.625 89.9463L312.5 77.9463L309.531 74.9463Z" fill="black"/>
</g>
<path d="M293.5 97.9463H381.5" stroke="black"/>
<g clip-path="url(#clip7_1329_18858)">
<rect width="20" height="20" transform="translate(293.5 103.946)" fill="white"/>
<path d="M309.531 106.946L300.625 115.946L296.469 111.746L293.5 114.746L300.625 121.946L312.5 109.946L309.531 106.946Z" fill="black"/>
</g>
<path d="M293.5 129.946H381.5" stroke="black"/>
<g clip-path="url(#clip8_1329_18858)">
<rect width="20" height="20" transform="translate(293.5 135.946)" fill="white"/>
<path d="M309.531 138.946L300.625 147.946L296.469 143.746L293.5 146.746L300.625 153.946L312.5 141.946L309.531 138.946Z" fill="black"/>
</g>
<path d="M293.5 161.946H381.5" stroke="black"/>
<g clip-path="url(#clip9_1329_18858)">
<rect width="20" height="20" transform="translate(293.5 167.946)" fill="white"/>
<path d="M309.531 170.946L300.625 179.946L296.469 175.746L293.5 178.746L300.625 185.946L312.5 173.946L309.531 170.946Z" fill="black"/>
</g>
<path d="M293.5 193.946H381.5" stroke="black"/>
<g clip-path="url(#clip10_1329_18858)">
<rect width="20" height="20" transform="translate(293.5 199.946)" fill="white"/>
<path d="M309.531 202.946L300.625 211.946L296.469 207.746L293.5 210.746L300.625 217.946L312.5 205.946L309.531 202.946Z" fill="black"/>
</g>
<path d="M325.893 205.994L323.989 207.05L325.893 208.122L325.397 209.002L323.461 207.866L323.477 210.042H322.517L322.533 207.866L320.597 209.002L320.101 208.122L322.021 207.05L320.101 205.994L320.597 205.098L322.533 206.234L322.517 204.074H323.477L323.461 206.234L325.397 205.098L325.893 205.994Z" fill="black"/>
<path d="M293.5 225.946H381.5" stroke="black"/>
<g clip-path="url(#clip11_1329_18858)">
<rect width="20" height="20" transform="translate(293.5 231.946)" fill="white"/>
<path d="M309.531 234.946L300.625 243.946L296.469 239.746L293.5 242.746L300.625 249.946L312.5 237.946L309.531 234.946Z" fill="black"/>
</g>
<path d="M325.893 237.994L323.989 239.05L325.893 240.122L325.397 241.002L323.461 239.866L323.477 242.042H322.517L322.533 239.866L320.597 241.002L320.101 240.122L322.021 239.05L320.101 237.994L320.597 237.098L322.533 238.234L322.517 236.074H323.477L323.461 238.234L325.397 237.098L325.893 237.994Z" fill="black"/>
<path d="M293.5 257.946H381.5" stroke="black"/>
<g clip-path="url(#clip12_1329_18858)">
<rect width="20" height="20" transform="translate(293.5 263.946)" fill="white"/>
<path d="M309.531 266.946L300.625 275.946L296.469 271.746L293.5 274.746L300.625 281.946L312.5 269.946L309.531 266.946Z" fill="black"/>
</g>
<path d="M325.893 269.994L323.989 271.05L325.893 272.122L325.397 273.002L323.461 271.866L323.477 274.042H322.517L322.533 271.866L320.597 273.002L320.101 272.122L322.021 271.05L320.101 269.994L320.597 269.098L322.533 270.234L322.517 268.074H323.477L323.461 270.234L325.397 269.098L325.893 269.994Z" fill="black"/>
<path d="M338.893 269.994L336.989 271.05L338.893 272.122L338.397 273.002L336.461 271.866L336.477 274.042H335.517L335.533 271.866L333.597 273.002L333.101 272.122L335.021 271.05L333.101 269.994L333.597 269.098L335.533 270.234L335.517 268.074H336.477L336.461 270.234L338.397 269.098L338.893 269.994Z" fill="black"/>
<path d="M293.5 289.946H381.5" stroke="black"/>
<path d="M421.657 33.7463H425.769V44.9463H424.185V35.1383H421.657V33.7463ZM431.499 38.2103C434.843 38.2103 436.155 39.6023 436.155 41.5863C436.155 43.5223 434.779 45.0743 431.915 45.0743C430.331 45.0743 428.763 44.5623 427.803 43.7143L428.539 42.4503C429.291 43.1543 430.539 43.6503 431.899 43.6503C433.595 43.6503 434.555 42.8663 434.555 41.6503C434.555 40.3863 433.755 39.6023 431.163 39.6023H428.619L429.211 33.7463H435.531V35.1383H430.555L430.251 38.2103H431.499ZM442.143 45.0743C439.519 45.0743 437.567 42.9943 437.567 39.3463C437.567 35.6983 439.519 33.6183 442.143 33.6183C444.751 33.6183 446.703 35.6983 446.703 39.3463C446.703 42.9943 444.751 45.0743 442.143 45.0743ZM442.143 43.6503C443.887 43.6503 445.103 42.2103 445.103 39.3463C445.103 36.4823 443.887 35.0423 442.143 35.0423C440.383 35.0423 439.167 36.4823 439.167 39.3463C439.167 42.2103 440.383 43.6503 442.143 43.6503Z" fill="black"/>
<path d="M421.5 65.9463H509.5" stroke="black"/>
<g clip-path="url(#clip13_1329_18858)">
<rect width="20" height="20" transform="translate(421.5 71.9463)" fill="white"/>
<path d="M437.531 74.9463L428.625 83.9463L424.469 79.7463L421.5 82.7463L428.625 89.9463L440.5 77.9463L437.531 74.9463Z" fill="black"/>
</g>
<path d="M421.5 97.9463H509.5" stroke="black"/>
<g clip-path="url(#clip14_1329_18858)">
<rect width="20" height="20" transform="translate(421.5 103.946)" fill="white"/>
<path d="M437.531 106.946L428.625 115.946L424.469 111.746L421.5 114.746L428.625 121.946L440.5 109.946L437.531 106.946Z" fill="black"/>
</g>
<path d="M421.5 129.946H509.5" stroke="black"/>
<g clip-path="url(#clip15_1329_18858)">
<rect width="20" height="20" transform="translate(421.5 135.946)" fill="white"/>
<path d="M437.531 138.946L428.625 147.946L424.469 143.746L421.5 146.746L428.625 153.946L440.5 141.946L437.531 138.946Z" fill="black"/>
</g>
<path d="M421.5 161.946H509.5" stroke="black"/>
<g clip-path="url(#clip16_1329_18858)">
<rect width="20" height="20" transform="translate(421.5 167.946)" fill="white"/>
<path d="M437.531 170.946L428.625 179.946L424.469 175.746L421.5 178.746L428.625 185.946L440.5 173.946L437.531 170.946Z" fill="black"/>
</g>
<path d="M453.893 173.994L451.989 175.05L453.893 176.122L453.397 177.002L451.461 175.866L451.477 178.042H450.517L450.533 175.866L448.597 177.002L448.101 176.122L450.021 175.05L448.101 173.994L448.597 173.098L450.533 174.234L450.517 172.074H451.477L451.461 174.234L453.397 173.098L453.893 173.994Z" fill="black"/>
<path d="M421.5 193.946H509.5" stroke="black"/>
<g clip-path="url(#clip17_1329_18858)">
<rect width="20" height="20" transform="translate(421.5 199.946)" fill="white"/>
<path d="M437.531 202.946L428.625 211.946L424.469 207.746L421.5 210.746L428.625 217.946L440.5 205.946L437.531 202.946Z" fill="black"/>
</g>
<path d="M453.893 205.994L451.989 207.05L453.893 208.122L453.397 209.002L451.461 207.866L451.477 210.042H450.517L450.533 207.866L448.597 209.002L448.101 208.122L450.021 207.05L448.101 205.994L448.597 205.098L450.533 206.234L450.517 204.074H451.477L451.461 206.234L453.397 205.098L453.893 205.994Z" fill="black"/>
<path d="M421.5 225.946H509.5" stroke="black"/>
<g clip-path="url(#clip18_1329_18858)">
<rect width="20" height="20" transform="translate(421.5 231.946)" fill="white"/>
<path d="M437.531 234.946L428.625 243.946L424.469 239.746L421.5 242.746L428.625 249.946L440.5 237.946L437.531 234.946Z" fill="black"/>
</g>
<path d="M453.893 237.994L451.989 239.05L453.893 240.122L453.397 241.002L451.461 239.866L451.477 242.042H450.517L450.533 239.866L448.597 241.002L448.101 240.122L450.021 239.05L448.101 237.994L448.597 237.098L450.533 238.234L450.517 236.074H451.477L451.461 238.234L453.397 237.098L453.893 237.994Z" fill="black"/>
<path d="M421.5 257.946H509.5" stroke="black"/>
<g clip-path="url(#clip19_1329_18858)">
<rect width="20" height="20" transform="translate(421.5 263.946)" fill="white"/>
<path d="M437.531 266.946L428.625 275.946L424.469 271.746L421.5 274.746L428.625 281.946L440.5 269.946L437.531 266.946Z" fill="black"/>
</g>
<path d="M453.893 269.994L451.989 271.05L453.893 272.122L453.397 273.002L451.461 271.866L451.477 274.042H450.517L450.533 271.866L448.597 273.002L448.101 272.122L450.021 271.05L448.101 269.994L448.597 269.098L450.533 270.234L450.517 268.074H451.477L451.461 270.234L453.397 269.098L453.893 269.994Z" fill="black"/>
<path d="M466.893 269.994L464.989 271.05L466.893 272.122L466.397 273.002L464.461 271.866L464.477 274.042H463.517L463.533 271.866L461.597 273.002L461.101 272.122L463.021 271.05L461.101 269.994L461.597 269.098L463.533 270.234L463.517 268.074H464.477L464.461 270.234L466.397 269.098L466.893 269.994Z" fill="black"/>
<path d="M421.5 289.946H509.5" stroke="black"/>
<path d="M552.574 43.5543H558.318V44.9463H550.27V43.8583L554.83 39.4583C556.014 38.3063 556.238 37.6023 556.238 36.8983C556.238 35.7463 555.422 35.0423 553.854 35.0423C552.654 35.0423 551.678 35.4263 550.99 36.2583L549.902 35.3143C550.766 34.2423 552.254 33.6183 553.998 33.6183C556.334 33.6183 557.838 34.8183 557.838 36.7383C557.838 37.8263 557.518 38.8023 555.998 40.2583L552.574 43.5543ZM564.242 45.0743C561.618 45.0743 559.666 42.9943 559.666 39.3463C559.666 35.6983 561.618 33.6183 564.242 33.6183C566.85 33.6183 568.802 35.6983 568.802 39.3463C568.802 42.9943 566.85 45.0743 564.242 45.0743ZM564.242 43.6503C565.986 43.6503 567.202 42.2103 567.202 39.3463C567.202 36.4823 565.986 35.0423 564.242 35.0423C562.482 35.0423 561.266 36.4823 561.266 39.3463C561.266 42.2103 562.482 43.6503 564.242 43.6503ZM574.994 45.0743C572.37 45.0743 570.418 42.9943 570.418 39.3463C570.418 35.6983 572.37 33.6183 574.994 33.6183C577.602 33.6183 579.554 35.6983 579.554 39.3463C579.554 42.9943 577.602 45.0743 574.994 45.0743ZM574.994 43.6503C576.738 43.6503 577.954 42.2103 577.954 39.3463C577.954 36.4823 576.738 35.0423 574.994 35.0423C573.234 35.0423 572.018 36.4823 572.018 39.3463C572.018 42.2103 573.234 43.6503 574.994 43.6503Z" fill="black"/>
<path d="M549.5 65.9463H637.5" stroke="black"/>
<g clip-path="url(#clip20_1329_18858)">
<rect width="20" height="20" transform="translate(549.5 71.9463)" fill="white"/>
<path d="M565.531 74.9463L556.625 83.9463L552.469 79.7463L549.5 82.7463L556.625 89.9463L568.5 77.9463L565.531 74.9463Z" fill="black"/>
</g>
<path d="M549.5 97.9463H637.5" stroke="black"/>
<g clip-path="url(#clip21_1329_18858)">
<rect width="20" height="20" transform="translate(549.5 103.946)" fill="white"/>
<path d="M565.531 106.946L556.625 115.946L552.469 111.746L549.5 114.746L556.625 121.946L568.5 109.946L565.531 106.946Z" fill="black"/>
</g>
<path d="M549.5 129.946H637.5" stroke="black"/>
<g clip-path="url(#clip22_1329_18858)">
<rect width="20" height="20" transform="translate(549.5 135.946)" fill="white"/>
<path d="M565.531 138.946L556.625 147.946L552.469 143.746L549.5 146.746L556.625 153.946L568.5 141.946L565.531 138.946Z" fill="black"/>
</g>
<path d="M549.5 161.946H637.5" stroke="black"/>
<g clip-path="url(#clip23_1329_18858)">
<rect width="20" height="20" transform="translate(549.5 167.946)" fill="white"/>
<path d="M565.531 170.946L556.625 179.946L552.469 175.746L549.5 178.746L556.625 185.946L568.5 173.946L565.531 170.946Z" fill="black"/>
</g>
<path d="M549.5 193.946H637.5" stroke="black"/>
<g clip-path="url(#clip24_1329_18858)">
<rect width="20" height="20" transform="translate(549.5 199.946)" fill="white"/>
<path d="M565.531 202.946L556.625 211.946L552.469 207.746L549.5 210.746L556.625 217.946L568.5 205.946L565.531 202.946Z" fill="black"/>
</g>
<path d="M549.5 225.946H637.5" stroke="black"/>
<g clip-path="url(#clip25_1329_18858)">
<rect width="20" height="20" transform="translate(549.5 231.946)" fill="white"/>
<path d="M565.531 234.946L556.625 243.946L552.469 239.746L549.5 242.746L556.625 249.946L568.5 237.946L565.531 234.946Z" fill="black"/>
</g>
<path d="M549.5 257.946H637.5" stroke="black"/>
<rect width="20" height="20" transform="translate(549.5 263.946)" fill="white"/>
<path d="M549.5 289.946H637.5" stroke="black"/>
<path d="M677.5 65.9463H802.5" stroke="black"/>
<path d="M687.95 87.9463L686.718 85.1463H680.766L679.534 87.9463H677.886L682.958 76.7463H684.542L689.63 87.9463H687.95ZM681.326 83.8663H686.158L683.742 78.3783L681.326 83.8663ZM689.156 76.7463H693.268V87.9463H691.684V78.1383H689.156V76.7463ZM696.87 85.8503C697.478 85.8503 697.91 86.3143 697.91 86.9383C697.91 87.2583 697.846 87.4983 697.638 88.0903L696.886 90.3143H695.878L696.47 87.9303C696.07 87.7863 695.798 87.4183 695.798 86.9383C695.798 86.2983 696.262 85.8503 696.87 85.8503ZM713.16 87.9463L711.928 85.1463H705.976L704.744 87.9463H703.096L708.168 76.7463H709.752L714.84 87.9463H713.16ZM706.536 83.8663H711.368L708.952 78.3783L706.536 83.8663ZM717.807 86.5543H723.551V87.9463H715.503V86.8583L720.063 82.4583C721.247 81.3063 721.471 80.6023 721.471 79.8983C721.471 78.7463 720.655 78.0423 719.087 78.0423C717.887 78.0423 716.911 78.4263 716.223 79.2583L715.135 78.3143C715.999 77.2423 717.487 76.6183 719.231 76.6183C721.567 76.6183 723.071 77.8183 723.071 79.7383C723.071 80.8263 722.751 81.8023 721.231 83.2583L717.807 86.5543Z" fill="black"/>
<path d="M677.5 97.9463H802.5" stroke="black"/>
<path d="M687.95 119.946L686.718 117.146H680.766L679.534 119.946H677.886L682.958 108.746H684.542L689.63 119.946H687.95ZM681.326 115.866H686.158L683.742 110.378L681.326 115.866ZM689.156 108.746H693.268V119.946H691.684V110.138H689.156V108.746ZM696.87 117.85C697.478 117.85 697.91 118.314 697.91 118.938C697.91 119.258 697.846 119.498 697.638 120.09L696.886 122.314H695.878L696.47 119.93C696.07 119.786 695.798 119.418 695.798 118.938C695.798 118.298 696.262 117.85 696.87 117.85ZM713.16 119.946L711.928 117.146H705.976L704.744 119.946H703.096L708.168 108.746H709.752L714.84 119.946H713.16ZM706.536 115.866H711.368L708.952 110.378L706.536 115.866ZM717.807 118.554H723.551V119.946H715.503V118.858L720.063 114.458C721.247 113.306 721.471 112.602 721.471 111.898C721.471 110.746 720.655 110.042 719.087 110.042C717.887 110.042 716.911 110.426 716.223 111.258L715.135 110.314C715.999 109.242 717.487 108.618 719.231 108.618C721.567 108.618 723.071 109.818 723.071 111.738C723.071 112.826 722.751 113.802 721.231 115.258L717.807 118.554Z" fill="black"/>
<path d="M677.5 129.946H802.5" stroke="black"/>
<path d="M687.688 151.946L686.456 149.146H680.504L679.272 151.946H677.624L682.696 140.746H684.28L689.368 151.946H687.688ZM681.064 147.866H685.896L683.48 142.378L681.064 147.866ZM688.895 140.746H693.007V151.946H691.423V142.138H688.895V140.746ZM696.609 149.85C697.217 149.85 697.649 150.314 697.649 150.938C697.649 151.258 697.585 151.498 697.377 152.09L696.625 154.314H695.617L696.209 151.93C695.809 151.786 695.537 151.418 695.537 150.938C695.537 150.298 696.001 149.85 696.609 149.85ZM712.899 151.946L711.667 149.146H705.715L704.483 151.946H702.835L707.907 140.746H709.491L714.579 151.946H712.899ZM706.275 147.866H711.107L708.691 142.378L706.275 147.866ZM717.545 150.554H723.289V151.946H715.241V150.858L719.801 146.458C720.985 145.306 721.209 144.602 721.209 143.898C721.209 142.746 720.393 142.042 718.825 142.042C717.625 142.042 716.649 142.426 715.961 143.258L714.873 142.314C715.737 141.242 717.225 140.618 718.969 140.618C721.305 140.618 722.809 141.818 722.809 143.738C722.809 144.826 722.489 145.802 720.969 147.258L717.545 150.554ZM725.913 149.85C726.521 149.85 726.953 150.314 726.953 150.938C726.953 151.258 726.889 151.498 726.681 152.09L725.929 154.314H724.921L725.513 151.93C725.113 151.786 724.841 151.418 724.841 150.938C724.841 150.298 725.305 149.85 725.913 149.85ZM741.739 142.138H735.435V146.042H741.051V147.418H735.435V151.946H733.835V140.746H741.739V142.138ZM745.277 152.074C743.949 152.074 742.733 151.498 742.013 150.458L742.941 149.37C743.549 150.234 744.333 150.698 745.277 150.698C746.541 150.698 747.197 149.93 747.197 148.426V142.138H743.149V140.746H748.781V148.346C748.781 150.842 747.565 152.074 745.277 152.074Z" fill="black"/>
<path d="M677.5 161.946H802.5" stroke="black"/>
<path d="M687.688 183.946L686.456 181.146H680.504L679.272 183.946H677.624L682.696 172.746H684.28L689.368 183.946H687.688ZM681.064 179.866H685.896L683.48 174.378L681.064 179.866ZM688.895 172.746H693.007V183.946H691.423V174.138H688.895V172.746ZM696.609 181.85C697.217 181.85 697.649 182.314 697.649 182.938C697.649 183.258 697.585 183.498 697.377 184.09L696.625 186.314H695.617L696.209 183.93C695.809 183.786 695.537 183.418 695.537 182.938C695.537 182.298 696.001 181.85 696.609 181.85ZM712.899 183.946L711.667 181.146H705.715L704.483 183.946H702.835L707.907 172.746H709.491L714.579 183.946H712.899ZM706.275 179.866H711.107L708.691 174.378L706.275 179.866ZM717.545 182.554H723.289V183.946H715.241V182.858L719.801 178.458C720.985 177.306 721.209 176.602 721.209 175.898C721.209 174.746 720.393 174.042 718.825 174.042C717.625 174.042 716.649 174.426 715.961 175.258L714.873 174.314C715.737 173.242 717.225 172.618 718.969 172.618C721.305 172.618 722.809 173.818 722.809 175.738C722.809 176.826 722.489 177.802 720.969 179.258L717.545 182.554ZM725.913 181.85C726.521 181.85 726.953 182.314 726.953 182.938C726.953 183.258 726.889 183.498 726.681 184.09L725.929 186.314H724.921L725.513 183.93C725.113 183.786 724.841 183.418 724.841 182.938C724.841 182.298 725.305 181.85 725.913 181.85ZM741.739 174.138H735.435V178.042H741.051V179.418H735.435V183.946H733.835V172.746H741.739V174.138ZM745.277 184.074C743.949 184.074 742.733 183.498 742.013 182.458L742.941 181.37C743.549 182.234 744.333 182.698 745.277 182.698C746.541 182.698 747.197 181.93 747.197 180.426V174.138H743.149V172.746H748.781V180.346C748.781 182.842 747.565 184.074 745.277 184.074Z" fill="black"/>
<path d="M677.5 193.946H802.5" stroke="black"/>
<path d="M687.688 215.946L686.456 213.146H680.504L679.272 215.946H677.624L682.696 204.746H684.28L689.368 215.946H687.688ZM681.064 211.866H685.896L683.48 206.378L681.064 211.866ZM688.895 204.746H693.007V215.946H691.423V206.138H688.895V204.746ZM696.609 213.85C697.217 213.85 697.649 214.314 697.649 214.938C697.649 215.258 697.585 215.498 697.377 216.09L696.625 218.314H695.617L696.209 215.93C695.809 215.786 695.537 215.418 695.537 214.938C695.537 214.298 696.001 213.85 696.609 213.85ZM712.899 215.946L711.667 213.146H705.715L704.483 215.946H702.835L707.907 204.746H709.491L714.579 215.946H712.899ZM706.275 211.866H711.107L708.691 206.378L706.275 211.866ZM717.545 214.554H723.289V215.946H715.241V214.858L719.801 210.458C720.985 209.306 721.209 208.602 721.209 207.898C721.209 206.746 720.393 206.042 718.825 206.042C717.625 206.042 716.649 206.426 715.961 207.258L714.873 206.314C715.737 205.242 717.225 204.618 718.969 204.618C721.305 204.618 722.809 205.818 722.809 207.738C722.809 208.826 722.489 209.802 720.969 211.258L717.545 214.554ZM725.913 213.85C726.521 213.85 726.953 214.314 726.953 214.938C726.953 215.258 726.889 215.498 726.681 216.09L725.929 218.314H724.921L725.513 215.93C725.113 215.786 724.841 215.418 724.841 214.938C724.841 214.298 725.305 213.85 725.913 213.85ZM741.739 206.138H735.435V210.042H741.051V211.418H735.435V215.946H733.835V204.746H741.739V206.138ZM745.277 216.074C743.949 216.074 742.733 215.498 742.013 214.458L742.941 213.37C743.549 214.234 744.333 214.698 745.277 214.698C746.541 214.698 747.197 213.93 747.197 212.426V206.138H743.149V204.746H748.781V212.346C748.781 214.842 747.565 216.074 745.277 216.074Z" fill="black"/>
<path d="M677.5 225.946H802.5" stroke="black"/>
<path d="M687.688 247.946L686.456 245.146H680.504L679.272 247.946H677.624L682.696 236.746H684.28L689.368 247.946H687.688ZM681.064 243.866H685.896L683.48 238.378L681.064 243.866ZM688.895 236.746H693.007V247.946H691.423V238.138H688.895V236.746ZM696.609 245.85C697.217 245.85 697.649 246.314 697.649 246.938C697.649 247.258 697.585 247.498 697.377 248.09L696.625 250.314H695.617L696.209 247.93C695.809 247.786 695.537 247.418 695.537 246.938C695.537 246.298 696.001 245.85 696.609 245.85ZM712.899 247.946L711.667 245.146H705.715L704.483 247.946H702.835L707.907 236.746H709.491L714.579 247.946H712.899ZM706.275 243.866H711.107L708.691 238.378L706.275 243.866ZM717.545 246.554H723.289V247.946H715.241V246.858L719.801 242.458C720.985 241.306 721.209 240.602 721.209 239.898C721.209 238.746 720.393 238.042 718.825 238.042C717.625 238.042 716.649 238.426 715.961 239.258L714.873 238.314C715.737 237.242 717.225 236.618 718.969 236.618C721.305 236.618 722.809 237.818 722.809 239.738C722.809 240.826 722.489 241.802 720.969 243.258L717.545 246.554ZM725.913 245.85C726.521 245.85 726.953 246.314 726.953 246.938C726.953 247.258 726.889 247.498 726.681 248.09L725.929 250.314H724.921L725.513 247.93C725.113 247.786 724.841 247.418 724.841 246.938C724.841 246.298 725.305 245.85 725.913 245.85ZM741.739 238.138H735.435V242.042H741.051V243.418H735.435V247.946H733.835V236.746H741.739V238.138ZM745.277 248.074C743.949 248.074 742.733 247.498 742.013 246.458L742.941 245.37C743.549 246.234 744.333 246.698 745.277 246.698C746.541 246.698 747.197 245.93 747.197 244.426V238.138H743.149V236.746H748.781V244.346C748.781 246.842 747.565 248.074 745.277 248.074Z" fill="black"/>
<path d="M677.5 257.946H802.5" stroke="black"/>
<path d="M687.482 270.138H681.178V274.042H686.794V275.418H681.178V279.946H679.578V268.746H687.482V270.138ZM691.019 280.074C689.691 280.074 688.475 279.498 687.755 278.458L688.683 277.37C689.291 278.234 690.075 278.698 691.019 278.698C692.283 278.698 692.939 277.93 692.939 276.426V270.138H688.891V268.746H694.523V276.346C694.523 278.842 693.307 280.074 691.019 280.074Z" fill="black"/>
<path d="M677.5 289.946H802.5" stroke="black"/>
<path d="M7.02319 313.994L5.11919 315.05L7.02319 316.122L6.52719 317.002L4.59119 315.866L4.60719 318.042H3.64719L3.66319 315.866L1.72719 317.002L1.23119 316.122L3.15119 315.05L1.23119 313.994L1.72719 313.098L3.66319 314.234L3.64719 312.074H4.60719L4.59119 314.234L6.52719 313.098L7.02319 313.994ZM21.8383 323.946L20.6063 321.146H14.6543L13.4223 323.946H11.7743L16.8463 312.746H18.4303L23.5183 323.946H21.8383ZM15.2143 319.866H20.0463L17.6303 314.378L15.2143 319.866ZM25.0451 323.946V312.074H26.5811V323.946H25.0451ZM32.0258 324.042C30.6178 324.042 29.2258 323.61 28.5218 323.05L29.1618 321.834C29.8818 322.346 31.0338 322.714 32.1378 322.714C33.5618 322.714 34.1538 322.282 34.1538 321.562C34.1538 319.658 28.7938 321.306 28.7938 317.93C28.7938 316.41 30.1538 315.386 32.3298 315.386C33.4338 315.386 34.6818 315.674 35.4178 316.154L34.7618 317.37C33.9938 316.874 33.1458 316.698 32.3138 316.698C30.9698 316.698 30.3138 317.194 30.3138 317.866C30.3138 319.866 35.6898 318.234 35.6898 321.53C35.6898 323.066 34.2818 324.042 32.0258 324.042ZM41.3214 324.042C38.7774 324.042 36.9054 322.234 36.9054 319.706C36.9054 317.178 38.7774 315.386 41.3214 315.386C43.8654 315.386 45.7214 317.178 45.7214 319.706C45.7214 322.234 43.8654 324.042 41.3214 324.042ZM41.3214 322.698C42.9534 322.698 44.1694 321.514 44.1694 319.706C44.1694 317.898 42.9534 316.73 41.3214 316.73C39.6894 316.73 38.4574 317.898 38.4574 319.706C38.4574 321.514 39.6894 322.698 41.3214 322.698ZM56.7986 315.386C59.2786 315.386 61.0866 317.114 61.0866 319.706C61.0866 322.314 59.2786 324.042 56.7986 324.042C55.5986 324.042 54.5426 323.578 53.8386 322.666V327.05H52.3026V315.466H53.7746V316.81C54.4626 315.866 55.5506 315.386 56.7986 315.386ZM56.6706 322.698C58.3026 322.698 59.5346 321.514 59.5346 319.706C59.5346 317.914 58.3026 316.73 56.6706 316.73C55.0546 316.73 53.8226 317.914 53.8226 319.706C53.8226 321.514 55.0546 322.698 56.6706 322.698ZM66.9208 324.042C64.3768 324.042 62.5048 322.234 62.5048 319.706C62.5048 317.178 64.3768 315.386 66.9208 315.386C69.4648 315.386 71.3208 317.178 71.3208 319.706C71.3208 322.234 69.4648 324.042 66.9208 324.042ZM66.9208 322.698C68.5528 322.698 69.7688 321.514 69.7688 319.706C69.7688 317.898 68.5528 316.73 66.9208 316.73C65.2888 316.73 64.0568 317.898 64.0568 319.706C64.0568 321.514 65.2888 322.698 66.9208 322.698ZM75.9571 324.042C74.5491 324.042 73.1571 323.61 72.4531 323.05L73.0931 321.834C73.8131 322.346 74.9651 322.714 76.0691 322.714C77.4931 322.714 78.0851 322.282 78.0851 321.562C78.0851 319.658 72.7251 321.306 72.7251 317.93C72.7251 316.41 74.0851 315.386 76.2611 315.386C77.3651 315.386 78.6131 315.674 79.3491 316.154L78.6931 317.37C77.9251 316.874 77.0771 316.698 76.2451 316.698C74.9011 316.698 74.2451 317.194 74.2451 317.866C74.2451 319.866 79.6211 318.234 79.6211 321.53C79.6211 323.066 78.2131 324.042 75.9571 324.042ZM84.0527 324.042C82.6447 324.042 81.2527 323.61 80.5487 323.05L81.1887 321.834C81.9087 322.346 83.0607 322.714 84.1647 322.714C85.5887 322.714 86.1807 322.282 86.1807 321.562C86.1807 319.658 80.8207 321.306 80.8207 317.93C80.8207 316.41 82.1807 315.386 84.3567 315.386C85.4607 315.386 86.7087 315.674 87.4447 316.154L86.7887 317.37C86.0207 316.874 85.1727 316.698 84.3407 316.698C82.9967 316.698 82.3407 317.194 82.3407 317.866C82.3407 319.866 87.7167 318.234 87.7167 321.53C87.7167 323.066 86.3087 324.042 84.0527 324.042ZM90.4843 313.834C89.8923 313.834 89.4443 313.402 89.4443 312.842C89.4443 312.282 89.8923 311.834 90.4843 311.834C91.0763 311.834 91.5243 312.266 91.5243 312.81C91.5243 313.386 91.0923 313.834 90.4843 313.834ZM89.7163 323.946V315.466H91.2523V323.946H89.7163ZM98.7611 315.386C101.241 315.386 103.049 317.114 103.049 319.706C103.049 322.298 101.241 324.042 98.7611 324.042C97.5131 324.042 96.4251 323.562 95.7371 322.602V323.946H94.2651V312.074H95.8011V316.746C96.5051 315.834 97.5611 315.386 98.7611 315.386ZM98.6331 322.698C100.265 322.698 101.497 321.514 101.497 319.706C101.497 317.898 100.265 316.73 98.6331 316.73C97.0171 316.73 95.7851 317.898 95.7851 319.706C95.7851 321.514 97.0171 322.698 98.6331 322.698ZM105.251 323.946V312.074H106.787V323.946H105.251ZM117.464 319.754C117.464 319.882 117.448 320.074 117.432 320.218H110.552C110.744 321.706 111.944 322.698 113.624 322.698C114.616 322.698 115.448 322.362 116.072 321.674L116.92 322.666C116.152 323.562 114.984 324.042 113.576 324.042C110.84 324.042 109.016 322.234 109.016 319.706C109.016 317.194 110.824 315.386 113.272 315.386C115.72 315.386 117.464 317.146 117.464 319.754ZM113.272 316.682C111.8 316.682 110.712 317.674 110.552 319.114H115.992C115.832 317.69 114.76 316.682 113.272 316.682ZM124.822 313.834C124.23 313.834 123.782 313.402 123.782 312.842C123.782 312.282 124.23 311.834 124.822 311.834C125.414 311.834 125.862 312.266 125.862 312.81C125.862 313.386 125.43 313.834 124.822 313.834ZM124.054 323.946V315.466H125.59V323.946H124.054ZM133.131 315.386C135.195 315.386 136.651 316.57 136.651 319.066V323.946H135.115V319.242C135.115 317.578 134.283 316.762 132.827 316.762C131.195 316.762 130.139 317.738 130.139 319.578V323.946H128.603V315.466H130.075V316.746C130.699 315.882 131.787 315.386 133.131 315.386ZM152.078 314.138H145.774V318.042H151.39V319.418H145.774V323.946H144.174V312.746H152.078V314.138ZM154.798 313.834C154.206 313.834 153.758 313.402 153.758 312.842C153.758 312.282 154.206 311.834 154.798 311.834C155.39 311.834 155.838 312.266 155.838 312.81C155.838 313.386 155.406 313.834 154.798 313.834ZM154.03 323.946V315.466H155.566V323.946H154.03ZM163.107 315.386C165.171 315.386 166.627 316.57 166.627 319.066V323.946H165.091V319.242C165.091 317.578 164.259 316.762 162.803 316.762C161.171 316.762 160.115 317.738 160.115 319.578V323.946H158.579V315.466H160.051V316.746C160.675 315.882 161.763 315.386 163.107 315.386ZM176.252 315.466H177.708V322.794C177.708 325.786 176.188 327.146 173.308 327.146C171.756 327.146 170.188 326.714 169.26 325.882L169.996 324.698C170.78 325.37 172.012 325.802 173.26 325.802C175.26 325.802 176.172 324.874 176.172 322.954V322.282C175.436 323.162 174.332 323.594 173.116 323.594C170.668 323.594 168.812 321.93 168.812 319.482C168.812 317.034 170.668 315.386 173.116 315.386C174.38 315.386 175.532 315.85 176.252 316.778V315.466ZM173.292 322.25C174.988 322.25 176.204 321.114 176.204 319.482C176.204 317.834 174.988 316.73 173.292 316.73C171.58 316.73 170.364 317.834 170.364 319.482C170.364 321.114 171.58 322.25 173.292 322.25ZM188.387 319.754C188.387 319.882 188.371 320.074 188.355 320.218H181.475C181.667 321.706 182.867 322.698 184.547 322.698C185.539 322.698 186.371 322.362 186.995 321.674L187.843 322.666C187.075 323.562 185.907 324.042 184.499 324.042C181.763 324.042 179.939 322.234 179.939 319.706C179.939 317.194 181.747 315.386 184.195 315.386C186.643 315.386 188.387 317.146 188.387 319.754ZM184.195 316.682C182.723 316.682 181.635 317.674 181.475 319.114H186.915C186.755 317.69 185.683 316.682 184.195 316.682ZM192.072 316.89C192.616 315.898 193.672 315.386 195.16 315.386V316.874C195.032 316.858 194.92 316.858 194.808 316.858C193.16 316.858 192.136 317.866 192.136 319.722V323.946H190.6V315.466H192.072V316.89ZM203.283 324.074C201.955 324.074 200.739 323.498 200.019 322.458L200.947 321.37C201.555 322.234 202.339 322.698 203.283 322.698C204.547 322.698 205.203 321.93 205.203 320.426V314.138H201.155V312.746H206.787V320.346C206.787 322.842 205.571 324.074 203.283 324.074ZM213.535 324.042C210.991 324.042 209.119 322.234 209.119 319.706C209.119 317.178 210.991 315.386 213.535 315.386C216.079 315.386 217.935 317.178 217.935 319.706C217.935 322.234 216.079 324.042 213.535 324.042ZM213.535 322.698C215.167 322.698 216.383 321.514 216.383 319.706C216.383 317.898 215.167 316.73 213.535 316.73C211.903 316.73 210.671 317.898 210.671 319.706C210.671 321.514 211.903 322.698 213.535 322.698ZM220.907 313.834C220.315 313.834 219.867 313.402 219.867 312.842C219.867 312.282 220.315 311.834 220.907 311.834C221.499 311.834 221.947 312.266 221.947 312.81C221.947 313.386 221.515 313.834 220.907 313.834ZM220.139 323.946V315.466H221.675V323.946H220.139ZM229.216 315.386C231.28 315.386 232.736 316.57 232.736 319.066V323.946H231.2V319.242C231.2 317.578 230.368 316.762 228.912 316.762C227.28 316.762 226.224 317.738 226.224 319.578V323.946H224.688V315.466H226.16V316.746C226.784 315.882 227.872 315.386 229.216 315.386ZM239.946 322.346L240.426 323.45C239.962 323.85 239.258 324.042 238.57 324.042C236.858 324.042 235.882 323.098 235.882 321.386V316.73H234.442V315.466H235.882V313.61H237.418V315.466H239.85V316.73H237.418V321.322C237.418 322.234 237.898 322.746 238.746 322.746C239.194 322.746 239.626 322.602 239.946 322.346ZM249.746 319.754C249.746 319.882 249.73 320.074 249.714 320.218H242.834C243.026 321.706 244.226 322.698 245.906 322.698C246.898 322.698 247.73 322.362 248.354 321.674L249.202 322.666C248.434 323.562 247.266 324.042 245.858 324.042C243.122 324.042 241.298 322.234 241.298 319.706C241.298 317.194 243.106 315.386 245.554 315.386C248.002 315.386 249.746 317.146 249.746 319.754ZM245.554 316.682C244.082 316.682 242.994 317.674 242.834 319.114H248.274C248.114 317.69 247.042 316.682 245.554 316.682ZM258.423 312.074H259.959V323.946H258.487V322.602C257.799 323.562 256.711 324.042 255.463 324.042C252.983 324.042 251.175 322.298 251.175 319.706C251.175 317.114 252.983 315.386 255.463 315.386C256.663 315.386 257.719 315.834 258.423 316.746V312.074ZM255.591 322.698C257.207 322.698 258.439 321.514 258.439 319.706C258.439 317.898 257.207 316.73 255.591 316.73C253.959 316.73 252.727 317.898 252.727 319.706C252.727 321.514 253.959 322.698 255.591 322.698ZM269.29 327.05C268.074 325.114 267.386 322.506 267.386 319.562C267.386 316.618 268.074 313.978 269.29 312.074H270.746C269.45 314.346 268.89 316.762 268.89 319.562C268.89 322.362 269.45 324.778 270.746 327.05H269.29ZM281.536 319.818V321.194H279.408V323.946H277.856V321.194H271.632V320.074L277.36 312.746H279.088L273.6 319.818H277.904V317.386H279.408V319.818H281.536ZM287.407 317.146C289.631 317.146 291.247 318.474 291.247 320.538C291.247 322.698 289.503 324.074 287.279 324.074C284.271 324.074 282.575 322.058 282.575 318.49C282.575 314.666 284.735 312.618 287.871 312.618C288.927 312.618 289.935 312.826 290.655 313.274L290.047 314.522C289.471 314.138 288.703 313.994 287.903 313.994C285.631 313.994 284.175 315.418 284.175 318.218C284.175 318.346 284.175 318.474 284.191 318.618C284.831 317.658 286.015 317.146 287.407 317.146ZM287.215 322.778C288.671 322.778 289.695 321.93 289.695 320.602C289.695 319.29 288.703 318.442 287.135 318.442C285.615 318.442 284.559 319.386 284.559 320.618C284.559 321.77 285.487 322.778 287.215 322.778ZM302.213 323.946H300.373L297.013 319.322L293.701 323.946H291.861L296.069 318.202L292.117 312.746H293.941L297.077 317.05L300.181 312.746H301.925L297.973 318.154L302.213 323.946ZM306.633 312.618C309.641 312.618 311.337 314.634 311.337 318.202C311.337 322.026 309.177 324.074 306.041 324.074C304.985 324.074 303.977 323.866 303.257 323.418L303.865 322.17C304.457 322.554 305.209 322.698 306.025 322.698C308.297 322.698 309.737 321.274 309.737 318.474V318.074C309.081 319.05 307.897 319.546 306.505 319.546C304.281 319.546 302.681 318.218 302.681 316.154C302.681 313.994 304.409 312.618 306.633 312.618ZM306.777 318.25C308.313 318.25 309.369 317.306 309.369 316.074C309.369 314.922 308.441 313.914 306.697 313.914C305.241 313.914 304.233 314.762 304.233 316.09C304.233 317.402 305.209 318.25 306.777 318.25ZM316.156 317.21C319.5 317.21 320.812 318.602 320.812 320.586C320.812 322.522 319.436 324.074 316.572 324.074C314.988 324.074 313.42 323.562 312.46 322.714L313.196 321.45C313.948 322.154 315.196 322.65 316.556 322.65C318.252 322.65 319.212 321.866 319.212 320.65C319.212 319.386 318.412 318.602 315.82 318.602H313.276L313.868 312.746H320.188V314.138H315.212L314.908 317.21H316.156ZM321.007 325.546L326.287 310.474H327.679L322.399 325.546H321.007ZM331.665 312.746H335.777V323.946H334.193V314.138H331.665V312.746ZM340.435 322.554H346.179V323.946H338.131V322.858L342.691 318.458C343.875 317.306 344.099 316.602 344.099 315.898C344.099 314.746 343.283 314.042 341.715 314.042C340.515 314.042 339.539 314.426 338.851 315.258L337.763 314.314C338.627 313.242 340.115 312.618 341.859 312.618C344.195 312.618 345.699 313.818 345.699 315.738C345.699 316.826 345.379 317.802 343.859 319.258L340.435 322.554ZM346.935 312.746H351.047V323.946H349.463V314.138H346.935V312.746ZM356.737 325.546L362.017 310.474H363.409L358.129 325.546H356.737ZM367.395 312.746H371.507V323.946H369.923V314.138H367.395V312.746ZM383.781 319.818V321.194H381.653V323.946H380.101V321.194H373.877V320.074L379.605 312.746H381.333L375.845 319.818H380.149V317.386H381.653V319.818H383.781ZM387.973 317.21C391.317 317.21 392.629 318.602 392.629 320.586C392.629 322.522 391.253 324.074 388.389 324.074C386.805 324.074 385.237 323.562 384.277 322.714L385.013 321.45C385.765 322.154 387.013 322.65 388.373 322.65C390.069 322.65 391.029 321.866 391.029 320.65C391.029 319.386 390.229 318.602 387.637 318.602H385.093L385.685 312.746H392.005V314.138H387.029L386.725 317.21H387.973ZM409.714 315.386C411.778 315.386 413.186 316.57 413.186 319.066V323.946H411.65V319.242C411.65 317.578 410.85 316.762 409.458 316.762C407.922 316.762 406.914 317.738 406.914 319.578V323.946H405.378V319.242C405.378 317.578 404.578 316.762 403.186 316.762C401.65 316.762 400.642 317.738 400.642 319.578V323.946H399.106V315.466H400.578V316.73C401.186 315.866 402.226 315.386 403.506 315.386C404.802 315.386 405.89 315.898 406.45 316.954C407.09 315.994 408.274 315.386 409.714 315.386ZM426.7 315.386C428.764 315.386 430.172 316.57 430.172 319.066V323.946H428.636V319.242C428.636 317.578 427.836 316.762 426.444 316.762C424.908 316.762 423.9 317.738 423.9 319.578V323.946H422.364V319.242C422.364 317.578 421.564 316.762 420.172 316.762C418.636 316.762 417.628 317.738 417.628 319.578V323.946H416.092V315.466H417.564V316.73C418.172 315.866 419.212 315.386 420.492 315.386C421.788 315.386 422.876 315.898 423.436 316.954C424.076 315.994 425.26 315.386 426.7 315.386ZM433.59 327.05H432.134C433.43 324.778 434.006 322.362 434.006 319.562C434.006 316.762 433.43 314.346 432.134 312.074H433.59C434.822 313.978 435.51 316.618 435.51 319.562C435.51 322.506 434.822 325.114 433.59 327.05ZM443.165 323.946V312.746H444.765V322.554H450.829V323.946H443.165ZM456.514 317.082V315.818H463.682V317.082H456.514ZM456.514 320.874V319.61H463.682V320.874H456.514ZM474.812 317.146C477.036 317.146 478.652 318.474 478.652 320.538C478.652 322.698 476.908 324.074 474.684 324.074C471.676 324.074 469.98 322.058 469.98 318.49C469.98 314.666 472.14 312.618 475.276 312.618C476.332 312.618 477.34 312.826 478.06 313.274L477.452 314.522C476.876 314.138 476.108 313.994 475.308 313.994C473.036 313.994 471.58 315.418 471.58 318.218C471.58 318.346 471.58 318.474 471.596 318.618C472.236 317.658 473.42 317.146 474.812 317.146ZM474.62 322.778C476.076 322.778 477.1 321.93 477.1 320.602C477.1 319.29 476.108 318.442 474.54 318.442C473.02 318.442 471.964 319.386 471.964 320.618C471.964 321.77 472.892 322.778 474.62 322.778ZM491.231 315.386C493.295 315.386 494.703 316.57 494.703 319.066V323.946H493.167V319.242C493.167 317.578 492.367 316.762 490.975 316.762C489.439 316.762 488.431 317.738 488.431 319.578V323.946H486.895V319.242C486.895 317.578 486.095 316.762 484.703 316.762C483.167 316.762 482.159 317.738 482.159 319.578V323.946H480.623V315.466H482.095V316.73C482.703 315.866 483.743 315.386 485.023 315.386C486.319 315.386 487.407 315.898 487.967 316.954C488.607 315.994 489.791 315.386 491.231 315.386Z" fill="black"/>
<path d="M6.9363 341.994L5.0323 343.05L6.9363 344.122L6.4403 345.002L4.5043 343.866L4.5203 346.042H3.5603L3.5763 343.866L1.6403 345.002L1.1443 344.122L3.0643 343.05L1.1443 341.994L1.6403 341.098L3.5763 342.234L3.5603 340.074H4.5203L4.5043 342.234L6.4403 341.098L6.9363 341.994ZM13.7351 341.994L11.8311 343.05L13.7351 344.122L13.2391 345.002L11.3031 343.866L11.3191 346.042H10.3591L10.3751 343.866L8.43905 345.002L7.94305 344.122L9.86305 343.05L7.94305 341.994L8.43905 341.098L10.3751 342.234L10.3591 340.074H11.3191L11.3031 342.234L13.2391 341.098L13.7351 341.994ZM25.2382 352.074C21.7982 352.074 19.2702 349.626 19.2702 346.346C19.2702 343.066 21.7982 340.618 25.2382 340.618C28.6462 340.618 31.1742 343.05 31.1742 346.346C31.1742 349.642 28.6462 352.074 25.2382 352.074ZM25.2382 350.65C27.7182 350.65 29.5742 348.826 29.5742 346.346C29.5742 343.866 27.7182 342.042 25.2382 342.042C22.7262 342.042 20.8702 343.866 20.8702 346.346C20.8702 348.826 22.7262 350.65 25.2382 350.65ZM38.0037 343.386C40.0677 343.386 41.5237 344.57 41.5237 347.066V351.946H39.9877V347.242C39.9877 345.578 39.1557 344.762 37.6997 344.762C36.0677 344.762 35.0117 345.738 35.0117 347.578V351.946H33.4757V343.466H34.9477V344.746C35.5717 343.882 36.6597 343.386 38.0037 343.386ZM44.4463 351.946V340.074H45.9823V351.946H44.4463ZM54.9951 343.466H56.4991L52.3871 352.794C51.6351 354.586 50.6591 355.146 49.3631 355.146C48.5471 355.146 47.7151 354.874 47.1871 354.362L47.8431 353.21C48.2591 353.61 48.7871 353.834 49.3631 353.834C50.0991 353.834 50.5631 353.498 50.9791 352.522L51.2511 351.93L47.5071 343.466H49.1071L52.0671 350.25L54.9951 343.466ZM70.5174 342.138H64.2134V346.042H69.8294V347.418H64.2134V351.946H62.6134V340.746H70.5174V342.138ZM73.2374 341.834C72.6454 341.834 72.1974 341.402 72.1974 340.842C72.1974 340.282 72.6454 339.834 73.2374 339.834C73.8294 339.834 74.2774 340.266 74.2774 340.81C74.2774 341.386 73.8454 341.834 73.2374 341.834ZM72.4694 351.946V343.466H74.0054V351.946H72.4694ZM81.5462 343.386C83.6102 343.386 85.0662 344.57 85.0662 347.066V351.946H83.5302V347.242C83.5302 345.578 82.6982 344.762 81.2422 344.762C79.6102 344.762 78.5542 345.738 78.5542 347.578V351.946H77.0182V343.466H78.4902V344.746C79.1142 343.882 80.2022 343.386 81.5462 343.386ZM94.6917 343.466H96.1477V350.794C96.1477 353.786 94.6277 355.146 91.7477 355.146C90.1957 355.146 88.6277 354.714 87.6997 353.882L88.4357 352.698C89.2197 353.37 90.4517 353.802 91.6997 353.802C93.6997 353.802 94.6117 352.874 94.6117 350.954V350.282C93.8757 351.162 92.7717 351.594 91.5557 351.594C89.1077 351.594 87.2517 349.93 87.2517 347.482C87.2517 345.034 89.1077 343.386 91.5557 343.386C92.8197 343.386 93.9717 343.85 94.6917 344.778V343.466ZM91.7317 350.25C93.4277 350.25 94.6437 349.114 94.6437 347.482C94.6437 345.834 93.4277 344.73 91.7317 344.73C90.0197 344.73 88.8037 345.834 88.8037 347.482C88.8037 349.114 90.0197 350.25 91.7317 350.25ZM106.827 347.754C106.827 347.882 106.811 348.074 106.795 348.218H99.9146C100.107 349.706 101.307 350.698 102.987 350.698C103.979 350.698 104.811 350.362 105.435 349.674L106.283 350.666C105.515 351.562 104.347 352.042 102.939 352.042C100.203 352.042 98.3786 350.234 98.3786 347.706C98.3786 345.194 100.187 343.386 102.635 343.386C105.083 343.386 106.827 345.146 106.827 347.754ZM102.635 344.682C101.163 344.682 100.075 345.674 99.9146 347.114H105.355C105.195 345.69 104.123 344.682 102.635 344.682ZM110.511 344.89C111.055 343.898 112.111 343.386 113.599 343.386V344.874C113.471 344.858 113.359 344.858 113.247 344.858C111.599 344.858 110.575 345.866 110.575 347.722V351.946H109.039V343.466H110.511V344.89ZM121.723 352.074C120.395 352.074 119.179 351.498 118.459 350.458L119.387 349.37C119.995 350.234 120.779 350.698 121.723 350.698C122.987 350.698 123.643 349.93 123.643 348.426V342.138H119.595V340.746H125.227V348.346C125.227 350.842 124.011 352.074 121.723 352.074ZM131.974 352.042C129.43 352.042 127.558 350.234 127.558 347.706C127.558 345.178 129.43 343.386 131.974 343.386C134.518 343.386 136.374 345.178 136.374 347.706C136.374 350.234 134.518 352.042 131.974 352.042ZM131.974 350.698C133.606 350.698 134.822 349.514 134.822 347.706C134.822 345.898 133.606 344.73 131.974 344.73C130.342 344.73 129.11 345.898 129.11 347.706C129.11 349.514 130.342 350.698 131.974 350.698ZM139.346 341.834C138.754 341.834 138.306 341.402 138.306 340.842C138.306 340.282 138.754 339.834 139.346 339.834C139.938 339.834 140.386 340.266 140.386 340.81C140.386 341.386 139.954 341.834 139.346 341.834ZM138.578 351.946V343.466H140.114V351.946H138.578ZM147.655 343.386C149.719 343.386 151.175 344.57 151.175 347.066V351.946H149.639V347.242C149.639 345.578 148.807 344.762 147.351 344.762C145.719 344.762 144.663 345.738 144.663 347.578V351.946H143.127V343.466H144.599V344.746C145.223 343.882 146.311 343.386 147.655 343.386ZM158.386 350.346L158.866 351.45C158.402 351.85 157.698 352.042 157.01 352.042C155.298 352.042 154.322 351.098 154.322 349.386V344.73H152.882V343.466H154.322V341.61H155.858V343.466H158.29V344.73H155.858V349.322C155.858 350.234 156.338 350.746 157.186 350.746C157.634 350.746 158.066 350.602 158.386 350.346ZM168.185 347.754C168.185 347.882 168.169 348.074 168.153 348.218H161.273C161.465 349.706 162.665 350.698 164.345 350.698C165.337 350.698 166.169 350.362 166.793 349.674L167.641 350.666C166.873 351.562 165.705 352.042 164.297 352.042C161.561 352.042 159.737 350.234 159.737 347.706C159.737 345.194 161.545 343.386 163.993 343.386C166.441 343.386 168.185 345.146 168.185 347.754ZM163.993 344.682C162.521 344.682 161.433 345.674 161.273 347.114H166.713C166.553 345.69 165.481 344.682 163.993 344.682ZM176.862 340.074H178.398V351.946H176.926V350.602C176.238 351.562 175.15 352.042 173.902 352.042C171.422 352.042 169.614 350.298 169.614 347.706C169.614 345.114 171.422 343.386 173.902 343.386C175.102 343.386 176.158 343.834 176.862 344.746V340.074ZM174.03 350.698C175.646 350.698 176.878 349.514 176.878 347.706C176.878 345.898 175.646 344.73 174.03 344.73C172.398 344.73 171.166 345.898 171.166 347.706C171.166 349.514 172.398 350.698 174.03 350.698ZM188.849 343.386C191.169 343.386 192.481 344.506 192.481 346.826V351.946H191.025V350.826C190.513 351.594 189.569 352.042 188.241 352.042C186.321 352.042 185.105 351.018 185.105 349.546C185.105 348.186 185.985 347.066 188.513 347.066H190.945V346.762C190.945 345.466 190.193 344.714 188.673 344.714C187.665 344.714 186.641 345.066 185.985 345.626L185.345 344.474C186.225 343.77 187.489 343.386 188.849 343.386ZM188.497 350.858C189.649 350.858 190.561 350.33 190.945 349.354V348.17H188.577C187.057 348.17 186.625 348.762 186.625 349.482C186.625 350.33 187.329 350.858 188.497 350.858ZM199.932 343.386C201.996 343.386 203.452 344.57 203.452 347.066V351.946H201.916V347.242C201.916 345.578 201.084 344.762 199.628 344.762C197.996 344.762 196.94 345.738 196.94 347.578V351.946H195.404V343.466H196.876V344.746C197.5 343.882 198.588 343.386 199.932 343.386ZM212.885 340.074H214.421V351.946H212.949V350.602C212.261 351.562 211.173 352.042 209.925 352.042C207.445 352.042 205.637 350.298 205.637 347.706C205.637 345.114 207.445 343.386 209.925 343.386C211.125 343.386 212.181 343.834 212.885 344.746V340.074ZM210.053 350.698C211.669 350.698 212.901 349.514 212.901 347.706C212.901 345.898 211.669 344.73 210.053 344.73C208.421 344.73 207.189 345.898 207.189 347.706C207.189 349.514 208.421 350.698 210.053 350.698ZM221.784 351.946V340.074H223.32V351.946H221.784ZM229.421 343.386C231.741 343.386 233.053 344.506 233.053 346.826V351.946H231.597V350.826C231.085 351.594 230.141 352.042 228.813 352.042C226.893 352.042 225.677 351.018 225.677 349.546C225.677 348.186 226.557 347.066 229.085 347.066H231.517V346.762C231.517 345.466 230.765 344.714 229.245 344.714C228.237 344.714 227.213 345.066 226.557 345.626L225.917 344.474C226.797 343.77 228.061 343.386 229.421 343.386ZM229.069 350.858C230.221 350.858 231.133 350.33 231.517 349.354V348.17H229.149C227.629 348.17 227.197 348.762 227.197 349.482C227.197 350.33 227.901 350.858 229.069 350.858ZM246.584 343.386C248.648 343.386 250.056 344.57 250.056 347.066V351.946H248.52V347.242C248.52 345.578 247.72 344.762 246.328 344.762C244.792 344.762 243.784 345.738 243.784 347.578V351.946H242.248V347.242C242.248 345.578 241.448 344.762 240.056 344.762C238.52 344.762 237.512 345.738 237.512 347.578V351.946H235.976V343.466H237.448V344.73C238.056 343.866 239.096 343.386 240.376 343.386C241.672 343.386 242.76 343.898 243.32 344.954C243.96 343.994 245.144 343.386 246.584 343.386ZM253.73 341.834C253.138 341.834 252.69 341.402 252.69 340.842C252.69 340.282 253.138 339.834 253.73 339.834C254.322 339.834 254.77 340.266 254.77 340.81C254.77 341.386 254.338 341.834 253.73 341.834ZM252.962 351.946V343.466H254.498V351.946H252.962ZM262.039 343.386C264.103 343.386 265.559 344.57 265.559 347.066V351.946H264.023V347.242C264.023 345.578 263.191 344.762 261.735 344.762C260.103 344.762 259.047 345.738 259.047 347.578V351.946H257.511V343.466H258.983V344.746C259.607 343.882 260.695 343.386 262.039 343.386ZM271.569 343.386C273.889 343.386 275.201 344.506 275.201 346.826V351.946H273.745V350.826C273.233 351.594 272.289 352.042 270.961 352.042C269.041 352.042 267.825 351.018 267.825 349.546C267.825 348.186 268.705 347.066 271.233 347.066H273.665V346.762C273.665 345.466 272.913 344.714 271.393 344.714C270.385 344.714 269.361 345.066 268.705 345.626L268.065 344.474C268.945 343.77 270.209 343.386 271.569 343.386ZM271.217 350.858C272.369 350.858 273.281 350.33 273.665 349.354V348.17H271.297C269.777 348.17 269.345 348.762 269.345 349.482C269.345 350.33 270.049 350.858 271.217 350.858ZM282.412 350.346L282.892 351.45C282.428 351.85 281.724 352.042 281.036 352.042C279.324 352.042 278.348 351.098 278.348 349.386V344.73H276.908V343.466H278.348V341.61H279.884V343.466H282.316V344.73H279.884V349.322C279.884 350.234 280.364 350.746 281.212 350.746C281.66 350.746 282.092 350.602 282.412 350.346ZM292.212 347.754C292.212 347.882 292.196 348.074 292.18 348.218H285.3C285.492 349.706 286.692 350.698 288.372 350.698C289.364 350.698 290.196 350.362 290.82 349.674L291.668 350.666C290.9 351.562 289.732 352.042 288.324 352.042C285.588 352.042 283.764 350.234 283.764 347.706C283.764 345.194 285.572 343.386 288.02 343.386C290.468 343.386 292.212 345.146 292.212 347.754ZM288.02 344.682C286.548 344.682 285.46 345.674 285.3 347.114H290.74C290.58 345.69 289.508 344.682 288.02 344.682ZM300.888 340.074H302.424V351.946H300.952V350.602C300.264 351.562 299.176 352.042 297.928 352.042C295.448 352.042 293.64 350.298 293.64 347.706C293.64 345.114 295.448 343.386 297.928 343.386C299.128 343.386 300.184 343.834 300.888 344.746V340.074ZM298.056 350.698C299.672 350.698 300.904 349.514 300.904 347.706C300.904 345.898 299.672 344.73 298.056 344.73C296.424 344.73 295.192 345.898 295.192 347.706C295.192 349.514 296.424 350.698 298.056 350.698ZM316.132 355.05C314.916 353.114 314.228 350.506 314.228 347.562C314.228 344.618 314.916 341.978 316.132 340.074H317.588C316.292 342.346 315.732 344.762 315.732 347.562C315.732 350.362 316.292 352.778 317.588 355.05H316.132ZM322.579 340.618C325.587 340.618 327.283 342.634 327.283 346.202C327.283 350.026 325.123 352.074 321.987 352.074C320.931 352.074 319.923 351.866 319.203 351.418L319.811 350.17C320.403 350.554 321.155 350.698 321.971 350.698C324.243 350.698 325.683 349.274 325.683 346.474V346.074C325.027 347.05 323.843 347.546 322.451 347.546C320.227 347.546 318.627 346.218 318.627 344.154C318.627 341.994 320.355 340.618 322.579 340.618ZM322.723 346.25C324.259 346.25 325.315 345.306 325.315 344.074C325.315 342.922 324.387 341.914 322.643 341.914C321.187 341.914 320.179 342.762 320.179 344.09C320.179 345.402 321.155 346.25 322.723 346.25ZM332.102 345.21C335.446 345.21 336.758 346.602 336.758 348.586C336.758 350.522 335.382 352.074 332.518 352.074C330.934 352.074 329.366 351.562 328.406 350.714L329.142 349.45C329.894 350.154 331.142 350.65 332.502 350.65C334.198 350.65 335.158 349.866 335.158 348.65C335.158 347.386 334.358 346.602 331.766 346.602H329.222L329.814 340.746H336.134V342.138H331.158L330.854 345.21H332.102ZM352.338 351.946H350.498L347.138 347.322L343.826 351.946H341.986L346.194 346.202L342.242 340.746H344.066L347.202 345.05L350.306 340.746H352.05L348.098 346.154L352.338 351.946ZM357.129 340.746H361.241V351.946H359.657V342.138H357.129V340.746ZM365.899 350.554H371.643V351.946H363.595V350.858L368.155 346.458C369.339 345.306 369.563 344.602 369.563 343.898C369.563 342.746 368.747 342.042 367.179 342.042C365.979 342.042 365.003 342.426 364.315 343.258L363.227 342.314C364.091 341.242 365.579 340.618 367.323 340.618C369.659 340.618 371.163 341.818 371.163 343.738C371.163 344.826 370.843 345.802 369.323 347.258L365.899 350.554ZM372.398 340.746H376.51V351.946H374.926V342.138H372.398V340.746ZM377.824 353.546L383.104 338.474H384.496L379.216 353.546H377.824ZM388.482 340.746H392.594V351.946H391.01V342.138H388.482V340.746ZM404.868 347.818V349.194H402.74V351.946H401.188V349.194H394.964V348.074L400.692 340.746H402.42L396.932 347.818H401.236V345.386H402.74V347.818H404.868ZM409.06 345.21C412.404 345.21 413.716 346.602 413.716 348.586C413.716 350.522 412.34 352.074 409.476 352.074C407.892 352.074 406.324 351.562 405.364 350.714L406.1 349.45C406.852 350.154 408.1 350.65 409.46 350.65C411.156 350.65 412.116 349.866 412.116 348.65C412.116 347.386 411.316 346.602 408.724 346.602H406.18L406.772 340.746H413.092V342.138H408.116L407.812 345.21H409.06ZM430.801 343.386C432.865 343.386 434.273 344.57 434.273 347.066V351.946H432.737V347.242C432.737 345.578 431.937 344.762 430.545 344.762C429.009 344.762 428.001 345.738 428.001 347.578V351.946H426.465V347.242C426.465 345.578 425.665 344.762 424.273 344.762C422.737 344.762 421.729 345.738 421.729 347.578V351.946H420.193V343.466H421.665V344.73C422.273 343.866 423.313 343.386 424.593 343.386C425.889 343.386 426.977 343.898 427.537 344.954C428.177 343.994 429.361 343.386 430.801 343.386ZM447.787 343.386C449.851 343.386 451.259 344.57 451.259 347.066V351.946H449.723V347.242C449.723 345.578 448.923 344.762 447.531 344.762C445.995 344.762 444.987 345.738 444.987 347.578V351.946H443.451V347.242C443.451 345.578 442.651 344.762 441.259 344.762C439.723 344.762 438.715 345.738 438.715 347.578V351.946H437.179V343.466H438.651V344.73C439.259 343.866 440.299 343.386 441.579 343.386C442.875 343.386 443.963 343.898 444.523 344.954C445.163 343.994 446.347 343.386 447.787 343.386ZM454.677 355.05H453.221C454.517 352.778 455.093 350.362 455.093 347.562C455.093 344.762 454.517 342.346 453.221 340.074H454.677C455.909 341.978 456.597 344.618 456.597 347.562C456.597 350.506 455.909 353.114 454.677 355.05ZM464.252 351.946V340.746H465.852V350.554H471.916V351.946H464.252ZM477.601 345.082V343.818H484.769V345.082H477.601ZM477.601 348.874V347.61H484.769V348.874H477.601ZM495.898 345.146C498.122 345.146 499.738 346.474 499.738 348.538C499.738 350.698 497.994 352.074 495.77 352.074C492.762 352.074 491.066 350.058 491.066 346.49C491.066 342.666 493.226 340.618 496.362 340.618C497.418 340.618 498.426 340.826 499.146 341.274L498.538 342.522C497.962 342.138 497.194 341.994 496.394 341.994C494.122 341.994 492.666 343.418 492.666 346.218C492.666 346.346 492.666 346.474 492.682 346.618C493.322 345.658 494.506 345.146 495.898 345.146ZM495.706 350.778C497.162 350.778 498.186 349.93 498.186 348.602C498.186 347.29 497.194 346.442 495.626 346.442C494.106 346.442 493.05 347.386 493.05 348.618C493.05 349.77 493.978 350.778 495.706 350.778ZM512.317 343.386C514.381 343.386 515.789 344.57 515.789 347.066V351.946H514.253V347.242C514.253 345.578 513.453 344.762 512.061 344.762C510.525 344.762 509.517 345.738 509.517 347.578V351.946H507.981V347.242C507.981 345.578 507.181 344.762 505.789 344.762C504.253 344.762 503.245 345.738 503.245 347.578V351.946H501.709V343.466H503.181V344.73C503.789 343.866 504.829 343.386 506.109 343.386C507.405 343.386 508.493 343.898 509.053 344.954C509.693 343.994 510.877 343.386 512.317 343.386Z" fill="black"/>
<defs>
<clipPath id="clip0_1329_18858">
<rect width="20" height="20" fill="white" transform="translate(165.5 71.9463)"/>
</clipPath>
<clipPath id="clip1_1329_18858">
<rect width="20" height="20" fill="white" transform="translate(165.5 103.946)"/>
</clipPath>
<clipPath id="clip2_1329_18858">
<rect width="20" height="20" fill="white" transform="translate(165.5 135.946)"/>
</clipPath>
<clipPath id="clip3_1329_18858">
<rect width="20" height="20" fill="white" transform="translate(165.5 167.946)"/>
</clipPath>
<clipPath id="clip4_1329_18858">
<rect width="20" height="20" fill="white" transform="translate(165.5 199.946)"/>
</clipPath>
<clipPath id="clip5_1329_18858">
<rect width="20" height="20" fill="white" transform="translate(165.5 231.946)"/>
</clipPath>
<clipPath id="clip6_1329_18858">
<rect width="20" height="20" fill="white" transform="translate(293.5 71.9463)"/>
</clipPath>
<clipPath id="clip7_1329_18858">
<rect width="20" height="20" fill="white" transform="translate(293.5 103.946)"/>
</clipPath>
<clipPath id="clip8_1329_18858">
<rect width="20" height="20" fill="white" transform="translate(293.5 135.946)"/>
</clipPath>
<clipPath id="clip9_1329_18858">
<rect width="20" height="20" fill="white" transform="translate(293.5 167.946)"/>
</clipPath>
<clipPath id="clip10_1329_18858">
<rect width="20" height="20" fill="white" transform="translate(293.5 199.946)"/>
</clipPath>
<clipPath id="clip11_1329_18858">
<rect width="20" height="20" fill="white" transform="translate(293.5 231.946)"/>
</clipPath>
<clipPath id="clip12_1329_18858">
<rect width="20" height="20" fill="white" transform="translate(293.5 263.946)"/>
</clipPath>
<clipPath id="clip13_1329_18858">
<rect width="20" height="20" fill="white" transform="translate(421.5 71.9463)"/>
</clipPath>
<clipPath id="clip14_1329_18858">
<rect width="20" height="20" fill="white" transform="translate(421.5 103.946)"/>
</clipPath>
<clipPath id="clip15_1329_18858">
<rect width="20" height="20" fill="white" transform="translate(421.5 135.946)"/>
</clipPath>
<clipPath id="clip16_1329_18858">
<rect width="20" height="20" fill="white" transform="translate(421.5 167.946)"/>
</clipPath>
<clipPath id="clip17_1329_18858">
<rect width="20" height="20" fill="white" transform="translate(421.5 199.946)"/>
</clipPath>
<clipPath id="clip18_1329_18858">
<rect width="20" height="20" fill="white" transform="translate(421.5 231.946)"/>
</clipPath>
<clipPath id="clip19_1329_18858">
<rect width="20" height="20" fill="white" transform="translate(421.5 263.946)"/>
</clipPath>
<clipPath id="clip20_1329_18858">
<rect width="20" height="20" fill="white" transform="translate(549.5 71.9463)"/>
</clipPath>
<clipPath id="clip21_1329_18858">
<rect width="20" height="20" fill="white" transform="translate(549.5 103.946)"/>
</clipPath>
<clipPath id="clip22_1329_18858">
<rect width="20" height="20" fill="white" transform="translate(549.5 135.946)"/>
</clipPath>
<clipPath id="clip23_1329_18858">
<rect width="20" height="20" fill="white" transform="translate(549.5 167.946)"/>
</clipPath>
<clipPath id="clip24_1329_18858">
<rect width="20" height="20" fill="white" transform="translate(549.5 199.946)"/>
</clipPath>
<clipPath id="clip25_1329_18858">
<rect width="20" height="20" fill="white" transform="translate(549.5 231.946)"/>
</clipPath>
</defs>
</svg>
