<svg width="358" height="341" viewBox="0 0 358 341" fill="none" xmlns="http://www.w3.org/2000/svg">
<rect width="358" height="341" fill="white"/>
<rect width="62" height="23" fill="black"/>
<path d="M10.6587 7.6H11.8587V16H10.6587V12.256H5.83469V16H4.63469V7.6H5.83469V11.212H10.6587V7.6ZM15.633 14.956H20.529V16H14.433V7.6H20.361V8.644H15.633V11.224H19.845V12.244H15.633V14.956ZM22.532 16V7.6H23.732V16H22.532ZM32.1269 14.488V11.752H33.2789V15.028C32.4389 15.736 31.2749 16.096 30.0989 16.096C27.5189 16.096 25.6229 14.284 25.6229 11.8C25.6229 9.316 27.5189 7.504 30.1229 7.504C31.4549 7.504 32.5829 7.948 33.3509 8.8L32.6069 9.544C31.9109 8.872 31.1189 8.572 30.1709 8.572C28.2269 8.572 26.8229 9.928 26.8229 11.8C26.8229 13.648 28.2269 15.028 30.1589 15.028C30.8669 15.028 31.5269 14.872 32.1269 14.488ZM41.6604 7.6H42.8604V16H41.6604V12.256H36.8364V16H35.6364V7.6H36.8364V11.212H41.6604V7.6ZM47.1027 16V8.644H44.2227V7.6H51.1707V8.644H48.2907V16H47.1027ZM54.8802 16.096C53.5962 16.096 52.3362 15.664 51.6642 15.04L52.1082 14.104C52.7322 14.668 53.8002 15.076 54.8802 15.076C56.3322 15.076 56.9562 14.512 56.9562 13.78C56.9562 11.728 51.8682 13.024 51.8682 9.904C51.8682 8.608 52.8762 7.504 55.0842 7.504C56.0682 7.504 57.0882 7.768 57.7842 8.248L57.3882 9.208C56.6562 8.74 55.8282 8.524 55.0842 8.524C53.6562 8.524 53.0442 9.124 53.0442 9.856C53.0442 11.908 58.1322 10.624 58.1322 13.708C58.1322 14.992 57.1002 16.096 54.8802 16.096Z" fill="white"/>
<rect width="198" height="23" transform="translate(62)" fill="black"/>
<path d="M149.108 7.6H150.248L147.44 16H146.18L143.888 9.292L141.596 16H140.312L137.504 7.6H138.74L141.008 14.428L143.372 7.6H144.476L146.792 14.464L149.108 7.6ZM151.775 16V7.6H152.975V16H151.775ZM155.55 16V7.6H159.09C161.79 7.6 163.626 9.304 163.626 11.8C163.626 14.296 161.79 16 159.09 16H155.55ZM156.75 14.956H159.018C161.094 14.956 162.426 13.684 162.426 11.8C162.426 9.916 161.094 8.644 159.018 8.644H156.75V14.956ZM165.524 16V7.6H166.724V16H165.524ZM170.967 16V8.644H168.087V7.6H175.035V8.644H172.155V16H170.967ZM182.426 7.6H183.626V16H182.426V12.256H177.602V16H176.402V7.6H177.602V11.212H182.426V7.6Z" fill="white"/>
<rect width="98" height="23" transform="translate(260)" fill="black"/>
<path d="M293.595 14.488V11.752H294.747V15.028C293.907 15.736 292.743 16.096 291.567 16.096C288.987 16.096 287.091 14.284 287.091 11.8C287.091 9.316 288.987 7.504 291.591 7.504C292.923 7.504 294.051 7.948 294.819 8.8L294.075 9.544C293.379 8.872 292.587 8.572 291.639 8.572C289.695 8.572 288.291 9.928 288.291 11.8C288.291 13.648 289.695 15.028 291.627 15.028C292.335 15.028 292.995 14.872 293.595 14.488ZM304.028 16H302.72L300.908 13.42C300.74 13.432 300.56 13.444 300.38 13.444H298.304V16H297.104V7.6H300.38C302.564 7.6 303.884 8.704 303.884 10.528C303.884 11.824 303.212 12.76 302.036 13.18L304.028 16ZM300.344 12.424C301.88 12.424 302.684 11.728 302.684 10.528C302.684 9.328 301.88 8.644 300.344 8.644H298.304V12.424H300.344ZM312.159 16L311.235 13.9H306.771L305.847 16H304.611L308.415 7.6H309.603L313.419 16H312.159ZM307.191 12.94H310.815L309.003 8.824L307.191 12.94ZM314.732 16V7.6H318.272C320.972 7.6 322.808 9.304 322.808 11.8C322.808 14.296 320.972 16 318.272 16H314.732ZM315.932 14.956H318.2C320.276 14.956 321.608 13.684 321.608 11.8C321.608 9.916 320.276 8.644 318.2 8.644H315.932V14.956ZM325.906 14.956H330.802V16H324.706V7.6H330.634V8.644H325.906V11.224H330.118V12.244H325.906V14.956Z" fill="white"/>
<path d="M0 65H35" stroke="black"/>
<path d="M3.1685 85.608H8.9125V87H0.8645V85.912L5.4245 81.512C6.6085 80.36 6.8325 79.656 6.8325 78.952C6.8325 77.8 6.0165 77.096 4.4485 77.096C3.2485 77.096 2.2725 77.48 1.5845 78.312L0.4965 77.368C1.3605 76.296 2.8485 75.672 4.5925 75.672C6.9285 75.672 8.4325 76.872 8.4325 78.792C8.4325 79.88 8.1125 80.856 6.5925 82.312L3.1685 85.608ZM13.508 80.264C16.852 80.264 18.164 81.656 18.164 83.64C18.164 85.576 16.788 87.128 13.924 87.128C12.34 87.128 10.772 86.616 9.812 85.768L10.548 84.504C11.3 85.208 12.548 85.704 13.908 85.704C15.604 85.704 16.564 84.92 16.564 83.704C16.564 82.44 15.764 81.656 13.172 81.656H10.628L11.22 75.8H17.54V77.192H12.564L12.26 80.264H13.508Z" fill="black"/>
<path d="M0 97H35" stroke="black"/>
<path d="M5.38319 112.504C7.62319 112.712 8.75919 113.976 8.75919 115.704C8.75919 117.592 7.36719 119.128 4.51919 119.128C2.91919 119.128 1.35119 118.616 0.407188 117.768L1.14319 116.504C1.89519 117.208 3.14319 117.704 4.51919 117.704C6.19919 117.704 7.15919 116.936 7.15919 115.72C7.15919 114.536 6.31119 113.768 4.39119 113.768H3.49519V112.648L6.31119 109.192H0.919188V107.8H8.31119V108.888L5.38319 112.504ZM12.3813 117.608H18.1253V119H10.0773V117.912L14.6373 113.512C15.8213 112.36 16.0453 111.656 16.0453 110.952C16.0453 109.8 15.2293 109.096 13.6613 109.096C12.4613 109.096 11.4853 109.48 10.7973 110.312L9.70931 109.368C10.5733 108.296 12.0613 107.672 13.8053 107.672C16.1413 107.672 17.6453 108.872 17.6453 110.792C17.6453 111.88 17.3253 112.856 15.8053 114.312L12.3813 117.608Z" fill="black"/>
<path d="M0 129H35" stroke="black"/>
<path d="M5.28944 144.504C7.52944 144.712 8.66544 145.976 8.66544 147.704C8.66544 149.592 7.27344 151.128 4.42544 151.128C2.82544 151.128 1.25744 150.616 0.313438 149.768L1.04944 148.504C1.80144 149.208 3.04944 149.704 4.42544 149.704C6.10544 149.704 7.06544 148.936 7.06544 147.72C7.06544 146.536 6.21744 145.768 4.29744 145.768H3.40144V144.648L6.21744 141.192H0.825438V139.8H8.21744V140.888L5.28944 144.504ZM17.0857 145.128C18.3657 145.624 19.0697 146.552 19.0697 147.832C19.0697 149.864 17.3417 151.128 14.6057 151.128C11.8857 151.128 10.1737 149.864 10.1737 147.832C10.1737 146.552 10.8777 145.608 12.1417 145.128C11.1177 144.648 10.5737 143.816 10.5737 142.712C10.5737 140.84 12.1897 139.672 14.6057 139.672C17.0377 139.672 18.6697 140.84 18.6697 142.712C18.6697 143.816 18.1097 144.648 17.0857 145.128ZM14.6057 140.968C13.1017 140.968 12.1577 141.656 12.1577 142.776C12.1577 143.88 13.0697 144.568 14.6057 144.568C16.1577 144.568 17.1017 143.88 17.1017 142.776C17.1017 141.656 16.1097 140.968 14.6057 140.968ZM14.6057 149.832C16.3817 149.832 17.4697 149.048 17.4697 147.784C17.4697 146.552 16.3817 145.784 14.6057 145.784C12.8297 145.784 11.7737 146.552 11.7737 147.784C11.7737 149.048 12.8297 149.832 14.6057 149.832Z" fill="black"/>
<path d="M0 161H35" stroke="black"/>
<path d="M3.99831 176.264C7.34231 176.264 8.65431 177.656 8.65431 179.64C8.65431 181.576 7.27831 183.128 4.41431 183.128C2.83031 183.128 1.26231 182.616 0.302313 181.768L1.03831 180.504C1.79031 181.208 3.03831 181.704 4.39831 181.704C6.09431 181.704 7.05431 180.92 7.05431 179.704C7.05431 178.44 6.25431 177.656 3.66231 177.656H1.11831L1.71031 171.8H8.03031V173.192H3.05431L2.75031 176.264H3.99831ZM14.6418 183.128C12.0178 183.128 10.0658 181.048 10.0658 177.4C10.0658 173.752 12.0178 171.672 14.6418 171.672C17.2498 171.672 19.2018 173.752 19.2018 177.4C19.2018 181.048 17.2498 183.128 14.6418 183.128ZM14.6418 181.704C16.3858 181.704 17.6018 180.264 17.6018 177.4C17.6018 174.536 16.3858 173.096 14.6418 173.096C12.8818 173.096 11.6658 174.536 11.6658 177.4C11.6658 180.264 12.8818 181.704 14.6418 181.704Z" fill="black"/>
<path d="M0 193H35" stroke="black"/>
<path d="M6.04438 208.2C8.26838 208.2 9.88438 209.528 9.88438 211.592C9.88438 213.752 8.14038 215.128 5.91638 215.128C2.90838 215.128 1.21238 213.112 1.21238 209.544C1.21238 205.72 3.37238 203.672 6.50838 203.672C7.56438 203.672 8.57238 203.88 9.29238 204.328L8.68438 205.576C8.10838 205.192 7.34038 205.048 6.54038 205.048C4.26838 205.048 2.81238 206.472 2.81238 209.272C2.81238 209.4 2.81238 209.528 2.82838 209.672C3.46838 208.712 4.65238 208.2 6.04438 208.2ZM5.85238 213.832C7.30838 213.832 8.33238 212.984 8.33238 211.656C8.33238 210.344 7.34038 209.496 5.77238 209.496C4.25238 209.496 3.19638 210.44 3.19638 211.672C3.19638 212.824 4.12438 213.832 5.85238 213.832ZM15.4554 208.504C17.6954 208.712 18.8314 209.976 18.8314 211.704C18.8314 213.592 17.4394 215.128 14.5914 215.128C12.9914 215.128 11.4234 214.616 10.4794 213.768L11.2154 212.504C11.9674 213.208 13.2154 213.704 14.5914 213.704C16.2714 213.704 17.2314 212.936 17.2314 211.72C17.2314 210.536 16.3834 209.768 14.4634 209.768H13.5674V208.648L16.3834 205.192H10.9914V203.8H18.3834V204.888L15.4554 208.504Z" fill="black"/>
<path d="M0 225H35" stroke="black"/>
<path d="M0.705625 235.8H9.15363V236.888L4.62563 247H2.92963L7.36163 237.192H2.24163V239.192H0.705625V235.8ZM13.5549 240.264C16.8989 240.264 18.2109 241.656 18.2109 243.64C18.2109 245.576 16.8349 247.128 13.9709 247.128C12.3869 247.128 10.8189 246.616 9.85887 245.768L10.5949 244.504C11.3469 245.208 12.5949 245.704 13.9549 245.704C15.6509 245.704 16.6109 244.92 16.6109 243.704C16.6109 242.44 15.8109 241.656 13.2189 241.656H10.6749L11.2669 235.8H17.5869V237.192H12.6109L12.3069 240.264H13.5549Z" fill="black"/>
<path d="M0 257H35" stroke="black"/>
<path d="M0.415188 267.8H4.52719V279H2.94319V269.192H0.415188V267.8ZM11.6331 279.128C9.00906 279.128 7.05706 277.048 7.05706 273.4C7.05706 269.752 9.00906 267.672 11.6331 267.672C14.2411 267.672 16.1931 269.752 16.1931 273.4C16.1931 277.048 14.2411 279.128 11.6331 279.128ZM11.6331 277.704C13.3771 277.704 14.5931 276.264 14.5931 273.4C14.5931 270.536 13.3771 269.096 11.6331 269.096C9.87306 269.096 8.65706 270.536 8.65706 273.4C8.65706 276.264 9.87306 277.704 11.6331 277.704ZM22.3849 279.128C19.7609 279.128 17.8089 277.048 17.8089 273.4C17.8089 269.752 19.7609 267.672 22.3849 267.672C24.9929 267.672 26.9449 269.752 26.9449 273.4C26.9449 277.048 24.9929 279.128 22.3849 279.128ZM22.3849 277.704C24.1289 277.704 25.3449 276.264 25.3449 273.4C25.3449 270.536 24.1289 269.096 22.3849 269.096C20.6249 269.096 19.4089 270.536 19.4089 273.4C19.4089 276.264 20.6249 277.704 22.3849 277.704Z" fill="black"/>
<path d="M0 289H35" stroke="black"/>
<path d="M62.3114 31.6H65.3954V40H64.2074V32.644H62.3114V31.6ZM70.7248 40.096C68.7568 40.096 67.2928 38.536 67.2928 35.8C67.2928 33.064 68.7568 31.504 70.7248 31.504C72.6808 31.504 74.1448 33.064 74.1448 35.8C74.1448 38.536 72.6808 40.096 70.7248 40.096ZM70.7248 39.028C72.0328 39.028 72.9448 37.948 72.9448 35.8C72.9448 33.652 72.0328 32.572 70.7248 32.572C69.4048 32.572 68.4928 33.652 68.4928 35.8C68.4928 37.948 69.4048 39.028 70.7248 39.028ZM78.7887 40.096C76.8207 40.096 75.3567 38.536 75.3567 35.8C75.3567 33.064 76.8207 31.504 78.7887 31.504C80.7447 31.504 82.2087 33.064 82.2087 35.8C82.2087 38.536 80.7447 40.096 78.7887 40.096ZM78.7887 39.028C80.0967 39.028 81.0087 37.948 81.0087 35.8C81.0087 33.652 80.0967 32.572 78.7887 32.572C77.4687 32.572 76.5567 33.652 76.5567 35.8C76.5567 37.948 77.4687 39.028 78.7887 39.028Z" fill="black"/>
<path d="M62 65H106" stroke="black"/>
<rect width="20" height="20" transform="translate(62 71)" fill="white"/>
<path d="M78.0312 74L69.125 83L64.9688 78.8L62 81.8L69.125 89L81 77L78.0312 74Z" fill="black"/>
<path d="M62 97H106" stroke="black"/>
<rect width="20" height="20" transform="translate(62 103)" fill="white"/>
<path d="M78.0312 106L69.125 115L64.9688 110.8L62 113.8L69.125 121L81 109L78.0312 106Z" fill="black"/>
<path d="M62 129H106" stroke="black"/>
<rect width="20" height="20" transform="translate(62 135)" fill="white"/>
<path d="M78.0312 138L69.125 147L64.9688 142.8L62 145.8L69.125 153L81 141L78.0312 138Z" fill="black"/>
<path d="M62 161H106" stroke="black"/>
<rect width="20" height="20" transform="translate(62 167)" fill="white"/>
<path d="M78.0312 170L69.125 179L64.9688 174.8L62 177.8L69.125 185L81 173L78.0312 170Z" fill="black"/>
<path d="M62 193H106" stroke="black"/>
<rect width="20" height="20" transform="translate(62 199)" fill="white"/>
<path d="M78.0312 202L69.125 211L64.9688 206.8L62 209.8L69.125 217L81 205L78.0312 202Z" fill="black"/>
<path d="M94.3929 205.048L92.4889 206.104L94.3929 207.176L93.8969 208.056L91.9609 206.92L91.9769 209.096H91.0169L91.0329 206.92L89.0969 208.056L88.6009 207.176L90.5209 206.104L88.6009 205.048L89.0969 204.152L91.0329 205.288L91.0169 203.128H91.9769L91.9609 205.288L93.8969 204.152L94.3929 205.048Z" fill="black"/>
<path d="M62 225H106" stroke="black"/>
<rect width="20" height="20" transform="translate(62 231)" fill="white"/>
<path d="M78.0312 234L69.125 243L64.9688 238.8L62 241.8L69.125 249L81 237L78.0312 234Z" fill="black"/>
<path d="M94.3929 237.048L92.4889 238.104L94.3929 239.176L93.8969 240.056L91.9609 238.92L91.9769 241.096H91.0169L91.0329 238.92L89.0969 240.056L88.6009 239.176L90.5209 238.104L88.6009 237.048L89.0969 236.152L91.0329 237.288L91.0169 235.128H91.9769L91.9609 237.288L93.8969 236.152L94.3929 237.048Z" fill="black"/>
<path d="M62 257H106" stroke="black"/>
<rect width="20" height="20" transform="translate(62 263)" fill="white"/>
<path d="M62 289H106" stroke="black"/>
<path d="M116.425 31.6H119.509V40H118.321V32.644H116.425V31.6ZM123.002 38.956H127.31V40H121.274V39.184L124.694 35.884C125.582 35.02 125.75 34.492 125.75 33.964C125.75 33.1 125.138 32.572 123.962 32.572C123.062 32.572 122.33 32.86 121.814 33.484L120.998 32.776C121.646 31.972 122.762 31.504 124.07 31.504C125.822 31.504 126.95 32.404 126.95 33.844C126.95 34.66 126.71 35.392 125.57 36.484L123.002 38.956ZM130.757 34.948C133.265 34.948 134.249 35.992 134.249 37.48C134.249 38.932 133.217 40.096 131.069 40.096C129.881 40.096 128.705 39.712 127.985 39.076L128.537 38.128C129.101 38.656 130.037 39.028 131.057 39.028C132.329 39.028 133.049 38.44 133.049 37.528C133.049 36.58 132.449 35.992 130.505 35.992H128.597L129.041 31.6H133.781V32.644H130.049L129.821 34.948H130.757Z" fill="black"/>
<path d="M116 65H141" stroke="black"/>
<rect width="20" height="20" transform="translate(116 71)" fill="white"/>
<path d="M132.031 74L123.125 83L118.969 78.8L116 81.8L123.125 89L135 77L132.031 74Z" fill="black"/>
<path d="M116 97H141" stroke="black"/>
<rect width="20" height="20" transform="translate(116 103)" fill="white"/>
<path d="M132.031 106L123.125 115L118.969 110.8L116 113.8L123.125 121L135 109L132.031 106Z" fill="black"/>
<path d="M116 129H141" stroke="black"/>
<rect width="20" height="20" transform="translate(116 135)" fill="white"/>
<path d="M132.031 138L123.125 147L118.969 142.8L116 145.8L123.125 153L135 141L132.031 138Z" fill="black"/>
<path d="M116 161H141" stroke="black"/>
<rect width="20" height="20" transform="translate(116 167)" fill="white"/>
<path d="M132.031 170L123.125 179L118.969 174.8L116 177.8L123.125 185L135 173L132.031 170Z" fill="black"/>
<path d="M116 193H141" stroke="black"/>
<rect width="20" height="20" transform="translate(116 199)" fill="white"/>
<path d="M132.031 202L123.125 211L118.969 206.8L116 209.8L123.125 217L135 205L132.031 202Z" fill="black"/>
<path d="M148.393 205.048L146.489 206.104L148.393 207.176L147.897 208.056L145.961 206.92L145.977 209.096H145.017L145.033 206.92L143.097 208.056L142.601 207.176L144.521 206.104L142.601 205.048L143.097 204.152L145.033 205.288L145.017 203.128H145.977L145.961 205.288L147.897 204.152L148.393 205.048Z" fill="black"/>
<path d="M116 225H141" stroke="black"/>
<rect width="20" height="20" transform="translate(116 231)" fill="white"/>
<path d="M132.031 234L123.125 243L118.969 238.8L116 241.8L123.125 249L135 237L132.031 234Z" fill="black"/>
<path d="M148.393 237.048L146.489 238.104L148.393 239.176L147.897 240.056L145.961 238.92L145.977 241.096H145.017L145.033 238.92L143.097 240.056L142.601 239.176L144.521 238.104L142.601 237.048L143.097 236.152L145.033 237.288L145.017 235.128H145.977L145.961 237.288L147.897 236.152L148.393 237.048Z" fill="black"/>
<path d="M116 257H141" stroke="black"/>
<rect width="20" height="20" transform="translate(116 263)" fill="white"/>
<path d="M132.031 266L123.125 275L118.969 270.8L116 273.8L123.125 281L135 269L132.031 266Z" fill="black"/>
<path d="M148.393 269.048L146.489 270.104L148.393 271.176L147.897 272.056L145.961 270.92L145.977 273.096H145.017L145.033 270.92L143.097 272.056L142.601 271.176L144.521 270.104L142.601 269.048L143.097 268.152L145.033 269.288L145.017 267.128H145.977L145.961 269.288L147.897 268.152L148.393 269.048Z" fill="black"/>
<path d="M161.393 269.048L159.489 270.104L161.393 271.176L160.897 272.056L158.961 270.92L158.977 273.096H158.017L158.033 270.92L156.097 272.056L155.601 271.176L157.521 270.104L155.601 269.048L156.097 268.152L158.033 269.288L158.017 267.128H158.977L158.961 269.288L160.897 268.152L161.393 269.048Z" fill="black"/>
<path d="M116 289H141" stroke="black"/>
<path d="M170.368 31.6H173.452V40H172.264V32.644H170.368V31.6ZM177.749 34.948C180.257 34.948 181.241 35.992 181.241 37.48C181.241 38.932 180.209 40.096 178.061 40.096C176.873 40.096 175.697 39.712 174.977 39.076L175.529 38.128C176.093 38.656 177.029 39.028 178.049 39.028C179.321 39.028 180.041 38.44 180.041 37.528C180.041 36.58 179.441 35.992 177.497 35.992H175.589L176.033 31.6H180.773V32.644H177.041L176.813 34.948H177.749ZM185.732 40.096C183.764 40.096 182.3 38.536 182.3 35.8C182.3 33.064 183.764 31.504 185.732 31.504C187.688 31.504 189.152 33.064 189.152 35.8C189.152 38.536 187.688 40.096 185.732 40.096ZM185.732 39.028C187.04 39.028 187.952 37.948 187.952 35.8C187.952 33.652 187.04 32.572 185.732 32.572C184.412 32.572 183.5 33.652 183.5 35.8C183.5 37.948 184.412 39.028 185.732 39.028Z" fill="black"/>
<path d="M170 65H214" stroke="black"/>
<rect width="20" height="20" transform="translate(170 71)" fill="white"/>
<path d="M186.031 74L177.125 83L172.969 78.8L170 81.8L177.125 89L189 77L186.031 74Z" fill="black"/>
<path d="M170 97H214" stroke="black"/>
<rect width="20" height="20" transform="translate(170 103)" fill="white"/>
<path d="M186.031 106L177.125 115L172.969 110.8L170 113.8L177.125 121L189 109L186.031 106Z" fill="black"/>
<path d="M170 129H214" stroke="black"/>
<rect width="20" height="20" transform="translate(170 135)" fill="white"/>
<path d="M186.031 138L177.125 147L172.969 142.8L170 145.8L177.125 153L189 141L186.031 138Z" fill="black"/>
<path d="M170 161H214" stroke="black"/>
<rect width="20" height="20" transform="translate(170 167)" fill="white"/>
<path d="M186.031 170L177.125 179L172.969 174.8L170 177.8L177.125 185L189 173L186.031 170Z" fill="black"/>
<path d="M202.393 173.048L200.489 174.104L202.393 175.176L201.897 176.056L199.961 174.92L199.977 177.096H199.017L199.033 174.92L197.097 176.056L196.601 175.176L198.521 174.104L196.601 173.048L197.097 172.152L199.033 173.288L199.017 171.128H199.977L199.961 173.288L201.897 172.152L202.393 173.048Z" fill="black"/>
<path d="M170 193H214" stroke="black"/>
<rect width="20" height="20" transform="translate(170 199)" fill="white"/>
<path d="M186.031 202L177.125 211L172.969 206.8L170 209.8L177.125 217L189 205L186.031 202Z" fill="black"/>
<path d="M202.393 205.048L200.489 206.104L202.393 207.176L201.897 208.056L199.961 206.92L199.977 209.096H199.017L199.033 206.92L197.097 208.056L196.601 207.176L198.521 206.104L196.601 205.048L197.097 204.152L199.033 205.288L199.017 203.128H199.977L199.961 205.288L201.897 204.152L202.393 205.048Z" fill="black"/>
<path d="M170 225H214" stroke="black"/>
<rect width="20" height="20" transform="translate(170 231)" fill="white"/>
<path d="M186.031 234L177.125 243L172.969 238.8L170 241.8L177.125 249L189 237L186.031 234Z" fill="black"/>
<path d="M202.393 237.048L200.489 238.104L202.393 239.176L201.897 240.056L199.961 238.92L199.977 241.096H199.017L199.033 238.92L197.097 240.056L196.601 239.176L198.521 238.104L196.601 237.048L197.097 236.152L199.033 237.288L199.017 235.128H199.977L199.961 237.288L201.897 236.152L202.393 237.048Z" fill="black"/>
<path d="M170 257H214" stroke="black"/>
<rect width="20" height="20" transform="translate(170 263)" fill="white"/>
<path d="M186.031 266L177.125 275L172.969 270.8L170 273.8L177.125 281L189 269L186.031 266Z" fill="black"/>
<path d="M202.393 269.048L200.489 270.104L202.393 271.176L201.897 272.056L199.961 270.92L199.977 273.096H199.017L199.033 270.92L197.097 272.056L196.601 271.176L198.521 270.104L196.601 269.048L197.097 268.152L199.033 269.288L199.017 267.128H199.977L199.961 269.288L201.897 268.152L202.393 269.048Z" fill="black"/>
<path d="M215.393 269.048L213.489 270.104L215.393 271.176L214.897 272.056L212.961 270.92L212.977 273.096H212.017L212.033 270.92L210.097 272.056L209.601 271.176L211.521 270.104L209.601 269.048L210.097 268.152L212.033 269.288L212.017 267.128H212.977L212.961 269.288L214.897 268.152L215.393 269.048Z" fill="black"/>
<path d="M170 289H214" stroke="black"/>
<path d="M226.18 38.956H230.488V40H224.452V39.184L227.872 35.884C228.76 35.02 228.928 34.492 228.928 33.964C228.928 33.1 228.316 32.572 227.14 32.572C226.24 32.572 225.508 32.86 224.992 33.484L224.176 32.776C224.824 31.972 225.94 31.504 227.248 31.504C229 31.504 230.128 32.404 230.128 33.844C230.128 34.66 229.888 35.392 228.748 36.484L226.18 38.956ZM234.932 40.096C232.964 40.096 231.5 38.536 231.5 35.8C231.5 33.064 232.964 31.504 234.932 31.504C236.888 31.504 238.352 33.064 238.352 35.8C238.352 38.536 236.888 40.096 234.932 40.096ZM234.932 39.028C236.24 39.028 237.152 37.948 237.152 35.8C237.152 33.652 236.24 32.572 234.932 32.572C233.612 32.572 232.7 33.652 232.7 35.8C232.7 37.948 233.612 39.028 234.932 39.028ZM242.996 40.096C241.028 40.096 239.564 38.536 239.564 35.8C239.564 33.064 241.028 31.504 242.996 31.504C244.952 31.504 246.416 33.064 246.416 35.8C246.416 38.536 244.952 40.096 242.996 40.096ZM242.996 39.028C244.304 39.028 245.216 37.948 245.216 35.8C245.216 33.652 244.304 32.572 242.996 32.572C241.676 32.572 240.764 33.652 240.764 35.8C240.764 37.948 241.676 39.028 242.996 39.028Z" fill="black"/>
<path d="M224 65H249" stroke="black"/>
<rect width="20" height="20" transform="translate(224 71)" fill="white"/>
<path d="M240.031 74L231.125 83L226.969 78.8L224 81.8L231.125 89L243 77L240.031 74Z" fill="black"/>
<path d="M224 97H249" stroke="black"/>
<rect width="20" height="20" transform="translate(224 103)" fill="white"/>
<path d="M240.031 106L231.125 115L226.969 110.8L224 113.8L231.125 121L243 109L240.031 106Z" fill="black"/>
<path d="M224 129H249" stroke="black"/>
<rect width="20" height="20" transform="translate(224 135)" fill="white"/>
<path d="M240.031 138L231.125 147L226.969 142.8L224 145.8L231.125 153L243 141L240.031 138Z" fill="black"/>
<path d="M224 161H249" stroke="black"/>
<rect width="20" height="20" transform="translate(224 167)" fill="white"/>
<path d="M240.031 170L231.125 179L226.969 174.8L224 177.8L231.125 185L243 173L240.031 170Z" fill="black"/>
<path d="M224 193H249" stroke="black"/>
<rect width="20" height="20" transform="translate(224 199)" fill="white"/>
<path d="M240.031 202L231.125 211L226.969 206.8L224 209.8L231.125 217L243 205L240.031 202Z" fill="black"/>
<path d="M224 225H249" stroke="black"/>
<rect width="20" height="20" transform="translate(224 231)" fill="white"/>
<path d="M240.031 234L231.125 243L226.969 238.8L224 241.8L231.125 249L243 237L240.031 234Z" fill="black"/>
<path d="M224 257H249" stroke="black"/>
<rect width="20" height="20" transform="translate(224 263)" fill="white"/>
<path d="M224 289H249" stroke="black"/>
<path d="M278 65H351" stroke="black"/>
<path d="M288.45 87L287.218 84.2H281.266L280.034 87H278.386L283.458 75.8H285.042L290.13 87H288.45ZM281.826 82.92H286.658L284.242 77.432L281.826 82.92ZM289.656 75.8H293.768V87H292.184V77.192H289.656V75.8ZM297.37 84.904C297.978 84.904 298.41 85.368 298.41 85.992C298.41 86.312 298.346 86.552 298.138 87.144L297.386 89.368H296.378L296.97 86.984C296.57 86.84 296.298 86.472 296.298 85.992C296.298 85.352 296.762 84.904 297.37 84.904ZM313.66 87L312.428 84.2H306.476L305.244 87H303.596L308.668 75.8H310.252L315.34 87H313.66ZM307.036 82.92H311.868L309.452 77.432L307.036 82.92ZM318.307 85.608H324.051V87H316.003V85.912L320.563 81.512C321.747 80.36 321.971 79.656 321.971 78.952C321.971 77.8 321.155 77.096 319.587 77.096C318.387 77.096 317.411 77.48 316.723 78.312L315.635 77.368C316.499 76.296 317.987 75.672 319.731 75.672C322.067 75.672 323.571 76.872 323.571 78.792C323.571 79.88 323.251 80.856 321.731 82.312L318.307 85.608Z" fill="black"/>
<path d="M278 97H351" stroke="black"/>
<path d="M288.45 119L287.218 116.2H281.266L280.034 119H278.386L283.458 107.8H285.042L290.13 119H288.45ZM281.826 114.92H286.658L284.242 109.432L281.826 114.92ZM289.656 107.8H293.768V119H292.184V109.192H289.656V107.8ZM297.37 116.904C297.978 116.904 298.41 117.368 298.41 117.992C298.41 118.312 298.346 118.552 298.138 119.144L297.386 121.368H296.378L296.97 118.984C296.57 118.84 296.298 118.472 296.298 117.992C296.298 117.352 296.762 116.904 297.37 116.904ZM313.66 119L312.428 116.2H306.476L305.244 119H303.596L308.668 107.8H310.252L315.34 119H313.66ZM307.036 114.92H311.868L309.452 109.432L307.036 114.92ZM318.307 117.608H324.051V119H316.003V117.912L320.563 113.512C321.747 112.36 321.971 111.656 321.971 110.952C321.971 109.8 321.155 109.096 319.587 109.096C318.387 109.096 317.411 109.48 316.723 110.312L315.635 109.368C316.499 108.296 317.987 107.672 319.731 107.672C322.067 107.672 323.571 108.872 323.571 110.792C323.571 111.88 323.251 112.856 321.731 114.312L318.307 117.608Z" fill="black"/>
<path d="M278 129H351" stroke="black"/>
<path d="M288.188 151L286.956 148.2H281.004L279.772 151H278.124L283.196 139.8H284.78L289.868 151H288.188ZM281.564 146.92H286.396L283.98 141.432L281.564 146.92ZM289.395 139.8H293.507V151H291.923V141.192H289.395V139.8ZM297.109 148.904C297.717 148.904 298.149 149.368 298.149 149.992C298.149 150.312 298.085 150.552 297.877 151.144L297.125 153.368H296.117L296.709 150.984C296.309 150.84 296.037 150.472 296.037 149.992C296.037 149.352 296.501 148.904 297.109 148.904ZM313.399 151L312.167 148.2H306.215L304.983 151H303.335L308.407 139.8H309.991L315.079 151H313.399ZM306.775 146.92H311.607L309.191 141.432L306.775 146.92ZM318.045 149.608H323.789V151H315.741V149.912L320.301 145.512C321.485 144.36 321.709 143.656 321.709 142.952C321.709 141.8 320.893 141.096 319.325 141.096C318.125 141.096 317.149 141.48 316.461 142.312L315.373 141.368C316.237 140.296 317.725 139.672 319.469 139.672C321.805 139.672 323.309 140.872 323.309 142.792C323.309 143.88 322.989 144.856 321.469 146.312L318.045 149.608ZM326.413 148.904C327.021 148.904 327.453 149.368 327.453 149.992C327.453 150.312 327.389 150.552 327.181 151.144L326.429 153.368H325.421L326.013 150.984C325.613 150.84 325.341 150.472 325.341 149.992C325.341 149.352 325.805 148.904 326.413 148.904ZM342.239 141.192H335.935V145.096H341.551V146.472H335.935V151H334.335V139.8H342.239V141.192ZM345.777 151.128C344.449 151.128 343.233 150.552 342.513 149.512L343.441 148.424C344.049 149.288 344.833 149.752 345.777 149.752C347.041 149.752 347.697 148.984 347.697 147.48V141.192H343.649V139.8H349.281V147.4C349.281 149.896 348.065 151.128 345.777 151.128Z" fill="black"/>
<path d="M278 161H351" stroke="black"/>
<path d="M288.188 183L286.956 180.2H281.004L279.772 183H278.124L283.196 171.8H284.78L289.868 183H288.188ZM281.564 178.92H286.396L283.98 173.432L281.564 178.92ZM289.395 171.8H293.507V183H291.923V173.192H289.395V171.8ZM297.109 180.904C297.717 180.904 298.149 181.368 298.149 181.992C298.149 182.312 298.085 182.552 297.877 183.144L297.125 185.368H296.117L296.709 182.984C296.309 182.84 296.037 182.472 296.037 181.992C296.037 181.352 296.501 180.904 297.109 180.904ZM313.399 183L312.167 180.2H306.215L304.983 183H303.335L308.407 171.8H309.991L315.079 183H313.399ZM306.775 178.92H311.607L309.191 173.432L306.775 178.92ZM318.045 181.608H323.789V183H315.741V181.912L320.301 177.512C321.485 176.36 321.709 175.656 321.709 174.952C321.709 173.8 320.893 173.096 319.325 173.096C318.125 173.096 317.149 173.48 316.461 174.312L315.373 173.368C316.237 172.296 317.725 171.672 319.469 171.672C321.805 171.672 323.309 172.872 323.309 174.792C323.309 175.88 322.989 176.856 321.469 178.312L318.045 181.608ZM326.413 180.904C327.021 180.904 327.453 181.368 327.453 181.992C327.453 182.312 327.389 182.552 327.181 183.144L326.429 185.368H325.421L326.013 182.984C325.613 182.84 325.341 182.472 325.341 181.992C325.341 181.352 325.805 180.904 326.413 180.904ZM342.239 173.192H335.935V177.096H341.551V178.472H335.935V183H334.335V171.8H342.239V173.192ZM345.777 183.128C344.449 183.128 343.233 182.552 342.513 181.512L343.441 180.424C344.049 181.288 344.833 181.752 345.777 181.752C347.041 181.752 347.697 180.984 347.697 179.48V173.192H343.649V171.8H349.281V179.4C349.281 181.896 348.065 183.128 345.777 183.128Z" fill="black"/>
<path d="M278 193H351" stroke="black"/>
<path d="M288.188 215L286.956 212.2H281.004L279.772 215H278.124L283.196 203.8H284.78L289.868 215H288.188ZM281.564 210.92H286.396L283.98 205.432L281.564 210.92ZM289.395 203.8H293.507V215H291.923V205.192H289.395V203.8ZM297.109 212.904C297.717 212.904 298.149 213.368 298.149 213.992C298.149 214.312 298.085 214.552 297.877 215.144L297.125 217.368H296.117L296.709 214.984C296.309 214.84 296.037 214.472 296.037 213.992C296.037 213.352 296.501 212.904 297.109 212.904ZM313.399 215L312.167 212.2H306.215L304.983 215H303.335L308.407 203.8H309.991L315.079 215H313.399ZM306.775 210.92H311.607L309.191 205.432L306.775 210.92ZM318.045 213.608H323.789V215H315.741V213.912L320.301 209.512C321.485 208.36 321.709 207.656 321.709 206.952C321.709 205.8 320.893 205.096 319.325 205.096C318.125 205.096 317.149 205.48 316.461 206.312L315.373 205.368C316.237 204.296 317.725 203.672 319.469 203.672C321.805 203.672 323.309 204.872 323.309 206.792C323.309 207.88 322.989 208.856 321.469 210.312L318.045 213.608ZM326.413 212.904C327.021 212.904 327.453 213.368 327.453 213.992C327.453 214.312 327.389 214.552 327.181 215.144L326.429 217.368H325.421L326.013 214.984C325.613 214.84 325.341 214.472 325.341 213.992C325.341 213.352 325.805 212.904 326.413 212.904ZM342.239 205.192H335.935V209.096H341.551V210.472H335.935V215H334.335V203.8H342.239V205.192ZM345.777 215.128C344.449 215.128 343.233 214.552 342.513 213.512L343.441 212.424C344.049 213.288 344.833 213.752 345.777 213.752C347.041 213.752 347.697 212.984 347.697 211.48V205.192H343.649V203.8H349.281V211.4C349.281 213.896 348.065 215.128 345.777 215.128Z" fill="black"/>
<path d="M278 225H351" stroke="black"/>
<path d="M288.188 247L286.956 244.2H281.004L279.772 247H278.124L283.196 235.8H284.78L289.868 247H288.188ZM281.564 242.92H286.396L283.98 237.432L281.564 242.92ZM289.395 235.8H293.507V247H291.923V237.192H289.395V235.8ZM297.109 244.904C297.717 244.904 298.149 245.368 298.149 245.992C298.149 246.312 298.085 246.552 297.877 247.144L297.125 249.368H296.117L296.709 246.984C296.309 246.84 296.037 246.472 296.037 245.992C296.037 245.352 296.501 244.904 297.109 244.904ZM313.399 247L312.167 244.2H306.215L304.983 247H303.335L308.407 235.8H309.991L315.079 247H313.399ZM306.775 242.92H311.607L309.191 237.432L306.775 242.92ZM318.045 245.608H323.789V247H315.741V245.912L320.301 241.512C321.485 240.36 321.709 239.656 321.709 238.952C321.709 237.8 320.893 237.096 319.325 237.096C318.125 237.096 317.149 237.48 316.461 238.312L315.373 237.368C316.237 236.296 317.725 235.672 319.469 235.672C321.805 235.672 323.309 236.872 323.309 238.792C323.309 239.88 322.989 240.856 321.469 242.312L318.045 245.608ZM326.413 244.904C327.021 244.904 327.453 245.368 327.453 245.992C327.453 246.312 327.389 246.552 327.181 247.144L326.429 249.368H325.421L326.013 246.984C325.613 246.84 325.341 246.472 325.341 245.992C325.341 245.352 325.805 244.904 326.413 244.904ZM342.239 237.192H335.935V241.096H341.551V242.472H335.935V247H334.335V235.8H342.239V237.192ZM345.777 247.128C344.449 247.128 343.233 246.552 342.513 245.512L343.441 244.424C344.049 245.288 344.833 245.752 345.777 245.752C347.041 245.752 347.697 244.984 347.697 243.48V237.192H343.649V235.8H349.281V243.4C349.281 245.896 348.065 247.128 345.777 247.128Z" fill="black"/>
<path d="M278 257H351" stroke="black"/>
<path d="M287.982 269.192H281.678V273.096H287.294V274.472H281.678V279H280.078V267.8H287.982V269.192ZM291.519 279.128C290.191 279.128 288.975 278.552 288.255 277.512L289.183 276.424C289.791 277.288 290.575 277.752 291.519 277.752C292.783 277.752 293.439 276.984 293.439 275.48V269.192H289.391V267.8H295.023V275.4C295.023 277.896 293.807 279.128 291.519 279.128Z" fill="black"/>
<path d="M278 289H351" stroke="black"/>
<path d="M4.48469 310.158L3.17569 310.884L4.48469 311.621L4.14369 312.226L2.81269 311.445L2.82369 312.941H2.16369L2.17469 311.445L0.843686 312.226L0.502686 311.621L1.82269 310.884L0.502686 310.158L0.843686 309.542L2.17469 310.323L2.16369 308.838H2.82369L2.81269 310.323L4.14369 309.542L4.48469 310.158ZM14.6701 317L13.8231 315.075H9.73108L8.88408 317H7.75108L11.2381 309.3H12.3271L15.8251 317H14.6701ZM10.1161 314.195H13.4381L11.7771 310.422L10.1161 314.195ZM16.8747 317V308.838H17.9307V317H16.8747ZM21.674 317.066C20.706 317.066 19.749 316.769 19.265 316.384L19.705 315.548C20.2 315.9 20.992 316.153 21.751 316.153C22.73 316.153 23.137 315.856 23.137 315.361C23.137 314.052 19.452 315.185 19.452 312.864C19.452 311.819 20.387 311.115 21.883 311.115C22.642 311.115 23.5 311.313 24.006 311.643L23.555 312.479C23.027 312.138 22.444 312.017 21.872 312.017C20.948 312.017 20.497 312.358 20.497 312.82C20.497 314.195 24.193 313.073 24.193 315.339C24.193 316.395 23.225 317.066 21.674 317.066ZM28.0647 317.066C26.3157 317.066 25.0287 315.823 25.0287 314.085C25.0287 312.347 26.3157 311.115 28.0647 311.115C29.8137 311.115 31.0897 312.347 31.0897 314.085C31.0897 315.823 29.8137 317.066 28.0647 317.066ZM28.0647 316.142C29.1867 316.142 30.0227 315.328 30.0227 314.085C30.0227 312.842 29.1867 312.039 28.0647 312.039C26.9427 312.039 26.0957 312.842 26.0957 314.085C26.0957 315.328 26.9427 316.142 28.0647 316.142ZM38.7053 311.115C40.4103 311.115 41.6533 312.303 41.6533 314.085C41.6533 315.878 40.4103 317.066 38.7053 317.066C37.8803 317.066 37.1543 316.747 36.6703 316.12V319.134H35.6143V311.17H36.6263V312.094C37.0993 311.445 37.8473 311.115 38.7053 311.115ZM38.6173 316.142C39.7393 316.142 40.5863 315.328 40.5863 314.085C40.5863 312.853 39.7393 312.039 38.6173 312.039C37.5063 312.039 36.6593 312.853 36.6593 314.085C36.6593 315.328 37.5063 316.142 38.6173 316.142ZM45.6643 317.066C43.9153 317.066 42.6283 315.823 42.6283 314.085C42.6283 312.347 43.9153 311.115 45.6643 311.115C47.4133 311.115 48.6893 312.347 48.6893 314.085C48.6893 315.823 47.4133 317.066 45.6643 317.066ZM45.6643 316.142C46.7863 316.142 47.6223 315.328 47.6223 314.085C47.6223 312.842 46.7863 312.039 45.6643 312.039C44.5423 312.039 43.6953 312.842 43.6953 314.085C43.6953 315.328 44.5423 316.142 45.6643 316.142ZM51.8767 317.066C50.9087 317.066 49.9517 316.769 49.4677 316.384L49.9077 315.548C50.4027 315.9 51.1947 316.153 51.9537 316.153C52.9327 316.153 53.3397 315.856 53.3397 315.361C53.3397 314.052 49.6547 315.185 49.6547 312.864C49.6547 311.819 50.5897 311.115 52.0857 311.115C52.8447 311.115 53.7027 311.313 54.2087 311.643L53.7577 312.479C53.2297 312.138 52.6467 312.017 52.0747 312.017C51.1507 312.017 50.6997 312.358 50.6997 312.82C50.6997 314.195 54.3957 313.073 54.3957 315.339C54.3957 316.395 53.4277 317.066 51.8767 317.066ZM57.4425 317.066C56.4745 317.066 55.5175 316.769 55.0335 316.384L55.4735 315.548C55.9685 315.9 56.7605 316.153 57.5195 316.153C58.4985 316.153 58.9055 315.856 58.9055 315.361C58.9055 314.052 55.2205 315.185 55.2205 312.864C55.2205 311.819 56.1555 311.115 57.6515 311.115C58.4105 311.115 59.2685 311.313 59.7745 311.643L59.3235 312.479C58.7955 312.138 58.2125 312.017 57.6405 312.017C56.7165 312.017 56.2655 312.358 56.2655 312.82C56.2655 314.195 59.9615 313.073 59.9615 315.339C59.9615 316.395 58.9935 317.066 57.4425 317.066ZM61.8642 310.048C61.4572 310.048 61.1492 309.751 61.1492 309.366C61.1492 308.981 61.4572 308.673 61.8642 308.673C62.2712 308.673 62.5792 308.97 62.5792 309.344C62.5792 309.74 62.2822 310.048 61.8642 310.048ZM61.3362 317V311.17H62.3922V317H61.3362ZM67.5545 311.115C69.2595 311.115 70.5025 312.303 70.5025 314.085C70.5025 315.867 69.2595 317.066 67.5545 317.066C66.6965 317.066 65.9485 316.736 65.4755 316.076V317H64.4635V308.838H65.5195V312.05C66.0035 311.423 66.7295 311.115 67.5545 311.115ZM67.4665 316.142C68.5885 316.142 69.4355 315.328 69.4355 314.085C69.4355 312.842 68.5885 312.039 67.4665 312.039C66.3555 312.039 65.5085 312.842 65.5085 314.085C65.5085 315.328 66.3555 316.142 67.4665 316.142ZM72.0165 317V308.838H73.0725V317H72.0165ZM80.4128 314.118C80.4128 314.206 80.4018 314.338 80.3908 314.437H75.6608C75.7928 315.46 76.6178 316.142 77.7728 316.142C78.4548 316.142 79.0268 315.911 79.4558 315.438L80.0388 316.12C79.5108 316.736 78.7078 317.066 77.7398 317.066C75.8588 317.066 74.6048 315.823 74.6048 314.085C74.6048 312.358 75.8478 311.115 77.5308 311.115C79.2138 311.115 80.4128 312.325 80.4128 314.118ZM77.5308 312.006C76.5188 312.006 75.7708 312.688 75.6608 313.678H79.4008C79.2908 312.699 78.5538 312.006 77.5308 312.006ZM85.4712 310.048C85.0642 310.048 84.7562 309.751 84.7562 309.366C84.7562 308.981 85.0642 308.673 85.4712 308.673C85.8782 308.673 86.1862 308.97 86.1862 309.344C86.1862 309.74 85.8892 310.048 85.4712 310.048ZM84.9432 317V311.17H85.9992V317H84.9432ZM91.1835 311.115C92.6025 311.115 93.6035 311.929 93.6035 313.645V317H92.5475V313.766C92.5475 312.622 91.9755 312.061 90.9745 312.061C89.8525 312.061 89.1265 312.732 89.1265 313.997V317H88.0705V311.17H89.0825V312.05C89.5115 311.456 90.2595 311.115 91.1835 311.115ZM104.21 310.257H99.8759V312.941H103.737V313.887H99.8759V317H98.7759V309.3H104.21V310.257ZM106.08 310.048C105.673 310.048 105.365 309.751 105.365 309.366C105.365 308.981 105.673 308.673 106.08 308.673C106.487 308.673 106.795 308.97 106.795 309.344C106.795 309.74 106.498 310.048 106.08 310.048ZM105.552 317V311.17H106.608V317H105.552ZM111.792 311.115C113.211 311.115 114.212 311.929 114.212 313.645V317H113.156V313.766C113.156 312.622 112.584 312.061 111.583 312.061C110.461 312.061 109.735 312.732 109.735 313.997V317H108.679V311.17H109.691V312.05C110.12 311.456 110.868 311.115 111.792 311.115ZM120.83 311.17H121.831V316.208C121.831 318.265 120.786 319.2 118.806 319.2C117.739 319.2 116.661 318.903 116.023 318.331L116.529 317.517C117.068 317.979 117.915 318.276 118.773 318.276C120.148 318.276 120.775 317.638 120.775 316.318V315.856C120.269 316.461 119.51 316.758 118.674 316.758C116.991 316.758 115.715 315.614 115.715 313.931C115.715 312.248 116.991 311.115 118.674 311.115C119.543 311.115 120.335 311.434 120.83 312.072V311.17ZM118.795 315.834C119.961 315.834 120.797 315.053 120.797 313.931C120.797 312.798 119.961 312.039 118.795 312.039C117.618 312.039 116.782 312.798 116.782 313.931C116.782 315.053 117.618 315.834 118.795 315.834ZM129.172 314.118C129.172 314.206 129.161 314.338 129.15 314.437H124.42C124.552 315.46 125.377 316.142 126.532 316.142C127.214 316.142 127.786 315.911 128.215 315.438L128.798 316.12C128.27 316.736 127.467 317.066 126.499 317.066C124.618 317.066 123.364 315.823 123.364 314.085C123.364 312.358 124.607 311.115 126.29 311.115C127.973 311.115 129.172 312.325 129.172 314.118ZM126.29 312.006C125.278 312.006 124.53 312.688 124.42 313.678H128.16C128.05 312.699 127.313 312.006 126.29 312.006ZM131.706 312.149C132.08 311.467 132.806 311.115 133.829 311.115V312.138C133.741 312.127 133.664 312.127 133.587 312.127C132.454 312.127 131.75 312.82 131.75 314.096V317H130.694V311.17H131.706V312.149ZM139.414 317.088C138.501 317.088 137.665 316.692 137.17 315.977L137.808 315.229C138.226 315.823 138.765 316.142 139.414 316.142C140.283 316.142 140.734 315.614 140.734 314.58V310.257H137.951V309.3H141.823V314.525C141.823 316.241 140.987 317.088 139.414 317.088ZM146.461 317.066C144.712 317.066 143.425 315.823 143.425 314.085C143.425 312.347 144.712 311.115 146.461 311.115C148.21 311.115 149.486 312.347 149.486 314.085C149.486 315.823 148.21 317.066 146.461 317.066ZM146.461 316.142C147.583 316.142 148.419 315.328 148.419 314.085C148.419 312.842 147.583 312.039 146.461 312.039C145.339 312.039 144.492 312.842 144.492 314.085C144.492 315.328 145.339 316.142 146.461 316.142ZM151.53 310.048C151.123 310.048 150.815 309.751 150.815 309.366C150.815 308.981 151.123 308.673 151.53 308.673C151.937 308.673 152.245 308.97 152.245 309.344C152.245 309.74 151.948 310.048 151.53 310.048ZM151.002 317V311.17H152.058V317H151.002ZM157.242 311.115C158.661 311.115 159.662 311.929 159.662 313.645V317H158.606V313.766C158.606 312.622 158.034 312.061 157.033 312.061C155.911 312.061 155.185 312.732 155.185 313.997V317H154.129V311.17H155.141V312.05C155.57 311.456 156.318 311.115 157.242 311.115ZM164.619 315.9L164.949 316.659C164.63 316.934 164.146 317.066 163.673 317.066C162.496 317.066 161.825 316.417 161.825 315.24V312.039H160.835V311.17H161.825V309.894H162.881V311.17H164.553V312.039H162.881V315.196C162.881 315.823 163.211 316.175 163.794 316.175C164.102 316.175 164.399 316.076 164.619 315.9ZM171.357 314.118C171.357 314.206 171.346 314.338 171.335 314.437H166.605C166.737 315.46 167.562 316.142 168.717 316.142C169.399 316.142 169.971 315.911 170.4 315.438L170.983 316.12C170.455 316.736 169.652 317.066 168.684 317.066C166.803 317.066 165.549 315.823 165.549 314.085C165.549 312.358 166.792 311.115 168.475 311.115C170.158 311.115 171.357 312.325 171.357 314.118ZM168.475 312.006C167.463 312.006 166.715 312.688 166.605 313.678H170.345C170.235 312.699 169.498 312.006 168.475 312.006ZM177.322 308.838H178.378V317H177.366V316.076C176.893 316.736 176.145 317.066 175.287 317.066C173.582 317.066 172.339 315.867 172.339 314.085C172.339 312.303 173.582 311.115 175.287 311.115C176.112 311.115 176.838 311.423 177.322 312.05V308.838ZM175.375 316.142C176.486 316.142 177.333 315.328 177.333 314.085C177.333 312.842 176.486 312.039 175.375 312.039C174.253 312.039 173.406 312.842 173.406 314.085C173.406 315.328 174.253 316.142 175.375 316.142ZM184.793 319.134C183.957 317.803 183.484 316.01 183.484 313.986C183.484 311.962 183.957 310.147 184.793 308.838H185.794C184.903 310.4 184.518 312.061 184.518 313.986C184.518 315.911 184.903 317.572 185.794 319.134H184.793ZM193.212 314.162V315.108H191.749V317H190.682V315.108H186.403V314.338L190.341 309.3H191.529L187.756 314.162H190.715V312.49H191.749V314.162H193.212ZM197.249 312.325C198.778 312.325 199.889 313.238 199.889 314.657C199.889 316.142 198.69 317.088 197.161 317.088C195.093 317.088 193.927 315.702 193.927 313.249C193.927 310.62 195.412 309.212 197.568 309.212C198.294 309.212 198.987 309.355 199.482 309.663L199.064 310.521C198.668 310.257 198.14 310.158 197.59 310.158C196.028 310.158 195.027 311.137 195.027 313.062C195.027 313.15 195.027 313.238 195.038 313.337C195.478 312.677 196.292 312.325 197.249 312.325ZM197.117 316.197C198.118 316.197 198.822 315.614 198.822 314.701C198.822 313.799 198.14 313.216 197.062 313.216C196.017 313.216 195.291 313.865 195.291 314.712C195.291 315.504 195.929 316.197 197.117 316.197ZM207.428 317H206.163L203.853 313.821L201.576 317H200.311L203.204 313.051L200.487 309.3H201.741L203.897 312.259L206.031 309.3H207.23L204.513 313.018L207.428 317ZM210.466 309.212C212.534 309.212 213.7 310.598 213.7 313.051C213.7 315.68 212.215 317.088 210.059 317.088C209.333 317.088 208.64 316.945 208.145 316.637L208.563 315.779C208.97 316.043 209.487 316.142 210.048 316.142C211.61 316.142 212.6 315.163 212.6 313.238V312.963C212.149 313.634 211.335 313.975 210.378 313.975C208.849 313.975 207.749 313.062 207.749 311.643C207.749 310.158 208.937 309.212 210.466 309.212ZM210.565 313.084C211.621 313.084 212.347 312.435 212.347 311.588C212.347 310.796 211.709 310.103 210.51 310.103C209.509 310.103 208.816 310.686 208.816 311.599C208.816 312.501 209.487 313.084 210.565 313.084ZM217.013 312.369C219.312 312.369 220.214 313.326 220.214 314.69C220.214 316.021 219.268 317.088 217.299 317.088C216.21 317.088 215.132 316.736 214.472 316.153L214.978 315.284C215.495 315.768 216.353 316.109 217.288 316.109C218.454 316.109 219.114 315.57 219.114 314.734C219.114 313.865 218.564 313.326 216.782 313.326H215.033L215.44 309.3H219.785V310.257H216.364L216.155 312.369H217.013ZM220.349 318.1L223.979 307.738H224.936L221.306 318.1H220.349ZM227.676 309.3H230.503V317H229.414V310.257H227.676V309.3ZM233.705 316.043H237.654V317H232.121V316.252L235.256 313.227C236.07 312.435 236.224 311.951 236.224 311.467C236.224 310.675 235.663 310.191 234.585 310.191C233.76 310.191 233.089 310.455 232.616 311.027L231.868 310.378C232.462 309.641 233.485 309.212 234.684 309.212C236.29 309.212 237.324 310.037 237.324 311.357C237.324 312.105 237.104 312.776 236.059 313.777L233.705 316.043ZM238.174 309.3H241.001V317H239.912V310.257H238.174V309.3ZM244.913 318.1L248.543 307.738H249.5L245.87 318.1H244.913ZM252.24 309.3H255.067V317H253.978V310.257H252.24V309.3ZM263.506 314.162V315.108H262.043V317H260.976V315.108H256.697V314.338L260.635 309.3H261.823L258.05 314.162H261.009V312.49H262.043V314.162H263.506ZM266.388 312.369C268.687 312.369 269.589 313.326 269.589 314.69C269.589 316.021 268.643 317.088 266.674 317.088C265.585 317.088 264.507 316.736 263.847 316.153L264.353 315.284C264.87 315.768 265.728 316.109 266.663 316.109C267.829 316.109 268.489 315.57 268.489 314.734C268.489 313.865 267.939 313.326 266.157 313.326H264.408L264.815 309.3H269.16V310.257H265.739L265.53 312.369H266.388ZM281.334 311.115C282.753 311.115 283.721 311.929 283.721 313.645V317H282.665V313.766C282.665 312.622 282.115 312.061 281.158 312.061C280.102 312.061 279.409 312.732 279.409 313.997V317H278.353V313.766C278.353 312.622 277.803 312.061 276.846 312.061C275.79 312.061 275.097 312.732 275.097 313.997V317H274.041V311.17H275.053V312.039C275.471 311.445 276.186 311.115 277.066 311.115C277.957 311.115 278.705 311.467 279.09 312.193C279.53 311.533 280.344 311.115 281.334 311.115ZM293.012 311.115C294.431 311.115 295.399 311.929 295.399 313.645V317H294.343V313.766C294.343 312.622 293.793 312.061 292.836 312.061C291.78 312.061 291.087 312.732 291.087 313.997V317H290.031V313.766C290.031 312.622 289.481 312.061 288.524 312.061C287.468 312.061 286.775 312.732 286.775 313.997V317H285.719V311.17H286.731V312.039C287.149 311.445 287.864 311.115 288.744 311.115C289.635 311.115 290.383 311.467 290.768 312.193C291.208 311.533 292.022 311.115 293.012 311.115ZM297.749 319.134H296.748C297.639 317.572 298.035 315.911 298.035 313.986C298.035 312.061 297.639 310.4 296.748 308.838H297.749C298.596 310.147 299.069 311.962 299.069 313.986C299.069 316.01 298.596 317.803 297.749 319.134ZM304.332 317V309.3H305.432V316.043H309.601V317H304.332ZM313.51 312.281V311.412H318.438V312.281H313.51ZM313.51 314.888V314.019H318.438V314.888H313.51ZM326.089 312.325C327.618 312.325 328.729 313.238 328.729 314.657C328.729 316.142 327.53 317.088 326.001 317.088C323.933 317.088 322.767 315.702 322.767 313.249C322.767 310.62 324.252 309.212 326.408 309.212C327.134 309.212 327.827 309.355 328.322 309.663L327.904 310.521C327.508 310.257 326.98 310.158 326.43 310.158C324.868 310.158 323.867 311.137 323.867 313.062C323.867 313.15 323.867 313.238 323.878 313.337C324.318 312.677 325.132 312.325 326.089 312.325ZM325.957 316.197C326.958 316.197 327.662 315.614 327.662 314.701C327.662 313.799 326.98 313.216 325.902 313.216C324.857 313.216 324.131 313.865 324.131 314.712C324.131 315.504 324.769 316.197 325.957 316.197ZM337.377 311.115C338.796 311.115 339.764 311.929 339.764 313.645V317H338.708V313.766C338.708 312.622 338.158 312.061 337.201 312.061C336.145 312.061 335.452 312.732 335.452 313.997V317H334.396V313.766C334.396 312.622 333.846 312.061 332.889 312.061C331.833 312.061 331.14 312.732 331.14 313.997V317H330.084V311.17H331.096V312.039C331.514 311.445 332.229 311.115 333.109 311.115C334 311.115 334.748 311.467 335.133 312.193C335.573 311.533 336.387 311.115 337.377 311.115Z" fill="black"/>
<path d="M4.20621 331.158L2.89721 331.884L4.20621 332.621L3.86521 333.226L2.53421 332.445L2.54521 333.941H1.88521L1.89621 332.445L0.565213 333.226L0.224213 332.621L1.54421 331.884L0.224213 331.158L0.565213 330.542L1.89621 331.323L1.88521 329.838H2.54521L2.53421 331.323L3.86521 330.542L4.20621 331.158ZM8.88035 331.158L7.57135 331.884L8.88035 332.621L8.53935 333.226L7.20835 332.445L7.21935 333.941H6.55935L6.57035 332.445L5.23935 333.226L4.89835 332.621L6.21835 331.884L4.89835 331.158L5.23935 330.542L6.57035 331.323L6.55935 329.838H7.21935L7.20835 331.323L8.53935 330.542L8.88035 331.158ZM16.7888 338.088C14.4238 338.088 12.6858 336.405 12.6858 334.15C12.6858 331.895 14.4238 330.212 16.7888 330.212C19.1318 330.212 20.8698 331.884 20.8698 334.15C20.8698 336.416 19.1318 338.088 16.7888 338.088ZM16.7888 337.109C18.4938 337.109 19.7698 335.855 19.7698 334.15C19.7698 332.445 18.4938 331.191 16.7888 331.191C15.0618 331.191 13.7858 332.445 13.7858 334.15C13.7858 335.855 15.0618 337.109 16.7888 337.109ZM25.565 332.115C26.984 332.115 27.985 332.929 27.985 334.645V338H26.929V334.766C26.929 333.622 26.357 333.061 25.356 333.061C24.234 333.061 23.508 333.732 23.508 334.997V338H22.452V332.17H23.464V333.05C23.893 332.456 24.641 332.115 25.565 332.115ZM29.9943 338V329.838H31.0503V338H29.9943ZM37.2466 332.17H38.2806L35.4536 338.583C34.9366 339.815 34.2656 340.2 33.3746 340.2C32.8136 340.2 32.2416 340.013 31.8786 339.661L32.3296 338.869C32.6156 339.144 32.9786 339.298 33.3746 339.298C33.8806 339.298 34.1996 339.067 34.4856 338.396L34.6726 337.989L32.0986 332.17H33.1986L35.2336 336.834L37.2466 332.17ZM47.9182 331.257H43.5842V333.941H47.4452V334.887H43.5842V338H42.4842V330.3H47.9182V331.257ZM49.7882 331.048C49.3812 331.048 49.0732 330.751 49.0732 330.366C49.0732 329.981 49.3812 329.673 49.7882 329.673C50.1952 329.673 50.5032 329.97 50.5032 330.344C50.5032 330.74 50.2062 331.048 49.7882 331.048ZM49.2602 338V332.17H50.3162V338H49.2602ZM55.5005 332.115C56.9195 332.115 57.9205 332.929 57.9205 334.645V338H56.8645V334.766C56.8645 333.622 56.2925 333.061 55.2915 333.061C54.1695 333.061 53.4435 333.732 53.4435 334.997V338H52.3875V332.17H53.3995V333.05C53.8285 332.456 54.5765 332.115 55.5005 332.115ZM64.538 332.17H65.539V337.208C65.539 339.265 64.494 340.2 62.514 340.2C61.447 340.2 60.369 339.903 59.731 339.331L60.237 338.517C60.776 338.979 61.623 339.276 62.481 339.276C63.856 339.276 64.483 338.638 64.483 337.318V336.856C63.977 337.461 63.218 337.758 62.382 337.758C60.699 337.758 59.423 336.614 59.423 334.931C59.423 333.248 60.699 332.115 62.382 332.115C63.251 332.115 64.043 332.434 64.538 333.072V332.17ZM62.503 336.834C63.669 336.834 64.505 336.053 64.505 334.931C64.505 333.798 63.669 333.039 62.503 333.039C61.326 333.039 60.49 333.798 60.49 334.931C60.49 336.053 61.326 336.834 62.503 336.834ZM72.8808 335.118C72.8808 335.206 72.8698 335.338 72.8588 335.437H68.1288C68.2608 336.46 69.0858 337.142 70.2408 337.142C70.9228 337.142 71.4948 336.911 71.9238 336.438L72.5068 337.12C71.9788 337.736 71.1758 338.066 70.2078 338.066C68.3268 338.066 67.0728 336.823 67.0728 335.085C67.0728 333.358 68.3158 332.115 69.9988 332.115C71.6818 332.115 72.8808 333.325 72.8808 335.118ZM69.9988 333.006C68.9868 333.006 68.2388 333.688 68.1288 334.678H71.8688C71.7588 333.699 71.0218 333.006 69.9988 333.006ZM75.4141 333.149C75.7881 332.467 76.5141 332.115 77.5371 332.115V333.138C77.4491 333.127 77.3721 333.127 77.2951 333.127C76.1621 333.127 75.4581 333.82 75.4581 335.096V338H74.4021V332.17H75.4141V333.149ZM83.1219 338.088C82.2089 338.088 81.3729 337.692 80.8779 336.977L81.5159 336.229C81.9339 336.823 82.4729 337.142 83.1219 337.142C83.9909 337.142 84.4419 336.614 84.4419 335.58V331.257H81.6589V330.3H85.5309V335.525C85.5309 337.241 84.6949 338.088 83.1219 338.088ZM90.1696 338.066C88.4206 338.066 87.1336 336.823 87.1336 335.085C87.1336 333.347 88.4206 332.115 90.1696 332.115C91.9186 332.115 93.1946 333.347 93.1946 335.085C93.1946 336.823 91.9186 338.066 90.1696 338.066ZM90.1696 337.142C91.2916 337.142 92.1276 336.328 92.1276 335.085C92.1276 333.842 91.2916 333.039 90.1696 333.039C89.0476 333.039 88.2006 333.842 88.2006 335.085C88.2006 336.328 89.0476 337.142 90.1696 337.142ZM95.238 331.048C94.831 331.048 94.523 330.751 94.523 330.366C94.523 329.981 94.831 329.673 95.238 329.673C95.645 329.673 95.953 329.97 95.953 330.344C95.953 330.74 95.656 331.048 95.238 331.048ZM94.71 338V332.17H95.766V338H94.71ZM100.95 332.115C102.369 332.115 103.37 332.929 103.37 334.645V338H102.314V334.766C102.314 333.622 101.742 333.061 100.741 333.061C99.6193 333.061 98.8933 333.732 98.8933 334.997V338H97.8373V332.17H98.8493V333.05C99.2783 332.456 100.026 332.115 100.95 332.115ZM108.328 336.9L108.658 337.659C108.339 337.934 107.855 338.066 107.382 338.066C106.205 338.066 105.534 337.417 105.534 336.24V333.039H104.544V332.17H105.534V330.894H106.59V332.17H108.262V333.039H106.59V336.196C106.59 336.823 106.92 337.175 107.503 337.175C107.811 337.175 108.108 337.076 108.328 336.9ZM115.065 335.118C115.065 335.206 115.054 335.338 115.043 335.437H110.313C110.445 336.46 111.27 337.142 112.425 337.142C113.107 337.142 113.679 336.911 114.108 336.438L114.691 337.12C114.163 337.736 113.36 338.066 112.392 338.066C110.511 338.066 109.257 336.823 109.257 335.085C109.257 333.358 110.5 332.115 112.183 332.115C113.866 332.115 115.065 333.325 115.065 335.118ZM112.183 333.006C111.171 333.006 110.423 333.688 110.313 334.678H114.053C113.943 333.699 113.206 333.006 112.183 333.006ZM121.03 329.838H122.086V338H121.074V337.076C120.601 337.736 119.853 338.066 118.995 338.066C117.29 338.066 116.047 336.867 116.047 335.085C116.047 333.303 117.29 332.115 118.995 332.115C119.82 332.115 120.546 332.423 121.03 333.05V329.838ZM119.083 337.142C120.194 337.142 121.041 336.328 121.041 335.085C121.041 333.842 120.194 333.039 119.083 333.039C117.961 333.039 117.114 333.842 117.114 335.085C117.114 336.328 117.961 337.142 119.083 337.142ZM129.271 332.115C130.866 332.115 131.768 332.885 131.768 334.48V338H130.767V337.23C130.415 337.758 129.766 338.066 128.853 338.066C127.533 338.066 126.697 337.362 126.697 336.35C126.697 335.415 127.302 334.645 129.04 334.645H130.712V334.436C130.712 333.545 130.195 333.028 129.15 333.028C128.457 333.028 127.753 333.27 127.302 333.655L126.862 332.863C127.467 332.379 128.336 332.115 129.271 332.115ZM129.029 337.252C129.821 337.252 130.448 336.889 130.712 336.218V335.404H129.084C128.039 335.404 127.742 335.811 127.742 336.306C127.742 336.889 128.226 337.252 129.029 337.252ZM136.891 332.115C138.31 332.115 139.311 332.929 139.311 334.645V338H138.255V334.766C138.255 333.622 137.683 333.061 136.682 333.061C135.56 333.061 134.834 333.732 134.834 334.997V338H133.778V332.17H134.79V333.05C135.219 332.456 135.967 332.115 136.891 332.115ZM145.796 329.838H146.852V338H145.84V337.076C145.367 337.736 144.619 338.066 143.761 338.066C142.056 338.066 140.813 336.867 140.813 335.085C140.813 333.303 142.056 332.115 143.761 332.115C144.586 332.115 145.312 332.423 145.796 333.05V329.838ZM143.849 337.142C144.96 337.142 145.807 336.328 145.807 335.085C145.807 333.842 144.96 333.039 143.849 333.039C142.727 333.039 141.88 333.842 141.88 335.085C141.88 336.328 142.727 337.142 143.849 337.142ZM151.914 338V329.838H152.97V338H151.914ZM157.165 332.115C158.76 332.115 159.662 332.885 159.662 334.48V338H158.661V337.23C158.309 337.758 157.66 338.066 156.747 338.066C155.427 338.066 154.591 337.362 154.591 336.35C154.591 335.415 155.196 334.645 156.934 334.645H158.606V334.436C158.606 333.545 158.089 333.028 157.044 333.028C156.351 333.028 155.647 333.27 155.196 333.655L154.756 332.863C155.361 332.379 156.23 332.115 157.165 332.115ZM156.923 337.252C157.715 337.252 158.342 336.889 158.606 336.218V335.404H156.978C155.933 335.404 155.636 335.811 155.636 336.306C155.636 336.889 156.12 337.252 156.923 337.252ZM168.964 332.115C170.383 332.115 171.351 332.929 171.351 334.645V338H170.295V334.766C170.295 333.622 169.745 333.061 168.788 333.061C167.732 333.061 167.039 333.732 167.039 334.997V338H165.983V334.766C165.983 333.622 165.433 333.061 164.476 333.061C163.42 333.061 162.727 333.732 162.727 334.997V338H161.671V332.17H162.683V333.039C163.101 332.445 163.816 332.115 164.696 332.115C165.587 332.115 166.335 332.467 166.72 333.193C167.16 332.533 167.974 332.115 168.964 332.115ZM173.877 331.048C173.47 331.048 173.162 330.751 173.162 330.366C173.162 329.981 173.47 329.673 173.877 329.673C174.284 329.673 174.592 329.97 174.592 330.344C174.592 330.74 174.295 331.048 173.877 331.048ZM173.349 338V332.17H174.405V338H173.349ZM179.589 332.115C181.008 332.115 182.009 332.929 182.009 334.645V338H180.953V334.766C180.953 333.622 180.381 333.061 179.38 333.061C178.258 333.061 177.532 333.732 177.532 334.997V338H176.476V332.17H177.488V333.05C177.917 332.456 178.665 332.115 179.589 332.115ZM186.141 332.115C187.736 332.115 188.638 332.885 188.638 334.48V338H187.637V337.23C187.285 337.758 186.636 338.066 185.723 338.066C184.403 338.066 183.567 337.362 183.567 336.35C183.567 335.415 184.172 334.645 185.91 334.645H187.582V334.436C187.582 333.545 187.065 333.028 186.02 333.028C185.327 333.028 184.623 333.27 184.172 333.655L183.732 332.863C184.337 332.379 185.206 332.115 186.141 332.115ZM185.899 337.252C186.691 337.252 187.318 336.889 187.582 336.218V335.404H185.954C184.909 335.404 184.612 335.811 184.612 336.306C184.612 336.889 185.096 337.252 185.899 337.252ZM193.596 336.9L193.926 337.659C193.607 337.934 193.123 338.066 192.65 338.066C191.473 338.066 190.802 337.417 190.802 336.24V333.039H189.812V332.17H190.802V330.894H191.858V332.17H193.53V333.039H191.858V336.196C191.858 336.823 192.188 337.175 192.771 337.175C193.079 337.175 193.376 337.076 193.596 336.9ZM200.333 335.118C200.333 335.206 200.322 335.338 200.311 335.437H195.581C195.713 336.46 196.538 337.142 197.693 337.142C198.375 337.142 198.947 336.911 199.376 336.438L199.959 337.12C199.431 337.736 198.628 338.066 197.66 338.066C195.779 338.066 194.525 336.823 194.525 335.085C194.525 333.358 195.768 332.115 197.451 332.115C199.134 332.115 200.333 333.325 200.333 335.118ZM197.451 333.006C196.439 333.006 195.691 333.688 195.581 334.678H199.321C199.211 333.699 198.474 333.006 197.451 333.006ZM206.298 329.838H207.354V338H206.342V337.076C205.869 337.736 205.121 338.066 204.263 338.066C202.558 338.066 201.315 336.867 201.315 335.085C201.315 333.303 202.558 332.115 204.263 332.115C205.088 332.115 205.814 332.423 206.298 333.05V329.838ZM204.351 337.142C205.462 337.142 206.309 336.328 206.309 335.085C206.309 333.842 205.462 333.039 204.351 333.039C203.229 333.039 202.382 333.842 202.382 335.085C202.382 336.328 203.229 337.142 204.351 337.142ZM216.779 340.134C215.943 338.803 215.47 337.01 215.47 334.986C215.47 332.962 215.943 331.147 216.779 329.838H217.78C216.889 331.4 216.504 333.061 216.504 334.986C216.504 336.911 216.889 338.572 217.78 340.134H216.779ZM221.211 330.212C223.279 330.212 224.445 331.598 224.445 334.051C224.445 336.68 222.96 338.088 220.804 338.088C220.078 338.088 219.385 337.945 218.89 337.637L219.308 336.779C219.715 337.043 220.232 337.142 220.793 337.142C222.355 337.142 223.345 336.163 223.345 334.238V333.963C222.894 334.634 222.08 334.975 221.123 334.975C219.594 334.975 218.494 334.062 218.494 332.643C218.494 331.158 219.682 330.212 221.211 330.212ZM221.31 334.084C222.366 334.084 223.092 333.435 223.092 332.588C223.092 331.796 222.454 331.103 221.255 331.103C220.254 331.103 219.561 331.686 219.561 332.599C219.561 333.501 220.232 334.084 221.31 334.084ZM227.758 333.369C230.057 333.369 230.959 334.326 230.959 335.69C230.959 337.021 230.013 338.088 228.044 338.088C226.955 338.088 225.877 337.736 225.217 337.153L225.723 336.284C226.24 336.768 227.098 337.109 228.033 337.109C229.199 337.109 229.859 336.57 229.859 335.734C229.859 334.865 229.309 334.326 227.527 334.326H225.778L226.185 330.3H230.53V331.257H227.109L226.9 333.369H227.758ZM241.67 338H240.405L238.095 334.821L235.818 338H234.553L237.446 334.051L234.729 330.3H235.983L238.139 333.259L240.273 330.3H241.472L238.755 334.018L241.67 338ZM244.964 330.3H247.791V338H246.702V331.257H244.964V330.3ZM250.993 337.043H254.942V338H249.409V337.252L252.544 334.227C253.358 333.435 253.512 332.951 253.512 332.467C253.512 331.675 252.951 331.191 251.873 331.191C251.048 331.191 250.377 331.455 249.904 332.027L249.156 331.378C249.75 330.641 250.773 330.212 251.972 330.212C253.578 330.212 254.612 331.037 254.612 332.357C254.612 333.105 254.392 333.776 253.347 334.777L250.993 337.043ZM255.461 330.3H258.288V338H257.199V331.257H255.461V330.3ZM259.192 339.1L262.822 328.738H263.779L260.149 339.1H259.192ZM266.519 330.3H269.346V338H268.257V331.257H266.519V330.3ZM277.784 335.162V336.108H276.321V338H275.254V336.108H270.975V335.338L274.913 330.3H276.101L272.328 335.162H275.287V333.49H276.321V335.162H277.784ZM280.666 333.369C282.965 333.369 283.867 334.326 283.867 335.69C283.867 337.021 282.921 338.088 280.952 338.088C279.863 338.088 278.785 337.736 278.125 337.153L278.631 336.284C279.148 336.768 280.006 337.109 280.941 337.109C282.107 337.109 282.767 336.57 282.767 335.734C282.767 334.865 282.217 334.326 280.435 334.326H278.686L279.093 330.3H283.438V331.257H280.017L279.808 333.369H280.666ZM295.613 332.115C297.032 332.115 298 332.929 298 334.645V338H296.944V334.766C296.944 333.622 296.394 333.061 295.437 333.061C294.381 333.061 293.688 333.732 293.688 334.997V338H292.632V334.766C292.632 333.622 292.082 333.061 291.125 333.061C290.069 333.061 289.376 333.732 289.376 334.997V338H288.32V332.17H289.332V333.039C289.75 332.445 290.465 332.115 291.345 332.115C292.236 332.115 292.984 332.467 293.369 333.193C293.809 332.533 294.623 332.115 295.613 332.115ZM307.291 332.115C308.71 332.115 309.678 332.929 309.678 334.645V338H308.622V334.766C308.622 333.622 308.072 333.061 307.115 333.061C306.059 333.061 305.366 333.732 305.366 334.997V338H304.31V334.766C304.31 333.622 303.76 333.061 302.803 333.061C301.747 333.061 301.054 333.732 301.054 334.997V338H299.998V332.17H301.01V333.039C301.428 332.445 302.143 332.115 303.023 332.115C303.914 332.115 304.662 332.467 305.047 333.193C305.487 332.533 306.301 332.115 307.291 332.115ZM312.028 340.134H311.027C311.918 338.572 312.314 336.911 312.314 334.986C312.314 333.061 311.918 331.4 311.027 329.838H312.028C312.875 331.147 313.348 332.962 313.348 334.986C313.348 337.01 312.875 338.803 312.028 340.134ZM318.611 338V330.3H319.711V337.043H323.88V338H318.611ZM327.788 333.281V332.412H332.716V333.281H327.788ZM327.788 335.888V335.019H332.716V335.888H327.788ZM340.368 333.325C341.897 333.325 343.008 334.238 343.008 335.657C343.008 337.142 341.809 338.088 340.28 338.088C338.212 338.088 337.046 336.702 337.046 334.249C337.046 331.62 338.531 330.212 340.687 330.212C341.413 330.212 342.106 330.355 342.601 330.663L342.183 331.521C341.787 331.257 341.259 331.158 340.709 331.158C339.147 331.158 338.146 332.137 338.146 334.062C338.146 334.15 338.146 334.238 338.157 334.337C338.597 333.677 339.411 333.325 340.368 333.325ZM340.236 337.197C341.237 337.197 341.941 336.614 341.941 335.701C341.941 334.799 341.259 334.216 340.181 334.216C339.136 334.216 338.41 334.865 338.41 335.712C338.41 336.504 339.048 337.197 340.236 337.197ZM351.656 332.115C353.075 332.115 354.043 332.929 354.043 334.645V338H352.987V334.766C352.987 333.622 352.437 333.061 351.48 333.061C350.424 333.061 349.731 333.732 349.731 334.997V338H348.675V334.766C348.675 333.622 348.125 333.061 347.168 333.061C346.112 333.061 345.419 333.732 345.419 334.997V338H344.363V332.17H345.375V333.039C345.793 332.445 346.508 332.115 347.388 332.115C348.279 332.115 349.027 332.467 349.412 333.193C349.852 332.533 350.666 332.115 351.656 332.115Z" fill="black"/>
</svg>
