<svg width="679" height="356" viewBox="0 0 679 356" fill="none" xmlns="http://www.w3.org/2000/svg">
<rect width="74" height="20" transform="translate(0.5 0.944824)" fill="black"/>
<path d="M10.3782 5.74482H11.9782V16.9448H10.3782V11.9528H3.94625V16.9448H2.34625V5.74482H3.94625V10.5608H10.3782V5.74482ZM17.0106 15.5528H23.5386V16.9448H15.4106V5.74482H23.3146V7.13682H17.0106V10.5768H22.6266V11.9368H17.0106V15.5528ZM26.2094 16.9448V5.74482H27.8094V16.9448H26.2094ZM39.0025 14.9288V11.2808H40.5385V15.6488C39.4185 16.5928 37.8665 17.0728 36.2985 17.0728C32.8585 17.0728 30.3305 14.6568 30.3305 11.3448C30.3305 8.03282 32.8585 5.61682 36.3305 5.61682C38.1065 5.61682 39.6105 6.20882 40.6345 7.34482L39.6425 8.33682C38.7145 7.44082 37.6585 7.04082 36.3945 7.04082C33.8025 7.04082 31.9305 8.84882 31.9305 11.3448C31.9305 13.8088 33.8025 15.6488 36.3785 15.6488C37.3225 15.6488 38.2025 15.4408 39.0025 14.9288ZM51.7139 5.74482H53.3139V16.9448H51.7139V11.9528H45.2819V16.9448H43.6819V5.74482H45.2819V10.5608H51.7139V5.74482ZM58.9703 16.9448V7.13682H55.1302V5.74482H64.3942V7.13682H60.5543V16.9448H58.9703ZM69.3402 17.0728C67.6282 17.0728 65.9482 16.4968 65.0522 15.6648L65.6442 14.4168C66.4762 15.1688 67.9002 15.7128 69.3402 15.7128C71.2762 15.7128 72.1082 14.9608 72.1082 13.9848C72.1082 11.2488 65.3242 12.9768 65.3242 8.81682C65.3242 7.08882 66.6682 5.61682 69.6122 5.61682C70.9242 5.61682 72.2842 5.96882 73.2122 6.60882L72.6842 7.88882C71.7082 7.26482 70.6042 6.97682 69.6122 6.97682C67.7082 6.97682 66.8922 7.77682 66.8922 8.75282C66.8922 11.4888 73.6762 9.77682 73.6762 13.8888C73.6762 15.6008 72.3002 17.0728 69.3402 17.0728Z" fill="white"/>
<rect width="410" height="20" transform="translate(114.5 0.944824)" fill="black"/>
<path d="M303.643 5.74482H305.163L301.419 16.9448H299.739L296.683 8.00082L293.627 16.9448H291.915L288.171 5.74482H289.819L292.843 14.8488L295.995 5.74482H297.467L300.555 14.8968L303.643 5.74482ZM307.201 16.9448V5.74482H308.801V16.9448H307.201ZM312.234 16.9448V5.74482H316.954C320.554 5.74482 323.002 8.01682 323.002 11.3448C323.002 14.6728 320.554 16.9448 316.954 16.9448H312.234ZM313.834 15.5528H316.858C319.626 15.5528 321.402 13.8568 321.402 11.3448C321.402 8.83282 319.626 7.13682 316.858 7.13682H313.834V15.5528ZM325.533 16.9448V5.74482H327.133V16.9448H325.533ZM332.79 16.9448V7.13682H328.95V5.74482H338.214V7.13682H334.374V16.9448H332.79ZM348.068 5.74482H349.668V16.9448H348.068V11.9528H341.636V16.9448H340.036V5.74482H341.636V10.5608H348.068V5.74482Z" fill="white"/>
<rect width="114" height="20" transform="translate(564.5 0.944824)" fill="black"/>
<path d="M595.951 14.9288V11.2808H597.487V15.6488C596.367 16.5928 594.815 17.0728 593.247 17.0728C589.807 17.0728 587.279 14.6568 587.279 11.3448C587.279 8.03282 589.807 5.61682 593.279 5.61682C595.055 5.61682 596.559 6.20882 597.583 7.34482L596.591 8.33682C595.663 7.44082 594.607 7.04082 593.343 7.04082C590.751 7.04082 588.879 8.84882 588.879 11.3448C588.879 13.8088 590.751 15.6488 593.327 15.6488C594.271 15.6488 595.151 15.4408 595.951 14.9288ZM609.862 16.9448H608.118L605.702 13.5048C605.478 13.5208 605.238 13.5368 604.998 13.5368H602.23V16.9448H600.63V5.74482H604.998C607.91 5.74482 609.67 7.21682 609.67 9.64882C609.67 11.3768 608.774 12.6248 607.206 13.1848L609.862 16.9448ZM604.95 12.1768C606.998 12.1768 608.07 11.2488 608.07 9.64882C608.07 8.04882 606.998 7.13682 604.95 7.13682H602.23V12.1768H604.95ZM620.703 16.9448L619.471 14.1448H613.519L612.287 16.9448H610.639L615.711 5.74482H617.295L622.383 16.9448H620.703ZM614.079 12.8648H618.911L616.495 7.37682L614.079 12.8648ZM624.134 16.9448V5.74482H628.854C632.454 5.74482 634.902 8.01682 634.902 11.3448C634.902 14.6728 632.454 16.9448 628.854 16.9448H624.134ZM625.734 15.5528H628.758C631.526 15.5528 633.302 13.8568 633.302 11.3448C633.302 8.83282 631.526 7.13682 628.758 7.13682H625.734V15.5528ZM639.033 15.5528H645.561V16.9448H637.433V5.74482H645.337V7.13682H639.033V10.5768H644.649V11.9368H639.033V15.5528ZM651.496 17.0728C649.784 17.0728 648.104 16.4968 647.208 15.6648L647.8 14.4168C648.632 15.1688 650.056 15.7128 651.496 15.7128C653.432 15.7128 654.264 14.9608 654.264 13.9848C654.264 11.2488 647.48 12.9768 647.48 8.81682C647.48 7.08882 648.824 5.61682 651.768 5.61682C653.08 5.61682 654.44 5.96882 655.368 6.60882L654.84 7.88882C653.864 7.26482 652.76 6.97682 651.768 6.97682C649.864 6.97682 649.048 7.77682 649.048 8.75282C649.048 11.4888 655.832 9.77682 655.832 13.8888C655.832 15.6008 654.456 17.0728 651.496 17.0728Z" fill="white"/>
<path d="M0.5 65.9448H73.5" stroke="black"/>
<path d="M3.6685 86.5528H9.4125V87.9448H1.3645V86.8568L5.9245 82.4568C7.1085 81.3048 7.3325 80.6008 7.3325 79.8968C7.3325 78.7448 6.5165 78.0408 4.9485 78.0408C3.7485 78.0408 2.7725 78.4248 2.0845 79.2568L0.9965 78.3128C1.8605 77.2408 3.3485 76.6168 5.0925 76.6168C7.4285 76.6168 8.9325 77.8168 8.9325 79.7368C8.9325 80.8248 8.6125 81.8008 7.0925 83.2568L3.6685 86.5528ZM14.008 81.2088C17.352 81.2088 18.664 82.6008 18.664 84.5848C18.664 86.5208 17.288 88.0728 14.424 88.0728C12.84 88.0728 11.272 87.5608 10.312 86.7128L11.048 85.4488C11.8 86.1528 13.048 86.6488 14.408 86.6488C16.104 86.6488 17.064 85.8648 17.064 84.6488C17.064 83.3848 16.264 82.6008 13.672 82.6008H11.128L11.72 76.7448H18.04V78.1368H13.064L12.76 81.2088H14.008Z" fill="black"/>
<path d="M0.5 97.9448H73.5" stroke="black"/>
<path d="M5.88319 113.449C8.12319 113.657 9.25919 114.921 9.25919 116.649C9.25919 118.537 7.86719 120.073 5.01919 120.073C3.41919 120.073 1.85119 119.561 0.907188 118.713L1.64319 117.449C2.39519 118.153 3.64319 118.649 5.01919 118.649C6.69919 118.649 7.65919 117.881 7.65919 116.665C7.65919 115.481 6.81119 114.713 4.89119 114.713H3.99519V113.593L6.81119 110.137H1.41919V108.745H8.81119V109.833L5.88319 113.449ZM12.8813 118.553H18.6253V119.945H10.5773V118.857L15.1373 114.457C16.3213 113.305 16.5453 112.601 16.5453 111.897C16.5453 110.745 15.7293 110.041 14.1613 110.041C12.9613 110.041 11.9853 110.425 11.2973 111.257L10.2093 110.313C11.0733 109.241 12.5613 108.617 14.3053 108.617C16.6413 108.617 18.1453 109.817 18.1453 111.737C18.1453 112.825 17.8253 113.801 16.3053 115.257L12.8813 118.553Z" fill="black"/>
<path d="M0.5 129.945H73.5" stroke="black"/>
<path d="M5.78944 145.449C8.02944 145.657 9.16544 146.921 9.16544 148.649C9.16544 150.537 7.77344 152.073 4.92544 152.073C3.32544 152.073 1.75744 151.561 0.813438 150.713L1.54944 149.449C2.30144 150.153 3.54944 150.649 4.92544 150.649C6.60544 150.649 7.56544 149.881 7.56544 148.665C7.56544 147.481 6.71744 146.713 4.79744 146.713H3.90144V145.593L6.71744 142.137H1.32544V140.745H8.71744V141.833L5.78944 145.449ZM17.5857 146.073C18.8657 146.569 19.5697 147.497 19.5697 148.777C19.5697 150.809 17.8417 152.073 15.1057 152.073C12.3857 152.073 10.6737 150.809 10.6737 148.777C10.6737 147.497 11.3777 146.553 12.6417 146.073C11.6177 145.593 11.0737 144.761 11.0737 143.657C11.0737 141.785 12.6897 140.617 15.1057 140.617C17.5377 140.617 19.1697 141.785 19.1697 143.657C19.1697 144.761 18.6097 145.593 17.5857 146.073ZM15.1057 141.913C13.6017 141.913 12.6577 142.601 12.6577 143.721C12.6577 144.825 13.5697 145.513 15.1057 145.513C16.6577 145.513 17.6017 144.825 17.6017 143.721C17.6017 142.601 16.6097 141.913 15.1057 141.913ZM15.1057 150.777C16.8817 150.777 17.9697 149.993 17.9697 148.729C17.9697 147.497 16.8817 146.729 15.1057 146.729C13.3297 146.729 12.2737 147.497 12.2737 148.729C12.2737 149.993 13.3297 150.777 15.1057 150.777Z" fill="black"/>
<path d="M0.5 161.945H73.5" stroke="black"/>
<path d="M4.49831 177.209C7.84231 177.209 9.15431 178.601 9.15431 180.585C9.15431 182.521 7.77831 184.073 4.91431 184.073C3.33031 184.073 1.76231 183.561 0.802313 182.713L1.53831 181.449C2.29031 182.153 3.53831 182.649 4.89831 182.649C6.59431 182.649 7.55431 181.865 7.55431 180.649C7.55431 179.385 6.75431 178.601 4.16231 178.601H1.61831L2.21031 172.745H8.53031V174.137H3.55431L3.25031 177.209H4.49831ZM15.1418 184.073C12.5178 184.073 10.5658 181.993 10.5658 178.345C10.5658 174.697 12.5178 172.617 15.1418 172.617C17.7498 172.617 19.7018 174.697 19.7018 178.345C19.7018 181.993 17.7498 184.073 15.1418 184.073ZM15.1418 182.649C16.8858 182.649 18.1018 181.209 18.1018 178.345C18.1018 175.481 16.8858 174.041 15.1418 174.041C13.3818 174.041 12.1658 175.481 12.1658 178.345C12.1658 181.209 13.3818 182.649 15.1418 182.649Z" fill="black"/>
<path d="M0.5 193.945H73.5" stroke="black"/>
<path d="M6.54438 209.145C8.76838 209.145 10.3844 210.473 10.3844 212.537C10.3844 214.697 8.64038 216.073 6.41638 216.073C3.40838 216.073 1.71238 214.057 1.71238 210.489C1.71238 206.665 3.87238 204.617 7.00838 204.617C8.06438 204.617 9.07238 204.825 9.79238 205.273L9.18438 206.521C8.60838 206.137 7.84038 205.993 7.04038 205.993C4.76838 205.993 3.31238 207.417 3.31238 210.217C3.31238 210.345 3.31238 210.473 3.32838 210.617C3.96838 209.657 5.15238 209.145 6.54438 209.145ZM6.35238 214.777C7.80838 214.777 8.83238 213.929 8.83238 212.601C8.83238 211.289 7.84038 210.441 6.27238 210.441C4.75238 210.441 3.69638 211.385 3.69638 212.617C3.69638 213.769 4.62438 214.777 6.35238 214.777ZM15.9554 209.449C18.1954 209.657 19.3314 210.921 19.3314 212.649C19.3314 214.537 17.9394 216.073 15.0914 216.073C13.4914 216.073 11.9234 215.561 10.9794 214.713L11.7154 213.449C12.4674 214.153 13.7154 214.649 15.0914 214.649C16.7714 214.649 17.7314 213.881 17.7314 212.665C17.7314 211.481 16.8834 210.713 14.9634 210.713H14.0674V209.593L16.8834 206.137H11.4914V204.745H18.8834V205.833L15.9554 209.449Z" fill="black"/>
<path d="M0.5 225.945H73.5" stroke="black"/>
<path d="M1.20563 236.745H9.65363V237.833L5.12563 247.945H3.42963L7.86163 238.137H2.74163V240.137H1.20563V236.745ZM14.0549 241.209C17.3989 241.209 18.7109 242.601 18.7109 244.585C18.7109 246.521 17.3349 248.073 14.4709 248.073C12.8869 248.073 11.3189 247.561 10.3589 246.713L11.0949 245.449C11.8469 246.153 13.0949 246.649 14.4549 246.649C16.1509 246.649 17.1109 245.865 17.1109 244.649C17.1109 243.385 16.3109 242.601 13.7189 242.601H11.1749L11.7669 236.745H18.0869V238.137H13.1109L12.8069 241.209H14.0549Z" fill="black"/>
<path d="M0.5 257.945H73.5" stroke="black"/>
<path d="M0.915188 268.745H5.02719V279.945H3.44319V270.137H0.915188V268.745ZM12.1331 280.073C9.50906 280.073 7.55706 277.993 7.55706 274.345C7.55706 270.697 9.50906 268.617 12.1331 268.617C14.7411 268.617 16.6931 270.697 16.6931 274.345C16.6931 277.993 14.7411 280.073 12.1331 280.073ZM12.1331 278.649C13.8771 278.649 15.0931 277.209 15.0931 274.345C15.0931 271.481 13.8771 270.041 12.1331 270.041C10.3731 270.041 9.15706 271.481 9.15706 274.345C9.15706 277.209 10.3731 278.649 12.1331 278.649ZM22.8849 280.073C20.2609 280.073 18.3089 277.993 18.3089 274.345C18.3089 270.697 20.2609 268.617 22.8849 268.617C25.4929 268.617 27.4449 270.697 27.4449 274.345C27.4449 277.993 25.4929 280.073 22.8849 280.073ZM22.8849 278.649C24.6289 278.649 25.8449 277.209 25.8449 274.345C25.8449 271.481 24.6289 270.041 22.8849 270.041C21.1249 270.041 19.9089 271.481 19.9089 274.345C19.9089 277.209 21.1249 278.649 22.8849 278.649Z" fill="black"/>
<path d="M0.5 289.945H73.5" stroke="black"/>
<path d="M113.915 33.7448H118.027V44.9448H116.443V35.1368H113.915V33.7448ZM125.133 45.0728C122.509 45.0728 120.557 42.9928 120.557 39.3448C120.557 35.6968 122.509 33.6168 125.133 33.6168C127.741 33.6168 129.693 35.6968 129.693 39.3448C129.693 42.9928 127.741 45.0728 125.133 45.0728ZM125.133 43.6488C126.877 43.6488 128.093 42.2088 128.093 39.3448C128.093 36.4808 126.877 35.0408 125.133 35.0408C123.373 35.0408 122.157 36.4808 122.157 39.3448C122.157 42.2088 123.373 43.6488 125.133 43.6488ZM135.885 45.0728C133.261 45.0728 131.309 42.9928 131.309 39.3448C131.309 35.6968 133.261 33.6168 135.885 33.6168C138.493 33.6168 140.445 35.6968 140.445 39.3448C140.445 42.9928 138.493 45.0728 135.885 45.0728ZM135.885 43.6488C137.629 43.6488 138.845 42.2088 138.845 39.3448C138.845 36.4808 137.629 35.0408 135.885 35.0408C134.125 35.0408 132.909 36.4808 132.909 39.3448C132.909 42.2088 134.125 43.6488 135.885 43.6488Z" fill="black"/>
<path d="M113.5 65.9448H186.5" stroke="black"/>
<g clip-path="url(#clip0_1329_11916)">
<rect width="20" height="20" transform="translate(113.5 71.9448)" fill="white"/>
<path d="M129.531 74.9448L120.625 83.9448L116.469 79.7448L113.5 82.7448L120.625 89.9448L132.5 77.9448L129.531 74.9448Z" fill="black"/>
</g>
<path d="M113.5 97.9448H186.5" stroke="black"/>
<g clip-path="url(#clip1_1329_11916)">
<rect width="20" height="20" transform="translate(113.5 103.945)" fill="white"/>
<path d="M129.531 106.945L120.625 115.945L116.469 111.745L113.5 114.745L120.625 121.945L132.5 109.945L129.531 106.945Z" fill="black"/>
</g>
<path d="M113.5 129.945H186.5" stroke="black"/>
<g clip-path="url(#clip2_1329_11916)">
<rect width="20" height="20" transform="translate(113.5 135.945)" fill="white"/>
<path d="M129.531 138.945L120.625 147.945L116.469 143.745L113.5 146.745L120.625 153.945L132.5 141.945L129.531 138.945Z" fill="black"/>
</g>
<path d="M113.5 161.945H186.5" stroke="black"/>
<g clip-path="url(#clip3_1329_11916)">
<rect width="20" height="20" transform="translate(113.5 167.945)" fill="white"/>
<path d="M129.531 170.945L120.625 179.945L116.469 175.745L113.5 178.745L120.625 185.945L132.5 173.945L129.531 170.945Z" fill="black"/>
</g>
<path d="M113.5 193.945H186.5" stroke="black"/>
<g clip-path="url(#clip4_1329_11916)">
<rect width="20" height="20" transform="translate(113.5 199.945)" fill="white"/>
<path d="M129.531 202.945L120.625 211.945L116.469 207.745L113.5 210.745L120.625 217.945L132.5 205.945L129.531 202.945Z" fill="black"/>
</g>
<path d="M145.893 205.993L143.989 207.049L145.893 208.121L145.397 209.001L143.461 207.865L143.477 210.041H142.517L142.533 207.865L140.597 209.001L140.101 208.121L142.021 207.049L140.101 205.993L140.597 205.097L142.533 206.233L142.517 204.073H143.477L143.461 206.233L145.397 205.097L145.893 205.993Z" fill="black"/>
<path d="M113.5 225.945H186.5" stroke="black"/>
<g clip-path="url(#clip5_1329_11916)">
<rect width="20" height="20" transform="translate(113.5 231.945)" fill="white"/>
<path d="M129.531 234.945L120.625 243.945L116.469 239.745L113.5 242.745L120.625 249.945L132.5 237.945L129.531 234.945Z" fill="black"/>
</g>
<path d="M145.893 237.993L143.989 239.049L145.893 240.121L145.397 241.001L143.461 239.865L143.477 242.041H142.517L142.533 239.865L140.597 241.001L140.101 240.121L142.021 239.049L140.101 237.993L140.597 237.097L142.533 238.233L142.517 236.073H143.477L143.461 238.233L145.397 237.097L145.893 237.993Z" fill="black"/>
<path d="M113.5 257.945H186.5" stroke="black"/>
<rect width="20" height="20" transform="translate(113.5 263.945)" fill="white"/>
<path d="M113.5 289.945H186.5" stroke="black"/>
<path d="M226.9 33.7448H231.012V44.9448H229.428V35.1368H226.9V33.7448ZM235.669 43.5528H241.413V44.9448H233.365V43.8568L237.925 39.4568C239.109 38.3048 239.333 37.6008 239.333 36.8968C239.333 35.7448 238.517 35.0408 236.949 35.0408C235.749 35.0408 234.773 35.4248 234.085 36.2568L232.997 35.3128C233.861 34.2408 235.349 33.6168 237.093 33.6168C239.429 33.6168 240.933 34.8168 240.933 36.7368C240.933 37.8248 240.613 38.8008 239.093 40.2568L235.669 43.5528ZM246.009 38.2088C249.353 38.2088 250.665 39.6008 250.665 41.5848C250.665 43.5208 249.289 45.0728 246.425 45.0728C244.841 45.0728 243.273 44.5608 242.313 43.7128L243.049 42.4488C243.801 43.1528 245.049 43.6488 246.409 43.6488C248.105 43.6488 249.065 42.8648 249.065 41.6488C249.065 40.3848 248.265 39.6008 245.673 39.6008H243.129L243.721 33.7448H250.041V35.1368H245.065L244.761 38.2088H246.009Z" fill="black"/>
<path d="M226.5 65.9448H299.5" stroke="black"/>
<g clip-path="url(#clip6_1329_11916)">
<rect width="20" height="20" transform="translate(226.5 71.9448)" fill="white"/>
<path d="M242.531 74.9448L233.625 83.9448L229.469 79.7448L226.5 82.7448L233.625 89.9448L245.5 77.9448L242.531 74.9448Z" fill="black"/>
</g>
<path d="M226.5 97.9448H299.5" stroke="black"/>
<g clip-path="url(#clip7_1329_11916)">
<rect width="20" height="20" transform="translate(226.5 103.945)" fill="white"/>
<path d="M242.531 106.945L233.625 115.945L229.469 111.745L226.5 114.745L233.625 121.945L245.5 109.945L242.531 106.945Z" fill="black"/>
</g>
<path d="M226.5 129.945H299.5" stroke="black"/>
<g clip-path="url(#clip8_1329_11916)">
<rect width="20" height="20" transform="translate(226.5 135.945)" fill="white"/>
<path d="M242.531 138.945L233.625 147.945L229.469 143.745L226.5 146.745L233.625 153.945L245.5 141.945L242.531 138.945Z" fill="black"/>
</g>
<path d="M226.5 161.945H299.5" stroke="black"/>
<g clip-path="url(#clip9_1329_11916)">
<rect width="20" height="20" transform="translate(226.5 167.945)" fill="white"/>
<path d="M242.531 170.945L233.625 179.945L229.469 175.745L226.5 178.745L233.625 185.945L245.5 173.945L242.531 170.945Z" fill="black"/>
</g>
<path d="M226.5 193.945H299.5" stroke="black"/>
<g clip-path="url(#clip10_1329_11916)">
<rect width="20" height="20" transform="translate(226.5 199.945)" fill="white"/>
<path d="M242.531 202.945L233.625 211.945L229.469 207.745L226.5 210.745L233.625 217.945L245.5 205.945L242.531 202.945Z" fill="black"/>
</g>
<path d="M258.893 205.993L256.989 207.049L258.893 208.121L258.397 209.001L256.461 207.865L256.477 210.041H255.517L255.533 207.865L253.597 209.001L253.101 208.121L255.021 207.049L253.101 205.993L253.597 205.097L255.533 206.233L255.517 204.073H256.477L256.461 206.233L258.397 205.097L258.893 205.993Z" fill="black"/>
<path d="M226.5 225.945H299.5" stroke="black"/>
<g clip-path="url(#clip11_1329_11916)">
<rect width="20" height="20" transform="translate(226.5 231.945)" fill="white"/>
<path d="M242.531 234.945L233.625 243.945L229.469 239.745L226.5 242.745L233.625 249.945L245.5 237.945L242.531 234.945Z" fill="black"/>
</g>
<path d="M258.893 237.993L256.989 239.049L258.893 240.121L258.397 241.001L256.461 239.865L256.477 242.041H255.517L255.533 239.865L253.597 241.001L253.101 240.121L255.021 239.049L253.101 237.993L253.597 237.097L255.533 238.233L255.517 236.073H256.477L256.461 238.233L258.397 237.097L258.893 237.993Z" fill="black"/>
<path d="M226.5 257.945H299.5" stroke="black"/>
<g clip-path="url(#clip12_1329_11916)">
<rect width="20" height="20" transform="translate(226.5 263.945)" fill="white"/>
<path d="M242.531 266.945L233.625 275.945L229.469 271.745L226.5 274.745L233.625 281.945L245.5 269.945L242.531 266.945Z" fill="black"/>
</g>
<path d="M258.893 269.993L256.989 271.049L258.893 272.121L258.397 273.001L256.461 271.865L256.477 274.041H255.517L255.533 271.865L253.597 273.001L253.101 272.121L255.021 271.049L253.101 269.993L253.597 269.097L255.533 270.233L255.517 268.073H256.477L256.461 270.233L258.397 269.097L258.893 269.993Z" fill="black"/>
<path d="M271.893 269.993L269.989 271.049L271.893 272.121L271.397 273.001L269.461 271.865L269.477 274.041H268.517L268.533 271.865L266.597 273.001L266.101 272.121L268.021 271.049L266.101 269.993L266.597 269.097L268.533 270.233L268.517 268.073H269.477L269.461 270.233L271.397 269.097L271.893 269.993Z" fill="black"/>
<path d="M226.5 289.945H299.5" stroke="black"/>
<path d="M339.657 33.7448H343.769V44.9448H342.185V35.1368H339.657V33.7448ZM349.499 38.2088C352.843 38.2088 354.155 39.6008 354.155 41.5848C354.155 43.5208 352.779 45.0728 349.915 45.0728C348.331 45.0728 346.763 44.5608 345.803 43.7128L346.539 42.4488C347.291 43.1528 348.539 43.6488 349.899 43.6488C351.595 43.6488 352.555 42.8648 352.555 41.6488C352.555 40.3848 351.755 39.6008 349.163 39.6008H346.619L347.211 33.7448H353.531V35.1368H348.555L348.251 38.2088H349.499ZM360.143 45.0728C357.519 45.0728 355.567 42.9928 355.567 39.3448C355.567 35.6968 357.519 33.6168 360.143 33.6168C362.751 33.6168 364.703 35.6968 364.703 39.3448C364.703 42.9928 362.751 45.0728 360.143 45.0728ZM360.143 43.6488C361.887 43.6488 363.103 42.2088 363.103 39.3448C363.103 36.4808 361.887 35.0408 360.143 35.0408C358.383 35.0408 357.167 36.4808 357.167 39.3448C357.167 42.2088 358.383 43.6488 360.143 43.6488Z" fill="black"/>
<path d="M339.5 65.9448H412.5" stroke="black"/>
<g clip-path="url(#clip13_1329_11916)">
<rect width="20" height="20" transform="translate(339.5 71.9448)" fill="white"/>
<path d="M355.531 74.9448L346.625 83.9448L342.469 79.7448L339.5 82.7448L346.625 89.9448L358.5 77.9448L355.531 74.9448Z" fill="black"/>
</g>
<path d="M339.5 97.9448H412.5" stroke="black"/>
<g clip-path="url(#clip14_1329_11916)">
<rect width="20" height="20" transform="translate(339.5 103.945)" fill="white"/>
<path d="M355.531 106.945L346.625 115.945L342.469 111.745L339.5 114.745L346.625 121.945L358.5 109.945L355.531 106.945Z" fill="black"/>
</g>
<path d="M339.5 129.945H412.5" stroke="black"/>
<g clip-path="url(#clip15_1329_11916)">
<rect width="20" height="20" transform="translate(339.5 135.945)" fill="white"/>
<path d="M355.531 138.945L346.625 147.945L342.469 143.745L339.5 146.745L346.625 153.945L358.5 141.945L355.531 138.945Z" fill="black"/>
</g>
<path d="M339.5 161.945H412.5" stroke="black"/>
<g clip-path="url(#clip16_1329_11916)">
<rect width="20" height="20" transform="translate(339.5 167.945)" fill="white"/>
<path d="M355.531 170.945L346.625 179.945L342.469 175.745L339.5 178.745L346.625 185.945L358.5 173.945L355.531 170.945Z" fill="black"/>
</g>
<path d="M371.893 173.993L369.989 175.049L371.893 176.121L371.397 177.001L369.461 175.865L369.477 178.041H368.517L368.533 175.865L366.597 177.001L366.101 176.121L368.021 175.049L366.101 173.993L366.597 173.097L368.533 174.233L368.517 172.073H369.477L369.461 174.233L371.397 173.097L371.893 173.993Z" fill="black"/>
<path d="M339.5 193.945H412.5" stroke="black"/>
<g clip-path="url(#clip17_1329_11916)">
<rect width="20" height="20" transform="translate(339.5 199.945)" fill="white"/>
<path d="M355.531 202.945L346.625 211.945L342.469 207.745L339.5 210.745L346.625 217.945L358.5 205.945L355.531 202.945Z" fill="black"/>
</g>
<path d="M371.893 205.993L369.989 207.049L371.893 208.121L371.397 209.001L369.461 207.865L369.477 210.041H368.517L368.533 207.865L366.597 209.001L366.101 208.121L368.021 207.049L366.101 205.993L366.597 205.097L368.533 206.233L368.517 204.073H369.477L369.461 206.233L371.397 205.097L371.893 205.993Z" fill="black"/>
<path d="M339.5 225.945H412.5" stroke="black"/>
<g clip-path="url(#clip18_1329_11916)">
<rect width="20" height="20" transform="translate(339.5 231.945)" fill="white"/>
<path d="M355.531 234.945L346.625 243.945L342.469 239.745L339.5 242.745L346.625 249.945L358.5 237.945L355.531 234.945Z" fill="black"/>
</g>
<path d="M371.893 237.993L369.989 239.049L371.893 240.121L371.397 241.001L369.461 239.865L369.477 242.041H368.517L368.533 239.865L366.597 241.001L366.101 240.121L368.021 239.049L366.101 237.993L366.597 237.097L368.533 238.233L368.517 236.073H369.477L369.461 238.233L371.397 237.097L371.893 237.993Z" fill="black"/>
<path d="M339.5 257.945H412.5" stroke="black"/>
<g clip-path="url(#clip19_1329_11916)">
<rect width="20" height="20" transform="translate(339.5 263.945)" fill="white"/>
<path d="M355.531 266.945L346.625 275.945L342.469 271.745L339.5 274.745L346.625 281.945L358.5 269.945L355.531 266.945Z" fill="black"/>
</g>
<path d="M371.893 269.993L369.989 271.049L371.893 272.121L371.397 273.001L369.461 271.865L369.477 274.041H368.517L368.533 271.865L366.597 273.001L366.101 272.121L368.021 271.049L366.101 269.993L366.597 269.097L368.533 270.233L368.517 268.073H369.477L369.461 270.233L371.397 269.097L371.893 269.993Z" fill="black"/>
<path d="M384.893 269.993L382.989 271.049L384.893 272.121L384.397 273.001L382.461 271.865L382.477 274.041H381.517L381.533 271.865L379.597 273.001L379.101 272.121L381.021 271.049L379.101 269.993L379.597 269.097L381.533 270.233L381.517 268.073H382.477L382.461 270.233L384.397 269.097L384.893 269.993Z" fill="black"/>
<path d="M339.5 289.945H412.5" stroke="black"/>
<path d="M455.574 43.5528H461.318V44.9448H453.27V43.8568L457.83 39.4568C459.014 38.3048 459.238 37.6008 459.238 36.8968C459.238 35.7448 458.422 35.0408 456.854 35.0408C455.654 35.0408 454.678 35.4248 453.99 36.2568L452.902 35.3128C453.766 34.2408 455.254 33.6168 456.998 33.6168C459.334 33.6168 460.838 34.8168 460.838 36.7368C460.838 37.8248 460.518 38.8008 458.998 40.2568L455.574 43.5528ZM467.242 45.0728C464.618 45.0728 462.666 42.9928 462.666 39.3448C462.666 35.6968 464.618 33.6168 467.242 33.6168C469.85 33.6168 471.802 35.6968 471.802 39.3448C471.802 42.9928 469.85 45.0728 467.242 45.0728ZM467.242 43.6488C468.986 43.6488 470.202 42.2088 470.202 39.3448C470.202 36.4808 468.986 35.0408 467.242 35.0408C465.482 35.0408 464.266 36.4808 464.266 39.3448C464.266 42.2088 465.482 43.6488 467.242 43.6488ZM477.994 45.0728C475.37 45.0728 473.418 42.9928 473.418 39.3448C473.418 35.6968 475.37 33.6168 477.994 33.6168C480.602 33.6168 482.554 35.6968 482.554 39.3448C482.554 42.9928 480.602 45.0728 477.994 45.0728ZM477.994 43.6488C479.738 43.6488 480.954 42.2088 480.954 39.3448C480.954 36.4808 479.738 35.0408 477.994 35.0408C476.234 35.0408 475.018 36.4808 475.018 39.3448C475.018 42.2088 476.234 43.6488 477.994 43.6488Z" fill="black"/>
<path d="M452.5 65.9448H525.5" stroke="black"/>
<g clip-path="url(#clip20_1329_11916)">
<rect width="20" height="20" transform="translate(452.5 71.9448)" fill="white"/>
<path d="M468.531 74.9448L459.625 83.9448L455.469 79.7448L452.5 82.7448L459.625 89.9448L471.5 77.9448L468.531 74.9448Z" fill="black"/>
</g>
<path d="M452.5 97.9448H525.5" stroke="black"/>
<g clip-path="url(#clip21_1329_11916)">
<rect width="20" height="20" transform="translate(452.5 103.945)" fill="white"/>
<path d="M468.531 106.945L459.625 115.945L455.469 111.745L452.5 114.745L459.625 121.945L471.5 109.945L468.531 106.945Z" fill="black"/>
</g>
<path d="M452.5 129.945H525.5" stroke="black"/>
<g clip-path="url(#clip22_1329_11916)">
<rect width="20" height="20" transform="translate(452.5 135.945)" fill="white"/>
<path d="M468.531 138.945L459.625 147.945L455.469 143.745L452.5 146.745L459.625 153.945L471.5 141.945L468.531 138.945Z" fill="black"/>
</g>
<path d="M452.5 161.945H525.5" stroke="black"/>
<g clip-path="url(#clip23_1329_11916)">
<rect width="20" height="20" transform="translate(452.5 167.945)" fill="white"/>
<path d="M468.531 170.945L459.625 179.945L455.469 175.745L452.5 178.745L459.625 185.945L471.5 173.945L468.531 170.945Z" fill="black"/>
</g>
<path d="M452.5 193.945H525.5" stroke="black"/>
<g clip-path="url(#clip24_1329_11916)">
<rect width="20" height="20" transform="translate(452.5 199.945)" fill="white"/>
<path d="M468.531 202.945L459.625 211.945L455.469 207.745L452.5 210.745L459.625 217.945L471.5 205.945L468.531 202.945Z" fill="black"/>
</g>
<path d="M452.5 225.945H525.5" stroke="black"/>
<g clip-path="url(#clip25_1329_11916)">
<rect width="20" height="20" transform="translate(452.5 231.945)" fill="white"/>
<path d="M468.531 234.945L459.625 243.945L455.469 239.745L452.5 242.745L459.625 249.945L471.5 237.945L468.531 234.945Z" fill="black"/>
</g>
<path d="M452.5 257.945H525.5" stroke="black"/>
<rect width="20" height="20" transform="translate(452.5 263.945)" fill="white"/>
<path d="M452.5 289.945H525.5" stroke="black"/>
<path d="M565.5 65.9448H638.5" stroke="black"/>
<path d="M575.95 87.9448L574.718 85.1448H568.766L567.534 87.9448H565.886L570.958 76.7448H572.542L577.63 87.9448H575.95ZM569.326 83.8648H574.158L571.742 78.3768L569.326 83.8648ZM577.156 76.7448H581.268V87.9448H579.684V78.1368H577.156V76.7448ZM584.87 85.8488C585.478 85.8488 585.91 86.3128 585.91 86.9368C585.91 87.2568 585.846 87.4968 585.638 88.0888L584.886 90.3128H583.878L584.47 87.9288C584.07 87.7848 583.798 87.4168 583.798 86.9368C583.798 86.2968 584.262 85.8488 584.87 85.8488ZM601.16 87.9448L599.928 85.1448H593.976L592.744 87.9448H591.096L596.168 76.7448H597.752L602.84 87.9448H601.16ZM594.536 83.8648H599.368L596.952 78.3768L594.536 83.8648ZM605.807 86.5528H611.551V87.9448H603.503V86.8568L608.063 82.4568C609.247 81.3048 609.471 80.6008 609.471 79.8968C609.471 78.7448 608.655 78.0408 607.087 78.0408C605.887 78.0408 604.911 78.4248 604.223 79.2568L603.135 78.3128C603.999 77.2408 605.487 76.6168 607.231 76.6168C609.567 76.6168 611.071 77.8168 611.071 79.7368C611.071 80.8248 610.751 81.8008 609.231 83.2568L605.807 86.5528Z" fill="black"/>
<path d="M565.5 97.9448H638.5" stroke="black"/>
<path d="M575.95 119.945L574.718 117.145H568.766L567.534 119.945H565.886L570.958 108.745H572.542L577.63 119.945H575.95ZM569.326 115.865H574.158L571.742 110.377L569.326 115.865ZM577.156 108.745H581.268V119.945H579.684V110.137H577.156V108.745ZM584.87 117.849C585.478 117.849 585.91 118.313 585.91 118.937C585.91 119.257 585.846 119.497 585.638 120.089L584.886 122.313H583.878L584.47 119.929C584.07 119.785 583.798 119.417 583.798 118.937C583.798 118.297 584.262 117.849 584.87 117.849ZM601.16 119.945L599.928 117.145H593.976L592.744 119.945H591.096L596.168 108.745H597.752L602.84 119.945H601.16ZM594.536 115.865H599.368L596.952 110.377L594.536 115.865ZM605.807 118.553H611.551V119.945H603.503V118.857L608.063 114.457C609.247 113.305 609.471 112.601 609.471 111.897C609.471 110.745 608.655 110.041 607.087 110.041C605.887 110.041 604.911 110.425 604.223 111.257L603.135 110.313C603.999 109.241 605.487 108.617 607.231 108.617C609.567 108.617 611.071 109.817 611.071 111.737C611.071 112.825 610.751 113.801 609.231 115.257L605.807 118.553Z" fill="black"/>
<path d="M565.5 129.945H638.5" stroke="black"/>
<path d="M575.688 151.945L574.456 149.145H568.504L567.272 151.945H565.624L570.696 140.745H572.28L577.368 151.945H575.688ZM569.064 147.865H573.896L571.48 142.377L569.064 147.865ZM576.895 140.745H581.007V151.945H579.423V142.137H576.895V140.745ZM584.609 149.849C585.217 149.849 585.649 150.313 585.649 150.937C585.649 151.257 585.585 151.497 585.377 152.089L584.625 154.313H583.617L584.209 151.929C583.809 151.785 583.537 151.417 583.537 150.937C583.537 150.297 584.001 149.849 584.609 149.849ZM600.899 151.945L599.667 149.145H593.715L592.483 151.945H590.835L595.907 140.745H597.491L602.579 151.945H600.899ZM594.275 147.865H599.107L596.691 142.377L594.275 147.865ZM605.545 150.553H611.289V151.945H603.241V150.857L607.801 146.457C608.985 145.305 609.209 144.601 609.209 143.897C609.209 142.745 608.393 142.041 606.825 142.041C605.625 142.041 604.649 142.425 603.961 143.257L602.873 142.313C603.737 141.241 605.225 140.617 606.969 140.617C609.305 140.617 610.809 141.817 610.809 143.737C610.809 144.825 610.489 145.801 608.969 147.257L605.545 150.553ZM613.913 149.849C614.521 149.849 614.953 150.313 614.953 150.937C614.953 151.257 614.889 151.497 614.681 152.089L613.929 154.313H612.921L613.513 151.929C613.113 151.785 612.841 151.417 612.841 150.937C612.841 150.297 613.305 149.849 613.913 149.849ZM629.739 142.137H623.435V146.041H629.051V147.417H623.435V151.945H621.835V140.745H629.739V142.137ZM633.277 152.073C631.949 152.073 630.733 151.497 630.013 150.457L630.941 149.369C631.549 150.233 632.333 150.697 633.277 150.697C634.541 150.697 635.197 149.929 635.197 148.425V142.137H631.149V140.745H636.781V148.345C636.781 150.841 635.565 152.073 633.277 152.073Z" fill="black"/>
<path d="M565.5 161.945H638.5" stroke="black"/>
<path d="M575.688 183.945L574.456 181.145H568.504L567.272 183.945H565.624L570.696 172.745H572.28L577.368 183.945H575.688ZM569.064 179.865H573.896L571.48 174.377L569.064 179.865ZM576.895 172.745H581.007V183.945H579.423V174.137H576.895V172.745ZM584.609 181.849C585.217 181.849 585.649 182.313 585.649 182.937C585.649 183.257 585.585 183.497 585.377 184.089L584.625 186.313H583.617L584.209 183.929C583.809 183.785 583.537 183.417 583.537 182.937C583.537 182.297 584.001 181.849 584.609 181.849ZM600.899 183.945L599.667 181.145H593.715L592.483 183.945H590.835L595.907 172.745H597.491L602.579 183.945H600.899ZM594.275 179.865H599.107L596.691 174.377L594.275 179.865ZM605.545 182.553H611.289V183.945H603.241V182.857L607.801 178.457C608.985 177.305 609.209 176.601 609.209 175.897C609.209 174.745 608.393 174.041 606.825 174.041C605.625 174.041 604.649 174.425 603.961 175.257L602.873 174.313C603.737 173.241 605.225 172.617 606.969 172.617C609.305 172.617 610.809 173.817 610.809 175.737C610.809 176.825 610.489 177.801 608.969 179.257L605.545 182.553ZM613.913 181.849C614.521 181.849 614.953 182.313 614.953 182.937C614.953 183.257 614.889 183.497 614.681 184.089L613.929 186.313H612.921L613.513 183.929C613.113 183.785 612.841 183.417 612.841 182.937C612.841 182.297 613.305 181.849 613.913 181.849ZM629.739 174.137H623.435V178.041H629.051V179.417H623.435V183.945H621.835V172.745H629.739V174.137ZM633.277 184.073C631.949 184.073 630.733 183.497 630.013 182.457L630.941 181.369C631.549 182.233 632.333 182.697 633.277 182.697C634.541 182.697 635.197 181.929 635.197 180.425V174.137H631.149V172.745H636.781V180.345C636.781 182.841 635.565 184.073 633.277 184.073Z" fill="black"/>
<path d="M565.5 193.945H638.5" stroke="black"/>
<path d="M575.688 215.945L574.456 213.145H568.504L567.272 215.945H565.624L570.696 204.745H572.28L577.368 215.945H575.688ZM569.064 211.865H573.896L571.48 206.377L569.064 211.865ZM576.895 204.745H581.007V215.945H579.423V206.137H576.895V204.745ZM584.609 213.849C585.217 213.849 585.649 214.313 585.649 214.937C585.649 215.257 585.585 215.497 585.377 216.089L584.625 218.313H583.617L584.209 215.929C583.809 215.785 583.537 215.417 583.537 214.937C583.537 214.297 584.001 213.849 584.609 213.849ZM600.899 215.945L599.667 213.145H593.715L592.483 215.945H590.835L595.907 204.745H597.491L602.579 215.945H600.899ZM594.275 211.865H599.107L596.691 206.377L594.275 211.865ZM605.545 214.553H611.289V215.945H603.241V214.857L607.801 210.457C608.985 209.305 609.209 208.601 609.209 207.897C609.209 206.745 608.393 206.041 606.825 206.041C605.625 206.041 604.649 206.425 603.961 207.257L602.873 206.313C603.737 205.241 605.225 204.617 606.969 204.617C609.305 204.617 610.809 205.817 610.809 207.737C610.809 208.825 610.489 209.801 608.969 211.257L605.545 214.553ZM613.913 213.849C614.521 213.849 614.953 214.313 614.953 214.937C614.953 215.257 614.889 215.497 614.681 216.089L613.929 218.313H612.921L613.513 215.929C613.113 215.785 612.841 215.417 612.841 214.937C612.841 214.297 613.305 213.849 613.913 213.849ZM629.739 206.137H623.435V210.041H629.051V211.417H623.435V215.945H621.835V204.745H629.739V206.137ZM633.277 216.073C631.949 216.073 630.733 215.497 630.013 214.457L630.941 213.369C631.549 214.233 632.333 214.697 633.277 214.697C634.541 214.697 635.197 213.929 635.197 212.425V206.137H631.149V204.745H636.781V212.345C636.781 214.841 635.565 216.073 633.277 216.073Z" fill="black"/>
<path d="M565.5 225.945H638.5" stroke="black"/>
<path d="M575.688 247.945L574.456 245.145H568.504L567.272 247.945H565.624L570.696 236.745H572.28L577.368 247.945H575.688ZM569.064 243.865H573.896L571.48 238.377L569.064 243.865ZM576.895 236.745H581.007V247.945H579.423V238.137H576.895V236.745ZM584.609 245.849C585.217 245.849 585.649 246.313 585.649 246.937C585.649 247.257 585.585 247.497 585.377 248.089L584.625 250.313H583.617L584.209 247.929C583.809 247.785 583.537 247.417 583.537 246.937C583.537 246.297 584.001 245.849 584.609 245.849ZM600.899 247.945L599.667 245.145H593.715L592.483 247.945H590.835L595.907 236.745H597.491L602.579 247.945H600.899ZM594.275 243.865H599.107L596.691 238.377L594.275 243.865ZM605.545 246.553H611.289V247.945H603.241V246.857L607.801 242.457C608.985 241.305 609.209 240.601 609.209 239.897C609.209 238.745 608.393 238.041 606.825 238.041C605.625 238.041 604.649 238.425 603.961 239.257L602.873 238.313C603.737 237.241 605.225 236.617 606.969 236.617C609.305 236.617 610.809 237.817 610.809 239.737C610.809 240.825 610.489 241.801 608.969 243.257L605.545 246.553ZM613.913 245.849C614.521 245.849 614.953 246.313 614.953 246.937C614.953 247.257 614.889 247.497 614.681 248.089L613.929 250.313H612.921L613.513 247.929C613.113 247.785 612.841 247.417 612.841 246.937C612.841 246.297 613.305 245.849 613.913 245.849ZM629.739 238.137H623.435V242.041H629.051V243.417H623.435V247.945H621.835V236.745H629.739V238.137ZM633.277 248.073C631.949 248.073 630.733 247.497 630.013 246.457L630.941 245.369C631.549 246.233 632.333 246.697 633.277 246.697C634.541 246.697 635.197 245.929 635.197 244.425V238.137H631.149V236.745H636.781V244.345C636.781 246.841 635.565 248.073 633.277 248.073Z" fill="black"/>
<path d="M565.5 257.945H638.5" stroke="black"/>
<path d="M575.482 270.137H569.178V274.041H574.794V275.417H569.178V279.945H567.578V268.745H575.482V270.137ZM579.019 280.073C577.691 280.073 576.475 279.497 575.755 278.457L576.683 277.369C577.291 278.233 578.075 278.697 579.019 278.697C580.283 278.697 580.939 277.929 580.939 276.425V270.137H576.891V268.745H582.523V276.345C582.523 278.841 581.307 280.073 579.019 280.073Z" fill="black"/>
<path d="M565.5 289.945H638.5" stroke="black"/>
<path d="M7.02319 313.993L5.11919 315.049L7.02319 316.121L6.52719 317.001L4.59119 315.865L4.60719 318.041H3.64719L3.66319 315.865L1.72719 317.001L1.23119 316.121L3.15119 315.049L1.23119 313.993L1.72719 313.097L3.66319 314.233L3.64719 312.073H4.60719L4.59119 314.233L6.52719 313.097L7.02319 313.993ZM21.8383 323.945L20.6063 321.145H14.6543L13.4223 323.945H11.7743L16.8463 312.745H18.4303L23.5183 323.945H21.8383ZM15.2143 319.865H20.0463L17.6303 314.377L15.2143 319.865ZM25.0451 323.945V312.073H26.5811V323.945H25.0451ZM32.0258 324.041C30.6178 324.041 29.2258 323.609 28.5218 323.049L29.1618 321.833C29.8818 322.345 31.0338 322.713 32.1378 322.713C33.5618 322.713 34.1538 322.281 34.1538 321.561C34.1538 319.657 28.7938 321.305 28.7938 317.929C28.7938 316.409 30.1538 315.385 32.3298 315.385C33.4338 315.385 34.6818 315.673 35.4178 316.153L34.7618 317.369C33.9938 316.873 33.1458 316.697 32.3138 316.697C30.9698 316.697 30.3138 317.193 30.3138 317.865C30.3138 319.865 35.6898 318.233 35.6898 321.529C35.6898 323.065 34.2818 324.041 32.0258 324.041ZM41.3214 324.041C38.7774 324.041 36.9054 322.233 36.9054 319.705C36.9054 317.177 38.7774 315.385 41.3214 315.385C43.8654 315.385 45.7214 317.177 45.7214 319.705C45.7214 322.233 43.8654 324.041 41.3214 324.041ZM41.3214 322.697C42.9534 322.697 44.1694 321.513 44.1694 319.705C44.1694 317.897 42.9534 316.729 41.3214 316.729C39.6894 316.729 38.4574 317.897 38.4574 319.705C38.4574 321.513 39.6894 322.697 41.3214 322.697ZM56.7986 315.385C59.2786 315.385 61.0866 317.113 61.0866 319.705C61.0866 322.313 59.2786 324.041 56.7986 324.041C55.5986 324.041 54.5426 323.577 53.8386 322.665V327.049H52.3026V315.465H53.7746V316.809C54.4626 315.865 55.5506 315.385 56.7986 315.385ZM56.6706 322.697C58.3026 322.697 59.5346 321.513 59.5346 319.705C59.5346 317.913 58.3026 316.729 56.6706 316.729C55.0546 316.729 53.8226 317.913 53.8226 319.705C53.8226 321.513 55.0546 322.697 56.6706 322.697ZM66.9208 324.041C64.3768 324.041 62.5048 322.233 62.5048 319.705C62.5048 317.177 64.3768 315.385 66.9208 315.385C69.4648 315.385 71.3208 317.177 71.3208 319.705C71.3208 322.233 69.4648 324.041 66.9208 324.041ZM66.9208 322.697C68.5528 322.697 69.7688 321.513 69.7688 319.705C69.7688 317.897 68.5528 316.729 66.9208 316.729C65.2888 316.729 64.0568 317.897 64.0568 319.705C64.0568 321.513 65.2888 322.697 66.9208 322.697ZM75.9571 324.041C74.5491 324.041 73.1571 323.609 72.4531 323.049L73.0931 321.833C73.8131 322.345 74.9651 322.713 76.0691 322.713C77.4931 322.713 78.0851 322.281 78.0851 321.561C78.0851 319.657 72.7251 321.305 72.7251 317.929C72.7251 316.409 74.0851 315.385 76.2611 315.385C77.3651 315.385 78.6131 315.673 79.3491 316.153L78.6931 317.369C77.9251 316.873 77.0771 316.697 76.2451 316.697C74.9011 316.697 74.2451 317.193 74.2451 317.865C74.2451 319.865 79.6211 318.233 79.6211 321.529C79.6211 323.065 78.2131 324.041 75.9571 324.041ZM84.0527 324.041C82.6447 324.041 81.2527 323.609 80.5487 323.049L81.1887 321.833C81.9087 322.345 83.0607 322.713 84.1647 322.713C85.5887 322.713 86.1807 322.281 86.1807 321.561C86.1807 319.657 80.8207 321.305 80.8207 317.929C80.8207 316.409 82.1807 315.385 84.3567 315.385C85.4607 315.385 86.7087 315.673 87.4447 316.153L86.7887 317.369C86.0207 316.873 85.1727 316.697 84.3407 316.697C82.9967 316.697 82.3407 317.193 82.3407 317.865C82.3407 319.865 87.7167 318.233 87.7167 321.529C87.7167 323.065 86.3087 324.041 84.0527 324.041ZM90.4843 313.833C89.8923 313.833 89.4443 313.401 89.4443 312.841C89.4443 312.281 89.8923 311.833 90.4843 311.833C91.0763 311.833 91.5243 312.265 91.5243 312.809C91.5243 313.385 91.0923 313.833 90.4843 313.833ZM89.7163 323.945V315.465H91.2523V323.945H89.7163ZM98.7611 315.385C101.241 315.385 103.049 317.113 103.049 319.705C103.049 322.297 101.241 324.041 98.7611 324.041C97.5131 324.041 96.4251 323.561 95.7371 322.601V323.945H94.2651V312.073H95.8011V316.745C96.5051 315.833 97.5611 315.385 98.7611 315.385ZM98.6331 322.697C100.265 322.697 101.497 321.513 101.497 319.705C101.497 317.897 100.265 316.729 98.6331 316.729C97.0171 316.729 95.7851 317.897 95.7851 319.705C95.7851 321.513 97.0171 322.697 98.6331 322.697ZM105.251 323.945V312.073H106.787V323.945H105.251ZM117.464 319.753C117.464 319.881 117.448 320.073 117.432 320.217H110.552C110.744 321.705 111.944 322.697 113.624 322.697C114.616 322.697 115.448 322.361 116.072 321.673L116.92 322.665C116.152 323.561 114.984 324.041 113.576 324.041C110.84 324.041 109.016 322.233 109.016 319.705C109.016 317.193 110.824 315.385 113.272 315.385C115.72 315.385 117.464 317.145 117.464 319.753ZM113.272 316.681C111.8 316.681 110.712 317.673 110.552 319.113H115.992C115.832 317.689 114.76 316.681 113.272 316.681ZM124.822 313.833C124.23 313.833 123.782 313.401 123.782 312.841C123.782 312.281 124.23 311.833 124.822 311.833C125.414 311.833 125.862 312.265 125.862 312.809C125.862 313.385 125.43 313.833 124.822 313.833ZM124.054 323.945V315.465H125.59V323.945H124.054ZM133.131 315.385C135.195 315.385 136.651 316.569 136.651 319.065V323.945H135.115V319.241C135.115 317.577 134.283 316.761 132.827 316.761C131.195 316.761 130.139 317.737 130.139 319.577V323.945H128.603V315.465H130.075V316.745C130.699 315.881 131.787 315.385 133.131 315.385ZM152.078 314.137H145.774V318.041H151.39V319.417H145.774V323.945H144.174V312.745H152.078V314.137ZM154.798 313.833C154.206 313.833 153.758 313.401 153.758 312.841C153.758 312.281 154.206 311.833 154.798 311.833C155.39 311.833 155.838 312.265 155.838 312.809C155.838 313.385 155.406 313.833 154.798 313.833ZM154.03 323.945V315.465H155.566V323.945H154.03ZM163.107 315.385C165.171 315.385 166.627 316.569 166.627 319.065V323.945H165.091V319.241C165.091 317.577 164.259 316.761 162.803 316.761C161.171 316.761 160.115 317.737 160.115 319.577V323.945H158.579V315.465H160.051V316.745C160.675 315.881 161.763 315.385 163.107 315.385ZM176.252 315.465H177.708V322.793C177.708 325.785 176.188 327.145 173.308 327.145C171.756 327.145 170.188 326.713 169.26 325.881L169.996 324.697C170.78 325.369 172.012 325.801 173.26 325.801C175.26 325.801 176.172 324.873 176.172 322.953V322.281C175.436 323.161 174.332 323.593 173.116 323.593C170.668 323.593 168.812 321.929 168.812 319.481C168.812 317.033 170.668 315.385 173.116 315.385C174.38 315.385 175.532 315.849 176.252 316.777V315.465ZM173.292 322.249C174.988 322.249 176.204 321.113 176.204 319.481C176.204 317.833 174.988 316.729 173.292 316.729C171.58 316.729 170.364 317.833 170.364 319.481C170.364 321.113 171.58 322.249 173.292 322.249ZM188.387 319.753C188.387 319.881 188.371 320.073 188.355 320.217H181.475C181.667 321.705 182.867 322.697 184.547 322.697C185.539 322.697 186.371 322.361 186.995 321.673L187.843 322.665C187.075 323.561 185.907 324.041 184.499 324.041C181.763 324.041 179.939 322.233 179.939 319.705C179.939 317.193 181.747 315.385 184.195 315.385C186.643 315.385 188.387 317.145 188.387 319.753ZM184.195 316.681C182.723 316.681 181.635 317.673 181.475 319.113H186.915C186.755 317.689 185.683 316.681 184.195 316.681ZM192.072 316.889C192.616 315.897 193.672 315.385 195.16 315.385V316.873C195.032 316.857 194.92 316.857 194.808 316.857C193.16 316.857 192.136 317.865 192.136 319.721V323.945H190.6V315.465H192.072V316.889ZM203.283 324.073C201.955 324.073 200.739 323.497 200.019 322.457L200.947 321.369C201.555 322.233 202.339 322.697 203.283 322.697C204.547 322.697 205.203 321.929 205.203 320.425V314.137H201.155V312.745H206.787V320.345C206.787 322.841 205.571 324.073 203.283 324.073ZM213.535 324.041C210.991 324.041 209.119 322.233 209.119 319.705C209.119 317.177 210.991 315.385 213.535 315.385C216.079 315.385 217.935 317.177 217.935 319.705C217.935 322.233 216.079 324.041 213.535 324.041ZM213.535 322.697C215.167 322.697 216.383 321.513 216.383 319.705C216.383 317.897 215.167 316.729 213.535 316.729C211.903 316.729 210.671 317.897 210.671 319.705C210.671 321.513 211.903 322.697 213.535 322.697ZM220.907 313.833C220.315 313.833 219.867 313.401 219.867 312.841C219.867 312.281 220.315 311.833 220.907 311.833C221.499 311.833 221.947 312.265 221.947 312.809C221.947 313.385 221.515 313.833 220.907 313.833ZM220.139 323.945V315.465H221.675V323.945H220.139ZM229.216 315.385C231.28 315.385 232.736 316.569 232.736 319.065V323.945H231.2V319.241C231.2 317.577 230.368 316.761 228.912 316.761C227.28 316.761 226.224 317.737 226.224 319.577V323.945H224.688V315.465H226.16V316.745C226.784 315.881 227.872 315.385 229.216 315.385ZM239.946 322.345L240.426 323.449C239.962 323.849 239.258 324.041 238.57 324.041C236.858 324.041 235.882 323.097 235.882 321.385V316.729H234.442V315.465H235.882V313.609H237.418V315.465H239.85V316.729H237.418V321.321C237.418 322.233 237.898 322.745 238.746 322.745C239.194 322.745 239.626 322.601 239.946 322.345ZM249.746 319.753C249.746 319.881 249.73 320.073 249.714 320.217H242.834C243.026 321.705 244.226 322.697 245.906 322.697C246.898 322.697 247.73 322.361 248.354 321.673L249.202 322.665C248.434 323.561 247.266 324.041 245.858 324.041C243.122 324.041 241.298 322.233 241.298 319.705C241.298 317.193 243.106 315.385 245.554 315.385C248.002 315.385 249.746 317.145 249.746 319.753ZM245.554 316.681C244.082 316.681 242.994 317.673 242.834 319.113H248.274C248.114 317.689 247.042 316.681 245.554 316.681ZM258.423 312.073H259.959V323.945H258.487V322.601C257.799 323.561 256.711 324.041 255.463 324.041C252.983 324.041 251.175 322.297 251.175 319.705C251.175 317.113 252.983 315.385 255.463 315.385C256.663 315.385 257.719 315.833 258.423 316.745V312.073ZM255.591 322.697C257.207 322.697 258.439 321.513 258.439 319.705C258.439 317.897 257.207 316.729 255.591 316.729C253.959 316.729 252.727 317.897 252.727 319.705C252.727 321.513 253.959 322.697 255.591 322.697ZM269.29 327.049C268.074 325.113 267.386 322.505 267.386 319.561C267.386 316.617 268.074 313.977 269.29 312.073H270.746C269.45 314.345 268.89 316.761 268.89 319.561C268.89 322.361 269.45 324.777 270.746 327.049H269.29ZM281.536 319.817V321.193H279.408V323.945H277.856V321.193H271.632V320.073L277.36 312.745H279.088L273.6 319.817H277.904V317.385H279.408V319.817H281.536ZM287.407 317.145C289.631 317.145 291.247 318.473 291.247 320.537C291.247 322.697 289.503 324.073 287.279 324.073C284.271 324.073 282.575 322.057 282.575 318.489C282.575 314.665 284.735 312.617 287.871 312.617C288.927 312.617 289.935 312.825 290.655 313.273L290.047 314.521C289.471 314.137 288.703 313.993 287.903 313.993C285.631 313.993 284.175 315.417 284.175 318.217C284.175 318.345 284.175 318.473 284.191 318.617C284.831 317.657 286.015 317.145 287.407 317.145ZM287.215 322.777C288.671 322.777 289.695 321.929 289.695 320.601C289.695 319.289 288.703 318.441 287.135 318.441C285.615 318.441 284.559 319.385 284.559 320.617C284.559 321.769 285.487 322.777 287.215 322.777ZM302.213 323.945H300.373L297.013 319.321L293.701 323.945H291.861L296.069 318.201L292.117 312.745H293.941L297.077 317.049L300.181 312.745H301.925L297.973 318.153L302.213 323.945ZM306.633 312.617C309.641 312.617 311.337 314.633 311.337 318.201C311.337 322.025 309.177 324.073 306.041 324.073C304.985 324.073 303.977 323.865 303.257 323.417L303.865 322.169C304.457 322.553 305.209 322.697 306.025 322.697C308.297 322.697 309.737 321.273 309.737 318.473V318.073C309.081 319.049 307.897 319.545 306.505 319.545C304.281 319.545 302.681 318.217 302.681 316.153C302.681 313.993 304.409 312.617 306.633 312.617ZM306.777 318.249C308.313 318.249 309.369 317.305 309.369 316.073C309.369 314.921 308.441 313.913 306.697 313.913C305.241 313.913 304.233 314.761 304.233 316.089C304.233 317.401 305.209 318.249 306.777 318.249ZM316.156 317.209C319.5 317.209 320.812 318.601 320.812 320.585C320.812 322.521 319.436 324.073 316.572 324.073C314.988 324.073 313.42 323.561 312.46 322.713L313.196 321.449C313.948 322.153 315.196 322.649 316.556 322.649C318.252 322.649 319.212 321.865 319.212 320.649C319.212 319.385 318.412 318.601 315.82 318.601H313.276L313.868 312.745H320.188V314.137H315.212L314.908 317.209H316.156ZM321.007 325.545L326.287 310.473H327.679L322.399 325.545H321.007ZM331.665 312.745H335.777V323.945H334.193V314.137H331.665V312.745ZM340.435 322.553H346.179V323.945H338.131V322.857L342.691 318.457C343.875 317.305 344.099 316.601 344.099 315.897C344.099 314.745 343.283 314.041 341.715 314.041C340.515 314.041 339.539 314.425 338.851 315.257L337.763 314.313C338.627 313.241 340.115 312.617 341.859 312.617C344.195 312.617 345.699 313.817 345.699 315.737C345.699 316.825 345.379 317.801 343.859 319.257L340.435 322.553ZM346.935 312.745H351.047V323.945H349.463V314.137H346.935V312.745ZM356.737 325.545L362.017 310.473H363.409L358.129 325.545H356.737ZM367.395 312.745H371.507V323.945H369.923V314.137H367.395V312.745ZM383.781 319.817V321.193H381.653V323.945H380.101V321.193H373.877V320.073L379.605 312.745H381.333L375.845 319.817H380.149V317.385H381.653V319.817H383.781ZM387.973 317.209C391.317 317.209 392.629 318.601 392.629 320.585C392.629 322.521 391.253 324.073 388.389 324.073C386.805 324.073 385.237 323.561 384.277 322.713L385.013 321.449C385.765 322.153 387.013 322.649 388.373 322.649C390.069 322.649 391.029 321.865 391.029 320.649C391.029 319.385 390.229 318.601 387.637 318.601H385.093L385.685 312.745H392.005V314.137H387.029L386.725 317.209H387.973ZM409.714 315.385C411.778 315.385 413.186 316.569 413.186 319.065V323.945H411.65V319.241C411.65 317.577 410.85 316.761 409.458 316.761C407.922 316.761 406.914 317.737 406.914 319.577V323.945H405.378V319.241C405.378 317.577 404.578 316.761 403.186 316.761C401.65 316.761 400.642 317.737 400.642 319.577V323.945H399.106V315.465H400.578V316.729C401.186 315.865 402.226 315.385 403.506 315.385C404.802 315.385 405.89 315.897 406.45 316.953C407.09 315.993 408.274 315.385 409.714 315.385ZM426.7 315.385C428.764 315.385 430.172 316.569 430.172 319.065V323.945H428.636V319.241C428.636 317.577 427.836 316.761 426.444 316.761C424.908 316.761 423.9 317.737 423.9 319.577V323.945H422.364V319.241C422.364 317.577 421.564 316.761 420.172 316.761C418.636 316.761 417.628 317.737 417.628 319.577V323.945H416.092V315.465H417.564V316.729C418.172 315.865 419.212 315.385 420.492 315.385C421.788 315.385 422.876 315.897 423.436 316.953C424.076 315.993 425.26 315.385 426.7 315.385ZM433.59 327.049H432.134C433.43 324.777 434.006 322.361 434.006 319.561C434.006 316.761 433.43 314.345 432.134 312.073H433.59C434.822 313.977 435.51 316.617 435.51 319.561C435.51 322.505 434.822 325.113 433.59 327.049ZM443.165 323.945V312.745H444.765V322.553H450.829V323.945H443.165ZM456.514 317.081V315.817H463.682V317.081H456.514ZM456.514 320.873V319.609H463.682V320.873H456.514ZM474.812 317.145C477.036 317.145 478.652 318.473 478.652 320.537C478.652 322.697 476.908 324.073 474.684 324.073C471.676 324.073 469.98 322.057 469.98 318.489C469.98 314.665 472.14 312.617 475.276 312.617C476.332 312.617 477.34 312.825 478.06 313.273L477.452 314.521C476.876 314.137 476.108 313.993 475.308 313.993C473.036 313.993 471.58 315.417 471.58 318.217C471.58 318.345 471.58 318.473 471.596 318.617C472.236 317.657 473.42 317.145 474.812 317.145ZM474.62 322.777C476.076 322.777 477.1 321.929 477.1 320.601C477.1 319.289 476.108 318.441 474.54 318.441C473.02 318.441 471.964 319.385 471.964 320.617C471.964 321.769 472.892 322.777 474.62 322.777ZM491.231 315.385C493.295 315.385 494.703 316.569 494.703 319.065V323.945H493.167V319.241C493.167 317.577 492.367 316.761 490.975 316.761C489.439 316.761 488.431 317.737 488.431 319.577V323.945H486.895V319.241C486.895 317.577 486.095 316.761 484.703 316.761C483.167 316.761 482.159 317.737 482.159 319.577V323.945H480.623V315.465H482.095V316.729C482.703 315.865 483.743 315.385 485.023 315.385C486.319 315.385 487.407 315.897 487.967 316.953C488.607 315.993 489.791 315.385 491.231 315.385Z" fill="black"/>
<path d="M6.9363 341.993L5.0323 343.049L6.9363 344.121L6.4403 345.001L4.5043 343.865L4.5203 346.041H3.5603L3.5763 343.865L1.6403 345.001L1.1443 344.121L3.0643 343.049L1.1443 341.993L1.6403 341.097L3.5763 342.233L3.5603 340.073H4.5203L4.5043 342.233L6.4403 341.097L6.9363 341.993ZM13.7351 341.993L11.8311 343.049L13.7351 344.121L13.2391 345.001L11.3031 343.865L11.3191 346.041H10.3591L10.3751 343.865L8.43905 345.001L7.94305 344.121L9.86305 343.049L7.94305 341.993L8.43905 341.097L10.3751 342.233L10.3591 340.073H11.3191L11.3031 342.233L13.2391 341.097L13.7351 341.993ZM25.2382 352.073C21.7982 352.073 19.2702 349.625 19.2702 346.345C19.2702 343.065 21.7982 340.617 25.2382 340.617C28.6462 340.617 31.1742 343.049 31.1742 346.345C31.1742 349.641 28.6462 352.073 25.2382 352.073ZM25.2382 350.649C27.7182 350.649 29.5742 348.825 29.5742 346.345C29.5742 343.865 27.7182 342.041 25.2382 342.041C22.7262 342.041 20.8702 343.865 20.8702 346.345C20.8702 348.825 22.7262 350.649 25.2382 350.649ZM38.0037 343.385C40.0677 343.385 41.5237 344.569 41.5237 347.065V351.945H39.9877V347.241C39.9877 345.577 39.1557 344.761 37.6997 344.761C36.0677 344.761 35.0117 345.737 35.0117 347.577V351.945H33.4757V343.465H34.9477V344.745C35.5717 343.881 36.6597 343.385 38.0037 343.385ZM44.4463 351.945V340.073H45.9823V351.945H44.4463ZM54.9951 343.465H56.4991L52.3871 352.793C51.6351 354.585 50.6591 355.145 49.3631 355.145C48.5471 355.145 47.7151 354.873 47.1871 354.361L47.8431 353.209C48.2591 353.609 48.7871 353.833 49.3631 353.833C50.0991 353.833 50.5631 353.497 50.9791 352.521L51.2511 351.929L47.5071 343.465H49.1071L52.0671 350.249L54.9951 343.465ZM70.5174 342.137H64.2134V346.041H69.8294V347.417H64.2134V351.945H62.6134V340.745H70.5174V342.137ZM73.2374 341.833C72.6454 341.833 72.1974 341.401 72.1974 340.841C72.1974 340.281 72.6454 339.833 73.2374 339.833C73.8294 339.833 74.2774 340.265 74.2774 340.809C74.2774 341.385 73.8454 341.833 73.2374 341.833ZM72.4694 351.945V343.465H74.0054V351.945H72.4694ZM81.5462 343.385C83.6102 343.385 85.0662 344.569 85.0662 347.065V351.945H83.5302V347.241C83.5302 345.577 82.6982 344.761 81.2422 344.761C79.6102 344.761 78.5542 345.737 78.5542 347.577V351.945H77.0182V343.465H78.4902V344.745C79.1142 343.881 80.2022 343.385 81.5462 343.385ZM94.6917 343.465H96.1477V350.793C96.1477 353.785 94.6277 355.145 91.7477 355.145C90.1957 355.145 88.6277 354.713 87.6997 353.881L88.4357 352.697C89.2197 353.369 90.4517 353.801 91.6997 353.801C93.6997 353.801 94.6117 352.873 94.6117 350.953V350.281C93.8757 351.161 92.7717 351.593 91.5557 351.593C89.1077 351.593 87.2517 349.929 87.2517 347.481C87.2517 345.033 89.1077 343.385 91.5557 343.385C92.8197 343.385 93.9717 343.849 94.6917 344.777V343.465ZM91.7317 350.249C93.4277 350.249 94.6437 349.113 94.6437 347.481C94.6437 345.833 93.4277 344.729 91.7317 344.729C90.0197 344.729 88.8037 345.833 88.8037 347.481C88.8037 349.113 90.0197 350.249 91.7317 350.249ZM106.827 347.753C106.827 347.881 106.811 348.073 106.795 348.217H99.9146C100.107 349.705 101.307 350.697 102.987 350.697C103.979 350.697 104.811 350.361 105.435 349.673L106.283 350.665C105.515 351.561 104.347 352.041 102.939 352.041C100.203 352.041 98.3786 350.233 98.3786 347.705C98.3786 345.193 100.187 343.385 102.635 343.385C105.083 343.385 106.827 345.145 106.827 347.753ZM102.635 344.681C101.163 344.681 100.075 345.673 99.9146 347.113H105.355C105.195 345.689 104.123 344.681 102.635 344.681ZM110.511 344.889C111.055 343.897 112.111 343.385 113.599 343.385V344.873C113.471 344.857 113.359 344.857 113.247 344.857C111.599 344.857 110.575 345.865 110.575 347.721V351.945H109.039V343.465H110.511V344.889ZM121.723 352.073C120.395 352.073 119.179 351.497 118.459 350.457L119.387 349.369C119.995 350.233 120.779 350.697 121.723 350.697C122.987 350.697 123.643 349.929 123.643 348.425V342.137H119.595V340.745H125.227V348.345C125.227 350.841 124.011 352.073 121.723 352.073ZM131.974 352.041C129.43 352.041 127.558 350.233 127.558 347.705C127.558 345.177 129.43 343.385 131.974 343.385C134.518 343.385 136.374 345.177 136.374 347.705C136.374 350.233 134.518 352.041 131.974 352.041ZM131.974 350.697C133.606 350.697 134.822 349.513 134.822 347.705C134.822 345.897 133.606 344.729 131.974 344.729C130.342 344.729 129.11 345.897 129.11 347.705C129.11 349.513 130.342 350.697 131.974 350.697ZM139.346 341.833C138.754 341.833 138.306 341.401 138.306 340.841C138.306 340.281 138.754 339.833 139.346 339.833C139.938 339.833 140.386 340.265 140.386 340.809C140.386 341.385 139.954 341.833 139.346 341.833ZM138.578 351.945V343.465H140.114V351.945H138.578ZM147.655 343.385C149.719 343.385 151.175 344.569 151.175 347.065V351.945H149.639V347.241C149.639 345.577 148.807 344.761 147.351 344.761C145.719 344.761 144.663 345.737 144.663 347.577V351.945H143.127V343.465H144.599V344.745C145.223 343.881 146.311 343.385 147.655 343.385ZM158.386 350.345L158.866 351.449C158.402 351.849 157.698 352.041 157.01 352.041C155.298 352.041 154.322 351.097 154.322 349.385V344.729H152.882V343.465H154.322V341.609H155.858V343.465H158.29V344.729H155.858V349.321C155.858 350.233 156.338 350.745 157.186 350.745C157.634 350.745 158.066 350.601 158.386 350.345ZM168.185 347.753C168.185 347.881 168.169 348.073 168.153 348.217H161.273C161.465 349.705 162.665 350.697 164.345 350.697C165.337 350.697 166.169 350.361 166.793 349.673L167.641 350.665C166.873 351.561 165.705 352.041 164.297 352.041C161.561 352.041 159.737 350.233 159.737 347.705C159.737 345.193 161.545 343.385 163.993 343.385C166.441 343.385 168.185 345.145 168.185 347.753ZM163.993 344.681C162.521 344.681 161.433 345.673 161.273 347.113H166.713C166.553 345.689 165.481 344.681 163.993 344.681ZM176.862 340.073H178.398V351.945H176.926V350.601C176.238 351.561 175.15 352.041 173.902 352.041C171.422 352.041 169.614 350.297 169.614 347.705C169.614 345.113 171.422 343.385 173.902 343.385C175.102 343.385 176.158 343.833 176.862 344.745V340.073ZM174.03 350.697C175.646 350.697 176.878 349.513 176.878 347.705C176.878 345.897 175.646 344.729 174.03 344.729C172.398 344.729 171.166 345.897 171.166 347.705C171.166 349.513 172.398 350.697 174.03 350.697ZM188.849 343.385C191.169 343.385 192.481 344.505 192.481 346.825V351.945H191.025V350.825C190.513 351.593 189.569 352.041 188.241 352.041C186.321 352.041 185.105 351.017 185.105 349.545C185.105 348.185 185.985 347.065 188.513 347.065H190.945V346.761C190.945 345.465 190.193 344.713 188.673 344.713C187.665 344.713 186.641 345.065 185.985 345.625L185.345 344.473C186.225 343.769 187.489 343.385 188.849 343.385ZM188.497 350.857C189.649 350.857 190.561 350.329 190.945 349.353V348.169H188.577C187.057 348.169 186.625 348.761 186.625 349.481C186.625 350.329 187.329 350.857 188.497 350.857ZM199.932 343.385C201.996 343.385 203.452 344.569 203.452 347.065V351.945H201.916V347.241C201.916 345.577 201.084 344.761 199.628 344.761C197.996 344.761 196.94 345.737 196.94 347.577V351.945H195.404V343.465H196.876V344.745C197.5 343.881 198.588 343.385 199.932 343.385ZM212.885 340.073H214.421V351.945H212.949V350.601C212.261 351.561 211.173 352.041 209.925 352.041C207.445 352.041 205.637 350.297 205.637 347.705C205.637 345.113 207.445 343.385 209.925 343.385C211.125 343.385 212.181 343.833 212.885 344.745V340.073ZM210.053 350.697C211.669 350.697 212.901 349.513 212.901 347.705C212.901 345.897 211.669 344.729 210.053 344.729C208.421 344.729 207.189 345.897 207.189 347.705C207.189 349.513 208.421 350.697 210.053 350.697ZM221.784 351.945V340.073H223.32V351.945H221.784ZM229.421 343.385C231.741 343.385 233.053 344.505 233.053 346.825V351.945H231.597V350.825C231.085 351.593 230.141 352.041 228.813 352.041C226.893 352.041 225.677 351.017 225.677 349.545C225.677 348.185 226.557 347.065 229.085 347.065H231.517V346.761C231.517 345.465 230.765 344.713 229.245 344.713C228.237 344.713 227.213 345.065 226.557 345.625L225.917 344.473C226.797 343.769 228.061 343.385 229.421 343.385ZM229.069 350.857C230.221 350.857 231.133 350.329 231.517 349.353V348.169H229.149C227.629 348.169 227.197 348.761 227.197 349.481C227.197 350.329 227.901 350.857 229.069 350.857ZM246.584 343.385C248.648 343.385 250.056 344.569 250.056 347.065V351.945H248.52V347.241C248.52 345.577 247.72 344.761 246.328 344.761C244.792 344.761 243.784 345.737 243.784 347.577V351.945H242.248V347.241C242.248 345.577 241.448 344.761 240.056 344.761C238.52 344.761 237.512 345.737 237.512 347.577V351.945H235.976V343.465H237.448V344.729C238.056 343.865 239.096 343.385 240.376 343.385C241.672 343.385 242.76 343.897 243.32 344.953C243.96 343.993 245.144 343.385 246.584 343.385ZM253.73 341.833C253.138 341.833 252.69 341.401 252.69 340.841C252.69 340.281 253.138 339.833 253.73 339.833C254.322 339.833 254.77 340.265 254.77 340.809C254.77 341.385 254.338 341.833 253.73 341.833ZM252.962 351.945V343.465H254.498V351.945H252.962ZM262.039 343.385C264.103 343.385 265.559 344.569 265.559 347.065V351.945H264.023V347.241C264.023 345.577 263.191 344.761 261.735 344.761C260.103 344.761 259.047 345.737 259.047 347.577V351.945H257.511V343.465H258.983V344.745C259.607 343.881 260.695 343.385 262.039 343.385ZM271.569 343.385C273.889 343.385 275.201 344.505 275.201 346.825V351.945H273.745V350.825C273.233 351.593 272.289 352.041 270.961 352.041C269.041 352.041 267.825 351.017 267.825 349.545C267.825 348.185 268.705 347.065 271.233 347.065H273.665V346.761C273.665 345.465 272.913 344.713 271.393 344.713C270.385 344.713 269.361 345.065 268.705 345.625L268.065 344.473C268.945 343.769 270.209 343.385 271.569 343.385ZM271.217 350.857C272.369 350.857 273.281 350.329 273.665 349.353V348.169H271.297C269.777 348.169 269.345 348.761 269.345 349.481C269.345 350.329 270.049 350.857 271.217 350.857ZM282.412 350.345L282.892 351.449C282.428 351.849 281.724 352.041 281.036 352.041C279.324 352.041 278.348 351.097 278.348 349.385V344.729H276.908V343.465H278.348V341.609H279.884V343.465H282.316V344.729H279.884V349.321C279.884 350.233 280.364 350.745 281.212 350.745C281.66 350.745 282.092 350.601 282.412 350.345ZM292.212 347.753C292.212 347.881 292.196 348.073 292.18 348.217H285.3C285.492 349.705 286.692 350.697 288.372 350.697C289.364 350.697 290.196 350.361 290.82 349.673L291.668 350.665C290.9 351.561 289.732 352.041 288.324 352.041C285.588 352.041 283.764 350.233 283.764 347.705C283.764 345.193 285.572 343.385 288.02 343.385C290.468 343.385 292.212 345.145 292.212 347.753ZM288.02 344.681C286.548 344.681 285.46 345.673 285.3 347.113H290.74C290.58 345.689 289.508 344.681 288.02 344.681ZM300.888 340.073H302.424V351.945H300.952V350.601C300.264 351.561 299.176 352.041 297.928 352.041C295.448 352.041 293.64 350.297 293.64 347.705C293.64 345.113 295.448 343.385 297.928 343.385C299.128 343.385 300.184 343.833 300.888 344.745V340.073ZM298.056 350.697C299.672 350.697 300.904 349.513 300.904 347.705C300.904 345.897 299.672 344.729 298.056 344.729C296.424 344.729 295.192 345.897 295.192 347.705C295.192 349.513 296.424 350.697 298.056 350.697ZM316.132 355.049C314.916 353.113 314.228 350.505 314.228 347.561C314.228 344.617 314.916 341.977 316.132 340.073H317.588C316.292 342.345 315.732 344.761 315.732 347.561C315.732 350.361 316.292 352.777 317.588 355.049H316.132ZM322.579 340.617C325.587 340.617 327.283 342.633 327.283 346.201C327.283 350.025 325.123 352.073 321.987 352.073C320.931 352.073 319.923 351.865 319.203 351.417L319.811 350.169C320.403 350.553 321.155 350.697 321.971 350.697C324.243 350.697 325.683 349.273 325.683 346.473V346.073C325.027 347.049 323.843 347.545 322.451 347.545C320.227 347.545 318.627 346.217 318.627 344.153C318.627 341.993 320.355 340.617 322.579 340.617ZM322.723 346.249C324.259 346.249 325.315 345.305 325.315 344.073C325.315 342.921 324.387 341.913 322.643 341.913C321.187 341.913 320.179 342.761 320.179 344.089C320.179 345.401 321.155 346.249 322.723 346.249ZM332.102 345.209C335.446 345.209 336.758 346.601 336.758 348.585C336.758 350.521 335.382 352.073 332.518 352.073C330.934 352.073 329.366 351.561 328.406 350.713L329.142 349.449C329.894 350.153 331.142 350.649 332.502 350.649C334.198 350.649 335.158 349.865 335.158 348.649C335.158 347.385 334.358 346.601 331.766 346.601H329.222L329.814 340.745H336.134V342.137H331.158L330.854 345.209H332.102ZM352.338 351.945H350.498L347.138 347.321L343.826 351.945H341.986L346.194 346.201L342.242 340.745H344.066L347.202 345.049L350.306 340.745H352.05L348.098 346.153L352.338 351.945ZM357.129 340.745H361.241V351.945H359.657V342.137H357.129V340.745ZM365.899 350.553H371.643V351.945H363.595V350.857L368.155 346.457C369.339 345.305 369.563 344.601 369.563 343.897C369.563 342.745 368.747 342.041 367.179 342.041C365.979 342.041 365.003 342.425 364.315 343.257L363.227 342.313C364.091 341.241 365.579 340.617 367.323 340.617C369.659 340.617 371.163 341.817 371.163 343.737C371.163 344.825 370.843 345.801 369.323 347.257L365.899 350.553ZM372.398 340.745H376.51V351.945H374.926V342.137H372.398V340.745ZM377.824 353.545L383.104 338.473H384.496L379.216 353.545H377.824ZM388.482 340.745H392.594V351.945H391.01V342.137H388.482V340.745ZM404.868 347.817V349.193H402.74V351.945H401.188V349.193H394.964V348.073L400.692 340.745H402.42L396.932 347.817H401.236V345.385H402.74V347.817H404.868ZM409.06 345.209C412.404 345.209 413.716 346.601 413.716 348.585C413.716 350.521 412.34 352.073 409.476 352.073C407.892 352.073 406.324 351.561 405.364 350.713L406.1 349.449C406.852 350.153 408.1 350.649 409.46 350.649C411.156 350.649 412.116 349.865 412.116 348.649C412.116 347.385 411.316 346.601 408.724 346.601H406.18L406.772 340.745H413.092V342.137H408.116L407.812 345.209H409.06ZM430.801 343.385C432.865 343.385 434.273 344.569 434.273 347.065V351.945H432.737V347.241C432.737 345.577 431.937 344.761 430.545 344.761C429.009 344.761 428.001 345.737 428.001 347.577V351.945H426.465V347.241C426.465 345.577 425.665 344.761 424.273 344.761C422.737 344.761 421.729 345.737 421.729 347.577V351.945H420.193V343.465H421.665V344.729C422.273 343.865 423.313 343.385 424.593 343.385C425.889 343.385 426.977 343.897 427.537 344.953C428.177 343.993 429.361 343.385 430.801 343.385ZM447.787 343.385C449.851 343.385 451.259 344.569 451.259 347.065V351.945H449.723V347.241C449.723 345.577 448.923 344.761 447.531 344.761C445.995 344.761 444.987 345.737 444.987 347.577V351.945H443.451V347.241C443.451 345.577 442.651 344.761 441.259 344.761C439.723 344.761 438.715 345.737 438.715 347.577V351.945H437.179V343.465H438.651V344.729C439.259 343.865 440.299 343.385 441.579 343.385C442.875 343.385 443.963 343.897 444.523 344.953C445.163 343.993 446.347 343.385 447.787 343.385ZM454.677 355.049H453.221C454.517 352.777 455.093 350.361 455.093 347.561C455.093 344.761 454.517 342.345 453.221 340.073H454.677C455.909 341.977 456.597 344.617 456.597 347.561C456.597 350.505 455.909 353.113 454.677 355.049ZM464.252 351.945V340.745H465.852V350.553H471.916V351.945H464.252ZM477.601 345.081V343.817H484.769V345.081H477.601ZM477.601 348.873V347.609H484.769V348.873H477.601ZM495.898 345.145C498.122 345.145 499.738 346.473 499.738 348.537C499.738 350.697 497.994 352.073 495.77 352.073C492.762 352.073 491.066 350.057 491.066 346.489C491.066 342.665 493.226 340.617 496.362 340.617C497.418 340.617 498.426 340.825 499.146 341.273L498.538 342.521C497.962 342.137 497.194 341.993 496.394 341.993C494.122 341.993 492.666 343.417 492.666 346.217C492.666 346.345 492.666 346.473 492.682 346.617C493.322 345.657 494.506 345.145 495.898 345.145ZM495.706 350.777C497.162 350.777 498.186 349.929 498.186 348.601C498.186 347.289 497.194 346.441 495.626 346.441C494.106 346.441 493.05 347.385 493.05 348.617C493.05 349.769 493.978 350.777 495.706 350.777ZM512.317 343.385C514.381 343.385 515.789 344.569 515.789 347.065V351.945H514.253V347.241C514.253 345.577 513.453 344.761 512.061 344.761C510.525 344.761 509.517 345.737 509.517 347.577V351.945H507.981V347.241C507.981 345.577 507.181 344.761 505.789 344.761C504.253 344.761 503.245 345.737 503.245 347.577V351.945H501.709V343.465H503.181V344.729C503.789 343.865 504.829 343.385 506.109 343.385C507.405 343.385 508.493 343.897 509.053 344.953C509.693 343.993 510.877 343.385 512.317 343.385Z" fill="black"/>
<defs>
<clipPath id="clip0_1329_11916">
<rect width="20" height="20" fill="white" transform="translate(113.5 71.9448)"/>
</clipPath>
<clipPath id="clip1_1329_11916">
<rect width="20" height="20" fill="white" transform="translate(113.5 103.945)"/>
</clipPath>
<clipPath id="clip2_1329_11916">
<rect width="20" height="20" fill="white" transform="translate(113.5 135.945)"/>
</clipPath>
<clipPath id="clip3_1329_11916">
<rect width="20" height="20" fill="white" transform="translate(113.5 167.945)"/>
</clipPath>
<clipPath id="clip4_1329_11916">
<rect width="20" height="20" fill="white" transform="translate(113.5 199.945)"/>
</clipPath>
<clipPath id="clip5_1329_11916">
<rect width="20" height="20" fill="white" transform="translate(113.5 231.945)"/>
</clipPath>
<clipPath id="clip6_1329_11916">
<rect width="20" height="20" fill="white" transform="translate(226.5 71.9448)"/>
</clipPath>
<clipPath id="clip7_1329_11916">
<rect width="20" height="20" fill="white" transform="translate(226.5 103.945)"/>
</clipPath>
<clipPath id="clip8_1329_11916">
<rect width="20" height="20" fill="white" transform="translate(226.5 135.945)"/>
</clipPath>
<clipPath id="clip9_1329_11916">
<rect width="20" height="20" fill="white" transform="translate(226.5 167.945)"/>
</clipPath>
<clipPath id="clip10_1329_11916">
<rect width="20" height="20" fill="white" transform="translate(226.5 199.945)"/>
</clipPath>
<clipPath id="clip11_1329_11916">
<rect width="20" height="20" fill="white" transform="translate(226.5 231.945)"/>
</clipPath>
<clipPath id="clip12_1329_11916">
<rect width="20" height="20" fill="white" transform="translate(226.5 263.945)"/>
</clipPath>
<clipPath id="clip13_1329_11916">
<rect width="20" height="20" fill="white" transform="translate(339.5 71.9448)"/>
</clipPath>
<clipPath id="clip14_1329_11916">
<rect width="20" height="20" fill="white" transform="translate(339.5 103.945)"/>
</clipPath>
<clipPath id="clip15_1329_11916">
<rect width="20" height="20" fill="white" transform="translate(339.5 135.945)"/>
</clipPath>
<clipPath id="clip16_1329_11916">
<rect width="20" height="20" fill="white" transform="translate(339.5 167.945)"/>
</clipPath>
<clipPath id="clip17_1329_11916">
<rect width="20" height="20" fill="white" transform="translate(339.5 199.945)"/>
</clipPath>
<clipPath id="clip18_1329_11916">
<rect width="20" height="20" fill="white" transform="translate(339.5 231.945)"/>
</clipPath>
<clipPath id="clip19_1329_11916">
<rect width="20" height="20" fill="white" transform="translate(339.5 263.945)"/>
</clipPath>
<clipPath id="clip20_1329_11916">
<rect width="20" height="20" fill="white" transform="translate(452.5 71.9448)"/>
</clipPath>
<clipPath id="clip21_1329_11916">
<rect width="20" height="20" fill="white" transform="translate(452.5 103.945)"/>
</clipPath>
<clipPath id="clip22_1329_11916">
<rect width="20" height="20" fill="white" transform="translate(452.5 135.945)"/>
</clipPath>
<clipPath id="clip23_1329_11916">
<rect width="20" height="20" fill="white" transform="translate(452.5 167.945)"/>
</clipPath>
<clipPath id="clip24_1329_11916">
<rect width="20" height="20" fill="white" transform="translate(452.5 199.945)"/>
</clipPath>
<clipPath id="clip25_1329_11916">
<rect width="20" height="20" fill="white" transform="translate(452.5 231.945)"/>
</clipPath>
</defs>
</svg>
