<svg width="101" height="30" viewBox="0 0 101 30" fill="none" xmlns="http://www.w3.org/2000/svg">
<path d="M43.7237 18.7671C42.0312 18.7671 40.7582 17.4222 40.7582 15.5402C40.7582 13.6581 42.0312 12.3132 43.7237 12.3132C45.4163 12.3132 46.652 13.6395 46.652 15.5402C46.652 17.4408 45.4117 18.7671 43.7237 18.7671ZM43.7237 20.8779C46.8105 20.8779 49.0952 18.6083 49.0952 15.5402C49.0952 12.472 46.8105 10.2024 43.7237 10.2024C40.637 10.2024 38.3523 12.472 38.3523 15.5402C38.3523 18.6083 40.6557 20.8779 43.7237 20.8779ZM51.2914 24.7167L53.2964 20.2662L48.8994 10.4265H51.4453L54.4621 17.5482L57.2504 10.4265H59.7636L53.73 24.7167H51.2867H51.2914ZM11.6487 18.7671C9.95612 18.7671 8.6832 17.4222 8.6832 15.5402C8.6832 13.6581 9.93747 12.3132 11.6487 12.3132C13.3599 12.3132 14.5769 13.6395 14.5769 15.5402C14.5956 17.4268 13.3366 18.7671 11.6487 18.7671ZM16.8104 15.0685C16.5819 12.2058 14.5443 10.1837 11.6487 10.1837C8.75313 10.1837 6.48706 12.4533 6.48706 15.5215C6.48706 18.5897 8.40343 20.8593 11.4762 20.8593C12.7305 20.8593 13.8309 20.3689 14.7215 19.6217L14.9126 20.8593H17.216L16.8151 15.0638L16.8104 15.0685ZM64.804 18.7671C63.1114 18.7671 61.8385 17.4222 61.8385 15.5402C61.8385 13.6581 63.1114 12.3132 64.804 12.3132C66.4966 12.3132 67.7322 13.6395 67.7322 15.5402C67.7509 17.4268 66.5106 18.7671 64.804 18.7671ZM69.9657 15.0685C69.7372 12.2058 67.6996 10.1837 64.804 10.1837C61.9084 10.1837 59.6424 12.4533 59.6424 15.5215C59.6424 18.5897 61.5587 20.8593 64.6315 20.8593C65.8858 20.8593 66.9862 20.3689 67.8768 19.6217L68.0679 20.8593H70.3714L69.9704 15.0638L69.9657 15.0685ZM33.6196 18.7671C31.9456 18.7671 30.8126 17.4222 30.8126 15.5402C30.8126 13.6581 31.927 12.3132 33.5683 12.3132C34.8086 12.3132 35.5546 12.925 36.0255 13.9197L37.6808 12.1731C36.8089 10.9169 35.4147 10.1837 33.6149 10.1837C30.5794 10.1837 28.3647 12.4673 28.3647 15.5215C28.3647 18.5756 30.5282 20.8593 33.5636 20.8593C35.3588 20.8593 36.739 20.1261 37.6109 19.0286L35.9556 17.3007C35.5359 18.174 34.7852 18.7671 33.6196 18.7671ZM23.6273 18.7671C21.9534 18.7671 20.8203 17.4222 20.8203 15.5402C20.8203 13.6581 21.9348 12.3132 23.576 12.3132C24.8163 12.3132 25.5624 12.925 26.0333 13.9197L27.6886 12.1731C26.8166 10.9169 25.4225 10.1837 23.6227 10.1837C20.5872 10.1837 18.3724 12.4673 18.3724 15.5215C18.3724 18.5756 20.5359 20.8593 23.5714 20.8593C25.3665 20.8593 26.7467 20.1261 27.6186 19.0286L25.9634 17.3007C25.5251 18.174 24.779 18.7671 23.6273 18.7671ZM92.7432 8.19427C91.9412 8.19427 91.2791 7.54981 91.2791 6.74657V6.72789C91.2791 5.90598 91.9226 5.24284 92.7432 5.24284C93.5638 5.24284 94.2073 5.90598 94.2073 6.72789C94.2073 7.54981 93.5452 8.19427 92.7432 8.19427ZM92.7432 5C91.7827 5 91.018 5.76588 91.018 6.72789C91.018 7.68991 91.7873 8.45579 92.7432 8.45579C93.6991 8.45579 94.4684 7.68991 94.4871 6.72789C94.4684 5.78456 93.7037 5 92.7432 5ZM92.6546 6.63916H92.3562V5.92466H92.6546C93.0043 5.92466 93.1582 6.01339 93.1582 6.27491V6.29359C93.1395 6.53642 92.9997 6.64383 92.6546 6.64383V6.63916ZM93.5266 7.66656L93.037 6.86332C93.2981 6.79327 93.4752 6.62048 93.4752 6.28892C93.4752 5.76588 93.1629 5.6071 92.636 5.6071C92.4961 5.6071 92.2536 5.6071 92.1464 5.62578C92.0764 5.62578 92.0251 5.67715 92.0251 5.76588V7.7226C92.0251 7.77397 92.0578 7.82534 92.1137 7.82534H92.2723C92.3236 7.82534 92.3609 7.77397 92.3609 7.7226V6.91936H92.622L92.6919 6.93804L93.2141 7.75996C93.2141 7.75996 93.2654 7.81133 93.2841 7.81133H93.4566C93.5079 7.81133 93.5266 7.77864 93.5266 7.7226C93.5452 7.70392 93.5452 7.68991 93.5266 7.67123V7.66656ZM88.0525 8.71264C88.7146 10.0576 89.2228 11.4679 89.6052 12.9016C90.0062 14.3867 90.3372 15.9184 90.4444 17.4548C90.4771 17.8751 90.4631 18.3095 90.3559 18.7298C90.1973 19.3929 89.815 20.0047 89.2228 20.3549C88.5793 20.7052 87.81 20.7565 87.0966 20.7892C85.9263 20.8593 84.7792 20.8079 83.6089 20.6865C82.5271 20.5837 81.3941 20.425 80.4009 19.9206C82.0935 21.4757 88.999 22.6619 92.137 21.9427C98.8327 20.425 89.4326 5.78456 84.9844 5.15411C85.003 5.15411 86.7795 6.14882 88.0525 8.71264ZM90.5284 23.1102C88.4348 23.283 85.1569 22.83 82.7136 22.0968C81.2309 21.6625 79.2259 20.7192 78.7177 19.9486C77.6872 18.3935 81.091 13.1771 82.1541 11.7995L82.294 11.6267C81.3521 12.3786 80.5828 13.3546 79.8181 14.2606C79.0161 15.2226 78.3726 16.2173 77.7245 17.2447C77.095 18.2721 76.5029 19.3228 76.0319 20.439C75.6123 21.4337 75.4724 22.4984 76.3816 23.2643C77.2023 23.9788 78.4053 24.3291 79.4497 24.5579C80.5828 24.8007 81.7345 24.9081 82.9048 24.9595C85.1709 25.0482 87.493 25.0109 89.7217 24.6466C91.4143 24.3664 93.4706 23.7033 93.9089 21.8213C93.5079 22.3116 92.3562 22.9748 90.5237 23.1149L90.5284 23.1102ZM89.358 16.8104C89.027 14.5081 88.4861 12.1497 87.5442 10.0062C87.1059 9.01152 86.7422 8.34838 86.1501 7.4424C85.6791 6.72789 85.2781 6.13481 84.5787 5.59309C84.0192 5.15878 83.427 5.07005 82.5924 5.61177C81.7018 6.20486 80.7786 7.04078 80.0978 7.8627C78.1628 10.1837 77.2023 12.0143 76.0692 14.877C75.7382 15.7129 75.3372 17.0579 75.216 17.8238C75.1134 18.4682 74.9875 19.3228 74.9875 19.8319C74.9875 20.2662 75.0201 20.7378 75.146 21.1768C75.7895 18.1413 77.2396 16.0445 78.7223 14.1111C79.9067 12.556 80.9884 11.4072 81.4967 10.9682C82.266 10.3051 82.9794 9.66064 84.1125 9.64196C85.488 9.62328 86.5884 11.4025 86.9381 11.9116C87.9499 13.4293 88.7519 15.1058 89.3627 16.8151L89.358 16.8104Z" fill="#33A949"/>
</svg>
