<svg width="80" height="30" viewBox="0 0 80 30" fill="none" xmlns="http://www.w3.org/2000/svg">
<path d="M33.7997 19.6713L33.2989 20.0904C32.9617 19.7725 32.5764 19.6136 32.1526 19.6136C31.7962 19.6136 31.4927 19.7195 31.2471 19.9362C31.0015 20.153 30.8811 20.4179 30.8811 20.7357C30.8811 20.9573 30.9341 21.1548 31.0448 21.3233C31.1556 21.4967 31.3097 21.6316 31.5072 21.7279C31.7047 21.8242 31.9262 21.8724 32.167 21.8724C32.3741 21.8724 32.562 21.8387 32.7353 21.7712C32.9087 21.7038 33.0966 21.5786 33.2989 21.4004L33.7805 21.8483C33.5011 22.0891 33.2411 22.2529 32.9954 22.3444C32.7498 22.4359 32.4705 22.4841 32.1526 22.4841C31.5698 22.4841 31.093 22.3203 30.7221 21.9928C30.3513 21.6653 30.1635 21.2463 30.1635 20.7357C30.1635 20.4034 30.2501 20.1096 30.4187 19.8544C30.5873 19.5991 30.8281 19.392 31.146 19.2331C31.459 19.0789 31.801 18.9971 32.1622 18.9971C32.4705 18.9971 32.7691 19.0549 33.058 19.1705C33.3422 19.286 33.5926 19.4498 33.7997 19.6617" fill="#080808"/>
<path d="M38.3173 19.6186C37.9705 19.6186 37.6767 19.7245 37.4407 19.9413C37.2047 20.1532 37.0843 20.4277 37.0843 20.7552C37.0843 21.1212 37.2336 21.4102 37.5322 21.627C37.7634 21.7955 38.0283 21.8774 38.3269 21.8774C38.6641 21.8774 38.953 21.7666 39.1939 21.5547C39.4299 21.338 39.5503 21.0731 39.5503 20.7552C39.5503 20.4373 39.4299 20.1724 39.189 19.9557C38.9482 19.739 38.6593 19.6282 38.3125 19.6282M38.3221 19.0117C38.8519 19.0117 39.3094 19.1803 39.6899 19.5222C40.0704 19.8594 40.2631 20.2736 40.2631 20.7648C40.2631 21.2561 40.0752 21.6607 39.6996 21.993C39.3239 22.3253 38.8663 22.4939 38.3269 22.4939C37.7875 22.4939 37.2962 22.3205 36.9254 21.9785C36.5545 21.6366 36.3667 21.2272 36.3667 20.7504C36.3667 20.4325 36.4534 20.1435 36.6268 19.8738C36.8002 19.6089 37.041 19.397 37.3444 19.2429C37.6478 19.0888 37.9753 19.0117 38.3269 19.0117" fill="#080808"/>
<path d="M45.7393 19.083L44.8627 21.3996L43.991 19.083H43.2974L42.6472 22.4014H43.3456L43.755 20.3063L44.5448 22.4014H45.1709L45.9705 20.3063L46.3702 22.4014H47.0637L46.4328 19.083H45.7393Z" fill="#080808"/>
<path d="M50.9457 20.3844H51.172C51.3502 20.3844 51.4754 20.3748 51.5429 20.3507C51.6103 20.3267 51.6681 20.2881 51.7066 20.24C51.7452 20.187 51.7692 20.1244 51.7692 20.0521C51.7692 19.9221 51.7114 19.8306 51.6007 19.7728C51.5188 19.7294 51.3695 19.7054 51.1479 19.7054H50.9457V20.3844ZM50.2328 19.0889H50.989C51.3984 19.0889 51.6922 19.1226 51.8752 19.19C52.0582 19.2574 52.1979 19.3634 52.3038 19.5127C52.4098 19.662 52.458 19.8402 52.458 20.0521C52.458 20.2833 52.3905 20.476 52.2509 20.6301C52.116 20.7842 51.9282 20.8902 51.6922 20.948C51.5525 20.9817 51.3021 21.0009 50.9408 21.0009V22.4073H50.228V19.0889H50.2328Z" fill="#080808"/>
<path d="M56.8216 19.6186C56.4748 19.6186 56.1811 19.7245 55.9451 19.9413C55.7091 20.1532 55.5887 20.4277 55.5887 20.7552C55.5887 21.1212 55.738 21.4102 56.0366 21.627C56.2677 21.7955 56.5326 21.8774 56.8313 21.8774C57.1684 21.8774 57.4574 21.7666 57.6934 21.5547C57.9342 21.338 58.0498 21.0731 58.0498 20.7552C58.0498 20.4373 57.9294 20.1724 57.6886 19.9557C57.4477 19.739 57.1588 19.6282 56.812 19.6282M56.8216 19.0117C57.3514 19.0117 57.809 19.1803 58.1894 19.5222C58.5699 19.8594 58.7626 20.2736 58.7626 20.7648C58.7626 21.2561 58.5747 21.6607 58.1991 21.993C57.8234 22.3301 57.3659 22.4939 56.8264 22.4939C56.287 22.4939 55.7958 22.3205 55.4249 21.9785C55.054 21.6366 54.8662 21.2272 54.8662 20.7504C54.8662 20.4325 54.9529 20.1435 55.1263 19.8738C55.2997 19.6089 55.5405 19.397 55.8439 19.2429C56.1473 19.0888 56.4748 19.0117 56.8264 19.0117" fill="#080808"/>
<path d="M63.7281 19.5365L63.1983 19.9507C63.0105 19.7243 62.8226 19.6087 62.63 19.6087C62.5385 19.6087 62.4614 19.6328 62.3988 19.6762C62.341 19.7195 62.3121 19.7725 62.3121 19.8255C62.3121 19.8784 62.3314 19.9314 62.3747 19.9844C62.4325 20.0518 62.6059 20.1915 62.8997 20.4082C63.1742 20.6105 63.338 20.7357 63.3958 20.7887C63.5403 20.9188 63.6414 21.044 63.704 21.1596C63.7666 21.28 63.7955 21.4052 63.7955 21.5449C63.7955 21.8146 63.6896 22.041 63.4777 22.2192C63.2657 22.3974 62.9864 22.4841 62.6444 22.4841C62.3795 22.4841 62.1435 22.4263 61.9461 22.3107C61.7486 22.1951 61.58 22.0121 61.4355 21.7664L62.0328 21.4486C62.2158 21.7424 62.4229 21.8868 62.6541 21.8868C62.7793 21.8868 62.8804 21.8531 62.9623 21.7905C63.0442 21.7279 63.0875 21.6557 63.0875 21.5738C63.0875 21.4967 63.0538 21.4245 62.9912 21.3474C62.9286 21.2704 62.7889 21.1596 62.577 21.0006C62.1676 20.7069 61.9027 20.4805 61.7871 20.3167C61.6667 20.1578 61.6089 19.9989 61.6089 19.8351C61.6089 19.6039 61.7101 19.4065 61.9075 19.2427C62.105 19.0789 62.3506 18.9971 62.6396 18.9971C62.8275 18.9971 63.0057 19.0356 63.1742 19.1127C63.3428 19.1897 63.5258 19.3294 63.7233 19.5317" fill="#080808"/>
<path d="M67.7593 19.083H67.0513V22.4014H67.7593V19.083Z" fill="#080808"/>
<path d="M70.5046 19.083V19.7091H71.1741V22.4014H71.8965V19.7091H72.5805V19.083H70.5046Z" fill="#080808"/>
<path d="M75.3257 19.083V22.4014H77.3678V21.7801H76.0337V20.9084H77.3678V20.3015H76.0337V19.7043H77.3678V19.083H75.3257Z" fill="#080808"/>
<path d="M36.6269 8.76229L35.577 9.76408C34.8642 9.00792 34.0599 8.63225 33.164 8.63225C32.4079 8.63225 31.777 8.88751 31.2568 9.40767C30.7415 9.92301 30.4814 10.5588 30.4814 11.3149C30.4814 11.8399 30.597 12.3071 30.8233 12.7165C31.0497 13.1258 31.3724 13.4437 31.7914 13.6797C32.2104 13.9109 32.6728 14.0265 33.1833 14.0265C33.6216 14.0265 34.0165 13.9446 34.3777 13.7809C34.739 13.6171 35.1339 13.3185 35.5674 12.8898L36.5836 13.9542C36.0008 14.5226 35.4518 14.9175 34.9316 15.139C34.4115 15.3606 33.8191 15.4666 33.1544 15.4666C31.9263 15.4666 30.9245 15.0764 30.1442 14.301C29.364 13.5208 28.9739 12.5238 28.9739 11.3101C28.9739 10.525 29.1521 9.82187 29.5085 9.2102C29.8649 8.59854 30.3754 8.10728 31.0352 7.73642C31.6999 7.36557 32.4127 7.17773 33.1785 7.17773C33.8287 7.17773 34.4548 7.31741 35.0568 7.59193C35.6589 7.86646 36.179 8.25658 36.6173 8.76711" fill="#080808"/>
<path d="M41.2986 9.46917L40.239 12.1759H42.3485L41.2986 9.46917ZM40.528 7.37891H42.0499L45.0842 15.268H43.5237L42.9072 13.6449H39.6899L39.0494 15.268H37.4889L40.5328 7.37891H40.528Z" fill="#080808"/>
<path d="M46.6351 7.37598H48.133V13.8346H50.3244V15.2699H46.6351V7.37598Z" fill="#080808"/>
<path d="M50.7194 7.37598H52.2606L54.2497 12.9821L56.2629 7.37598H57.8041L54.9625 15.2699H53.5128L50.7194 7.37598Z" fill="#080808"/>
<path d="M61.3536 9.46917L60.294 12.1759H62.4036L61.3536 9.46917ZM60.583 7.37891H62.105L65.1392 15.268H63.5787L62.9623 13.6449H59.745L59.1044 15.268H57.5439L60.5878 7.37891H60.583Z" fill="#080808"/>
<path d="M68.0242 10.4632H68.4962C68.973 10.4632 69.3053 10.4006 69.4835 10.2754C69.6617 10.1502 69.7532 9.94305 69.7532 9.64926C69.7532 9.47587 69.7099 9.32657 69.6184 9.20135C69.5317 9.07612 69.4113 8.98461 69.262 8.92682C69.1126 8.87384 68.8381 8.84494 68.4384 8.84494H68.0242V10.4632ZM66.5215 7.38079H68.1109C68.9826 7.38079 69.6039 7.45785 69.9748 7.61197C70.3456 7.7661 70.6442 8.02617 70.8658 8.3874C71.0921 8.74862 71.2029 9.17727 71.2029 9.66853C71.2029 10.1887 71.0777 10.6221 70.8321 10.9689C70.5816 11.3157 70.2108 11.5806 69.7099 11.7588L71.5786 15.265H69.9362L68.1638 11.9225H68.0242V15.265H66.5215V7.37598V7.38079Z" fill="#080808"/>
<path d="M76.6022 7.37598L75.1332 10.2176L73.6642 7.37598H72.0508L74.3722 11.8503V15.2699H75.8845V11.8503L78.1915 7.37598H76.6022Z" fill="#080808"/>
<path d="M20.7283 9.52458L18.4791 11.6678C16.9524 10.0496 15.2281 9.24524 13.3161 9.24524C11.7026 9.24524 10.3444 9.7943 9.24151 10.902C8.13858 12.005 7.58471 13.3632 7.58471 14.9814C7.58471 16.1084 7.83034 17.1054 8.31678 17.982C8.80323 18.8537 9.49677 19.5376 10.3926 20.0385C11.2884 20.5346 12.2806 20.7851 13.3739 20.7851C14.3082 20.7851 15.1607 20.6117 15.9313 20.2649C16.7019 19.9181 17.5544 19.2824 18.4791 18.3625L20.6561 20.6357C19.4087 21.8543 18.2287 22.6971 17.1209 23.1691C16.0132 23.6411 14.7465 23.8771 13.3209 23.8771C10.696 23.8771 8.54796 23.0439 6.87671 21.3823C5.20546 19.7158 4.36743 17.587 4.36743 14.9814C4.36743 13.2957 4.74792 11.8027 5.50889 10.4927C6.26986 9.18263 7.35834 8.13268 8.77915 7.33799C10.1999 6.54331 11.7267 6.14355 13.3642 6.14355C14.7562 6.14355 16.0999 6.43735 17.3858 7.02493C18.6766 7.61252 19.7892 8.45055 20.7187 9.53422" fill="#080808"/>
<path d="M13.5088 26.7278C10.07 26.7278 7.20908 25.6152 5.00322 23.419C2.79255 21.2227 1.67517 18.3763 1.67517 14.9664C1.67517 12.7605 2.1857 10.7618 3.1923 9.03273C4.1989 7.30369 5.65824 5.89733 7.52214 4.84739C9.38604 3.80225 11.4185 3.27246 13.5666 3.27246C15.3871 3.27246 17.1692 3.66258 18.8548 4.43318C20.5454 5.20379 22.0191 6.31635 23.2377 7.73234L22.0914 8.71968C21.0125 7.46744 19.7121 6.48974 18.2239 5.81064C14.9874 4.33204 11.2837 4.47172 8.25903 6.16705C6.63113 7.08214 5.36444 8.30066 4.49751 9.79371C3.63058 11.2868 3.18748 13.0302 3.18748 14.9664C3.18748 18.0006 4.12666 20.4184 6.06762 22.3449C8.00858 24.2714 10.4408 25.2106 13.5088 25.2106C15.1608 25.2106 16.6394 24.9361 17.9157 24.3967C19.1968 23.8524 20.5887 22.8506 22.0577 21.4202L23.1173 22.5039C21.5134 24.0692 19.9674 25.1769 18.5129 25.7934C17.0536 26.4147 15.3727 26.7278 13.5184 26.7278" fill="#080808"/>
</svg>
