<svg width="118" height="30" viewBox="0 0 118 30" fill="none" xmlns="http://www.w3.org/2000/svg">
<path d="M19.4837 9.36624C19.4133 9.24034 19.2456 9.1774 18.9912 9.1774H18.7585V9H21.8267V9.1774H21.594C21.3614 9.1774 21.2044 9.24034 21.1341 9.36624C21.0583 9.49213 21.0259 9.71531 21.0259 10.0472V14.4077H26.5075V10.0472C26.5075 9.71531 26.4696 9.48641 26.3992 9.36624C26.3235 9.24034 26.1611 9.1774 25.9068 9.1774H25.6741V9H28.7585V9.1774H28.5259C28.2824 9.1774 28.12 9.24034 28.0497 9.36624C27.9793 9.49213 27.9414 9.71531 27.9414 10.0472V19.9585C27.9414 20.2904 27.9793 20.5193 28.0497 20.6395C28.12 20.7654 28.2824 20.8226 28.5259 20.8226H28.7585V21H25.6741V20.8226H25.9068C26.1611 20.8226 26.3289 20.7597 26.3992 20.6395C26.4696 20.5136 26.5075 20.2904 26.5075 19.9585V15.3119H21.0259V19.9585C21.0259 20.2904 21.0637 20.5193 21.1341 20.6395C21.2044 20.7654 21.3614 20.8226 21.594 20.8226H21.8267V21H18.7585V20.8226H18.9912C19.2456 20.8226 19.4133 20.7597 19.4837 20.6395C19.554 20.5136 19.5919 20.2904 19.5919 19.9585V10.0472C19.5919 9.71531 19.554 9.48641 19.4837 9.36624Z" fill="#A06649"/>
<path d="M43.7585 20.9943H40.7385V20.8189C41.025 20.8189 41.2256 20.7736 41.3402 20.6774C41.3861 20.6321 41.409 20.5585 41.409 20.4679C41.4319 20.3604 41.409 20.2358 41.3402 20.083L40.2399 17.417H34.8932L33.8961 19.8736C33.7987 20.117 33.7528 20.2981 33.7528 20.417C33.7528 20.5245 33.7757 20.5981 33.8216 20.6434C33.9419 20.7623 34.1425 20.8189 34.4233 20.8189V20.9943H31.7585V20.8189C32.0164 20.7962 32.2457 20.6887 32.4348 20.5019C32.6239 20.3151 32.7843 20.0774 32.9161 19.783L37.472 9H38.2686L42.9906 20.2415C43.1339 20.4849 43.26 20.6377 43.3746 20.7C43.4892 20.7566 43.6153 20.8019 43.7585 20.8245V21V20.9943ZM37.5924 10.8396L35.2485 16.5566H39.9362L37.5924 10.8396Z" fill="#A06649"/>
<path d="M59.7585 9V9.17731H59.5118C59.2651 9.17731 59.0987 9.24023 59.0241 9.36606C58.9495 9.4919 58.9094 9.71497 58.9094 10.0467V19.9533C58.9094 20.285 58.9495 20.5138 59.0241 20.6339C59.0987 20.7598 59.2651 20.8227 59.5118 20.8227H59.7585V21H56.4881V20.8227H56.752C57.0102 20.8227 57.1823 20.7598 57.2684 20.6339C57.3487 20.5081 57.3946 20.285 57.3946 19.9533V10.3842L52.8446 21H52.2421L47.6921 10.613V19.49C47.6921 19.9876 47.7323 20.3308 47.8184 20.5253C47.8987 20.7197 48.0708 20.817 48.3348 20.817H48.6217V20.9943H45.7585V20.817H46.0454C46.3323 20.817 46.5159 20.7197 46.5962 20.5253C46.6766 20.3308 46.7225 19.9819 46.7225 19.49V10.0467C46.7225 9.71497 46.6823 9.48618 46.5962 9.36606C46.5159 9.24023 46.3323 9.17731 46.0454 9.17731H45.7585V9H48.5299L52.8503 18.8208L57.0389 9H59.7585Z" fill="#A06649"/>
<path d="M66.0499 19.9585C66.0499 20.2904 66.0891 20.5193 66.1731 20.6395C66.2515 20.7654 66.4252 20.8226 66.6941 20.8226H66.9518V21H63.7585V20.8226H63.9994C64.2291 20.8226 64.386 20.7597 64.4588 20.6395C64.5317 20.5136 64.5709 20.2904 64.5709 19.9585V10.0472C64.5709 9.71531 64.5317 9.48641 64.4588 9.36624C64.386 9.24034 64.2291 9.1774 63.9994 9.1774H63.7585V9H67.6801C68.302 9 68.8678 9.08011 69.372 9.2289C69.8762 9.3834 70.302 9.60086 70.6549 9.88698C71.0078 10.1731 71.2824 10.5222 71.4728 10.9342C71.6633 11.3462 71.7585 11.8212 71.7585 12.3534C71.7585 13.4635 71.3776 14.3276 70.6101 14.9399C69.8482 15.5522 68.8006 15.8441 67.4672 15.8097L66.0443 15.7754V19.9585H66.0499ZM67.2824 14.9227C68.2683 14.9456 69.0078 14.7396 69.5064 14.299C70.005 13.8641 70.2515 13.2003 70.2515 12.3133C70.2515 11.5236 69.9938 10.9113 69.4784 10.4764C68.963 10.0472 68.2515 9.82976 67.3328 9.82976C67.019 9.82976 66.7613 9.84692 66.5597 9.87554C66.358 9.90415 66.1843 9.9671 66.0499 10.0587V14.8827L67.2824 14.917V14.9227Z" fill="#A06649"/>
<path d="M85.7585 20.9943H82.7385V20.8189C83.025 20.8189 83.2256 20.7736 83.3402 20.6774C83.3861 20.6321 83.409 20.5585 83.409 20.4679C83.4319 20.3604 83.409 20.2358 83.3402 20.083L82.2399 17.417H76.8932L75.8961 19.8736C75.7987 20.117 75.7528 20.2981 75.7528 20.417C75.7528 20.5245 75.7757 20.5981 75.8216 20.6434C75.9419 20.7623 76.1425 20.8189 76.4233 20.8189V20.9943H73.7585V20.8189C74.0164 20.7962 74.2457 20.6887 74.4348 20.5019C74.6239 20.3151 74.7843 20.0774 74.9161 19.783L79.472 9H80.2686L84.9906 20.2415C85.1339 20.4849 85.26 20.6377 85.3746 20.7C85.4892 20.7566 85.6153 20.8019 85.7585 20.8245V21V20.9943ZM79.5981 10.8396L77.2542 16.5566H81.9419L79.5981 10.8396Z" fill="#A06649"/>
<path d="M111.759 20.9943H108.737V20.8189C109.024 20.8189 109.224 20.7736 109.339 20.6774C109.385 20.6321 109.408 20.5585 109.408 20.4679C109.431 20.3604 109.408 20.2358 109.339 20.083L108.238 17.417H102.889L101.897 19.8736C101.8 20.117 101.754 20.2981 101.754 20.417C101.754 20.5245 101.777 20.5981 101.823 20.6434C101.943 20.7623 102.144 20.8189 102.425 20.8189V20.9943H99.7585V20.8189C100.017 20.7962 100.246 20.6887 100.435 20.5019C100.624 20.3151 100.785 20.0774 100.917 19.783L105.469 9H106.266L110.99 20.2415C111.134 20.4849 111.26 20.6377 111.374 20.7C111.489 20.7566 111.615 20.8019 111.759 20.8245V21V20.9943ZM105.595 10.8396L103.25 16.5566H107.94L105.595 10.8396Z" fill="#A06649"/>
<path d="M15.1457 18.6645C14.2114 19.4392 12.9858 19.9142 11.6389 19.9142C9.26654 19.9142 7.25827 18.4552 6.59693 16.442C6.43918 15.9896 6.34818 15.5033 6.34818 15C6.34818 14.4967 6.43312 14.0104 6.59693 13.558C7.25827 11.5504 9.26654 10.0858 11.6389 10.0858C12.9797 10.0858 14.1993 10.5551 15.1336 11.3186L15.5947 10.6909C14.4298 9.61074 12.9797 9 11.202 9C7.64051 9 4.75854 11.6861 4.75854 15C4.75854 17.2564 6.09942 19.2243 8.07735 20.2479C8.99958 20.7286 10.0674 21 11.1959 21C12.9797 21 14.5936 20.3271 15.7585 19.2356V18.6645H15.1457Z" fill="#A06649"/>
<path d="M97.1959 18.6645C96.3465 19.4392 95.2323 19.9142 94.0079 19.9142C91.8512 19.9142 90.0255 18.4552 89.4243 16.442C89.2809 15.9896 89.1981 15.5033 89.1981 15C89.1981 14.4967 89.2754 14.0104 89.4243 13.558C90.0255 11.5504 91.8512 10.0858 94.0079 10.0858C95.2268 10.0858 96.3355 10.5551 97.1849 11.3186L97.6041 10.6909C96.5451 9.61074 95.2268 9 93.6107 9C90.3785 9 87.7585 11.6861 87.7585 15C87.7585 17.2564 88.9775 19.2243 90.7756 20.2479C91.614 20.7286 92.5848 21 93.6107 21C95.2323 21 96.6995 20.3271 97.7585 19.2356V18.6645H97.2015H97.1959Z" fill="#A06649"/>
</svg>
