<svg width="82" height="30" viewBox="0 0 82 30" fill="none" xmlns="http://www.w3.org/2000/svg">
<path d="M72.1318 6.0729C72.1318 5.01244 72.9942 4.15 74.0547 4.15C75.1151 4.15 75.9776 5.01244 75.9776 6.0729C75.9776 7.13336 75.1151 7.9958 74.0547 7.9958C72.9942 7.9958 72.1318 7.13336 72.1318 6.0729Z" stroke="black" stroke-width="0.3"/>
<path d="M74.1668 4.93549H74.247C74.3645 4.93549 74.5942 4.97289 74.6743 5.01029C74.7545 5.04768 74.872 5.12782 74.9094 5.20262C74.9842 5.28275 75.0269 5.43769 75.0269 5.55522C75.0269 5.71016 74.9896 5.82769 74.872 5.94523C74.8026 6.02002 74.6744 6.13756 74.482 6.13756C74.7171 6.44743 74.9842 6.91223 75.1819 7.18469H74.8346C74.5995 6.87483 74.4446 6.50619 74.1721 6.23372C74.092 6.19633 74.0599 6.16961 73.8623 6.16961H73.5524V7.17935H73.2426V4.9248H74.1721L74.1668 4.93549ZM74.1668 5.90783C74.2843 5.90783 74.3377 5.90249 74.4553 5.88112C74.5408 5.85975 74.5942 5.83303 74.6476 5.75824C74.6957 5.69413 74.7117 5.6407 74.7064 5.55522C74.7064 5.45372 74.6636 5.39495 74.5942 5.32549C74.4927 5.22399 74.3912 5.2133 74.2416 5.20796C74.2095 5.20796 74.1615 5.20796 74.1615 5.20796H73.5417V5.90783H74.1615H74.1668Z" fill="#010201"/>
<path d="M25.979 25.9992C25.9683 25.9511 25.9256 25.9565 25.8882 25.9458C24.9853 25.7161 24.6274 25.1925 24.7342 24.2629C24.8732 23.0769 25.8241 21.9977 26.9674 21.7466C27.3681 21.6557 27.7741 21.6451 28.1695 21.7573C28.6717 21.8962 28.9174 22.2221 28.9281 22.7456C28.9281 22.8738 28.9014 22.9486 28.7625 22.9647C28.7091 22.97 28.6557 22.986 28.6076 23.0074C28.4526 23.0662 28.3725 23.0555 28.3618 22.8471C28.3458 22.4785 28.1107 22.2434 27.7421 22.19C27.101 22.0992 26.524 22.2434 26.0538 22.7136C25.5783 23.1891 25.3433 23.7767 25.2952 24.4392C25.2578 24.9574 25.5623 25.3367 26.0752 25.4436C26.6789 25.5718 27.2239 25.3955 27.7421 25.0963C27.7848 25.0696 27.8115 25.0376 27.8222 24.9948C27.8917 24.7704 27.9558 24.5461 28.0306 24.3003H26.8178C26.8178 24.3003 26.8125 24.2736 26.8125 24.2629C26.8801 23.9495 27.0707 23.7928 27.3841 23.7928C27.8222 23.7928 28.255 23.7928 28.7251 23.7928C28.5702 24.3003 28.4259 24.7918 28.2763 25.2833C28.255 25.3528 28.2015 25.3741 28.1481 25.4062C27.6726 25.6947 27.1758 25.9191 26.6094 25.9618C26.5934 25.9618 26.5774 25.9885 26.5614 25.9992H25.963H25.979Z" fill="#010201"/>
<path d="M51.3121 25.9998C51.2106 25.925 51.0824 25.9357 50.9702 25.909C50.4253 25.7594 50.1421 25.3213 50.2329 24.7603C50.2543 24.6321 50.2864 24.5466 50.4413 24.5573C50.5161 24.5626 50.5962 24.5466 50.671 24.5306C50.7779 24.5146 50.8099 24.5359 50.8046 24.6588C50.7779 25.1022 50.9221 25.2999 51.3335 25.4174C51.7556 25.535 52.1669 25.4922 52.5623 25.2999C52.7065 25.2305 52.8347 25.1289 52.9256 24.99C53.1713 24.6268 53.0912 24.3596 52.6905 24.1887C52.4501 24.0872 52.199 24.0284 51.9479 23.9643C51.7983 23.9269 51.6541 23.8841 51.5098 23.8307C50.9221 23.601 50.7565 23.1896 51.045 22.6233C51.3656 21.9875 51.9425 21.7364 52.621 21.6777C52.9042 21.651 53.1873 21.6777 53.4545 21.7792C53.8605 21.9288 54.0422 22.2119 54.0368 22.6393C54.0368 22.853 53.9674 22.9599 53.7323 22.9545C53.556 22.9545 53.4224 22.9866 53.4545 22.7141C53.4865 22.4684 53.3262 22.2921 53.0858 22.228C52.6638 22.1158 52.2524 22.1532 51.8624 22.3562C51.7502 22.4149 51.6647 22.4951 51.5953 22.6019C51.3923 22.9118 51.4564 23.1629 51.809 23.2858C52.1563 23.4087 52.5088 23.4941 52.8615 23.5956C53.8178 23.8681 53.7857 24.5573 53.3636 25.1663C53.0431 25.6205 52.573 25.8502 52.0334 25.941C51.9906 25.9464 51.9372 25.925 51.9212 25.9891H51.3228L51.3121 25.9998Z" fill="#010201"/>
<path d="M39.7359 13.4231C40.8151 14.0268 41.328 14.9885 41.6966 16.057C42.0385 17.0667 42.3644 18.0818 42.6956 19.0915C42.717 19.1556 42.7384 19.2144 42.7704 19.2999C43.4329 18.3489 44.0847 17.414 44.7311 16.4844C47.3223 12.7713 49.9187 9.05825 52.5045 5.33985C52.5953 5.21163 52.6808 5.16355 52.8358 5.16355C53.4288 5.17423 54.0271 5.16889 54.6255 5.16355C54.7591 5.16355 54.8018 5.19026 54.8178 5.33451C55.0102 7.46083 55.2078 9.58716 55.4109 11.7188C55.6192 13.9199 55.8276 16.1264 56.0359 18.3275C56.0947 18.9526 56.1481 19.5723 56.2122 20.1974C56.2229 20.3043 56.2176 20.347 56.0947 20.347C55.4215 20.347 54.7484 20.3417 54.0806 20.347C53.915 20.347 53.947 20.2402 53.9417 20.1493C53.8402 18.7389 53.7333 17.3338 53.6425 15.9234C53.6318 15.7471 53.573 15.715 53.4128 15.7204C51.4414 15.7257 49.47 15.7257 47.4986 15.7204C47.349 15.7204 47.2688 15.7685 47.1887 15.886C46.227 17.3178 45.2547 18.7389 44.2984 20.1707C44.2129 20.2989 44.1221 20.347 43.9672 20.347C42.904 20.3417 41.8462 20.3417 40.783 20.347C40.6227 20.347 40.564 20.2989 40.5159 20.1493C40.0618 18.7389 39.6023 17.3285 39.1429 15.9181C39.02 15.5387 38.8437 15.1861 38.6513 14.8389C38.2346 14.0909 37.6202 13.6688 36.7494 13.6582C35.8252 13.6475 34.9009 13.6528 33.9766 13.6421C33.827 13.6421 33.827 13.7436 33.8003 13.8291C33.3195 15.3517 32.844 16.8797 32.3632 18.4023C32.1762 18.99 31.9892 19.5777 31.8129 20.1654C31.7755 20.2936 31.7221 20.3417 31.5778 20.3417C30.9741 20.331 30.3704 20.3417 29.7454 20.3417C29.9484 19.6845 30.1514 19.0381 30.349 18.397C31.706 14.0695 33.0684 9.74209 34.4201 5.41464C34.4788 5.22766 34.5536 5.1582 34.762 5.1582C37.0165 5.16889 39.2657 5.16354 41.5203 5.16889C42.108 5.16889 42.6956 5.21163 43.278 5.30779C44.8273 5.55355 45.7142 6.70219 45.5218 8.26755C45.2227 10.6984 43.8069 12.2103 41.5523 13.0117C41.0341 13.1934 40.4999 13.3109 39.9549 13.3857C39.9015 13.391 39.8534 13.4071 39.7466 13.4284L39.7359 13.4231ZM37.2623 11.8417C38.1758 11.8203 39.2497 11.8898 40.3236 11.7295C41.8195 11.5051 43.0162 10.4259 43.3207 8.99414C43.5237 8.03782 43.0643 7.26316 42.124 6.99069C41.6966 6.86781 41.2531 6.83041 40.8097 6.83041C39.2657 6.83041 37.7271 6.83041 36.1831 6.82507C36.0335 6.82507 35.9694 6.86247 35.9266 7.00672C35.4458 8.55605 34.9597 10.1 34.4681 11.644C34.4147 11.8203 34.4628 11.847 34.6231 11.847C35.4458 11.8417 36.2739 11.847 37.2623 11.847V11.8417ZM53.199 6.77699C51.8314 9.38414 49.9668 11.6494 48.3801 14.1283C48.4816 14.1283 48.5457 14.1283 48.6151 14.1283C49.9454 14.1283 51.2704 14.1283 52.6007 14.1283C52.8518 14.1283 53.1029 14.1283 53.354 14.1283C53.4501 14.1283 53.5036 14.1176 53.4982 13.9947C53.4288 13.0117 53.3647 12.0287 53.3113 11.0457C53.2471 9.83291 53.1189 8.6255 53.167 7.41275C53.1777 7.20439 53.1884 6.99069 53.199 6.78233V6.77699Z" fill="#010201"/>
<path d="M11.4585 20.3432C9.64742 20.3432 7.83631 20.3432 6.02519 20.3432C5.81683 20.3432 5.79011 20.2951 5.84888 20.1081C6.42053 18.3077 6.98149 16.5072 7.5478 14.7068C8.20493 12.6179 8.86206 10.5236 9.51919 8.43467C9.84509 7.40356 10.171 6.37245 10.4915 5.34134C10.5343 5.20778 10.5877 5.16504 10.7266 5.16504C14.2634 5.16504 17.8001 5.16504 21.3369 5.16504C21.4651 5.16504 21.5345 5.16504 21.4758 5.336C21.3155 5.80614 21.1712 6.27628 21.0323 6.75177C20.9843 6.91739 20.9095 6.97081 20.7332 6.97081C17.8909 6.96547 15.0487 6.97081 12.2065 6.96547C12.0623 6.96547 11.9768 6.9815 11.9287 7.14712C11.4959 8.55754 11.0525 9.96797 10.6037 11.3731C10.5343 11.5921 10.6037 11.6081 10.7907 11.6081C13.4192 11.6081 16.0478 11.6081 18.6763 11.5974C18.89 11.5974 18.9221 11.6509 18.858 11.8379C18.6977 12.3133 18.5481 12.7942 18.4038 13.275C18.3611 13.4246 18.2649 13.4139 18.1581 13.4139C17.4422 13.4139 16.7209 13.4139 16.005 13.4139C14.071 13.4139 12.1424 13.4139 10.2084 13.4139C10.0214 13.4139 9.94125 13.4727 9.88783 13.649C9.407 15.1983 8.92085 16.7423 8.43468 18.2916C8.35454 18.5534 8.34918 18.5534 8.62165 18.5534C11.5494 18.5534 14.4717 18.5534 17.3994 18.5534C17.5811 18.5534 17.6452 18.6407 17.5918 18.8152C17.4529 19.264 17.3033 19.7127 17.175 20.1669C17.1323 20.3164 17.0629 20.3592 16.9079 20.3592C15.0915 20.3538 13.2696 20.3592 11.4532 20.3592L11.4585 20.3432Z" fill="#010201"/>
<path d="M30.7875 6.96398C30.7127 6.96398 30.6379 6.96398 30.5631 6.96398C27.9292 6.96398 25.29 6.96398 22.6562 6.96398C22.3837 6.96398 22.389 6.96398 22.4745 6.69151C22.6187 6.24274 22.763 5.79396 22.8966 5.33985C22.934 5.20629 22.9981 5.1582 23.137 5.1582C23.8422 5.16355 24.5421 5.1582 25.2473 5.1582C28.02 5.1582 30.7928 5.1582 33.5656 5.1582C33.8274 5.1582 33.822 5.1582 33.7419 5.41464C33.603 5.85273 33.4748 6.29082 33.3359 6.72356C33.2931 6.86247 33.2344 6.98 33.1168 7.08686C30.0235 9.81689 26.9409 12.5576 23.8529 15.293C22.6615 16.3455 21.4701 17.4033 20.2787 18.4611C20.3161 18.5359 20.3856 18.5038 20.439 18.5038C20.8504 18.5038 21.2617 18.4985 21.6785 18.5038C21.812 18.5038 21.9082 18.4664 22.0044 18.3863C22.2394 18.1833 22.4905 17.991 22.7256 17.7879C22.8271 17.7025 22.9072 17.6811 23.0462 17.7399C25.0817 18.5893 27.1279 19.4281 29.1634 20.2669C29.174 20.2669 29.1847 20.2829 29.2275 20.315C29.1313 20.3203 29.0618 20.331 28.9977 20.331C25.1885 20.331 21.3739 20.331 17.5647 20.331C17.367 20.331 17.3243 20.3043 17.3937 20.1013C17.5701 19.5991 17.7143 19.0862 17.8692 18.5733C17.9066 18.4558 17.9868 18.381 18.0723 18.3062C19.6964 16.8477 21.3259 15.3891 22.95 13.9306C24.8252 12.2477 26.7058 10.5702 28.581 8.88194C29.3022 8.23016 30.0395 7.58905 30.7928 6.94795L30.7875 6.96398Z" fill="#010201"/>
<path d="M61.1637 20.325C61.3667 19.6678 61.5697 19.0161 61.7727 18.3643C63.1297 14.0475 64.4867 9.72539 65.8384 5.40863C65.8972 5.2163 65.9773 5.15219 66.1857 5.15753C66.6879 5.1789 67.1954 5.17356 67.6976 5.15753C67.922 5.15219 67.922 5.2163 67.8632 5.39795C66.9176 8.38442 65.9826 11.3762 65.0423 14.3681C64.6203 15.709 64.1982 17.0553 63.7762 18.3963C63.7655 18.4337 63.7548 18.4658 63.7388 18.5352C63.8296 18.5352 63.9097 18.5352 63.9899 18.5352C66.3192 18.5352 68.6486 18.5352 70.9779 18.5352C71.1863 18.5352 71.213 18.5833 71.1489 18.7703C70.9886 19.2404 70.8497 19.7106 70.7054 20.1861C70.6734 20.2876 70.6413 20.3463 70.5078 20.3463C67.4251 20.3463 64.3371 20.3463 61.2545 20.3463C61.2331 20.3463 61.2118 20.341 61.169 20.3357L61.1637 20.325Z" fill="#010201"/>
<path d="M56.8842 20.3445C57.0711 19.7408 57.2528 19.1638 57.4344 18.5815C58.8181 14.1846 60.2018 9.78766 61.5749 5.38542C61.6283 5.21446 61.6924 5.16103 61.8687 5.16637C62.3976 5.17706 62.9212 5.17706 63.4501 5.16637C63.6371 5.16637 63.6638 5.20377 63.605 5.38008C62.9052 7.58654 62.216 9.793 61.5268 11.9995C60.6774 14.7081 59.8225 17.4114 58.9784 20.1201C58.925 20.2964 58.8555 20.3552 58.6685 20.3498C58.0809 20.3338 57.4985 20.3498 56.8842 20.3498V20.3445Z" fill="#010201"/>
<path d="M33.7466 25.2868C34.2435 24.5122 34.7136 23.7909 35.1784 23.0697C35.4188 22.6957 35.6646 22.3271 35.8996 21.9531C35.9851 21.8142 36.0759 21.7394 36.2416 21.7608C36.4072 21.7821 36.6423 21.6913 36.7224 21.7982C36.8025 21.905 36.6636 22.108 36.6155 22.2683C36.2843 23.3902 35.9424 24.5068 35.6218 25.6288C35.5577 25.8425 35.4776 25.9653 35.2425 25.9119C35.1784 25.8959 35.1036 25.9119 35.0021 25.9119C35.3333 24.806 35.6539 23.7161 35.9798 22.6263C35.9638 22.6209 35.9477 22.6102 35.937 22.6049C35.8889 22.6743 35.8355 22.7438 35.7875 22.8133C35.1464 23.8016 34.5106 24.79 33.8695 25.7784C33.8 25.8852 33.4154 25.9653 33.3139 25.8959C33.2551 25.8531 33.2818 25.7837 33.2765 25.7249C33.2337 24.7526 33.191 23.7802 33.1482 22.8079C33.1482 22.7064 33.1376 22.5996 33.0841 22.4927C33.004 22.7545 32.9185 23.0163 32.8437 23.2781C32.6086 24.0687 32.3682 24.8594 32.1438 25.6501C32.0904 25.8371 32.021 25.9493 31.8073 25.9066C31.7271 25.8905 31.6416 25.9066 31.5348 25.9066C31.6951 25.3563 31.8553 24.822 32.0103 24.2931C32.2454 23.5078 32.4804 22.7278 32.7102 21.9424C32.7529 21.8035 32.8063 21.7394 32.9612 21.7554C33.1643 21.7715 33.4314 21.6913 33.5649 21.7875C33.7092 21.8943 33.6184 22.1721 33.6237 22.3752C33.6718 23.3208 33.7039 24.2718 33.7466 25.2868Z" fill="#010201"/>
<path d="M59.2722 22.6096C58.7967 23.3469 58.3213 24.0841 57.8404 24.8214C57.6321 25.142 57.4237 25.4625 57.2154 25.7831C57.1459 25.8899 56.7666 25.9754 56.6597 25.9059C56.5956 25.8632 56.6224 25.7937 56.6224 25.7403C56.5796 24.768 56.5369 23.7956 56.4941 22.8286C56.4941 22.7218 56.4834 22.6203 56.4354 22.5081C56.414 22.5669 56.3873 22.6203 56.3659 22.679C56.0721 23.6674 55.7675 24.6504 55.4897 25.6442C55.4256 25.8739 55.3294 25.9647 55.0997 25.922C55.0356 25.9113 54.9662 25.922 54.87 25.922C55.0463 25.3343 55.2173 24.768 55.3829 24.1963C55.6073 23.4484 55.8263 22.7058 56.0454 21.9578C56.0828 21.8189 56.1415 21.7494 56.2964 21.7708C56.446 21.7868 56.601 21.7868 56.7559 21.7708C56.9269 21.7548 56.9536 21.8242 56.9589 21.9792C56.9963 23.0423 57.0391 24.1055 57.0818 25.1687C57.0818 25.1954 57.0871 25.2221 57.0978 25.2915C57.5092 24.6558 57.8992 24.0574 58.2839 23.4537C58.6098 22.9515 58.9357 22.4547 59.2509 21.9471C59.3364 21.8136 59.4272 21.7494 59.5821 21.7708C59.7477 21.7975 59.9881 21.6853 60.0683 21.8189C60.127 21.9151 60.0042 22.1288 59.9561 22.289C59.6249 23.411 59.2829 24.5276 58.9624 25.6495C58.8982 25.8685 58.8075 25.954 58.5938 25.9166C58.5243 25.9059 58.4548 25.9166 58.348 25.9166C58.6792 24.8107 58.9998 23.7208 59.3203 22.631C59.299 22.6256 59.2829 22.6203 59.2616 22.6096H59.2722Z" fill="#010201"/>
<path d="M22.0148 22.6075C21.7103 23.6279 21.4218 24.5789 21.1493 25.5406C21.0799 25.7917 20.9783 25.9252 20.7059 25.8665C20.6471 25.8558 20.5883 25.8611 20.5135 25.8558C20.8929 24.5949 21.2615 23.3448 21.6355 22.0946C21.753 21.7046 21.8492 21.6512 22.2445 21.7153C22.3621 21.7367 22.3621 21.8275 22.3834 21.897C22.7414 22.8372 23.094 23.7829 23.4466 24.7232C23.468 24.7873 23.4947 24.846 23.5428 24.9582C23.5802 24.846 23.6069 24.7712 23.6283 24.7018C23.8954 23.8042 24.1732 22.9067 24.4296 22.0038C24.4937 21.7848 24.5792 21.6726 24.8143 21.7207C24.8784 21.7313 24.9532 21.7207 25.0547 21.7207C24.9318 22.1267 24.8143 22.5167 24.7021 22.9067C24.4296 23.831 24.1465 24.7499 23.8793 25.6741C23.8366 25.8291 23.7778 25.8985 23.6176 25.8718C23.5802 25.8665 23.5374 25.8665 23.5054 25.8718C23.3023 25.9092 23.2222 25.8237 23.1528 25.6314C22.8215 24.7071 22.4636 23.7882 22.1217 22.864C22.1003 22.7998 22.0736 22.7411 22.0201 22.6129L22.0148 22.6075Z" fill="#010201"/>
<path d="M39.6926 25.902C39.9437 25.0525 40.1895 24.2244 40.4352 23.3963C40.5795 22.9155 40.7291 22.4347 40.868 21.9485C40.9054 21.8096 40.9588 21.7508 41.1137 21.7562C41.6747 21.7669 42.2303 21.7562 42.7913 21.7722C43.4912 21.7936 43.8705 22.1676 43.9239 22.8674C44.0147 24.0588 43.1439 25.4479 42.1021 25.7845C41.9097 25.8432 41.7174 25.8913 41.5198 25.8967C40.9214 25.9073 40.3284 25.8967 39.6979 25.8967L39.6926 25.902ZM42.0754 22.2691C42.0754 22.2691 42.0754 22.2584 42.0754 22.253C41.883 22.253 41.6907 22.2584 41.5037 22.253C41.3808 22.2477 41.3274 22.2904 41.2954 22.408C41.0176 23.359 40.7344 24.3099 40.4459 25.2555C40.4085 25.3838 40.4246 25.4158 40.5581 25.4105C40.8787 25.4051 41.1992 25.4105 41.5198 25.4051C42.0487 25.3998 42.46 25.1754 42.7699 24.7534C43.1172 24.2779 43.2935 23.7383 43.3415 23.1559C43.3896 22.6217 43.0905 22.3011 42.5562 22.2691C42.3959 22.2584 42.2356 22.2691 42.0754 22.2691Z" fill="#010201"/>
<path d="M6.62893 21.7264C6.91743 21.7264 7.21127 21.7158 7.49977 21.7264C8.07676 21.7585 8.408 22.0417 8.53622 22.5866C8.80335 23.7352 7.85237 25.3968 6.7251 25.7387C6.46865 25.8188 6.20154 25.8562 5.93441 25.8562C5.47496 25.8562 5.01549 25.8509 4.55603 25.8562C4.37973 25.8562 4.33699 25.8349 4.39041 25.6479C4.73234 24.5259 5.06358 23.3933 5.40016 22.2714C5.51413 21.8938 5.76879 21.7051 6.16414 21.7051C6.31907 21.7051 6.46865 21.7051 6.62359 21.7051V21.7211L6.62893 21.7264ZM6.70905 22.2233C6.70905 22.2233 6.70905 22.2126 6.70905 22.2073C6.51672 22.2073 6.32442 22.2126 6.13743 22.2073C6.02524 22.2019 5.97179 22.2447 5.94508 22.3462C5.66192 23.3025 5.37878 24.2641 5.09028 25.2151C5.05823 25.3273 5.07426 25.3647 5.19179 25.3594C5.52303 25.354 5.84891 25.3594 6.18015 25.354C6.68769 25.3487 7.09374 25.1296 7.39826 24.7289C7.76155 24.2428 7.94319 23.6872 7.99127 23.0941C8.03401 22.5706 7.74017 22.25 7.2166 22.2233C7.05098 22.2126 6.88002 22.2233 6.7144 22.2233H6.70905Z" fill="#010201"/>
<path d="M47.1185 23.5248C47.1185 23.5248 47.1238 23.5461 47.1185 23.5515C47.0544 23.8578 46.8674 24.0109 46.5575 24.0109C45.9859 24.0109 45.4089 24.0109 44.8373 24.0109C44.709 24.0109 44.6503 24.0376 44.6129 24.1712C44.5167 24.5238 44.4205 24.8764 44.2977 25.2237C44.2336 25.4 44.3083 25.4107 44.4472 25.4107C45.1685 25.4107 45.8844 25.4107 46.6056 25.4107C46.7819 25.4107 46.8193 25.432 46.7713 25.6244C46.7178 25.8648 46.611 25.9235 46.3706 25.9235C45.5051 25.9075 44.6396 25.9182 43.7741 25.9129C43.6993 25.9129 43.6245 25.9129 43.5337 25.9129C43.9077 24.652 44.2816 23.4072 44.6503 22.1624C44.7286 21.8953 44.9103 21.7617 45.1952 21.7617C45.9966 21.7617 46.8033 21.7617 47.6047 21.7617C47.7596 21.7617 47.8077 21.7617 47.765 21.9541C47.7062 22.1998 47.5993 22.2693 47.3482 22.2639C46.6911 22.2425 46.034 22.2639 45.3715 22.2532C45.2273 22.2532 45.1578 22.2906 45.1204 22.4402C45.0456 22.7501 44.9494 23.06 44.8479 23.3591C44.7998 23.5034 44.8426 23.5194 44.9708 23.5194C45.6547 23.5194 46.3332 23.5194 47.017 23.5194C47.0491 23.5194 47.0758 23.5248 47.1025 23.5301L47.1185 23.5248Z" fill="#010201"/>
<path d="M12.4681 21.7129C12.3862 22.0406 12.1885 22.2044 11.8751 22.2044C11.2607 22.2044 10.6516 22.2044 10.0372 22.2044C9.893 22.2044 9.82353 22.2418 9.78613 22.3914C9.69531 22.744 9.57779 23.0913 9.46559 23.4652H11.7629C11.7629 23.492 11.7736 23.5026 11.7682 23.508C11.7041 23.8143 11.5171 23.9674 11.2073 23.9674C10.641 23.9674 10.0747 23.9728 9.50834 23.9674C9.35875 23.9674 9.29462 24.0048 9.25723 24.1491C9.17175 24.475 9.07025 24.7955 8.97409 25.1161C8.89929 25.3618 8.89929 25.3618 9.17176 25.3672C9.86629 25.3672 10.5661 25.3725 11.2607 25.3672C11.437 25.3672 11.469 25.3939 11.4263 25.5809C11.3729 25.8213 11.2607 25.8801 11.0256 25.8747C10.0907 25.8587 9.15572 25.8694 8.18872 25.8694C8.29557 25.5061 8.40244 25.1642 8.50394 24.8169C8.79244 23.8446 9.08628 22.8722 9.37478 21.8999C9.40149 21.8144 9.39614 21.7182 9.5297 21.7182C10.502 21.7182 11.4744 21.7182 12.4627 21.7182L12.4681 21.7129Z" fill="#010201"/>
<path d="M70.203 21.8047C70.1282 22.1324 69.9341 22.2962 69.6207 22.2962C69.0169 22.2962 68.4133 22.3015 67.8042 22.2962C67.6226 22.2962 67.5531 22.3496 67.5103 22.5206C67.4249 22.8625 67.3127 23.1937 67.2059 23.5517H69.4924C69.5031 23.5891 69.5085 23.6051 69.5085 23.6158C69.4337 23.9114 69.2413 24.0592 68.9315 24.0592C68.3652 24.0592 67.7989 24.0592 67.2326 24.0592C67.0937 24.0592 67.0349 24.102 66.9975 24.2355C66.9013 24.5881 66.7998 24.9408 66.6876 25.288C66.6395 25.4269 66.6716 25.459 66.8105 25.4536C67.5477 25.4536 68.2797 25.4536 69.0169 25.4536C69.1932 25.4536 69.2093 25.491 69.1719 25.662C69.1185 25.8917 69.0277 25.9719 68.7766 25.9665C67.8363 25.9451 66.896 25.9612 65.9343 25.9612C66.2068 25.0529 66.4686 24.1607 66.7357 23.2685C66.8639 22.8358 66.9975 22.4084 67.1204 21.9756C67.1471 21.8848 67.1578 21.8047 67.2913 21.8047C68.253 21.8047 69.22 21.8047 70.203 21.8047Z" fill="#010201"/>
<path d="M15.6149 25.8463C15.7645 25.3388 15.9087 24.8366 16.0583 24.3344C16.2987 23.5276 16.5391 22.7263 16.7849 21.9249C16.8063 21.8501 16.7955 21.7326 16.8971 21.7219C17.0466 21.7058 17.2069 21.7058 17.3512 21.7326C17.426 21.7486 17.3619 21.8341 17.3512 21.8875C17.1856 22.4431 17.02 22.9987 16.8543 23.5544C16.8437 23.5971 16.833 23.6398 16.8223 23.6879C16.8971 23.72 16.9291 23.6612 16.9612 23.6345C17.661 23.1056 18.3823 22.5927 19.0555 22.0264C19.4027 21.7379 19.7553 21.6738 20.2094 21.7379C20.0972 21.8234 20.0011 21.8928 19.9103 21.9623C19.3226 22.4004 18.7349 22.8438 18.1365 23.2712C17.9976 23.3727 17.9976 23.4422 18.0617 23.5811C18.3716 24.2542 18.6654 24.9327 18.97 25.6059C19.002 25.6807 19.0341 25.7608 19.0768 25.857C18.8524 25.857 18.6494 25.8517 18.4411 25.857C18.3235 25.857 18.3128 25.7715 18.2808 25.6967C18.0404 25.1197 17.7946 24.5427 17.5702 23.9604C17.4954 23.7681 17.442 23.8055 17.2924 23.8909C16.7475 24.1955 16.4269 24.6389 16.3414 25.2533C16.3361 25.3067 16.3147 25.3548 16.2987 25.4082C16.2025 25.7323 15.9746 25.8766 15.6149 25.841V25.8463Z" fill="#010201"/>
<path d="M59.4379 25.9074C59.7424 24.8869 60.0416 23.8879 60.3354 22.8835C60.4316 22.5629 60.5331 22.2424 60.6239 21.9165C60.656 21.8043 60.6934 21.7509 60.8216 21.7562C61.4413 21.7669 62.0611 21.7562 62.6808 21.7723C63.4234 21.7936 63.7333 22.2531 63.5249 22.969C63.3166 23.6688 62.7182 24.155 61.9489 24.2031C61.5268 24.2298 61.1047 24.2298 60.688 24.2245C60.5331 24.2245 60.4797 24.2726 60.4423 24.4168C60.3247 24.8442 60.1805 25.2609 60.0683 25.6937C60.0255 25.87 59.9508 25.9394 59.7744 25.9127C59.6676 25.8967 59.5607 25.9127 59.4379 25.9127V25.9074ZM61.8741 22.2744C61.8741 22.2744 61.8741 22.2584 61.8741 22.2531C61.6604 22.2531 61.4466 22.2531 61.2329 22.2531C61.1528 22.2531 61.0834 22.2531 61.0567 22.3492C60.9338 22.7766 60.8109 23.1987 60.6827 23.6208C60.6613 23.6956 60.6667 23.7383 60.7575 23.733C61.2223 23.7169 61.6924 23.7757 62.1519 23.6849C62.6007 23.5994 62.8945 23.2788 62.9693 22.8354C63.0227 22.5149 62.8571 22.2905 62.5365 22.2691C62.3175 22.2531 62.0931 22.2691 61.8741 22.2691V22.2744Z" fill="#010201"/>
<path d="M35.6271 25.9078C36.5728 24.5348 37.4863 23.1992 38.4053 21.8689C38.4694 21.778 38.9876 21.6979 39.0624 21.778C39.0998 21.8154 39.0998 21.8902 39.1051 21.949C39.2227 22.9534 39.3349 23.9525 39.4524 24.9569C39.4845 25.224 39.5112 25.4911 39.5432 25.7529C39.5539 25.8597 39.5486 25.9132 39.4097 25.9185C38.9342 25.9292 38.9342 25.9345 38.8861 25.4537C38.8808 25.3949 38.8701 25.3308 38.8647 25.2721C38.8433 25.069 38.9128 24.7912 38.7685 24.6844C38.635 24.5829 38.3732 24.6523 38.1648 24.6523C37.8496 24.6523 37.5398 24.6523 37.2246 24.647C37.1017 24.647 37.0269 24.679 36.9628 24.7859C36.7758 25.0797 36.5621 25.3629 36.3858 25.6674C36.279 25.8544 36.1561 25.9506 35.9317 25.9132C35.8462 25.8971 35.75 25.9132 35.6218 25.9132L35.6271 25.9078ZM37.3581 24.2089C37.8123 24.2089 38.229 24.2089 38.6457 24.2089C38.7312 24.2089 38.7685 24.1929 38.7632 24.0967C38.7151 23.493 38.6671 22.8893 38.619 22.2428C38.2503 22.9427 37.7855 23.5357 37.3581 24.2089Z" fill="#010201"/>
<path d="M13.6861 25.4582C14.3432 25.4582 14.7814 25.1002 15.1179 24.5713C15.1553 24.5125 15.166 24.4057 15.2675 24.4324C15.4064 24.4645 15.5507 24.5019 15.6842 24.5499C15.7163 24.5606 15.6736 24.6301 15.6522 24.6675C15.1767 25.5757 14.1082 26.0886 13.0985 25.8963C12.468 25.7734 12.1208 25.3727 12.1154 24.6514C12.0994 23.2998 13.0076 21.8306 14.5944 21.6489C14.8775 21.6169 15.1607 21.6329 15.4331 21.7237C15.8659 21.868 16.1277 22.2366 16.149 22.6907C16.1544 22.8136 16.133 22.8831 15.9994 22.8831C15.9834 22.8831 15.9727 22.8938 15.9567 22.8991C15.8445 22.9205 15.7216 22.9846 15.6201 22.9525C15.4919 22.9151 15.5613 22.7548 15.5239 22.6533C15.4224 22.3542 15.2301 22.1725 14.9203 22.1351C14.3166 22.0603 13.7983 22.242 13.3923 22.6961C12.9489 23.1929 12.7298 23.7913 12.6924 24.4484C12.655 25.1109 13.013 25.4582 13.6808 25.4528L13.6861 25.4582Z" fill="#010201"/>
<path d="M63.7277 25.452H65.7686C65.7686 25.4841 65.7739 25.5054 65.7686 25.5268C65.6938 25.8117 65.505 25.9542 65.2023 25.9542C64.4757 25.9542 63.7491 25.9542 63.0065 25.9542C63.4072 24.6079 63.8132 23.2669 64.2085 21.9313C64.2406 21.8298 64.2833 21.7977 64.3849 21.8031C64.4596 21.8084 64.5398 21.8137 64.6146 21.8031C64.7802 21.7817 64.8016 21.8405 64.7535 21.9954C64.4276 23.0692 64.107 24.1431 63.7918 25.2223C63.7705 25.2917 63.7544 25.3665 63.7277 25.452Z" fill="#010201"/>
<path d="M21.1017 21.7149C20.9361 22.2706 20.7758 22.7995 20.6156 23.3337C20.3912 24.087 20.1615 24.835 19.9531 25.5936C19.8943 25.802 19.8142 25.8928 19.5845 25.8714C19.296 25.8447 19.296 25.8661 19.3761 25.599C19.734 24.4022 20.1027 23.2055 20.4446 22.0034C20.5141 21.7684 20.6102 21.6722 20.8453 21.7149C20.9201 21.7256 20.9949 21.7149 21.1017 21.7149Z" fill="#010201"/>
<path d="M53.6897 25.9075C53.9355 25.0848 54.1705 24.2834 54.411 23.4767C54.5659 22.9531 54.7262 22.4242 54.8865 21.9006C54.9238 21.7884 55.378 21.6816 55.4528 21.7724C55.4902 21.8205 55.4527 21.8739 55.4421 21.922C55.0627 23.1989 54.6781 24.4757 54.3041 25.7526C54.272 25.8648 54.2186 25.9129 54.1011 25.9022C53.9729 25.8915 53.8446 25.9022 53.695 25.9022L53.6897 25.9075Z" fill="#010201"/>
<path d="M25.979 25.9992C25.9683 25.9511 25.9256 25.9565 25.8882 25.9458C24.9853 25.7161 24.6274 25.1925 24.7342 24.2629C24.8732 23.0769 25.8241 21.9977 26.9674 21.7466C27.3681 21.6557 27.7741 21.6451 28.1695 21.7573C28.6717 21.8962 28.9174 22.2221 28.9281 22.7456C28.9281 22.8738 28.9014 22.9486 28.7625 22.9647C28.7091 22.97 28.6557 22.986 28.6076 23.0074C28.4526 23.0662 28.3725 23.0555 28.3618 22.8471C28.3458 22.4785 28.1107 22.2434 27.7421 22.19C27.101 22.0992 26.524 22.2434 26.0538 22.7136C25.5783 23.1891 25.3433 23.7767 25.2952 24.4392C25.2578 24.9574 25.5623 25.3367 26.0752 25.4436C26.6789 25.5718 27.2239 25.3955 27.7421 25.0963C27.7848 25.0696 27.8115 25.0376 27.8222 24.9948C27.8917 24.7704 27.9558 24.5461 28.0306 24.3003H26.8178C26.8178 24.3003 26.8125 24.2736 26.8125 24.2629C26.8801 23.9495 27.0707 23.7928 27.3841 23.7928C27.8222 23.7928 28.255 23.7928 28.7251 23.7928C28.5702 24.3003 28.4259 24.7918 28.2763 25.2833C28.255 25.3528 28.2015 25.3741 28.1481 25.4062C27.6726 25.6947 27.1758 25.9191 26.6094 25.9618C26.5934 25.9618 26.5774 25.9885 26.5614 25.9992H25.963H25.979Z" fill="#010201"/>
<path d="M51.3121 25.9998C51.2106 25.925 51.0824 25.9357 50.9702 25.909C50.4253 25.7594 50.1421 25.3213 50.2329 24.7603C50.2543 24.6321 50.2864 24.5466 50.4413 24.5573C50.5161 24.5626 50.5962 24.5466 50.671 24.5306C50.7779 24.5146 50.8099 24.5359 50.8046 24.6588C50.7779 25.1022 50.9221 25.2999 51.3335 25.4174C51.7556 25.535 52.1669 25.4922 52.5623 25.2999C52.7065 25.2305 52.8347 25.1289 52.9256 24.99C53.1713 24.6268 53.0912 24.3596 52.6905 24.1887C52.4501 24.0872 52.199 24.0284 51.9479 23.9643C51.7983 23.9269 51.6541 23.8841 51.5098 23.8307C50.9221 23.601 50.7565 23.1896 51.045 22.6233C51.3656 21.9875 51.9425 21.7364 52.621 21.6777C52.9042 21.651 53.1873 21.6777 53.4545 21.7792C53.8605 21.9288 54.0422 22.2119 54.0368 22.6393C54.0368 22.853 53.9674 22.9599 53.7323 22.9545C53.556 22.9545 53.4224 22.9866 53.4545 22.7141C53.4865 22.4684 53.3262 22.2921 53.0858 22.228C52.6638 22.1158 52.2524 22.1532 51.8624 22.3562C51.7502 22.4149 51.6647 22.4951 51.5953 22.6019C51.3923 22.9118 51.4564 23.1629 51.809 23.2858C52.1563 23.4087 52.5088 23.4941 52.8615 23.5956C53.8178 23.8681 53.7857 24.5573 53.3636 25.1663C53.0431 25.6205 52.573 25.8502 52.0334 25.941C51.9906 25.9464 51.9372 25.925 51.9212 25.9891H51.3228L51.3121 25.9998Z" fill="#010201"/>
<path d="M39.7359 13.4231C40.8151 14.0268 41.328 14.9885 41.6966 16.057C42.0385 17.0667 42.3644 18.0818 42.6956 19.0915C42.717 19.1556 42.7384 19.2144 42.7704 19.2999C43.4329 18.3489 44.0847 17.414 44.7311 16.4844C47.3223 12.7713 49.9187 9.05825 52.5045 5.33985C52.5953 5.21163 52.6808 5.16355 52.8358 5.16355C53.4288 5.17423 54.0271 5.16889 54.6255 5.16355C54.7591 5.16355 54.8018 5.19026 54.8178 5.33451C55.0102 7.46083 55.2078 9.58716 55.4109 11.7188C55.6192 13.9199 55.8276 16.1264 56.0359 18.3275C56.0947 18.9526 56.1481 19.5723 56.2122 20.1974C56.2229 20.3043 56.2176 20.347 56.0947 20.347C55.4215 20.347 54.7484 20.3417 54.0806 20.347C53.915 20.347 53.947 20.2402 53.9417 20.1493C53.8402 18.7389 53.7333 17.3338 53.6425 15.9234C53.6318 15.7471 53.573 15.715 53.4128 15.7204C51.4414 15.7257 49.47 15.7257 47.4986 15.7204C47.349 15.7204 47.2688 15.7685 47.1887 15.886C46.227 17.3178 45.2547 18.7389 44.2984 20.1707C44.2129 20.2989 44.1221 20.347 43.9672 20.347C42.904 20.3417 41.8462 20.3417 40.783 20.347C40.6227 20.347 40.564 20.2989 40.5159 20.1493C40.0618 18.7389 39.6023 17.3285 39.1429 15.9181C39.02 15.5387 38.8437 15.1861 38.6513 14.8389C38.2346 14.0909 37.6202 13.6688 36.7494 13.6582C35.8252 13.6475 34.9009 13.6528 33.9766 13.6421C33.827 13.6421 33.827 13.7436 33.8003 13.8291C33.3195 15.3517 32.844 16.8797 32.3632 18.4023C32.1762 18.99 31.9892 19.5777 31.8129 20.1654C31.7755 20.2936 31.7221 20.3417 31.5778 20.3417C30.9741 20.331 30.3704 20.3417 29.7454 20.3417C29.9484 19.6845 30.1514 19.0381 30.349 18.397C31.706 14.0695 33.0684 9.74209 34.4201 5.41464C34.4788 5.22766 34.5536 5.1582 34.762 5.1582C37.0165 5.16889 39.2657 5.16354 41.5203 5.16889C42.108 5.16889 42.6956 5.21163 43.278 5.30779C44.8273 5.55355 45.7142 6.70219 45.5218 8.26755C45.2227 10.6984 43.8069 12.2103 41.5523 13.0117C41.0341 13.1934 40.4999 13.3109 39.9549 13.3857C39.9015 13.391 39.8534 13.4071 39.7466 13.4284L39.7359 13.4231ZM37.2623 11.8417C38.1758 11.8203 39.2497 11.8898 40.3236 11.7295C41.8195 11.5051 43.0162 10.4259 43.3207 8.99414C43.5237 8.03782 43.0643 7.26316 42.124 6.99069C41.6966 6.86781 41.2531 6.83041 40.8097 6.83041C39.2657 6.83041 37.7271 6.83041 36.1831 6.82507C36.0335 6.82507 35.9694 6.86247 35.9266 7.00672C35.4458 8.55605 34.9597 10.1 34.4681 11.644C34.4147 11.8203 34.4628 11.847 34.6231 11.847C35.4458 11.8417 36.2739 11.847 37.2623 11.847V11.8417ZM53.199 6.77699C51.8314 9.38414 49.9668 11.6494 48.3801 14.1283C48.4816 14.1283 48.5457 14.1283 48.6151 14.1283C49.9454 14.1283 51.2704 14.1283 52.6007 14.1283C52.8518 14.1283 53.1029 14.1283 53.354 14.1283C53.4501 14.1283 53.5036 14.1176 53.4982 13.9947C53.4288 13.0117 53.3647 12.0287 53.3113 11.0457C53.2471 9.83291 53.1189 8.6255 53.167 7.41275C53.1777 7.20439 53.1884 6.99069 53.199 6.78233V6.77699Z" fill="#010201"/>
<path d="M11.4585 20.3432C9.64742 20.3432 7.83631 20.3432 6.02519 20.3432C5.81683 20.3432 5.79011 20.2951 5.84888 20.1081C6.42053 18.3077 6.98149 16.5072 7.5478 14.7068C8.20493 12.6179 8.86206 10.5236 9.51919 8.43467C9.84509 7.40356 10.171 6.37245 10.4915 5.34134C10.5343 5.20778 10.5877 5.16504 10.7266 5.16504C14.2634 5.16504 17.8001 5.16504 21.3369 5.16504C21.4651 5.16504 21.5345 5.16504 21.4758 5.336C21.3155 5.80614 21.1712 6.27628 21.0323 6.75177C20.9843 6.91739 20.9095 6.97081 20.7332 6.97081C17.8909 6.96547 15.0487 6.97081 12.2065 6.96547C12.0623 6.96547 11.9768 6.9815 11.9287 7.14712C11.4959 8.55754 11.0525 9.96797 10.6037 11.3731C10.5343 11.5921 10.6037 11.6081 10.7907 11.6081C13.4192 11.6081 16.0478 11.6081 18.6763 11.5974C18.89 11.5974 18.9221 11.6509 18.858 11.8379C18.6977 12.3133 18.5481 12.7942 18.4038 13.275C18.3611 13.4246 18.2649 13.4139 18.1581 13.4139C17.4422 13.4139 16.7209 13.4139 16.005 13.4139C14.071 13.4139 12.1424 13.4139 10.2084 13.4139C10.0214 13.4139 9.94125 13.4727 9.88783 13.649C9.407 15.1983 8.92085 16.7423 8.43468 18.2916C8.35454 18.5534 8.34918 18.5534 8.62165 18.5534C11.5494 18.5534 14.4717 18.5534 17.3994 18.5534C17.5811 18.5534 17.6452 18.6407 17.5918 18.8152C17.4529 19.264 17.3033 19.7127 17.175 20.1669C17.1323 20.3164 17.0629 20.3592 16.9079 20.3592C15.0915 20.3538 13.2696 20.3592 11.4532 20.3592L11.4585 20.3432Z" fill="#010201"/>
<path d="M30.7875 6.96398C30.7127 6.96398 30.6379 6.96398 30.5631 6.96398C27.9292 6.96398 25.29 6.96398 22.6562 6.96398C22.3837 6.96398 22.389 6.96398 22.4745 6.69151C22.6187 6.24274 22.763 5.79396 22.8966 5.33985C22.934 5.20629 22.9981 5.1582 23.137 5.1582C23.8422 5.16355 24.5421 5.1582 25.2473 5.1582C28.02 5.1582 30.7928 5.1582 33.5656 5.1582C33.8274 5.1582 33.822 5.1582 33.7419 5.41464C33.603 5.85273 33.4748 6.29082 33.3359 6.72356C33.2931 6.86247 33.2344 6.98 33.1168 7.08686C30.0235 9.81689 26.9409 12.5576 23.8529 15.293C22.6615 16.3455 21.4701 17.4033 20.2787 18.4611C20.3161 18.5359 20.3856 18.5038 20.439 18.5038C20.8504 18.5038 21.2617 18.4985 21.6785 18.5038C21.812 18.5038 21.9082 18.4664 22.0044 18.3863C22.2394 18.1833 22.4905 17.991 22.7256 17.7879C22.8271 17.7025 22.9072 17.6811 23.0462 17.7399C25.0817 18.5893 27.1279 19.4281 29.1634 20.2669C29.174 20.2669 29.1847 20.2829 29.2275 20.315C29.1313 20.3203 29.0618 20.331 28.9977 20.331C25.1885 20.331 21.3739 20.331 17.5647 20.331C17.367 20.331 17.3243 20.3043 17.3937 20.1013C17.5701 19.5991 17.7143 19.0862 17.8692 18.5733C17.9066 18.4558 17.9868 18.381 18.0723 18.3062C19.6964 16.8477 21.3259 15.3891 22.95 13.9306C24.8252 12.2477 26.7058 10.5702 28.581 8.88194C29.3022 8.23016 30.0395 7.58905 30.7928 6.94795L30.7875 6.96398Z" fill="#010201"/>
<path d="M61.1637 20.325C61.3667 19.6678 61.5697 19.0161 61.7727 18.3643C63.1297 14.0475 64.4867 9.72539 65.8384 5.40863C65.8972 5.2163 65.9773 5.15219 66.1857 5.15753C66.6879 5.1789 67.1954 5.17356 67.6976 5.15753C67.922 5.15219 67.922 5.2163 67.8632 5.39795C66.9176 8.38442 65.9826 11.3762 65.0423 14.3681C64.6203 15.709 64.1982 17.0553 63.7762 18.3963C63.7655 18.4337 63.7548 18.4658 63.7388 18.5352C63.8296 18.5352 63.9097 18.5352 63.9899 18.5352C66.3192 18.5352 68.6486 18.5352 70.9779 18.5352C71.1863 18.5352 71.213 18.5833 71.1489 18.7703C70.9886 19.2404 70.8497 19.7106 70.7054 20.1861C70.6734 20.2876 70.6413 20.3463 70.5078 20.3463C67.4251 20.3463 64.3371 20.3463 61.2545 20.3463C61.2331 20.3463 61.2118 20.341 61.169 20.3357L61.1637 20.325Z" fill="#010201"/>
<path d="M56.8842 20.3445C57.0711 19.7408 57.2528 19.1638 57.4344 18.5815C58.8181 14.1846 60.2018 9.78766 61.5749 5.38542C61.6283 5.21446 61.6924 5.16103 61.8687 5.16637C62.3976 5.17706 62.9212 5.17706 63.4501 5.16637C63.6371 5.16637 63.6638 5.20377 63.605 5.38008C62.9052 7.58654 62.216 9.793 61.5268 11.9995C60.6774 14.7081 59.8225 17.4114 58.9784 20.1201C58.925 20.2964 58.8555 20.3552 58.6685 20.3498C58.0809 20.3338 57.4985 20.3498 56.8842 20.3498V20.3445Z" fill="#010201"/>
<path d="M33.7466 25.2868C34.2435 24.5122 34.7136 23.7909 35.1784 23.0697C35.4188 22.6957 35.6646 22.3271 35.8996 21.9531C35.9851 21.8142 36.0759 21.7394 36.2416 21.7608C36.4072 21.7821 36.6423 21.6913 36.7224 21.7982C36.8025 21.905 36.6636 22.108 36.6155 22.2683C36.2843 23.3902 35.9424 24.5068 35.6218 25.6288C35.5577 25.8425 35.4776 25.9653 35.2425 25.9119C35.1784 25.8959 35.1036 25.9119 35.0021 25.9119C35.3333 24.806 35.6539 23.7161 35.9798 22.6263C35.9638 22.6209 35.9477 22.6102 35.937 22.6049C35.8889 22.6743 35.8355 22.7438 35.7875 22.8133C35.1464 23.8016 34.5106 24.79 33.8695 25.7784C33.8 25.8852 33.4154 25.9653 33.3139 25.8959C33.2551 25.8531 33.2818 25.7837 33.2765 25.7249C33.2337 24.7526 33.191 23.7802 33.1482 22.8079C33.1482 22.7064 33.1376 22.5996 33.0841 22.4927C33.004 22.7545 32.9185 23.0163 32.8437 23.2781C32.6086 24.0687 32.3682 24.8594 32.1438 25.6501C32.0904 25.8371 32.021 25.9493 31.8073 25.9066C31.7271 25.8905 31.6416 25.9066 31.5348 25.9066C31.6951 25.3563 31.8553 24.822 32.0103 24.2931C32.2454 23.5078 32.4804 22.7278 32.7102 21.9424C32.7529 21.8035 32.8063 21.7394 32.9612 21.7554C33.1643 21.7715 33.4314 21.6913 33.5649 21.7875C33.7092 21.8943 33.6184 22.1721 33.6237 22.3752C33.6718 23.3208 33.7039 24.2718 33.7466 25.2868Z" fill="#010201"/>
<path d="M59.2722 22.6096C58.7967 23.3469 58.3213 24.0841 57.8404 24.8214C57.6321 25.142 57.4237 25.4625 57.2154 25.7831C57.1459 25.8899 56.7666 25.9754 56.6597 25.9059C56.5956 25.8632 56.6224 25.7937 56.6224 25.7403C56.5796 24.768 56.5369 23.7956 56.4941 22.8286C56.4941 22.7218 56.4834 22.6203 56.4354 22.5081C56.414 22.5669 56.3873 22.6203 56.3659 22.679C56.0721 23.6674 55.7675 24.6504 55.4897 25.6442C55.4256 25.8739 55.3294 25.9647 55.0997 25.922C55.0356 25.9113 54.9662 25.922 54.87 25.922C55.0463 25.3343 55.2173 24.768 55.3829 24.1963C55.6073 23.4484 55.8263 22.7058 56.0454 21.9578C56.0828 21.8189 56.1415 21.7494 56.2964 21.7708C56.446 21.7868 56.601 21.7868 56.7559 21.7708C56.9269 21.7548 56.9536 21.8242 56.9589 21.9792C56.9963 23.0423 57.0391 24.1055 57.0818 25.1687C57.0818 25.1954 57.0871 25.2221 57.0978 25.2915C57.5092 24.6558 57.8992 24.0574 58.2839 23.4537C58.6098 22.9515 58.9357 22.4547 59.2509 21.9471C59.3364 21.8136 59.4272 21.7494 59.5821 21.7708C59.7477 21.7975 59.9881 21.6853 60.0683 21.8189C60.127 21.9151 60.0042 22.1288 59.9561 22.289C59.6249 23.411 59.2829 24.5276 58.9624 25.6495C58.8982 25.8685 58.8075 25.954 58.5938 25.9166C58.5243 25.9059 58.4548 25.9166 58.348 25.9166C58.6792 24.8107 58.9998 23.7208 59.3203 22.631C59.299 22.6256 59.2829 22.6203 59.2616 22.6096H59.2722Z" fill="#010201"/>
<path d="M22.0148 22.6075C21.7103 23.6279 21.4218 24.5789 21.1493 25.5406C21.0799 25.7917 20.9783 25.9252 20.7059 25.8665C20.6471 25.8558 20.5883 25.8611 20.5135 25.8558C20.8929 24.5949 21.2615 23.3448 21.6355 22.0946C21.753 21.7046 21.8492 21.6512 22.2445 21.7153C22.3621 21.7367 22.3621 21.8275 22.3834 21.897C22.7414 22.8372 23.094 23.7829 23.4466 24.7232C23.468 24.7873 23.4947 24.846 23.5428 24.9582C23.5802 24.846 23.6069 24.7712 23.6283 24.7018C23.8954 23.8042 24.1732 22.9067 24.4296 22.0038C24.4937 21.7848 24.5792 21.6726 24.8143 21.7207C24.8784 21.7313 24.9532 21.7207 25.0547 21.7207C24.9318 22.1267 24.8143 22.5167 24.7021 22.9067C24.4296 23.831 24.1465 24.7499 23.8793 25.6741C23.8366 25.8291 23.7778 25.8985 23.6176 25.8718C23.5802 25.8665 23.5374 25.8665 23.5054 25.8718C23.3023 25.9092 23.2222 25.8237 23.1528 25.6314C22.8215 24.7071 22.4636 23.7882 22.1217 22.864C22.1003 22.7998 22.0736 22.7411 22.0201 22.6129L22.0148 22.6075Z" fill="#010201"/>
<path d="M39.6926 25.902C39.9437 25.0525 40.1895 24.2244 40.4352 23.3963C40.5795 22.9155 40.7291 22.4347 40.868 21.9485C40.9054 21.8096 40.9588 21.7508 41.1137 21.7562C41.6747 21.7669 42.2303 21.7562 42.7913 21.7722C43.4912 21.7936 43.8705 22.1676 43.9239 22.8674C44.0147 24.0588 43.1439 25.4479 42.1021 25.7845C41.9097 25.8432 41.7174 25.8913 41.5198 25.8967C40.9214 25.9073 40.3284 25.8967 39.6979 25.8967L39.6926 25.902ZM42.0754 22.2691C42.0754 22.2691 42.0754 22.2584 42.0754 22.253C41.883 22.253 41.6907 22.2584 41.5037 22.253C41.3808 22.2477 41.3274 22.2904 41.2954 22.408C41.0176 23.359 40.7344 24.3099 40.4459 25.2555C40.4085 25.3838 40.4246 25.4158 40.5581 25.4105C40.8787 25.4051 41.1992 25.4105 41.5198 25.4051C42.0487 25.3998 42.46 25.1754 42.7699 24.7534C43.1172 24.2779 43.2935 23.7383 43.3415 23.1559C43.3896 22.6217 43.0905 22.3011 42.5562 22.2691C42.3959 22.2584 42.2356 22.2691 42.0754 22.2691Z" fill="#010201"/>
<path d="M6.62893 21.7264C6.91743 21.7264 7.21127 21.7158 7.49977 21.7264C8.07676 21.7585 8.408 22.0417 8.53622 22.5866C8.80335 23.7352 7.85237 25.3968 6.7251 25.7387C6.46865 25.8188 6.20154 25.8562 5.93441 25.8562C5.47496 25.8562 5.01549 25.8509 4.55603 25.8562C4.37973 25.8562 4.33699 25.8349 4.39041 25.6479C4.73234 24.5259 5.06358 23.3933 5.40016 22.2714C5.51413 21.8938 5.76879 21.7051 6.16414 21.7051C6.31907 21.7051 6.46865 21.7051 6.62359 21.7051V21.7211L6.62893 21.7264ZM6.70905 22.2233C6.70905 22.2233 6.70905 22.2126 6.70905 22.2073C6.51672 22.2073 6.32442 22.2126 6.13743 22.2073C6.02524 22.2019 5.97179 22.2447 5.94508 22.3462C5.66192 23.3025 5.37878 24.2641 5.09028 25.2151C5.05823 25.3273 5.07426 25.3647 5.19179 25.3594C5.52303 25.354 5.84891 25.3594 6.18015 25.354C6.68769 25.3487 7.09374 25.1296 7.39826 24.7289C7.76155 24.2428 7.94319 23.6872 7.99127 23.0941C8.03401 22.5706 7.74017 22.25 7.2166 22.2233C7.05098 22.2126 6.88002 22.2233 6.7144 22.2233H6.70905Z" fill="#010201"/>
<path d="M47.1185 23.5248C47.1185 23.5248 47.1238 23.5461 47.1185 23.5515C47.0544 23.8578 46.8674 24.0109 46.5575 24.0109C45.9859 24.0109 45.4089 24.0109 44.8373 24.0109C44.709 24.0109 44.6503 24.0376 44.6129 24.1712C44.5167 24.5238 44.4205 24.8764 44.2977 25.2237C44.2336 25.4 44.3083 25.4107 44.4472 25.4107C45.1685 25.4107 45.8844 25.4107 46.6056 25.4107C46.7819 25.4107 46.8193 25.432 46.7713 25.6244C46.7178 25.8648 46.611 25.9235 46.3706 25.9235C45.5051 25.9075 44.6396 25.9182 43.7741 25.9129C43.6993 25.9129 43.6245 25.9129 43.5337 25.9129C43.9077 24.652 44.2816 23.4072 44.6503 22.1624C44.7286 21.8953 44.9103 21.7617 45.1952 21.7617C45.9966 21.7617 46.8033 21.7617 47.6047 21.7617C47.7596 21.7617 47.8077 21.7617 47.765 21.9541C47.7062 22.1998 47.5993 22.2693 47.3482 22.2639C46.6911 22.2425 46.034 22.2639 45.3715 22.2532C45.2273 22.2532 45.1578 22.2906 45.1204 22.4402C45.0456 22.7501 44.9494 23.06 44.8479 23.3591C44.7998 23.5034 44.8426 23.5194 44.9708 23.5194C45.6547 23.5194 46.3332 23.5194 47.017 23.5194C47.0491 23.5194 47.0758 23.5248 47.1025 23.5301L47.1185 23.5248Z" fill="#010201"/>
<path d="M12.4681 21.7129C12.3862 22.0406 12.1885 22.2044 11.8751 22.2044C11.2607 22.2044 10.6516 22.2044 10.0372 22.2044C9.893 22.2044 9.82353 22.2418 9.78613 22.3914C9.69531 22.744 9.57779 23.0913 9.46559 23.4652H11.7629C11.7629 23.492 11.7736 23.5026 11.7682 23.508C11.7041 23.8143 11.5171 23.9674 11.2073 23.9674C10.641 23.9674 10.0747 23.9728 9.50834 23.9674C9.35875 23.9674 9.29462 24.0048 9.25723 24.1491C9.17175 24.475 9.07025 24.7955 8.97409 25.1161C8.89929 25.3618 8.89929 25.3618 9.17176 25.3672C9.86629 25.3672 10.5661 25.3725 11.2607 25.3672C11.437 25.3672 11.469 25.3939 11.4263 25.5809C11.3729 25.8213 11.2607 25.8801 11.0256 25.8747C10.0907 25.8587 9.15572 25.8694 8.18872 25.8694C8.29557 25.5061 8.40244 25.1642 8.50394 24.8169C8.79244 23.8446 9.08628 22.8722 9.37478 21.8999C9.40149 21.8144 9.39614 21.7182 9.5297 21.7182C10.502 21.7182 11.4744 21.7182 12.4627 21.7182L12.4681 21.7129Z" fill="#010201"/>
<path d="M70.203 21.8047C70.1282 22.1324 69.9341 22.2962 69.6207 22.2962C69.0169 22.2962 68.4133 22.3015 67.8042 22.2962C67.6226 22.2962 67.5531 22.3496 67.5103 22.5206C67.4249 22.8625 67.3127 23.1937 67.2059 23.5517H69.4924C69.5031 23.5891 69.5085 23.6051 69.5085 23.6158C69.4337 23.9114 69.2413 24.0592 68.9315 24.0592C68.3652 24.0592 67.7989 24.0592 67.2326 24.0592C67.0937 24.0592 67.0349 24.102 66.9975 24.2355C66.9013 24.5881 66.7998 24.9408 66.6876 25.288C66.6395 25.4269 66.6716 25.459 66.8105 25.4536C67.5477 25.4536 68.2797 25.4536 69.0169 25.4536C69.1932 25.4536 69.2093 25.491 69.1719 25.662C69.1185 25.8917 69.0277 25.9719 68.7766 25.9665C67.8363 25.9451 66.896 25.9612 65.9343 25.9612C66.2068 25.0529 66.4686 24.1607 66.7357 23.2685C66.8639 22.8358 66.9975 22.4084 67.1204 21.9756C67.1471 21.8848 67.1578 21.8047 67.2913 21.8047C68.253 21.8047 69.22 21.8047 70.203 21.8047Z" fill="#010201"/>
<path d="M15.6149 25.8463C15.7645 25.3388 15.9087 24.8366 16.0583 24.3344C16.2987 23.5276 16.5391 22.7263 16.7849 21.9249C16.8063 21.8501 16.7955 21.7326 16.8971 21.7219C17.0466 21.7058 17.2069 21.7058 17.3512 21.7326C17.426 21.7486 17.3619 21.8341 17.3512 21.8875C17.1856 22.4431 17.02 22.9987 16.8543 23.5544C16.8437 23.5971 16.833 23.6398 16.8223 23.6879C16.8971 23.72 16.9291 23.6612 16.9612 23.6345C17.661 23.1056 18.3823 22.5927 19.0555 22.0264C19.4027 21.7379 19.7553 21.6738 20.2094 21.7379C20.0972 21.8234 20.0011 21.8928 19.9103 21.9623C19.3226 22.4004 18.7349 22.8438 18.1365 23.2712C17.9976 23.3727 17.9976 23.4422 18.0617 23.5811C18.3716 24.2542 18.6654 24.9327 18.97 25.6059C19.002 25.6807 19.0341 25.7608 19.0768 25.857C18.8524 25.857 18.6494 25.8517 18.4411 25.857C18.3235 25.857 18.3128 25.7715 18.2808 25.6967C18.0404 25.1197 17.7946 24.5427 17.5702 23.9604C17.4954 23.7681 17.442 23.8055 17.2924 23.8909C16.7475 24.1955 16.4269 24.6389 16.3414 25.2533C16.3361 25.3067 16.3147 25.3548 16.2987 25.4082C16.2025 25.7323 15.9746 25.8766 15.6149 25.841V25.8463Z" fill="#010201"/>
<path d="M59.4379 25.9074C59.7424 24.8869 60.0416 23.8879 60.3354 22.8835C60.4316 22.5629 60.5331 22.2424 60.6239 21.9165C60.656 21.8043 60.6934 21.7509 60.8216 21.7562C61.4413 21.7669 62.0611 21.7562 62.6808 21.7723C63.4234 21.7936 63.7333 22.2531 63.5249 22.969C63.3166 23.6688 62.7182 24.155 61.9489 24.2031C61.5268 24.2298 61.1047 24.2298 60.688 24.2245C60.5331 24.2245 60.4797 24.2726 60.4423 24.4168C60.3247 24.8442 60.1805 25.2609 60.0683 25.6937C60.0255 25.87 59.9508 25.9394 59.7744 25.9127C59.6676 25.8967 59.5607 25.9127 59.4379 25.9127V25.9074ZM61.8741 22.2744C61.8741 22.2744 61.8741 22.2584 61.8741 22.2531C61.6604 22.2531 61.4466 22.2531 61.2329 22.2531C61.1528 22.2531 61.0834 22.2531 61.0567 22.3492C60.9338 22.7766 60.8109 23.1987 60.6827 23.6208C60.6613 23.6956 60.6667 23.7383 60.7575 23.733C61.2223 23.7169 61.6924 23.7757 62.1519 23.6849C62.6007 23.5994 62.8945 23.2788 62.9693 22.8354C63.0227 22.5149 62.8571 22.2905 62.5365 22.2691C62.3175 22.2531 62.0931 22.2691 61.8741 22.2691V22.2744Z" fill="#010201"/>
<path d="M35.6271 25.9078C36.5728 24.5348 37.4863 23.1992 38.4053 21.8689C38.4694 21.778 38.9876 21.6979 39.0624 21.778C39.0998 21.8154 39.0998 21.8902 39.1051 21.949C39.2227 22.9534 39.3349 23.9525 39.4524 24.9569C39.4845 25.224 39.5112 25.4911 39.5432 25.7529C39.5539 25.8597 39.5486 25.9132 39.4097 25.9185C38.9342 25.9292 38.9342 25.9345 38.8861 25.4537C38.8808 25.3949 38.8701 25.3308 38.8647 25.2721C38.8433 25.069 38.9128 24.7912 38.7685 24.6844C38.635 24.5829 38.3732 24.6523 38.1648 24.6523C37.8496 24.6523 37.5398 24.6523 37.2246 24.647C37.1017 24.647 37.0269 24.679 36.9628 24.7859C36.7758 25.0797 36.5621 25.3629 36.3858 25.6674C36.279 25.8544 36.1561 25.9506 35.9317 25.9132C35.8462 25.8971 35.75 25.9132 35.6218 25.9132L35.6271 25.9078ZM37.3581 24.2089C37.8123 24.2089 38.229 24.2089 38.6457 24.2089C38.7312 24.2089 38.7685 24.1929 38.7632 24.0967C38.7151 23.493 38.6671 22.8893 38.619 22.2428C38.2503 22.9427 37.7855 23.5357 37.3581 24.2089Z" fill="#010201"/>
<path d="M13.6861 25.4582C14.3432 25.4582 14.7814 25.1002 15.1179 24.5713C15.1553 24.5125 15.166 24.4057 15.2675 24.4324C15.4064 24.4645 15.5507 24.5019 15.6842 24.5499C15.7163 24.5606 15.6736 24.6301 15.6522 24.6675C15.1767 25.5757 14.1082 26.0886 13.0985 25.8963C12.468 25.7734 12.1208 25.3727 12.1154 24.6514C12.0994 23.2998 13.0076 21.8306 14.5944 21.6489C14.8775 21.6169 15.1607 21.6329 15.4331 21.7237C15.8659 21.868 16.1277 22.2366 16.149 22.6907C16.1544 22.8136 16.133 22.8831 15.9994 22.8831C15.9834 22.8831 15.9727 22.8938 15.9567 22.8991C15.8445 22.9205 15.7216 22.9846 15.6201 22.9525C15.4919 22.9151 15.5613 22.7548 15.5239 22.6533C15.4224 22.3542 15.2301 22.1725 14.9203 22.1351C14.3166 22.0603 13.7983 22.242 13.3923 22.6961C12.9489 23.1929 12.7298 23.7913 12.6924 24.4484C12.655 25.1109 13.013 25.4582 13.6808 25.4528L13.6861 25.4582Z" fill="#010201"/>
<path d="M63.7277 25.452H65.7686C65.7686 25.4841 65.7739 25.5054 65.7686 25.5268C65.6938 25.8117 65.505 25.9542 65.2023 25.9542C64.4757 25.9542 63.7491 25.9542 63.0065 25.9542C63.4072 24.6079 63.8132 23.2669 64.2085 21.9313C64.2406 21.8298 64.2833 21.7977 64.3849 21.8031C64.4596 21.8084 64.5398 21.8137 64.6146 21.8031C64.7802 21.7817 64.8016 21.8405 64.7535 21.9954C64.4276 23.0692 64.107 24.1431 63.7918 25.2223C63.7705 25.2917 63.7544 25.3665 63.7277 25.452Z" fill="#010201"/>
<path d="M21.1017 21.7149C20.9361 22.2706 20.7758 22.7995 20.6156 23.3337C20.3912 24.087 20.1615 24.835 19.9531 25.5936C19.8943 25.802 19.8142 25.8928 19.5845 25.8714C19.296 25.8447 19.296 25.8661 19.3761 25.599C19.734 24.4022 20.1027 23.2055 20.4446 22.0034C20.5141 21.7684 20.6102 21.6722 20.8453 21.7149C20.9201 21.7256 20.9949 21.7149 21.1017 21.7149Z" fill="#010201"/>
<path d="M53.6897 25.9075C53.9355 25.0848 54.1705 24.2834 54.411 23.4767C54.5659 22.9531 54.7262 22.4242 54.8865 21.9006C54.9238 21.7884 55.378 21.6816 55.4528 21.7724C55.4902 21.8205 55.4527 21.8739 55.4421 21.922C55.0627 23.1989 54.6781 24.4757 54.3041 25.7526C54.272 25.8648 54.2186 25.9129 54.1011 25.9022C53.9729 25.8915 53.8446 25.9022 53.695 25.9022L53.6897 25.9075Z" fill="#010201"/>
</svg>
