<svg width="27" height="30" viewBox="0 0 27 30" fill="none" xmlns="http://www.w3.org/2000/svg">
<path d="M0.203003 27.5817H0.658204V28.3937L1.29794 27.5817H1.83926L1.01498 28.6336L1.91922 29.9377H1.39021L0.664352 28.892V29.9377H0.209151V27.5817H0.203003ZM4.32439 27.5817H3.8692L2.95879 29.9377H3.4263L3.61699 29.4517H4.57659L4.76114 29.9377H5.22863L4.32439 27.5817ZM3.78308 29.015L4.09679 28.203L4.41051 29.015H3.77692H3.78308ZM6.4958 27.5817H6.9264L7.93521 29.1319V27.5817H8.38426V29.9377H7.95366L6.94486 28.3937V29.9377H6.4958V27.5817ZM11.546 28.123C11.4353 27.9324 11.3 27.7909 11.1339 27.7109C10.9678 27.6248 10.7156 27.5817 10.3711 27.5817H9.84212V29.9377H10.3834C10.691 29.9377 10.9001 29.9192 11.0293 29.8823C11.1585 29.8454 11.2692 29.7716 11.3738 29.6732C11.4784 29.5748 11.5645 29.4456 11.626 29.2918C11.6875 29.138 11.7183 28.9719 11.7183 28.7935C11.7183 28.5413 11.6629 28.3137 11.5583 28.123H11.546ZM11.1647 29.1934C11.1031 29.3041 11.0293 29.3841 10.9371 29.4333C10.8448 29.4825 10.6972 29.5009 10.488 29.5009H10.2789V28.0123H10.4326C10.7095 28.0123 10.9125 28.0738 11.0416 28.1969C11.1831 28.3322 11.2508 28.529 11.2508 28.7812C11.2508 28.9412 11.22 29.0827 11.1647 29.1934ZM13.0224 27.5817H13.4653V29.9377H13.0224V27.5817ZM14.8924 27.5817H15.323L16.3318 29.1319V27.5817H16.7808V29.9377H16.3502L15.3414 28.3937V29.9377H14.8924V27.5817ZM19.4751 27.9016L19.1429 28.1969C19.026 28.0369 18.9092 27.9508 18.7862 27.9508C18.7246 27.9508 18.6816 27.9693 18.6385 28C18.6016 28.0308 18.5831 28.0677 18.5831 28.1046C18.5831 28.1415 18.5955 28.1784 18.6262 28.2153C18.6631 28.2645 18.7738 28.3629 18.9522 28.5167C19.1245 28.6582 19.229 28.7505 19.266 28.7874C19.3582 28.8797 19.4197 28.9658 19.4566 29.0519C19.4936 29.138 19.512 29.2303 19.512 29.3287C19.512 29.5194 19.4443 29.6793 19.309 29.8085C19.1737 29.9377 19.0014 29.9992 18.7862 29.9992C18.6201 29.9992 18.4724 29.9561 18.3494 29.8762C18.2264 29.7962 18.1157 29.667 18.0295 29.4886L18.4048 29.261C18.5155 29.4702 18.6508 29.5748 18.7984 29.5748C18.8784 29.5748 18.9399 29.5502 18.9953 29.5071C19.0507 29.464 19.0753 29.4087 19.0753 29.3533C19.0753 29.2979 19.0568 29.2487 19.0137 29.1934C18.9768 29.138 18.8846 29.058 18.7492 28.9473C18.4909 28.7382 18.3248 28.5782 18.251 28.4614C18.1772 28.3506 18.1403 28.2338 18.1403 28.123C18.1403 27.957 18.2018 27.8216 18.3248 27.7048C18.4478 27.5879 18.6016 27.5264 18.7862 27.5264C18.903 27.5264 19.0137 27.551 19.1245 27.6063C19.229 27.6617 19.3459 27.7601 19.4689 27.9016H19.4751ZM20.8653 27.5817H21.3205V28.3937L21.9602 27.5817H22.5016L21.6773 28.6336L22.5815 29.9377H22.0525L21.3267 28.892V29.9377H20.8714V27.5817H20.8653ZM23.6457 27.5817H24.1255L24.5622 28.4306L24.999 27.5817H25.4726L24.7837 28.9166V29.9377H24.3346V28.9166L23.6395 27.5817H23.6457Z" fill="#010101"/>
<path d="M0.0123735 21.6094C0.0123735 20.4714 0.0246796 19.3334 0.00622559 18.2016C0.00622559 17.8263 0.123098 17.5434 0.369151 17.2789C1.56251 15.9932 2.74972 14.7015 3.93692 13.4097C5.46245 11.755 6.98183 10.1003 8.50736 8.44558C9.43006 7.44291 10.3589 6.44025 11.2816 5.43758C12.7887 3.80133 14.3081 2.17123 15.809 0.534977C16.0673 0.252016 16.3564 0.104385 16.7378 0.110536C18.8293 0.110536 20.9146 0.116688 23.006 0.110536C23.5596 0.110536 23.9964 0.307378 24.1994 0.811787C24.4024 1.32235 24.3409 1.83291 23.9349 2.28195C21.7019 4.71788 19.4875 7.1661 17.2545 9.60203C15.0093 12.0564 12.7518 14.4985 10.5065 16.9529C8.79032 18.8229 7.08024 20.6929 5.37017 22.5629C4.37366 23.6516 3.37099 24.7404 2.38063 25.8415C2.03615 26.2229 1.64247 26.389 1.13191 26.3398C0.461415 26.2721 0.0123735 25.8108 0.0123735 25.1341C0.0123735 23.9654 0.0123735 22.7905 0.0123735 21.6217V21.6094Z" fill="#010101"/>
<path d="M19.0075 26.3576C17.9372 26.3576 16.873 26.3576 15.8027 26.3576C15.4705 26.3576 15.1999 26.253 14.9784 26.0069C13.3791 24.2661 12.3395 23.0851 10.7402 21.3442C10.3096 20.8767 10.3157 20.0279 10.7525 19.5604C11.7736 18.4593 12.7886 17.352 13.8281 16.2632C14.4617 15.5989 15.3598 15.6297 15.9934 16.3125C18.5585 19.1052 20.5638 21.3504 23.1351 24.1369C23.5718 24.6106 23.6333 25.1211 23.375 25.6563C23.1412 26.1423 22.7045 26.376 22.1386 26.3637C21.0928 26.3514 19.0014 26.3514 19.0014 26.3453L19.0075 26.3576Z" fill="#010101"/>
<path d="M0 6.9879C0 5.16096 0 3.34017 0 1.51322C0 0.547467 0.541318 0 1.50092 0C2.9957 0 4.48431 0 5.97909 0C6.92024 0 7.42465 0.504409 7.42465 1.43941C7.42465 3.37708 7.41235 4.47816 7.43081 6.42198C7.43081 6.85873 7.28932 7.19705 7.00636 7.50461C5.54849 9.0609 4.09679 10.6233 2.63892 12.1796C2.50359 12.3211 2.38057 12.4687 2.24524 12.6102C1.8331 13.0408 1.33484 13.1146 0.793526 12.9239C0.338328 12.764 0 12.1981 0 11.6568C0 9.82366 0 8.821 0 6.9879Z" fill="#010101"/>
<path d="M21.9849 9.43111C21.9849 8.32387 22.883 7.42578 23.9902 7.42578C25.0974 7.42578 25.9955 8.32387 25.9955 9.43111C25.9955 10.5383 25.0974 11.4364 23.9902 11.4364C22.883 11.4364 21.9849 10.5383 21.9849 9.43111Z" stroke="#010201" stroke-width="0.2" stroke-miterlimit="3.86"/>
<path d="M24.1008 8.32871H24.1747C24.2915 8.32871 24.513 8.36562 24.5868 8.40252C24.6606 8.43943 24.7775 8.51325 24.8144 8.58706C24.8882 8.66088 24.9251 8.81466 24.9251 8.92539C24.9251 9.07917 24.8882 9.18989 24.7775 9.30062C24.7098 9.36828 24.5868 9.48516 24.4023 9.48516C24.6299 9.78657 24.8882 10.2356 25.0789 10.5001H24.7406C24.513 10.1987 24.3654 9.84808 24.1008 9.58358C24.027 9.54667 23.9901 9.52206 23.8056 9.52206H23.5042V10.5001H23.2028V8.31641H24.107L24.1008 8.32871ZM24.1008 9.26986C24.2116 9.26986 24.2669 9.26371 24.3777 9.24526C24.4576 9.2268 24.513 9.19605 24.5622 9.12838C24.6114 9.06687 24.6237 9.01151 24.6237 8.93154C24.6237 8.83312 24.5807 8.77775 24.513 8.70394C24.4146 8.60552 24.3161 8.59322 24.1747 8.59322C24.1439 8.59322 24.1008 8.59322 24.1008 8.59322H23.498V9.26986H24.1008Z" fill="#010201"/>
</svg>
