<svg width="86" height="20" viewBox="0 0 86 20" fill="none" xmlns="http://www.w3.org/2000/svg">
<path d="M16.503 5.41357V5.58496C16.9189 5.35551 17.3596 5.16385 17.8192 5.01641V4.85515C17.8192 1.92944 16.1193 0.0136719 13.542 0.0136719C11.7595 0.0136719 10.4993 0.890925 9.26476 2.88686C8.47086 0.945292 7.20878 0.0136719 5.29049 0.0136719C3.61816 0.0136719 2.46718 0.678983 1.37034 2.35424H1.31526V0.253258H0V12.1966H1.31526V3.81756C2.46718 1.98288 3.508 1.26505 5.01604 1.26505C6.7444 1.26505 8.25149 2.43441 8.25149 5.38777V12.1975H9.56675V4.05622C10.8003 2.06121 11.787 1.26413 13.2951 1.26413C15.4612 1.26413 16.502 3.01863 16.502 5.41265" fill="#291D10"/>
<path d="M20.1485 19.0137C16.066 19.0137 12.7441 15.7913 12.7441 11.8307C12.7441 7.8702 16.066 4.64685 20.1485 4.64685C24.2311 4.64685 27.552 7.8702 27.552 11.8307C27.552 15.7913 24.2301 19.0137 20.1485 19.0137ZM20.1485 6.27511C16.9919 6.27511 14.4241 8.76773 14.4241 11.8298C14.4241 14.8919 16.991 17.3845 20.1485 17.3845C23.3061 17.3845 25.873 14.891 25.873 11.8298C25.873 8.76865 23.3042 6.27511 20.1485 6.27511Z" fill="#AD936D"/>
<path d="M29.2433 11.3912V11.9846C28.6545 11.6086 28.2671 11.4603 27.7979 11.4603C27.1626 11.4603 26.6698 11.8372 26.6698 12.3265C26.6698 13.5585 29.4076 13.0904 29.4076 14.8698C29.4076 15.6678 28.6545 16.2833 27.6811 16.2833C27.1398 16.2833 26.6356 16.135 26.0952 15.8152V15.2789C26.7875 15.6226 27.2462 15.747 27.7514 15.747C28.3962 15.747 28.8663 15.383 28.8663 14.8587C28.8663 13.6387 26.1285 14.0026 26.1285 12.3624C26.1285 11.5755 26.8815 10.9599 27.8321 10.9599C28.2908 10.9599 28.7143 11.0963 29.2433 11.3921" fill="#291D10"/>
<path d="M32.7132 14.5915C30.2204 14.5915 28.1929 12.6241 28.1929 10.2061C28.1929 7.78817 30.2204 5.8208 32.7132 5.8208C35.206 5.8208 37.2316 7.78817 37.2316 10.2061C37.2316 12.6241 35.2041 14.5915 32.7132 14.5915ZM32.7132 6.84273C30.8016 6.84273 29.247 8.35027 29.247 10.2052C29.247 12.0602 30.8025 13.5677 32.7132 13.5677C34.6239 13.5677 36.1775 12.0602 36.1775 10.2052C36.1775 8.35027 34.6239 6.84273 32.7132 6.84273Z" fill="#291D10"/>
<path d="M36.6741 4.39347H36.7852C36.8763 4.39347 36.9637 4.37965 36.9637 4.27829C36.9637 4.17693 36.8754 4.1631 36.7852 4.1631H36.6741V4.39255V4.39347ZM36.6741 4.58699V4.96756H36.3892V3.97144H36.8649C37.0378 3.97144 37.2628 4.01659 37.2628 4.22853C37.2628 4.37689 37.1441 4.45521 37.0007 4.47272V4.47733C37.1831 4.48194 37.2173 4.57132 37.2362 4.72613C37.2438 4.80906 37.2581 4.88831 37.2837 4.96756H36.9741C36.958 4.89845 36.9495 4.82657 36.9438 4.75654C36.9324 4.63675 36.9267 4.58699 36.7814 4.58699H36.675H36.6741Z" fill="#291D10"/>
<path d="M36.81 3.60371C37.3219 3.60371 37.7359 4.00732 37.7359 4.50308C37.7359 4.99883 37.3219 5.40244 36.81 5.40244C36.2981 5.40244 35.885 4.99975 35.885 4.50308C35.885 4.0064 36.3 3.60371 36.81 3.60371ZM36.81 3.34753C36.1528 3.34753 35.6191 3.86541 35.6191 4.50215C35.6191 5.1389 36.1528 5.65769 36.81 5.65769C37.4672 5.65769 37.9999 5.14074 37.9999 4.50215C37.9999 3.86357 37.4662 3.34753 36.81 3.34753Z" fill="#291D10"/>
<path d="M40.375 13.7602V5.12384L43.5377 5.12384C44.1506 5.12384 44.658 5.22505 45.0601 5.42746C45.4621 5.62707 45.7629 5.89836 45.9625 6.24134C46.1621 6.58151 46.2619 6.96525 46.2619 7.39257C46.2619 7.75242 46.1958 8.05604 46.0637 8.30344C45.9316 8.54802 45.7545 8.74482 45.5324 8.89382C45.3131 9.04 45.0713 9.14683 44.807 9.21431V9.29865C45.0938 9.3127 45.3735 9.40548 45.6462 9.57697C45.9217 9.74564 46.1494 9.98601 46.3294 10.2981C46.5093 10.6101 46.5993 10.9897 46.5993 11.4367C46.5993 11.878 46.4952 12.2744 46.2872 12.6258C46.082 12.9744 45.7643 13.2514 45.3342 13.4566C44.904 13.659 44.3544 13.7602 43.6853 13.7602H40.375ZM41.678 12.6427H43.5588C44.1829 12.6427 44.6299 12.5218 44.8998 12.28C45.1697 12.0383 45.3046 11.7361 45.3046 11.3734C45.3046 11.1007 45.2358 10.8505 45.098 10.6228C44.9603 10.3951 44.7635 10.2137 44.5076 10.0788C44.2546 9.94384 43.9538 9.87637 43.6052 9.87637H41.678V12.6427ZM41.678 8.86008H43.4239C43.7162 8.86008 43.9791 8.80385 44.2124 8.6914C44.4486 8.57895 44.6356 8.42151 44.7733 8.2191C44.9139 8.01387 44.9842 7.7721 44.9842 7.49378C44.9842 7.13674 44.8591 6.83734 44.6088 6.59556C44.3586 6.35379 43.9749 6.2329 43.4576 6.2329H41.678V8.86008Z" fill="#AD936D"/>
<path d="M49.9286 13.9036C49.5181 13.9036 49.147 13.8277 48.8153 13.6759C48.4835 13.5212 48.2207 13.2977 48.0267 13.0054C47.8355 12.713 47.7399 12.3545 47.7399 11.93C47.7399 11.5646 47.8102 11.2638 47.9508 11.0276C48.0914 10.7915 48.2811 10.6045 48.5201 10.4667C48.759 10.329 49.0261 10.225 49.3213 10.1547C49.6165 10.0844 49.9173 10.031 50.2237 9.99445C50.6117 9.94946 50.9266 9.91292 51.1683 9.8848C51.4101 9.85388 51.5858 9.80468 51.6955 9.73721C51.8051 9.66974 51.8599 9.5601 51.8599 9.40829V9.37877C51.8599 9.01049 51.7559 8.72514 51.5479 8.52272C51.3426 8.32031 51.0362 8.2191 50.6286 8.2191C50.2041 8.2191 49.8695 8.31328 49.6249 8.50164C49.3832 8.68718 49.2159 8.89382 49.1231 9.12153L47.9381 8.85165C48.0787 8.45806 48.2839 8.14038 48.5538 7.89861C48.8265 7.65403 49.14 7.47691 49.4942 7.36727C49.8484 7.25482 50.2209 7.19859 50.6117 7.19859C50.8703 7.19859 51.1445 7.22952 51.434 7.29137C51.7264 7.3504 51.9991 7.46004 52.2521 7.62029C52.5079 7.78053 52.7174 8.00966 52.8804 8.30766C53.0435 8.60284 53.125 8.98659 53.125 9.45889V13.7602H51.8937V12.8746H51.8431C51.7615 13.0377 51.6392 13.1979 51.4762 13.3554C51.3131 13.5128 51.1037 13.6435 50.8479 13.7476C50.592 13.8516 50.2856 13.9036 49.9286 13.9036ZM50.2027 12.8915C50.5513 12.8915 50.8493 12.8226 51.0967 12.6849C51.3469 12.5471 51.5366 12.3672 51.666 12.1451C51.7981 11.9202 51.8641 11.6798 51.8641 11.424V10.589C51.8192 10.634 51.732 10.6762 51.6027 10.7155C51.4762 10.7521 51.3314 10.7844 51.1683 10.8125C51.0053 10.8378 50.8465 10.8617 50.6918 10.8842C50.5372 10.9039 50.4079 10.9208 50.3039 10.9348C50.0593 10.9658 49.8358 11.0178 49.6334 11.0909C49.4338 11.164 49.2735 11.2694 49.1526 11.4071C49.0346 11.5421 48.9755 11.722 48.9755 11.9469C48.9755 12.259 49.0908 12.4951 49.3213 12.6554C49.5518 12.8128 49.8456 12.8915 50.2027 12.8915Z" fill="#AD936D"/>
<path d="M54.8044 13.7602V7.28293L56.0147 7.28293V8.33717H56.0948C56.2298 7.98014 56.4505 7.70182 56.7569 7.50221C57.0633 7.2998 57.4302 7.19859 57.8575 7.19859C58.2905 7.19859 58.6531 7.2998 58.9455 7.50221C59.2407 7.70463 59.4586 7.98295 59.5991 8.33717H59.6666C59.8212 7.99138 60.0672 7.71587 60.4046 7.51065C60.7419 7.30261 61.144 7.19859 61.6106 7.19859C62.1982 7.19859 62.6775 7.38273 63.0486 7.75102C63.4225 8.1193 63.6095 8.67453 63.6095 9.41672V13.7602H62.3486V9.5348C62.3486 9.09623 62.2291 8.77855 61.9902 8.58176C61.7512 8.38497 61.4658 8.28657 61.1341 8.28657C60.7237 8.28657 60.4046 8.41308 60.1769 8.6661C59.9491 8.91631 59.8353 9.2382 59.8353 9.63179V13.7602H58.5786V9.45467C58.5786 9.10326 58.469 8.82072 58.2497 8.60706C58.0304 8.3934 57.7451 8.28657 57.3937 8.28657C57.1547 8.28657 56.934 8.34983 56.7316 8.47634C56.532 8.60003 56.3703 8.77293 56.2466 8.99502C56.1258 9.21712 56.0653 9.47435 56.0653 9.76673V13.7602H54.8044Z" fill="#AD936D"/>
<path d="M65.4006 13.7602V5.12384H66.6615V8.33296H66.7374C66.8105 8.19801 66.9159 8.04199 67.0537 7.86487C67.1914 7.68776 67.3826 7.53314 67.6272 7.40101C67.8718 7.26606 68.1951 7.19859 68.5971 7.19859C69.12 7.19859 69.5867 7.33072 69.9971 7.59499C70.4076 7.85925 70.7295 8.24018 70.9628 8.73779C71.199 9.23539 71.3171 9.8342 71.3171 10.5342C71.3171 11.2342 71.2004 11.8345 70.967 12.3349C70.7337 12.8325 70.4132 13.2162 70.0056 13.4861C69.5979 13.7532 69.1327 13.8867 68.6098 13.8867C68.2162 13.8867 67.8943 13.8206 67.6441 13.6885C67.3967 13.5564 67.2027 13.4018 67.0621 13.2246C66.9216 13.0475 66.8133 12.8901 66.7374 12.7523H66.632V13.7602H65.4006ZM66.6362 10.5216C66.6362 10.977 66.7023 11.3762 66.8344 11.7192C66.9665 12.0622 67.1577 12.3307 67.4079 12.5246C67.6581 12.7158 67.9646 12.8114 68.3272 12.8114C68.7039 12.8114 69.0188 12.7116 69.2718 12.512C69.5248 12.3096 69.716 12.0355 69.8453 11.6897C69.9775 11.3439 70.0435 10.9545 70.0435 10.5216C70.0435 10.0942 69.9789 9.7105 69.8495 9.37033C69.723 9.03016 69.5319 8.76168 69.276 8.56489C69.023 8.3681 68.7067 8.2697 68.3272 8.2697C67.9617 8.2697 67.6525 8.36388 67.3995 8.55224C67.1493 8.7406 66.9595 9.00346 66.8302 9.34082C66.7009 9.67817 66.6362 10.0718 66.6362 10.5216Z" fill="#AD936D"/>
<path d="M75.4613 13.8909C74.854 13.8909 74.3241 13.7518 73.8715 13.4735C73.4189 13.1951 73.0675 12.8058 72.8172 12.3053C72.567 11.8049 72.4419 11.2202 72.4419 10.5511C72.4419 9.87918 72.567 9.29162 72.8172 8.78839C73.0675 8.28517 73.4189 7.89439 73.8715 7.61607C74.3241 7.33775 74.854 7.19859 75.4613 7.19859C76.0685 7.19859 76.5985 7.33775 77.0511 7.61607C77.5037 7.89439 77.8551 8.28517 78.1053 8.78839C78.3555 9.29162 78.4806 9.87918 78.4806 10.5511C78.4806 11.2202 78.3555 11.8049 78.1053 12.3053C77.8551 12.8058 77.5037 13.1951 77.0511 13.4735C76.5985 13.7518 76.0685 13.8909 75.4613 13.8909ZM75.4655 12.8325C75.8591 12.8325 76.1852 12.7285 76.4438 12.5204C76.7025 12.3124 76.8937 12.0355 77.0173 11.6897C77.1439 11.3439 77.2071 10.9629 77.2071 10.5469C77.2071 10.1336 77.1439 9.75408 77.0173 9.40829C76.8937 9.05968 76.7025 8.77996 76.4438 8.56911C76.1852 8.35826 75.8591 8.25284 75.4655 8.25284C75.0691 8.25284 74.7402 8.35826 74.4787 8.56911C74.2201 8.77996 74.0275 9.05968 73.901 9.40829C73.7773 9.75408 73.7155 10.1336 73.7155 10.5469C73.7155 10.9629 73.7773 11.3439 73.901 11.6897C74.0275 12.0355 74.2201 12.3124 74.4787 12.5204C74.7402 12.7285 75.0691 12.8325 75.4655 12.8325Z" fill="#AD936D"/>
<path d="M82.6164 13.8909C82.0092 13.8909 81.4793 13.7518 81.0266 13.4735C80.574 13.1951 80.2226 12.8058 79.9724 12.3053C79.7222 11.8049 79.5971 11.2202 79.5971 10.5511C79.5971 9.87918 79.7222 9.29162 79.9724 8.78839C80.2226 8.28517 80.574 7.89439 81.0266 7.61607C81.4793 7.33775 82.0092 7.19859 82.6164 7.19859C83.2237 7.19859 83.7536 7.33775 84.2062 7.61607C84.6589 7.89439 85.0103 8.28517 85.2605 8.78839C85.5107 9.29162 85.6358 9.87918 85.6358 10.5511C85.6358 11.2202 85.5107 11.8049 85.2605 12.3053C85.0103 12.8058 84.6589 13.1951 84.2062 13.4735C83.7536 13.7518 83.2237 13.8909 82.6164 13.8909ZM82.6207 12.8325C83.0142 12.8325 83.3404 12.7285 83.599 12.5204C83.8576 12.3124 84.0488 12.0355 84.1725 11.6897C84.299 11.3439 84.3623 10.9629 84.3623 10.5469C84.3623 10.1336 84.299 9.75408 84.1725 9.40829C84.0488 9.05968 83.8576 8.77996 83.599 8.56911C83.3404 8.35826 83.0142 8.25284 82.6207 8.25284C82.2243 8.25284 81.8953 8.35826 81.6339 8.56911C81.3752 8.77996 81.1827 9.05968 81.0562 9.40829C80.9325 9.75408 80.8706 10.1336 80.8706 10.5469C80.8706 10.9629 80.9325 11.3439 81.0562 11.6897C81.1827 12.0355 81.3752 12.3124 81.6339 12.5204C81.8953 12.7285 82.2243 12.8325 82.6207 12.8325Z" fill="#AD936D"/>
</svg>
