<svg width="63" height="30" viewBox="0 0 63 30" fill="none" xmlns="http://www.w3.org/2000/svg">
<path fill-rule="evenodd" clip-rule="evenodd" d="M26.943 26.9416H27.279V24.947H26.943V26.9416ZM27.279 24.1872H26.943V24.589H27.279V24.1872ZM27.7979 24.947H28.1114V25.2648H28.1189C28.2608 25.0164 28.4885 24.9032 28.7797 24.9032C29.3135 24.9032 29.4815 25.2027 29.4815 25.6301V26.9416H29.1455V25.5936C29.1455 25.3489 28.9887 25.1918 28.7311 25.1918C28.3242 25.1918 28.1264 25.4584 28.1264 25.8164V26.9416H27.7904V24.947H27.7979ZM31.221 25.2356H30.8776V24.947H31.221V24.6511C31.221 24.326 31.4189 24.158 31.7847 24.158C31.8482 24.158 31.9378 24.169 32.0012 24.1872V24.4721C31.9415 24.4539 31.8706 24.4466 31.8108 24.4466C31.6503 24.4466 31.557 24.4977 31.557 24.6694V24.947H31.9527V25.2356H31.557V26.9416H31.221V25.2356ZM32.1393 25.9443C32.1393 26.5251 32.4828 26.9854 33.1286 26.9854C33.7744 26.9854 34.1178 26.5251 34.1178 25.9443C34.1178 25.3635 33.7744 24.8995 33.1286 24.8995C32.4828 24.8995 32.1393 25.3598 32.1393 25.9443ZM32.494 25.9443C32.494 25.4584 32.7777 25.1881 33.1286 25.1881C33.4795 25.1881 33.7632 25.4584 33.7632 25.9443C33.7632 26.4301 33.4795 26.6968 33.1286 26.6968C32.7777 26.6968 32.494 26.4265 32.494 25.9443ZM34.4986 24.947H34.8122V25.3671H34.8196C34.9801 25.0457 35.2041 24.8886 35.5662 24.8995V25.2466C35.0249 25.2466 34.8308 25.5461 34.8308 26.0502V26.9379H34.4949V24.9434L34.4986 24.947ZM35.8201 24.947H36.1336V25.2393H36.1411C36.2904 25.0164 36.5181 24.8995 36.7981 24.8995C37.0482 24.8995 37.2759 24.9945 37.358 25.2393C37.4962 25.0274 37.7351 24.8995 37.9964 24.8995C38.4033 24.8995 38.6758 25.0639 38.6758 25.4767V26.9379H38.3398V25.6301C38.3398 25.3817 38.2726 25.1881 37.9441 25.1881C37.6156 25.1881 37.4103 25.389 37.4103 25.6959V26.9379H37.0743V25.6301C37.0743 25.3708 36.9922 25.1881 36.6936 25.1881C36.2942 25.1881 36.1523 25.5461 36.1523 25.6959V26.9379H35.8163V24.9434L35.8201 24.947ZM41.9608 26.9416H41.6472V26.6237H41.6398C41.4979 26.8721 41.2702 26.9854 40.9753 26.9854C40.4415 26.9854 40.2735 26.6858 40.2735 26.2548V24.9434H40.6095V26.2913C40.6095 26.5361 40.7663 26.6932 41.0238 26.6932C41.4307 26.6932 41.6286 26.4265 41.6286 26.0685V24.9434H41.9646V26.9379L41.9608 26.9416ZM42.4648 24.947H42.7783V25.2648H42.7858C42.9276 25.0164 43.1554 24.9032 43.4465 24.9032C43.9804 24.9032 44.1483 25.2027 44.1483 25.6301V26.9416H43.8124V25.5936C43.8124 25.3489 43.6556 25.1918 43.398 25.1918C42.9911 25.1918 42.797 25.4584 42.797 25.8164V26.9416H42.461V24.947H42.4648ZM46.474 24.1872H46.138V25.2137H46.1306C45.9812 24.9799 45.6826 24.8995 45.4735 24.8995C44.8501 24.8995 44.544 25.3744 44.544 25.937C44.544 26.4995 44.8539 26.9854 45.481 26.9854C45.761 26.9854 46.0223 26.8904 46.1306 26.6712H46.138V26.9416H46.474V24.1909V24.1872ZM44.8987 25.9626C44.8987 25.5717 45.0517 25.1918 45.5109 25.1918C45.97 25.1918 46.153 25.5534 46.153 25.9479C46.153 26.3425 45.9812 26.7005 45.5296 26.7005C45.0779 26.7005 44.8987 26.3388 44.8987 25.9662M48.221 25.2429H47.8776V24.9543H48.221V24.6584C48.221 24.3333 48.4189 24.1653 48.7847 24.1653C48.8482 24.1653 48.9378 24.1763 49.0012 24.1945V24.4795C48.9415 24.4612 48.8706 24.4539 48.8108 24.4539C48.6503 24.4539 48.5533 24.505 48.5533 24.6767V24.9543H48.949V25.2429H48.5533V26.9489H48.2173V25.2429H48.221ZM50.5093 26.2548C50.5093 26.4338 50.3264 26.7041 49.8859 26.7041C49.6806 26.7041 49.494 26.6274 49.494 26.4119C49.494 26.1708 49.6806 26.0904 49.9009 26.0539C50.1249 26.0137 50.3787 26.01 50.5093 25.9187V26.2548ZM51.0544 26.6858C51.0133 26.7005 50.9797 26.7041 50.9536 26.7041C50.849 26.7041 50.8491 26.6347 50.8491 26.4813V25.4548C50.8491 24.9872 50.4496 24.9069 50.0838 24.9069C49.6321 24.9069 49.2401 25.0785 49.2215 25.5753H49.5574C49.5724 25.2831 49.7814 25.1991 50.0651 25.1991C50.2779 25.1991 50.5168 25.2466 50.5168 25.5315C50.5168 25.7799 50.2033 25.7543 49.83 25.8237C49.4828 25.8895 49.1393 25.9845 49.1393 26.4374C49.1393 26.8356 49.4417 26.9963 49.8113 26.9963C50.095 26.9963 50.3451 26.9014 50.528 26.6895C50.528 26.905 50.6363 26.9963 50.8117 26.9963C50.92 26.9963 50.9946 26.9781 51.0506 26.9416V26.6858H51.0544ZM51.353 24.9543H51.6703V25.3744H51.6778C51.8383 25.053 52.066 24.8959 52.4281 24.9069V25.2539C51.8868 25.2539 51.6927 25.5534 51.6927 26.0575V26.9452H51.3567V24.9507L51.353 24.9543ZM54.2647 25.9333C54.2647 26.3242 54.1117 26.7041 53.6525 26.7041C53.1934 26.7041 53.0104 26.3425 53.0104 25.9479C53.0104 25.5534 53.1859 25.1954 53.6339 25.1954C54.0818 25.1954 54.2647 25.5571 54.2647 25.9333ZM52.6894 26.9489H53.0254V26.6822H53.0328C53.1822 26.916 53.4808 26.9963 53.6898 26.9963C54.3133 26.9963 54.6194 26.5215 54.6194 25.9589C54.6194 25.3963 54.3058 24.9105 53.6824 24.9105C53.4024 24.9105 53.1411 25.0055 53.0328 25.2283H53.0254V24.1982H52.6894V26.9525V26.9489ZM56.4187 26.3169C56.3589 26.5763 56.1648 26.7078 55.8923 26.7078C55.4481 26.7078 55.2465 26.4009 55.2577 26.0539H56.7808C56.7994 25.5717 56.5792 24.9142 55.8587 24.9142C55.3025 24.9142 54.8993 25.3525 54.8993 25.9516C54.918 26.5616 55.2278 27 55.8774 27C56.3365 27 56.6576 26.7626 56.7472 26.3205H56.4149L56.4187 26.3169ZM55.2577 25.7616C55.2801 25.4584 55.4891 25.1991 55.84 25.1991C56.1723 25.1991 56.4112 25.4511 56.4261 25.7616H55.2577ZM51.5098 12.5525L48.7399 22.6347H47.508L50.2779 12.5525H44.7606C44.839 11.1059 45.0928 9.8347 46.4815 9.11142C46.8398 8.93607 47.2243 8.86301 47.6088 8.7863C47.8403 7.66484 48.277 6.46667 49.4828 6.04292C49.815 5.91872 50.2518 5.89315 50.6139 5.84201C50.7669 4.84475 51.0245 4.12146 51.9204 3.52237C52.5886 3.07306 53.3837 3.04749 54.1527 3C54.2797 3.74886 54.5111 4.37352 54.8433 5.04566C55.0748 5.56804 55.3324 5.84201 55.7691 6.21827H54.5111C54.5895 7.04018 54.8433 7.74155 55.3585 8.4137C55.6161 8.7863 55.9744 9.08584 56.3067 9.38539H54.8695C54.9217 10.1087 55.127 10.8064 55.5601 11.4055C55.9184 11.9279 56.3291 12.2274 56.8965 12.5525H51.5098ZM52.178 14.737C52.178 14.1781 52.6409 13.7215 53.2158 13.7215C53.7906 13.7215 54.2535 14.1744 54.2535 14.737C54.2535 15.2995 53.7906 15.7525 53.2158 15.7525C52.6409 15.7525 52.178 15.2995 52.178 14.737ZM53.2718 14.1817H53.3091C53.3688 14.1817 53.4845 14.2 53.5219 14.2183C53.5629 14.2365 53.6189 14.2767 53.6376 14.3132C53.6749 14.3498 53.6973 14.4265 53.6973 14.4849C53.6973 14.5616 53.6786 14.6201 53.6189 14.6749C53.5816 14.7114 53.5219 14.7699 53.4248 14.7699C53.5405 14.9233 53.6786 15.1498 53.7757 15.2849H53.6003C53.4845 15.1315 53.4061 14.9525 53.268 14.821C53.2307 14.8027 53.212 14.7918 53.115 14.7918H52.9582V15.2849H52.8014V14.1817H53.268H53.2718ZM53.2718 14.6566C53.3277 14.6566 53.3576 14.6566 53.4173 14.642C53.4584 14.6311 53.4883 14.6164 53.5144 14.5836C53.5405 14.5507 53.548 14.5251 53.5443 14.4849C53.5443 14.4338 53.5219 14.4046 53.4883 14.3717C53.4397 14.3205 53.3837 14.3169 53.3128 14.3132C53.2979 14.3132 53.2755 14.3132 53.2755 14.3132H52.9656V14.6566H53.2755H53.2718ZM16.7669 19.7708C16.8192 21.1041 18.0025 21.5242 19.2568 21.5242C20.205 21.5242 21.4966 21.3123 21.4966 20.1763C21.4966 19.0402 19.9922 18.8283 18.4692 18.4959C16.9648 18.1635 15.4454 17.674 15.4454 15.9388C15.4454 14.116 17.2895 13.3635 18.9022 13.3635C20.9441 13.3635 22.5717 13.9954 22.6986 16.2018H21.1756C21.0673 15.0438 20.0296 14.6785 19.0291 14.6785C18.1145 14.6785 17.0581 14.9233 17.0581 15.8365C17.0581 16.9032 18.6707 17.0785 20.0855 17.4146C21.6086 17.747 23.1093 18.2365 23.1093 19.99C23.1093 22.1452 21.0524 22.8466 19.171 22.8466C17.0954 22.8466 15.3409 22.0247 15.2513 19.7817H16.7744L16.7669 19.7708ZM38.6945 18.0685C38.6945 20.695 40.1951 22.7626 43.0247 22.7626C45.8543 22.7626 47.355 20.695 47.355 18.0685C47.355 15.442 45.8543 13.3562 43.0247 13.3562C40.1951 13.3562 38.6945 15.4237 38.6945 18.0685ZM40.2474 18.0685C40.2474 15.8767 41.4905 14.6603 43.0247 14.6603C44.559 14.6603 45.8021 15.8767 45.8021 18.0685C45.8021 20.2603 44.559 21.4584 43.0247 21.4584C41.4905 21.4584 40.2474 20.242 40.2474 18.0685ZM24.2814 13.568H25.7149V14.9014H25.7485C26.4279 13.8858 27.4657 13.3598 28.7386 13.3598C29.866 13.3598 30.9037 13.7982 31.2808 14.9014C31.9079 13.937 32.9979 13.3598 34.1813 13.3598C36.0254 13.3598 37.261 14.1123 37.261 15.9863V22.6274H35.7379V16.6877C35.7379 15.5662 35.4318 14.6749 33.9461 14.6749C32.4604 14.6749 31.5309 15.5845 31.5309 16.9872V22.6274H30.0078V16.6877C30.0078 15.5151 29.6308 14.6749 28.272 14.6749C26.4615 14.6749 25.8007 16.3041 25.8007 16.9872V22.6274H24.2777V13.568H24.2814ZM5.89648 18.0685C5.89648 20.695 7.39713 22.7626 10.2267 22.7626C13.0563 22.7626 14.557 20.695 14.557 18.0685C14.557 15.442 13.0563 13.3562 10.2267 13.3562C7.39713 13.3562 5.89648 15.4237 5.89648 18.0685ZM7.44939 18.0685C7.44939 15.8767 8.69248 14.6603 10.2267 14.6603C11.761 14.6603 13.0041 15.8767 13.0041 18.0685C13.0041 20.2603 11.761 21.4584 10.2267 21.4584C8.69248 21.4584 7.44939 20.242 7.44939 18.0685Z" fill="#00A54F"/>
</svg>
