<svg width="56" height="57" viewBox="0 0 56 57" fill="none" xmlns="http://www.w3.org/2000/svg">
<path d="M50.3345 9.44546C48.0836 9.44546 46.2252 7.64112 46.2252 5.39223V5.33993C46.2252 3.03874 48.0312 1.18209 50.3345 1.18209C52.6378 1.18209 54.4437 3.03874 54.4437 5.33993C54.4437 7.64112 52.5854 9.44546 50.3345 9.44546ZM50.3345 0.502197C47.6386 0.502197 45.4924 2.64649 45.4924 5.33993C45.4924 8.03337 47.6517 10.1777 50.3345 10.1777C53.0173 10.1777 55.1766 8.03337 55.229 5.33993C55.1766 2.69879 53.0304 0.502197 50.3345 0.502197ZM50.0858 5.0915H49.2483V3.09104H50.0858C51.0673 3.09104 51.4992 3.33946 51.4992 4.07166V4.12396C51.4469 4.80385 51.0543 5.10458 50.0858 5.10458V5.0915ZM52.5331 7.96799L51.159 5.7191C51.8918 5.52298 52.3891 5.0392 52.3891 4.11088C52.3891 2.64649 51.5123 2.20194 50.0335 2.20194C49.6409 2.20194 48.9604 2.20194 48.6594 2.25424C48.4631 2.25424 48.3191 2.39806 48.3191 2.64649V8.12489C48.3191 8.26872 48.4107 8.41254 48.5678 8.41254H49.0127C49.1567 8.41254 49.2614 8.26872 49.2614 8.12489V5.876H49.9942L50.1905 5.9283L51.6562 8.22949C51.6562 8.22949 51.8002 8.37331 51.8526 8.37331H52.3368C52.4807 8.37331 52.5331 8.28179 52.5331 8.12489C52.5854 8.07259 52.5854 8.03337 52.5331 7.98107V7.96799ZM37.1692 10.8968C39.0275 14.6624 40.454 18.611 41.5271 22.625C42.6526 26.7828 43.5817 31.0714 43.8827 35.3731C43.9743 36.5498 43.9351 37.7658 43.6341 38.9425C43.1891 40.7992 42.116 42.512 40.454 43.4926C38.648 44.4732 36.4887 44.6171 34.4864 44.7086C31.2016 44.9047 27.9823 44.7609 24.6975 44.4209C21.6613 44.1333 18.4812 43.6887 15.6938 42.2767C20.4443 46.6306 39.8258 49.9516 48.6332 47.9381C67.4258 43.6887 41.0429 2.69879 28.5581 0.933671C28.6104 0.933671 33.5965 3.71863 37.1692 10.8968ZM44.1183 51.2068C38.2423 51.6906 29.0423 50.4223 22.1848 48.3696C18.0232 47.1536 12.3959 44.5125 10.9694 42.3551C8.07726 38.0011 17.6306 23.3964 20.6144 19.5393L21.007 19.0555C18.3635 21.1606 16.2041 23.8933 14.0579 26.4298C11.807 29.1233 10.001 31.9082 8.18195 34.7847C6.41523 37.6612 4.75321 40.6031 3.43144 43.728C2.25363 46.5129 1.86104 49.494 4.41296 51.6383C6.71624 53.6388 10.0926 54.6194 13.0241 55.2601C16.2042 55.94 19.4366 56.2407 22.7214 56.3845C29.0815 56.6329 35.5988 56.5283 41.8543 55.5085C46.6048 54.724 52.376 52.8674 53.6062 47.5982C52.4807 48.971 49.2483 50.8277 44.1052 51.2199L44.1183 51.2068ZM40.8335 33.5687C39.9043 27.1228 38.3863 20.5199 35.7427 14.5185C34.5126 11.7336 33.4918 9.87693 31.8298 7.34039C30.508 5.33993 29.3825 3.67941 27.4195 2.16272C25.8491 0.946745 24.1871 0.698321 21.8445 2.21502C19.345 3.87553 16.7538 6.21595 14.8431 8.51714C9.41211 15.0154 6.71624 20.1408 3.53615 28.1557C2.60699 30.4961 1.48152 34.2617 1.14127 36.406C0.853357 38.2103 0.5 40.6031 0.5 42.0282C0.5 43.2442 0.591603 44.5648 0.944946 45.7938C2.75092 37.2951 6.82092 31.4244 10.9825 26.0114C14.3066 21.6575 17.3427 18.441 18.7692 17.212C20.9285 15.3553 22.9308 13.551 26.1109 13.4987C29.9715 13.4464 33.0599 18.4279 34.0415 19.8531C36.8813 24.1025 39.1322 28.7964 40.8466 33.5818L40.8335 33.5687Z" fill="white"/>
</svg>
