<svg width="38" height="36" viewBox="0 0 38 36" fill="none" xmlns="http://www.w3.org/2000/svg">
<path d="M2.69427 4.59122C2.69427 4.98867 2.69427 5.23536 2.69427 5.49576C2.69427 6.83886 2.69427 8.19566 2.69427 9.53876C2.69427 10.32 2.12244 10.8819 1.37361 10.8956C0.611166 10.8956 0.0529476 10.3748 0.0121023 9.57988C-0.0151279 9.07279 0.0121023 8.57941 0.0121023 8.07232C0.0121023 5.90691 0.0121023 3.7415 0.0121023 1.58979C0.0121023 0.507088 0.515859 0 1.57784 0C4.19193 0 6.80603 0 9.40652 0C10.1417 0 10.6727 0.424859 10.8225 1.11011C10.945 1.69943 10.6183 2.35728 10.0464 2.59027C9.78774 2.69991 9.47459 2.72732 9.18867 2.72732C7.92247 2.74102 4.791 2.72732 4.791 2.72732C4.791 2.72732 9.58351 7.62005 11.7755 9.82657C12.2112 10.2651 12.5108 10.7311 12.3065 11.389C12.0342 12.2935 10.9995 12.6635 10.237 12.1153C10.06 11.992 9.89666 11.8275 9.74689 11.6631C7.43233 9.33319 5.13138 7.01702 2.72151 4.57751L2.69427 4.59122Z" fill="black"/>
<path d="M33.4088 2.69427C33.0113 2.69427 32.7646 2.69427 32.5042 2.69427C31.1611 2.69427 29.8043 2.69427 28.4612 2.69427C27.68 2.69427 27.1181 2.12244 27.1044 1.37361C27.1044 0.611166 27.6252 0.0529471 28.4201 0.0121019C28.9272 -0.0151283 29.4206 0.0121019 29.9277 0.012102C32.0931 0.012102 34.2585 0.0121021 36.4102 0.0121022C37.4929 0.0121023 38 0.515859 38 1.57784C38 4.19193 38 6.80603 38 9.40652C38 10.1417 37.5751 10.6727 36.8899 10.8225C36.3006 10.945 35.6427 10.6183 35.4097 10.0464C35.3001 9.78774 35.2727 9.47459 35.2727 9.18868C35.259 7.92247 35.2727 4.791 35.2727 4.791C35.2727 4.791 30.38 9.58351 28.1734 11.7755C27.7349 12.2112 27.2689 12.5108 26.611 12.3065C25.7065 12.0342 25.3365 10.9995 25.8847 10.237C26.008 10.06 26.1725 9.89666 26.3369 9.74689C28.6668 7.43233 30.983 5.13138 33.4225 2.72151L33.4088 2.69427Z" fill="black"/>
<path d="M35.3057 30.7576C35.3057 30.3601 35.3057 30.1135 35.3057 29.8531C35.3057 28.51 35.3057 27.1532 35.3057 25.8101C35.3057 25.0289 35.8776 24.4669 36.6264 24.4532C37.3888 24.4532 37.9471 24.974 37.9879 25.7689C38.0151 26.276 37.9879 26.7694 37.9879 27.2765C37.9879 29.4419 37.9879 31.6073 37.9879 33.759C37.9879 34.8417 37.4841 35.3488 36.4222 35.3488C33.8081 35.3488 31.194 35.3488 28.5935 35.3488C27.8583 35.3488 27.3273 34.924 27.1775 34.2387C27.055 33.6494 27.3817 32.9915 27.9536 32.7585C28.2123 32.6489 28.5254 32.6215 28.8113 32.6215C30.0775 32.6078 33.209 32.6215 33.209 32.6215C33.209 32.6215 28.4165 27.7288 26.2245 25.5222C25.7888 25.0837 25.4892 24.6177 25.6935 23.9599C25.9658 23.0553 27.0005 22.6853 27.763 23.2335C27.94 23.3568 28.1033 23.5213 28.2531 23.6858C30.5677 26.0156 32.8686 28.3318 35.2785 30.7713L35.3057 30.7576Z" fill="black"/>
<path d="M4.59122 32.6545C4.98867 32.6545 5.23536 32.6545 5.49576 32.6545C6.83886 32.6545 8.19566 32.6545 9.53876 32.6545C10.32 32.6545 10.8819 33.2264 10.8956 33.9752C10.8956 34.7376 10.3748 35.2959 9.57988 35.3367C9.07279 35.3639 8.57941 35.3367 8.07232 35.3367C5.90691 35.3367 3.7415 35.3367 1.58979 35.3367C0.507088 35.3367 6.15156e-09 34.833 1.88155e-08 33.771C4.99883e-08 31.1569 8.11611e-08 28.5428 1.12172e-07 25.9423C1.20939e-07 25.2071 0.424859 24.6761 1.11011 24.5263C1.69943 24.4038 2.35728 24.7306 2.59027 25.3024C2.69991 25.5611 2.72732 25.8742 2.72732 26.1601C2.74102 27.4263 2.72732 30.5578 2.72732 30.5578C2.72732 30.5578 7.62005 25.7653 9.82657 23.5733C10.2651 23.1376 10.7311 22.8381 11.389 23.0423C12.2935 23.3146 12.6635 24.3493 12.1153 25.1118C11.992 25.2888 11.8275 25.4522 11.6631 25.6019C9.33319 27.9165 7.01702 30.2174 4.57751 32.6273L4.59122 32.6545Z" fill="black"/>
</svg>
