<svg width="38" height="38" viewBox="0 0 38 38" fill="none" xmlns="http://www.w3.org/2000/svg">
<path d="M0 2.86655C0 1.87304 0.611608 0.966001 1.5554 0.612409C2.08103 0.414475 2.67896 0.343373 3.35309 0.349138C11.5873 0.412553 19.8216 0.377963 28.0558 0.379885C29.875 0.379885 30.8031 1.27155 30.811 3.06449C30.8246 5.80482 30.8129 8.54515 30.8129 11.2836C30.8129 12.1118 30.5882 12.7921 29.6737 13.063C28.5267 13.4032 27.5751 12.7133 27.5536 11.4219C27.5145 9.19276 27.5399 6.96168 27.538 4.73252C27.538 4.38853 27.538 4.04455 27.538 3.64868H3.36091V27.5737C3.71654 27.5737 4.0624 27.5737 4.40826 27.5737C7.6832 27.5737 10.9562 27.5661 14.2311 27.5776C15.6185 27.5833 16.3004 28.2137 16.1969 29.3628C16.1206 30.2045 15.6654 30.7657 14.7821 30.7714C10.5028 30.7926 6.22355 30.7907 1.9462 30.7657C1.44207 30.7618 1.06494 30.5754 0.760113 30.291C0.254022 29.824 0 29.1514 0 28.4692V2.86655Z" fill="black"/>
<path d="M20.5974 36.4366C20.3512 36.1484 20.2007 35.7909 20.2515 35.2798C20.3336 34.4592 21.0664 33.85 21.9046 33.8462C26.8034 33.827 31.7021 33.8347 36.5989 33.8404C37.3355 33.8404 37.9999 34.5149 37.9999 35.4585C37.9999 36.8075 37.3824 37.0823 36.9623 37.0823H22.0746C21.5119 37.0823 20.9589 36.8594 20.5954 36.4366H20.5974Z" fill="black"/>
<path d="M30.868 26.8571C31.3546 26.4016 31.6672 26.0826 32.0092 25.7963C32.697 25.2236 33.5822 25.2563 34.1977 25.8559C34.8112 26.4535 34.9011 27.3778 34.2778 28.0005C32.9608 29.3168 31.6008 30.5947 30.2213 31.8496C29.5569 32.4549 28.7792 32.4396 28.1168 31.8362C26.7626 30.6024 25.4261 29.3476 24.1247 28.0581C23.4564 27.3971 23.5229 26.4612 24.1755 25.8405C24.7969 25.2505 25.6762 25.2294 26.366 25.8097C26.706 26.0961 27.0186 26.4151 27.5403 26.9032C27.5403 26.3497 27.5403 26.0192 27.5403 25.6868C27.5403 23.3923 27.5149 21.0997 27.556 18.8071C27.5794 17.4196 28.7479 16.6894 29.9438 17.2486C30.7137 17.608 30.8172 18.2902 30.8172 19.0204C30.8172 21.2496 30.8172 23.4806 30.8192 25.7098C30.8192 26.0192 30.8446 26.3305 30.868 26.8571Z" fill="black"/>
<path d="M21.69 16.7624C20.5781 17.8885 19.6148 18.8628 18.5948 19.8967C18.841 20.1887 19.2318 20.5135 19.4233 20.9286C19.4467 20.9805 19.4643 21.0362 19.4761 21.0919C19.5835 21.6319 19.1009 22.1335 18.544 22.0701C18.4346 22.0586 18.3408 22.0278 18.2743 21.9702C17.2504 21.0477 16.3184 20.0273 15.5661 19.2587C13.5769 21.0727 11.6932 22.8176 9.77044 24.5202C9.25068 24.9814 8.44171 25.458 7.91999 24.7335C7.78712 24.5491 7.80666 24.2992 7.90827 24.0975C8.0939 23.7266 8.42608 23.4422 8.72114 23.1443C10.4622 21.3898 12.2071 19.6372 13.952 17.8846C15.0482 16.7835 15.4097 16.7777 16.4884 17.8443C16.7776 18.1306 16.9515 18.2901 17.3208 18.711C18.5889 17.4561 19.6402 16.4818 20.6993 15.3422C21.346 14.6447 21.8013 14.6831 22.4227 15.3634C23.2649 16.2858 24.1911 17.1371 25.0899 18.0096C25.5062 18.4131 25.7445 18.8647 25.2697 19.3278C24.7929 19.7948 24.322 19.5546 23.9273 19.1395C23.1789 18.3516 22.4364 17.556 21.688 16.7605L21.69 16.7624Z" fill="black"/>
<path d="M10.5268 14.7101C8.26401 14.7101 6.45459 12.9421 6.45264 10.7283C6.45264 8.53568 8.29137 6.7216 10.5248 6.71583C12.7758 6.71007 14.5872 8.49148 14.5872 10.7091C14.5872 12.9056 12.7583 14.7081 10.5268 14.7101ZM10.4975 8.38194C9.18045 8.39731 8.12137 9.48307 8.14872 10.7879C8.17413 12.0485 9.2332 13.0689 10.5248 13.0786C11.8438 13.0882 12.9341 12.0159 12.9283 10.7149C12.9224 9.41197 11.832 8.36465 10.4994 8.38194H10.4975Z" fill="black"/>
</svg>
