<svg width="725" height="242" viewBox="0 0 725 242" fill="none" xmlns="http://www.w3.org/2000/svg">
<path d="M723.76 105.45C723.27 104.86 722.46 104.57 721.27 104.81C712.87 106.51 705 110.2 697.7 114.59C694.06 116.78 690.55 119.16 687.11 121.65C685.37 122.91 683.67 124.22 681.95 125.5C681.21 126.06 677.47 128.11 677.41 128.78C677.47 128.18 677.55 127.28 677.64 126.38C677.73 125.56 677.81 124.74 677.9 123.92C679.98 116.96 683.38 107.68 683.75 103.46C683.93 101.38 682.94 97.76 680.23 96.58C679.43 96.23 678.6 96.06 677.76 96.06C676.18 96.06 673.19 97.16 671.45 100.26C668.89 104.81 663.51 117.56 658.9 122.52C657.76 123.75 655.69 123.15 655.42 121.49C654.88 118.23 654.88 112.38 658.96 104.21C659.64 102.85 663.32 99.44 663.97 98C665.66 94.22 664.85 91.48 661.32 89.23C660.11 88.46 658.7 88.05 657.25 88.05C654.72 88.05 653.82 89.27 652.23 91.39C650.51 93.69 649.22 97.85 647.88 100.23C647.69 100.57 647.49 100.91 647.3 101.25C646.74 102.23 646.3 103.22 645.87 104.17C645.29 105.47 644.92 107.54 644.54 108.48C642.62 113.28 636.59 122.86 626.78 130.28C622.37 133.62 615.9 134.4 611.75 135.42C611.53 135.45 611.31 135.49 611.09 135.51C611.09 135.51 611.07 135.51 611.06 135.51C609.66 135.68 608.45 134.52 608.52 133.11C608.59 131.49 608.93 129.31 610.03 127.38C610.26 126.97 610.43 126.51 610.63 126.05C610.97 125.27 611.36 124.48 611.78 123.64C612.69 121.81 613.63 119.91 614.2 117.74C614.82 115.38 615.31 112.6 614.17 109.99C613.04 107.38 610.68 105.81 608.51 104.61C607.64 104.13 606.76 103.79 606 103.49C605.42 103.27 600.16 101.47 599.74 101.24C599.69 101.21 599.66 101.19 599.64 101.18C599.67 101.16 599.69 101.14 599.72 101.12C601.31 100.22 603 97.34 603 96.6C603 95.78 602.97 93.48 600.46 92.56C599.52 92.21 598.48 92.04 597.36 92.04C596.51 92.04 595.64 92.15 594.84 92.35C589.9 93.6 586.64 101.14 587.02 106.33C587.06 106.84 587.23 109.43 590.99 109.43C590.86 109.43 589.48 110.97 587.68 112.94C579.33 122.08 561.66 129.55 555.48 123.38C554.23 122.13 553.52 121.3 552.44 119.91C551.3 118.09 550.83 115.81 551.34 113.47C552.05 110.17 552.83 106.88 553.59 103.58C553.96 101.99 553.36 100.02 551.76 99.33C549.73 98.45 547.85 99.16 546.55 100.85C545.86 101.74 545.01 103.9 544.52 104.91C541.75 110.65 537.33 115.35 532.81 119.76C531.54 121 531.25 121.24 529.4 121.25C528.37 121.25 527.32 120.92 526.42 120.43C525.89 120.14 525.55 119.6 525.52 119C525.48 118.26 524.68 116.66 524.83 115.96C526.71 107.18 533.67 97.94 541.11 93.16C546.85 89.47 554.33 90.85 556.89 96.9C557.04 97.25 557.26 97.62 557.53 97.95C557.53 97.95 557.53 97.95 557.53 97.96C560.15 101.54 561.33 102.17 564.07 101.6C564.88 101.43 564.74 98.76 563.76 97L563.69 96.88C562.58 94.87 561.2 92.37 558.95 90.7C555.05 87.81 550.44 86.35 545.27 86.35C543.3 86.35 541.22 86.57 539.09 86.99C529.16 88.97 522.15 95.84 516.6 104.43C516.52 104.55 516.43 104.65 516.36 104.72C514.26 105.31 512.09 105.75 509.5 106.23C508.5 106.41 507.46 106.51 506.4 106.51C504.61 106.51 496.81 105.53 495.24 103.46C495.32 103.24 495.41 103.03 495.54 102.81C496.81 101.88 500.06 99.45 500.49 99.27C504.27 97.68 505.26 99.27 506.65 97.48C507.98 95.77 507.33 93.32 506.03 91.53C504.64 89.6 502.37 88.45 499.98 88.45C499.06 88.45 498.15 88.62 497.28 88.95C494.59 89.98 492.05 91.63 490.1 93.6C486.5 97.25 481.31 108.48 477.84 113.43C477.29 114.13 476.75 114.82 476.2 115.52C473.04 119.43 469.95 123.44 466.95 127.35C467.78 125.12 470.75 113.96 471.65 111.62C472.54 109.31 473.45 106.91 474.32 104.53C474.62 103.7 475.02 102.42 474.94 100.97C474.85 99.24 474.11 97.68 472.81 96.46C471.29 95.04 469.39 94.25 467.46 94.25C466.14 94.25 464.84 94.62 463.68 95.31C456.19 99.81 454.64 109.51 451.33 116.94C450.18 119.52 448.96 122.19 447.65 124.88C441.86 134.15 436.27 140.36 428.97 148.53C425.1 152.85 420.97 156.91 415.61 159.43C415.43 159.51 415.25 159.59 415.07 159.66C413.13 159.73 407.97 160.95 406.64 154.6C405.71 150.14 406.23 144.28 407.05 140.2C408.99 130.48 411.23 120.18 414.8 110.3C414.93 109.93 415.07 109.56 415.2 109.19C416.5 105.57 417.73 102.15 419.57 99.24C422.17 95.13 425.2 91.1 428.12 87.21C429.31 85.62 430.55 83.98 431.74 82.34C440.15 70.85 447.36 65.05 452.05 54.34C454.12 49.62 456.19 43.93 455.88 37.58C455.61 32 451.79 28.25 446.37 28.25C443.48 28.25 440.79 29.12 438.37 30.82C436.28 32.29 434.63 34.2 433.29 35.87C427.23 43.46 422.25 52.51 417.63 64.35C412.73 76.92 408.49 89.71 404.39 102.09C403.75 104.02 402.72 105.52 400.82 107.28C400.45 107.62 399.99 107.97 399.5 108.34C399.37 108.43 399.25 108.53 399.13 108.63C392.65 113.59 381.64 118.54 373.02 119.8C372.66 119.85 372.3 119.88 371.96 119.88C370.33 119.88 368.95 119.29 368.07 118.23C367.86 117.98 367.68 117.7 367.54 117.41C367.24 116.18 367.2 114.81 367.48 113.36C368.1 110.11 368.95 106.9 369.77 103.7C370.33 101.52 369.62 99.93 367.42 99.4C364.21 98.62 362.15 100.63 360.1 102.66C354.82 107.89 349.51 113.09 344.14 118.23C343.6 118.75 342.61 118.8 341.83 119.07C341.66 118.21 341.21 117.28 341.37 116.49C343.19 107.56 348.12 100.68 355.71 95.81C360.77 92.56 368.12 92.4 371.61 100.02C371.82 100.48 372.18 101.13 372.56 101.26C372.58 101.29 372.59 101.32 372.61 101.35C374.08 101.87 376.31 102.49 379.22 101.83C380.28 101.59 381.03 100.61 380.95 99.53C380.87 98.34 380.42 97.12 379.64 96.03C379.48 95.81 379.32 95.58 379.16 95.35C378 93.7 376.69 91.83 374.76 90.46C370.93 87.75 366.47 86.37 361.49 86.37C359.52 86.37 357.44 86.59 355.31 87.02C345.4 89.04 337.65 94.27 332.27 102.55C323.78 115.63 318.54 127 309.24 137.04C302.88 143.91 296.04 150.76 288.33 157.97C278.83 166.86 267.58 173.16 258.8 177.35C255.98 178.69 253.31 180.11 250.47 181.37C245.15 183.71 238.69 184.51 232.89 184.25C230.97 184.16 228.96 183.92 226.94 183.3C224.28 181.86 221.94 179.87 219.97 177.28C213.95 169.39 212.14 160.06 211.63 150.52C211.6 150.01 211.58 149.5 211.56 148.99C211.59 145.11 211.91 141.4 212.51 137.91C214.01 129.32 215.92 121.13 218.2 113.57C222.24 100.14 228.8 82.91 237.15 68.37C242.4 59.23 252.06 46.18 261.67 35.9C266.04 31.23 270.6 26.23 276.11 22.87C278.34 21.51 280.76 20.55 283.22 20.02C283.49 19.98 283.76 19.93 284.03 19.9C289.26 19.19 294.16 20.19 298.11 23.92C302.65 28.22 303.83 33.66 303.05 39.71C303 40.11 302.94 40.52 302.88 40.91C302.54 42.4 302.06 43.86 301.47 45.26C299.34 50.26 295.86 54.57 292.18 58.58C289.91 61.06 287.54 63.46 285.59 66.19C284.12 68.25 282.87 70.95 283.98 73.22C285.18 75.68 288.69 76.2 291.14 75C292.95 74.12 294.3 72.58 295.46 70.9C297 69.49 298.12 67.69 299.1 65.81C300.39 63.36 301.45 60.83 302.35 58.24C304.14 54.34 305.7 50.34 307.01 46.26C309.98 37.04 311.45 26.15 305.72 18.33C298.53 8.52001 283.93 9.93001 274.35 15.02C265.55 19.69 258.93 27.15 253.06 35.16C252.66 35.64 252.26 36.13 251.86 36.62C242.75 47.9 235.08 60.16 228.2 72.9C222.76 82.97 217.79 93.26 213.62 103.93C206.02 119.84 198.57 137.09 199.47 154.08C199.78 159.86 200.52 164.39 201.81 168.33C203.76 174.29 206.61 179.31 210.29 183.27C222.32 196.22 241.8 196.12 257.29 190.22C275.12 183.43 288.95 167.67 301.6 153.89C302.38 153.07 303.16 152.24 303.93 151.41C312.16 142.47 320.01 133.25 327.23 123.49C327.62 124.01 328.06 124.49 328.55 124.93C330.41 126.6 332.88 127.51 335.51 127.51C336.5 127.51 337.49 127.38 338.46 127.12C339.04 127.07 339.62 126.96 340.2 126.78C344.88 125.3 348.22 122.07 351.29 118.51C354.3 115.01 357.13 111.36 359.97 107.85C359.96 108.19 359.92 108.55 359.87 108.95C359.83 109.24 359.79 109.53 359.74 109.82C359.54 111.06 359.27 112.51 359.12 114.13C358.6 119.99 361.16 125.75 365.89 129.27C367.39 130.38 369.04 131.21 371.02 131.35C372.01 131.42 373.01 131.46 373.99 131.46C378.11 131.46 384.67 127.68 390.98 123.58C392.07 123.05 393.14 122.48 394.2 121.86C397.77 119.79 401.11 117.31 404.51 115.04C403.96 117.14 403.42 119.23 402.9 121.33C402.32 122.51 401.87 123.86 401.7 125.7C401.67 126.05 401.63 126.47 401.58 126.95C400.56 131.57 399.74 136.24 399.3 140.98C398.84 146.01 398.59 151 399.68 155.99C399.83 156.67 400.02 157.33 400.24 157.95C403.79 172.14 421.29 164.61 430.31 157.8C436.36 153.24 441.43 147.63 446.6 142.12C448.87 139.7 455.86 134.19 455.3 130.4C455.47 131.56 455.68 132.73 455.97 133.9C456.2 135.09 456.5 136.27 456.9 137.4C457.36 138.7 458.15 139.57 459.09 140.02C460.44 141.21 462.14 141.89 464.01 141.89C466.45 141.89 468.78 140.75 470.56 138.69C471.3 137.84 471.9 136.98 472.48 136.15C472.81 135.68 473.12 135.24 473.43 134.83C474.78 133.07 476.12 131.3 477.46 129.54C481.52 124.21 484.78 116.96 488.96 111.6C489.99 110.28 491.09 108.96 492.19 107.67C492.82 108.98 493.81 110 495.16 110.66C496.33 111.23 497.6 111.77 498.89 112.15C502.63 114.14 508.02 115.97 515.17 115.98C515.06 117.29 514.95 118.64 514.87 119.99C514.84 120.43 514.86 120.86 514.91 121.28C515.06 123.76 516.03 126.05 517.73 127.84C519.69 129.92 522.48 131.11 525.38 131.11C526.48 131.11 527.59 130.94 528.67 130.61C535.11 128.63 539.46 122.6 543.09 118.25C543.6 120.47 544.72 122.5 546.71 124.21C547.88 125.54 549.31 126.7 551.01 127.68C554.04 129.44 558.57 130.46 562.57 130.46C577.56 130.46 586.84 121.09 596.08 110.82C598.01 111.34 600.32 112.09 602.18 112.58C601.98 112.91 601.63 113.48 601.29 114.06C600.59 115.28 599.96 116.52 599.41 117.77C597.27 122.03 595.41 126.86 595.54 129.96C595.83 136.84 598.72 141.96 605.37 143.14C606.66 143.37 607.98 143.49 609.28 143.49C613.02 143.49 616.77 142.56 620.74 140.66C626.54 137.88 635.47 130.99 641.83 124.84C642.68 124.02 643.52 123.2 644.36 122.38C644.36 122.4 644.36 122.42 644.36 122.43C644.38 123.75 644.58 124.95 644.94 126C645.52 130.04 646.32 133.98 650.25 134.87C651.07 135.06 651.89 135.15 652.71 135.15C656.7 135.15 659.75 132.95 661.7 131.3C664.21 129.17 673.23 110.97 675.84 106.72L676.07 106.82C675.79 108.04 675.5 109.26 675.22 110.47C675.11 110.94 675 111.42 674.89 111.9C674.8 112.28 674.71 112.83 674.61 113.51C673.45 118.69 672.3 123.86 671.07 129.02C670.26 132.44 669.64 135.94 667.78 138.96C667.39 139.49 667.01 140.02 666.63 140.54L666.39 140.84C666.39 140.84 666.3 140.94 666.26 140.99C664.67 142.73 663.31 144.69 661.91 146.59C661.78 146.77 661.65 146.95 661.52 147.12C652.37 158.34 639.77 171.96 634.07 184.21C631.45 189.84 628.69 196.49 629.22 204.01C629.58 209.12 633.15 212.69 637.9 212.69C638.09 212.69 638.28 212.69 638.47 212.67C640.83 212.53 643.52 212.18 645.6 210.61C649.04 208.03 651.8 205.46 654.03 202.77C660.44 195.03 663.95 184.55 666.23 177.35C669.62 166.63 671.28 158.93 673.31 148.78C673.95 146.11 674.53 143.43 675.07 140.73C675.09 140.6 675.12 140.48 675.15 140.36C675.58 139.24 676.16 138.39 676.99 137.62C682.8 132.22 694.05 125.16 702.5 120.75C707.01 118.4 711.9 116.39 716.63 114.46C717.45 114.13 718.26 113.79 719.08 113.46C720.48 112.88 722.97 111.56 723.96 109.18C724.53 107.81 724.52 106.33 723.82 105.48L723.76 105.45ZM433.58 59.73C435.8 55.37 438.86 51.44 441.67 47.4C442.35 46.43 443.53 45.8 444.73 44.8C445.39 47.67 444.24 49.85 443.21 51.78C438.98 59.72 434.58 67.57 430.09 75.36C427.77 79.39 425.13 83.24 422.61 87.16C422.33 87.6 421.95 87.98 421.62 88.39C421.47 88.32 421.33 88.24 421.18 88.17C422.07 85.81 422.85 83.4 423.86 81.1C427.02 73.94 430.01 66.7 433.56 59.74L433.58 59.73ZM404.48 114.98C404.45 114.88 404.48 114.93 404.48 114.98V114.98ZM640.42 195.85C640.17 195.77 639.91 195.69 639.66 195.61C640.36 193.42 640.83 191.12 641.8 189.06C647.46 176.97 654.41 165.62 661.86 154.56C662.47 153.65 663.09 152.76 663.78 151.76C663.03 161.44 646.5 192.57 640.43 195.86L640.42 195.85ZM331.85 198.11L331.82 198.78L330.99 198.85C330.4 196.62 329.33 195.58 327.89 195.58C325.83 195.58 324.76 197.17 324.76 200.72C324.76 202.26 325.04 203.58 325.56 204.47C326.11 205.44 326.89 205.96 327.95 205.96C329.39 205.96 330.48 204.97 331.27 202.55L332.19 202.69C332.17 204.01 331.83 205.25 331.48 206C330.36 206.48 329.28 206.74 327.76 206.74C323.49 206.74 321.25 204.7 321.25 200.89C321.25 199.26 321.65 198 322.37 197.03C323.48 195.56 325.42 194.8 327.84 194.8C329.28 194.8 330.44 195.01 331.54 195.6C331.71 196.24 331.89 197.33 331.85 198.11ZM362.31 204.36C362.76 205.59 362.93 205.78 363.75 205.97V206.49H358.06V205.97C359.1 205.81 359.32 205.73 359.32 205.36C359.32 204.99 358.97 204.11 358.54 202.8C358.12 202.7 357.71 202.63 357.07 202.63C356.53 202.63 356.01 202.7 355.62 202.8L355.2 204.1C355.01 204.67 354.92 205.09 354.91 205.31C354.89 205.66 354.96 205.78 355.48 205.85C355.65 205.87 355.91 205.92 356.19 205.97V206.49H352.21V205.97C352.68 205.87 352.9 205.8 353.02 205.68C353.31 205.39 353.69 204.36 354.13 203.24L357.09 195.38C357.59 195.16 358.2 195.1 358.89 195.07L362.32 204.36H362.31ZM355.87 201.97C356.23 201.9 356.67 201.85 357.08 201.85C357.49 201.85 357.96 201.88 358.31 201.97L357.13 198.42H357.1L355.87 201.97ZM385.67 205.85C386.14 205.71 386.19 205.47 386.19 204.36V197.25C386.19 196.14 386.14 195.85 385.71 195.73C385.55 195.68 385.29 195.64 385.05 195.59V195.07H390.99C393.98 195.07 395.11 196.06 395.11 198.06C395.11 199.18 394.28 200.26 392.9 200.9C393.21 201.47 393.47 201.94 393.71 202.39L394.35 203.57C394.94 204.66 395.46 205.54 395.92 205.78C396.11 205.88 396.3 205.95 396.53 205.97V206.49H394.76C393.08 206.49 392.48 206.18 391.51 204.22C391.06 203.32 390.77 202.66 390.52 202.14C390.36 201.81 390.07 201.57 389.65 201.57H389.27V204.3C389.27 205.58 389.34 205.75 389.96 205.87L390.41 205.96V206.48H385.05V205.96L385.67 205.84V205.85ZM389.27 200.8H389.63C391.4 200.8 392.02 199.99 392.02 198.2C392.02 196.9 391.12 195.85 390.01 195.85C389.79 195.85 389.47 195.87 389.27 195.92V200.8ZM423.52 195.07C425.3 195.07 426.5 195.38 427.21 195.92C427.92 196.46 428.25 197.25 428.25 198.26C428.25 199.32 427.83 200.15 427.18 200.73C426.3 201.51 425 201.91 423.22 201.91V201.32C424.26 201.25 425.11 200.35 425.11 198.59C425.11 197.86 424.9 197.17 424.47 196.65C424.04 196.11 423.45 195.85 422.88 195.85C422.72 195.85 422.55 195.87 422.34 195.92V204.31C422.34 205.11 422.39 205.49 422.55 205.64C422.71 205.8 423.16 205.86 423.83 205.97V206.49H418.12V205.97C418.76 205.87 418.99 205.8 419.09 205.64C419.21 205.48 419.26 205.16 419.26 204.29V197.25C419.26 196.44 419.21 196.07 419.09 195.92C418.99 195.76 418.81 195.71 418.12 195.59V195.07H423.54H423.52ZM458.93 195.07C459.05 195.62 459.17 196.37 459.17 197.25L459.15 198.12L458.3 198.21C457.69 196.27 457.5 195.86 455.79 195.86H454.7V200.24H455.24C457.16 200.24 457.06 200.21 457.21 198.87H457.9V202.38H457.21C457.07 201.05 457.12 201.01 455.29 201.01H454.7V205.41C455.15 205.58 455.67 205.72 456.21 205.72C456.88 205.72 457.47 205.55 457.91 205.15C458.2 204.87 458.41 204.53 458.62 203.92C458.72 203.63 458.81 203.26 458.93 202.86L459.88 203.03C459.88 203.95 459.69 205.19 459.33 206.49H450.49V205.97C451.44 205.87 451.63 205.8 451.63 204.59V196.98C451.63 195.75 451.44 195.72 450.49 195.6V195.08H458.93V195.07ZM483.11 195L489.94 202.65V197.93C489.94 196.6 489.85 196.18 489.7 195.96C489.51 195.68 489.23 195.68 488.38 195.6V195.08H492.33V195.6C491.53 195.74 491.46 195.79 491.34 195.95C491.24 196.11 491.18 196.47 491.18 197.2V206.51C490.92 206.58 490.63 206.65 490.25 206.63L489.73 206.61L482.98 199.29V203.46C482.98 204.93 483.07 205.33 483.2 205.57C483.32 205.76 483.48 205.88 483.91 205.92C484.03 205.94 484.36 205.97 484.53 205.99V206.51H480.58V205.99C481.17 205.89 481.39 205.85 481.53 205.68C481.65 205.54 481.72 205.3 481.72 204.43V195.09C481.91 195.02 482.46 195 482.72 195L483.08 195.02L483.11 195ZM523.22 195.07C523.48 196.09 523.5 197.3 523.5 198.13L522.65 198.2C522.43 196.54 521.75 195.85 520.47 195.85H519.99V204.48C519.99 205.93 520.16 205.83 521.46 205.97V206.49H515.44V205.97L515.92 205.92C516.75 205.83 516.91 205.78 516.91 204.47V195.85H516.43C515.15 195.85 514.47 196.54 514.25 198.2L513.4 198.13C513.43 196.95 513.56 195.45 513.68 195.07H523.23H523.22ZM545.37 205.85C545.84 205.71 545.89 205.47 545.89 204.36V197.25C545.89 196.14 545.84 195.85 545.41 195.73C545.25 195.68 544.99 195.64 544.75 195.59V195.07H550.68C553.67 195.07 554.8 196.06 554.8 198.06C554.8 199.18 553.97 200.26 552.59 200.9C552.9 201.47 553.16 201.94 553.4 202.39L554.04 203.57C554.63 204.66 555.15 205.54 555.61 205.78C555.8 205.88 555.99 205.95 556.22 205.97V206.49H554.46C552.78 206.49 552.18 206.18 551.21 204.22C550.76 203.32 550.47 202.66 550.22 202.14C550.06 201.81 549.77 201.57 549.35 201.57H548.97V204.3C548.97 205.58 549.04 205.75 549.66 205.87L550.11 205.96V206.48H544.75V205.96L545.37 205.84V205.85ZM548.97 200.8H549.33C551.1 200.8 551.72 199.99 551.72 198.2C551.72 196.9 550.82 195.85 549.71 195.85C549.49 195.85 549.17 195.87 548.97 195.92V200.8ZM581.78 195.07V195.59L581 195.73C580.57 195.8 580.45 195.9 580.45 196.13C580.45 196.25 580.52 196.48 580.55 196.55L582.42 200.81C582.94 199.46 583.7 197.64 583.99 196.78C584.09 196.45 584.16 196.19 584.16 196.07C584.16 195.9 584.06 195.79 583.74 195.72C583.58 195.69 583.2 195.63 582.94 195.6V195.08H587.11V195.6C586.64 195.67 586.4 195.7 586.16 195.91C586.04 196.01 585.95 196.17 585.68 196.64C585.46 197.02 585.06 197.68 584.68 198.42C583.88 199.98 583.4 200.95 583.28 201.38C583.18 201.76 583.09 202.35 583.09 203.21C583.09 205.48 583.04 205.74 583.7 205.87C583.87 205.9 584.01 205.94 584.24 205.97V206.49H578.88V205.97C579.52 205.87 579.76 205.8 579.85 205.64C579.94 205.48 580.02 205.4 580.02 204.2C580.02 203.18 580.04 202.64 579.93 202.21C579.81 201.67 579.51 201.12 578.96 200.03L577.45 197.09C576.81 195.83 576.74 195.79 575.93 195.58V195.06H581.78V195.07ZM416.33 225.23C416.48 225.89 416.48 226.66 416.48 227.32L416.02 227.38C415.85 226.65 415.66 226.18 415.43 226C415.21 225.81 414.73 225.72 414.01 225.72H412.98V229.03H414C414.63 229.03 414.99 228.99 415.1 228.9C415.2 228.81 415.28 228.51 415.33 228.02H415.67V230.58H415.33C415.27 230.12 415.18 229.83 415.07 229.74C414.98 229.65 414.64 229.6 414.09 229.6H412.98V233.04C413.5 233.16 413.82 233.23 414.27 233.23C414.86 233.23 415.38 233.14 415.74 232.91C416.08 232.7 416.29 232.37 416.45 231.88L416.62 231.27L417.08 231.36C417.02 232.29 416.91 232.93 416.65 233.72H410.39V233.38C410.56 233.37 410.79 233.33 410.96 233.29C411.26 233.21 411.31 233.06 411.31 232.22V226.55C411.31 226.05 411.26 225.84 411.17 225.75C411.08 225.66 410.82 225.58 410.4 225.54V225.2H416.34L416.33 225.23ZM430.11 227.49H429.65C429.61 227.31 429.56 227.12 429.51 226.96C429.21 225.98 428.67 225.53 427.85 225.53C427.12 225.53 426.55 226.01 426.55 226.82C426.55 227.55 427.08 228.01 428.07 228.55C428.52 228.79 428.96 229.03 429.28 229.23C430.25 229.86 430.67 230.52 430.67 231.43C430.67 233.04 429.37 233.93 427.49 233.93C426.43 233.93 425.69 233.66 425.23 233.41C425.01 232.84 424.86 232.2 424.86 231.24V230.98L425.47 230.85C425.84 232.59 426.59 233.43 427.74 233.43C428.56 233.43 429.08 232.82 429.08 232C429.08 231.18 428.59 230.71 427.65 230.17C426.89 229.73 426.39 229.47 425.97 229.13C425.38 228.64 425.08 228.07 425.08 227.35C425.08 225.8 426.18 225.03 427.97 225.03C428.95 225.03 429.52 225.25 429.98 225.51C430.08 226.12 430.12 226.8 430.12 227.48L430.11 227.49ZM444.95 225.23C445.03 225.84 445.1 227.14 445.12 227.45H444.66C444.52 226.83 444.39 226.44 444.26 226.25C444.03 225.9 443.78 225.72 442.67 225.72H442.21V232.02C442.21 233.32 442.26 233.24 443.36 233.4V233.74H439.39V233.4C440.52 233.26 440.54 233.26 440.54 232.02V225.72H440.09C439.52 225.72 439.21 225.76 439.01 225.84C438.51 226.03 438.35 226.34 438.1 227.45H437.64C437.68 226.68 437.73 225.93 437.81 225.23H444.98H444.95ZM452.13 233.93C451.65 233.93 451.27 233.56 451.27 233.07C451.27 232.61 451.66 232.21 452.13 232.21C452.6 232.21 452.99 232.61 452.99 233.07C452.99 233.56 452.59 233.93 452.13 233.93ZM466.27 231.09C465.87 231.5 465.39 231.92 464.85 232.4C465.96 232.64 467.7 232.68 468.85 232.75L468.44 233.74H462.64L462.5 233.39C463.79 232.59 464.67 231.83 465.34 231.05C466.2 230.04 466.62 229.02 466.62 228.01C466.62 226.84 465.99 226.02 465 226.02C464.34 226.02 463.8 226.46 463.39 227.37L462.94 227.06C463.57 225.75 464.53 225.12 465.87 225.12C467.21 225.12 468.23 226.01 468.23 227.36C468.23 228.51 467.69 229.66 466.3 231.08L466.27 231.09ZM478.52 233.93C476.68 233.93 475.58 232.53 475.58 229.85C475.58 228.3 475.88 227.13 476.43 226.34C476.98 225.54 477.83 225.13 478.83 225.13C480.71 225.13 481.77 226.52 481.77 229.12C481.77 232.18 480.79 233.94 478.52 233.94V233.93ZM479.86 232.48C480.08 231.88 480.17 231.01 480.17 229.69C480.17 226.98 479.65 225.63 478.57 225.63C478.07 225.63 477.65 226.02 477.42 226.9C477.25 227.51 477.18 228.37 477.18 229.53C477.18 232 477.71 233.43 478.77 233.43C479.26 233.43 479.63 233.12 479.87 232.48H479.86ZM156.59 90.7C157.22 89.93 157.75 89.28 158.12 88.82C158.78 91.33 159.48 93.84 160.07 96.38C160.25 97.15 160.1 97.99 160.1 98.8C159.97 98.85 159.85 98.89 159.72 98.94C157.93 97.59 156.14 96.23 154.27 94.82C153.68 95.86 153.03 96.76 152.66 97.76C152.51 98.15 152.85 98.87 153.18 99.27C155.31 101.88 157.59 104.38 159.64 107.05C161.02 108.85 161.62 111.04 161.69 113.32C161.7 113.64 161.47 113.97 161.35 114.29C161.01 114.12 160.57 114.02 160.35 113.75C159.87 113.15 159.64 112.09 159.06 111.89C157.53 111.35 156.93 110.58 156.92 108.89C156.92 107.98 155.88 107.16 154.57 106.68C154.62 107.6 154.65 108.33 154.69 109.14C153.18 109.17 153.17 107.71 152.89 106.94C152.61 106.17 153.15 105.1 153.27 104.49C152.43 103.49 151.69 102.4 150.73 101.55C150.08 100.97 149.13 100.73 148.31 100.34C148.18 101.15 147.94 101.96 147.96 102.76C147.97 103.33 148.33 103.9 148.51 104.47C148.65 104.89 148.76 105.31 148.89 105.73L148.56 105.94C147.29 104.86 146.02 103.79 144.76 102.72C143.22 104.05 143.06 105.04 144.21 106.53C146.14 109.04 148.14 111.51 150.1 114C152.96 117.63 154.85 121.77 156.4 126.17C158.27 125.45 160.1 124.74 162.15 123.96C161.83 125.03 161.61 125.9 161.28 126.73C161.18 126.98 160.79 127.22 160.5 127.26C159.94 127.34 159.36 127.27 158.78 127.27C157.34 127.27 156.76 127.98 157.04 129.47C157.37 131.21 157.74 132.95 158.13 134.68C158.88 137.98 159.88 141.25 160.36 144.59C160.72 147.08 160.52 149.66 160.4 152.2C160.28 154.76 160.07 157.33 159.7 159.86C159.04 164.3 158.45 168.76 157.44 173.12C155.59 181.08 152.61 188.65 148.94 195.97C147.48 198.87 145.34 201.18 143.19 203.49C138.73 208.27 133.81 212.54 128.52 216.38C127.21 217.33 125.84 218.2 124.5 219.1C124.75 220.17 125.45 220.42 126.53 219.73C128.68 218.36 130.81 216.94 132.95 215.55C134.34 214.64 135.72 213.7 137.13 212.82C137.66 212.49 138.28 212.33 138.86 212.09C138.96 212.23 139.06 212.38 139.16 212.52C137.13 214.3 135.14 216.13 133.05 217.83C131.24 219.3 129.32 220.64 127.43 222.02C126.61 222.62 127.11 223.27 127.26 223.95C127.36 224.39 127.3 224.86 127.32 225.31C126.88 225.13 126.41 224.98 126.01 224.74C125.56 224.47 125.15 224.12 124.7 223.79C118.29 227.33 111.81 230.71 103.86 230.94C104.41 230.36 104.74 229.8 105.24 229.52C107.23 228.42 109.45 228.13 111.67 227.98C115.06 227.74 117.79 226.06 120.4 224.12C121.5 223.3 122.52 222.36 123.58 221.47C123.15 220.51 122.75 220.11 121.55 220.62C117.5 222.36 113.43 224.05 109.26 225.47C105.83 226.63 102.28 227.47 98.74 228.27C96.93 228.68 95.03 228.63 93.18 228.9C91.43 229.16 89.69 229.54 87.96 229.92C87.69 229.98 87.3 230.32 87.29 230.55C87.18 232.29 86.89 234.07 87.15 235.76C87.47 237.83 88.43 238.42 90.49 238.24C91.89 238.12 93.3 237.89 94.64 237.51C95.93 237.14 96.01 236.72 95.37 235.57C94.8 234.55 94.24 233.52 93.67 232.5C95.81 230.89 96.68 231.51 97.29 233.29C98.25 236.05 98.23 236.01 101 235.35C107.76 233.74 114.41 231.79 120.85 229.13C121.14 229.01 121.51 229.11 121.85 229.11C121.89 229.24 121.94 229.36 121.98 229.49C121.1 230.18 120.24 230.91 119.32 231.55C114.41 234.93 108.88 236.71 103.12 238.02C99.16 238.92 95.27 240.14 91.35 241.26C88.19 242.16 84.99 242.07 81.77 241.72C80.56 241.59 79.34 241.53 78.12 241.45C74.27 241.2 70.41 240.95 66.56 240.7C59.62 240.25 53.29 238.1 47.66 233.86C48.41 232.9 49.2 232.61 50.43 233.08C52.65 233.94 54.95 234.59 57.21 235.33C58.4567 235.737 59.3433 235.273 59.87 233.94C55.94 232.26 52.02 230.56 48.08 228.91C47.11 228.5 45.97 229.58 46.17 230.64C46.33 231.45 46.5 232.25 46.67 233.07C46.49 233.08 46.43 233.1 46.41 233.08C43.86 231.28 43.9 231.29 44.69 228.42C44.97 227.39 44.97 226.29 45.12 225C45.23 225 45.7 225.02 46.17 225C47.07 224.96 47.41 224.4 46.89 223.64C46.56 223.16 46.06 222.78 45.57 222.44C41.82 219.81 38 217.29 34.33 214.57C31.78 212.68 29.44 210.52 27.02 208.49C26.24 209.07 25.5 209.71 24.66 210.17C24.45 210.29 23.93 209.84 23.41 209.58C24.29 208.78 25.04 208.11 25.95 207.29C24.71 205.69 23.41 204.2 22.31 202.56C19.76 198.75 17.36 194.84 14.8 191.05C13.86 189.66 12.61 188.47 11.52 187.2C11.52 186.49 11.71 185.63 11.49 184.9C9.67001 178.81 7.72002 172.76 5.91002 166.66C4.99002 163.56 4.47002 160.38 4.35002 157.11C4.21002 153.36 4.46001 149.68 5.12001 146C5.26001 145.23 5.14002 144.58 4.10002 144.46C3.15002 144.35 2.22001 144.04 1.27001 143.85C0.510006 143.7 0.510014 143.72 0.590014 142.73C2.29001 142.6 3.99003 142.47 5.54003 142.36C6.89003 138.07 8.12001 133.82 9.56001 129.64C12.31 121.66 16.16 114.22 21.27 107.5C23.58 104.46 26.17 101.6 28.88 98.92C31.25 96.58 33.92 94.54 36.55 92.49C37.29 91.91 37.45 91.48 37.03 90.72C36.74 90.18 36.48 89.63 36.21 89.08C35.44 87.46 34.46 87.37 33.23 88.79C32.36 89.8 31.5 90.83 30.59 91.8C28.15 94.42 25.65 97 23.23 99.65C21.31 101.75 19.48 103.94 17.55 106.16C17.2 105.88 16.93 105.67 16.47 105.31C21.5 98.49 27.35 92.54 33.57 86.94C33.08 85.39 32.25 84.96 30.79 85.85C29.34 86.73 27.86 87.71 26.77 88.97C23.46 92.77 20.3 96.71 17.12 100.63C12.35 106.5 9.04002 113.26 5.53002 119.9C4.40002 122.04 3.27002 124.18 2.07002 126.28C1.74002 126.86 1.16 127.29 0.550005 127.95C0.340005 125.89 0.280028 124.07 1.23003 122.36C4.29003 116.84 7.26003 111.27 10.42 105.81C12.39 102.42 14.48 99.07 16.79 95.91C20.29 91.13 24.57 87.08 29.38 83.6C29.89 83.23 30.35 82.81 30.89 82.37C29.24 80.44 27.66 78.6 25.99 76.66C23.92 78.63 21.89 80.53 19.9 82.47C17.35 84.95 14.86 87.51 12.26 89.94C11.44 90.71 11.3 91.31 11.93 92.2C12.2 92.58 12.33 93.05 12.66 93.77C10.48 93.43 8.82002 93.79 8.32002 96.19C8.86002 95.77 9.34001 95.4 9.84001 95.01C10.19 96.98 8.07002 100.33 5.32002 102.1C5.90002 100.89 6.40001 99.83 6.90001 98.78C6.78001 98.69 6.66003 98.59 6.54003 98.5C6.08003 99.06 5.63002 99.62 5.00002 100.4C4.71002 98.45 5.04003 96.85 5.89003 95.6C8.00003 92.48 10.08 89.28 12.66 86.57C16.27 82.76 20.3 79.36 24.16 75.79C24.55 75.43 24.96 75.1 25.4 74.72C24.56 73.93 23.85 73.27 23.07 72.53C18.3 76.83 13.56 81.1 8.69002 85.49C8.39002 83.48 8.59 81.84 10.11 80.51C13.64 77.42 17.15 74.3 20.67 71.2C20.92 70.98 21.19 70.8 21.39 70.65C20.73 68.94 19.62 68.2 17.83 68.15C16.97 68.13 16.11 68.15 15.25 68.1C14.76 68.07 14.29 67.94 13.78 67.86C13.49 66.62 13.89 65.59 14.48 64.52C15.79 62.17 17.85 60.69 20.04 59.25C27.75 54.18 35.69 49.58 44.62 47.01C51.66 44.98 58.72 43.05 65.81 41.23C67.63 40.76 69.59 40.78 71.49 40.67C73.33 40.56 75.17 40.52 77.01 40.55C78.3 40.57 78.93 40 79.14 38.78C79.19 38.49 79.38 38.22 79.52 37.91C79.71 38.02 79.89 38.07 79.9 38.14C80.32 40.47 82.15 40.88 84.04 41.12C85.85 41.35 87.68 41.47 89.62 41.65C89.49 39.81 91.67 38.37 90.62 36.09C88.62 37.77 86.54 36.42 84.51 36.38C82.29 36.34 80.09 35.85 77.87 35.72C73.68 35.48 69.48 35.31 65.28 35.23C62.4 35.18 59.65 35.69 56.92 36.85C53.86 38.15 50.57 38.94 47.36 39.87C41.32 41.63 35.29 43.37 29.83 46.68C27.21 48.27 24.34 49.46 21.59 50.83C21.42 50.91 21.2 50.91 20.95 50.96C20.66 49.49 21.44 48.54 22.46 47.85C24.13 46.71 25.9 45.72 27.68 44.64C27.3 44.18 26.91 43.66 26.48 43.18C25.27 41.84 25.1 41.01 26.43 39.77C27.86 38.43 29.49 37.2 31.22 36.29C36.54 33.53 42.33 32.17 48.17 31.05C52.01 30.32 55.85 29.6 59.69 28.89C60.05 28.82 60.43 28.87 60.79 28.83C61.89 28.73 62.21 28.38 62.32 27.14C57.27 28.03 52.23 28.9 47.2 29.81C42.16 30.72 37.12 31.68 31.86 32.65C32.83 30.17 34.68 29.21 36.8 28.87C41.46 28.11 46.15 27.52 50.82 26.87C53.78 26.46 56.74 26.05 59.7 25.64C60.64 25.51 61.78 24.28 61.94 23.31C62.1 22.37 61.47 22.13 60.8 22.19C59.43 22.31 58.08 22.56 56.72 22.78C52.58 23.47 48.45 24.2 44.31 24.85C41.83 25.24 39.34 25.55 37.14 26.9C36.87 27.07 36.56 27.19 36.26 27.3C36.16 27.34 36.03 27.27 35.83 27.24C36.38 25.69 37.62 24.99 39.01 24.69C42.76 23.87 46.53 23.17 50.3 22.44C53.79 21.77 57.29 21.12 60.78 20.47C60.78 20.36 60.78 20.24 60.78 20.13C59.51 19.99 58.23 19.63 56.99 19.74C54.02 20.02 51.06 20.48 48.11 20.93C45.73 21.3 43.48 22.47 40.98 22.15C40.71 22.12 40.43 22.09 39.96 22.04C40.83 20.74 42.03 20.1 43.26 19.78C45.75 19.14 48.3 18.7 50.84 18.26C52.83 17.92 54.84 17.67 56.85 17.43C58.34 17.25 59.84 17.11 61.33 17.02C64.42 16.83 67.52 16.7 70.61 16.5C72.23 16.4 73.85 16.12 75.47 16.07C76.81 16.03 78.15 16.23 79.5 16.27C82.73 16.37 85.96 16.38 89.18 16.57C89.91 16.61 90.61 17.23 91.51 17.69C90.27 18.79 89.05 19.05 87.96 18.88C83.36 18.17 78.74 17.78 74.1 18C70.87 18.15 67.65 18.61 64.44 18.96C64.09 19 63.75 19.2 63.4 19.32C63.42 19.44 63.44 19.57 63.46 19.69H72.13C69.84 21.96 66.81 21.24 64.18 22C64.15 22.12 64.12 22.23 64.09 22.35C64.81 22.54 65.59 23 66.25 22.87C70.54 22.03 74.86 22.38 79.16 22.49C82.11 22.56 85.06 23.05 88.01 23.38C89.01 23.49 89.73 23.47 90.14 22.26C91.07 19.52 92.34 16.88 93.14 14.1C93.53 12.76 93.09 11.2 93.16 9.75001C93.21 8.67001 93.26 7.52001 93.68 6.55001C94.52 4.60001 94.2 2.69001 93.86 0.670006C94.35 0.550006 94.81 0.370006 95.27 0.350006C95.52 0.350006 95.97 0.590005 96 0.780006C96.33 2.85001 98.06 3.09001 99.58 3.48001C103.01 4.36001 106.51 4.97001 109.89 5.98001C113.04 6.92001 114.02 7.69001 115.22 9.21001C114.07 9.16001 113.17 9.26001 112.34 9.05001C108.05 8.00001 103.78 6.89001 99.51 5.78001C97.2 5.18001 96.33 5.48001 95.52 7.52001C97.65 7.82001 99.7 8.24001 101.76 8.37001C104.27 8.53001 106.63 9.06001 108.76 10.44C108.93 10.55 109.1 10.67 109.31 10.81C108.13 11.46 107.08 11.46 105.12 10.97C103.44 10.55 101.75 10.14 100.04 9.81001C99.43 9.69001 98.77 9.76001 98.15 9.86001C97.08 10.04 96.03 10.31 94.97 10.54C94.92 10.68 94.88 10.81 94.83 10.95C95.54 11.25 96.23 11.75 96.96 11.81C98.08 11.9 99.22 11.67 100.36 11.61C102.97 11.49 105.36 12.38 107.8 13.26C106.77 13.86 103.89 14.08 102.63 14.02C100.33 13.91 98.02 13.98 95.71 14.08C95.3 14.1 94.92 14.64 94.52 14.93C94.58 15.05 94.63 15.18 94.69 15.3C98.09 15.3 101.52 15.07 104.9 15.35C110.68 15.82 116.31 17.21 121.87 18.84C123.42 19.3 124.98 19.75 126.53 20.22C128.26 20.74 129.67 21.7 130.67 23.22C130.8 23.41 130.99 23.67 130.95 23.85C130.58 25.33 131.62 25.94 132.59 26.62C133.25 27.08 133.93 27.53 134.52 28.07C134.72 28.25 134.78 28.72 134.7 29.01C134.66 29.15 134.12 29.32 133.91 29.23C132.55 28.68 131.25 28.58 130.07 29.64C129.91 29.41 129.78 29.32 129.78 29.22C129.78 27.54 128.59 27.23 127.27 26.74C120.09 24.05 112.7 22.12 105.18 20.72C101.89 20.11 98.54 19.82 95.21 19.38C95.15 19.51 95.09 19.65 95.02 19.78C95.51 20.08 95.97 20.57 96.5 20.66C100.73 21.37 104.99 21.96 109.22 22.69C111.03 23 112.82 23.52 114.36 25.13C110.18 24.37 106.29 23.49 102.36 23.01C99.24 22.63 96.05 22.75 92.89 22.67C92.64 22.67 92.39 22.87 91.9 23.08C92.4 23.42 92.72 23.8 93.08 23.85C94.17 24.01 95.28 24.17 96.37 24.11C99.66 23.92 102.82 24.52 105.99 25.33C113.29 27.19 120.63 28.9 127.91 30.8C131.07 31.63 134.15 32.75 137.24 33.81C139.19 34.48 140.29 35.95 140.72 37.99C138.38 38.51 136.42 37.68 134.53 36.57C132.12 35.16 132.86 35.03 130.48 36.9C133.52 37.98 136.48 39.05 139.45 40.1C140.25 40.39 141.09 40.59 141.84 40.97C142.3 41.21 142.69 41.66 143.01 42.1C144.15 43.67 145.24 45.27 146.42 46.95C145.44 47.8 144.53 48.6 143.53 49.47C145.86 51.92 149.69 53 150.4 57.26C148.54 56.06 146.89 55 145.25 53.94C144.98 53.76 144.72 53.55 144.45 53.38C142.76 52.33 141.46 52.62 140.52 54.35C140.39 54.59 140.61 55.17 140.85 55.45C142.85 57.83 145.54 59.32 148.09 60.98C149.31 61.78 150.56 62.55 151.71 63.44C153.48 64.79 153.71 65.38 153.62 67.58C148.82 64.36 144.09 61.18 139.34 57.99C138.93 59.24 138.7 60.51 138.11 61.56C137.52 62.59 136.55 63.4 135.71 64.37C138.74 66.46 141.81 68.55 144.85 70.69C148.06 72.96 151.21 75.32 154.42 77.58C156.27 78.88 157.18 80.72 157.78 82.8C157.98 83.49 158.15 84.18 158.44 85.29C157.74 84.97 157.31 84.85 156.98 84.61C152.29 81.08 147.6 77.54 142.92 73.99C140.55 72.2 138.19 70.4 135.76 68.56C134.98 69.55 134.23 70.5 133.46 71.47C141.26 77.65 149.63 83.06 156.6 90.69L156.59 90.7ZM80.57 198.89C80.39 200.02 80.25 200.9 78.93 200.62C74.51 199.7 70.04 198.99 65.68 197.86C60.4 196.48 55.65 194.01 51.7 190.1C48.8 187.24 46.44 184.01 44.43 180.5C42.72 177.51 41.12 174.47 39.41 171.34C38.22 172.1 37.05 172.86 35.65 173.75C37.68 177.48 39.56 181.2 41.7 184.76C44.97 190.23 49.37 194.65 54.77 198.06C55.75 198.68 56.7 199.32 57.67 198.06C57.79 197.91 58.05 197.87 58.44 197.68C58.38 198.5 58.33 199.12 58.28 199.85C66.56 202.4 74.96 203.88 83.84 202.76C83.3 199.09 82.77 195.47 82.25 191.94C79.95 191.66 77.73 191.49 75.54 191.1C69.22 189.98 63.63 187.08 58.2 183.82C57.33 183.3 55.94 183.05 56.46 181.44C56.5 181.32 56.26 181.11 56.14 180.95C55.76 180.43 55.34 179.94 55.01 179.39C53.21 176.36 51.43 173.32 49.67 170.28C49.05 169.2 48.14 168.15 47.95 166.98C47.37 163.34 47.04 159.67 46.67 156C46.42 153.5 45.97 151.07 44.73 148.7C46.64 148.01 46.89 146.33 47.13 144.69C48.08 138.21 50.91 132.64 55.5 128.04C60.94 122.57 67.45 118.9 74.97 117.08C79.13 116.07 83.37 115.89 87.56 116.67C93.78 117.83 99.23 120.72 104.18 124.59C106.54 126.43 108.85 128.34 111.17 130.21C116.33 126.12 116.59 126.19 116.58 124.5C115.75 124.61 114.7 125.1 114.15 124.76C113.17 124.17 112.24 123.19 111.77 122.15C111.32 121.17 110.74 120.43 109.96 119.82C104.76 115.74 99.06 112.58 92.65 110.81C90.64 110.26 88.6 109.52 86.46 110.16C85.63 110.41 84.88 110.89 84 111.3C83.82 110.95 83.59 110.57 83.43 110.17C83.09 109.31 82.61 108.92 81.56 108.85C78.76 108.69 76.15 109.37 73.62 110.36C69.26 112.08 64.98 113.99 60.65 115.77C59.15 116.39 58.41 117.57 57.94 119C57.35 120.77 57.29 120.79 55.68 119.77C55.56 119.7 55.46 119.6 55.36 119.52C54.52 120.22 53.75 120.83 53.03 121.48C50.63 123.66 47.78 125.47 46.93 128.92C46.84 129.3 46.54 129.63 46.32 129.97C45.35 131.46 44.08 132.82 43.47 134.44C41.9 138.57 40.62 142.81 39.19 147.12C40.62 147.56 41.73 147.87 42.81 148.26C43.08 148.36 43.36 148.74 43.42 149.03C43.45 149.19 43.09 149.53 42.83 149.64C41.92 150.05 40.97 150.39 40.06 150.75C40.25 152.6 40.84 154.3 40.25 156.15C38.8 160.76 40.19 165.18 41.32 169.69C42.86 169.33 44.33 168.99 45.79 168.65C45.88 168.8 45.97 168.94 46.06 169.09C44.88 170.05 43.7 171.02 42.52 171.98C42.57 172.11 42.61 172.28 42.7 172.41C43.38 173.48 43.94 174.66 44.8 175.55C45.26 176.03 45.34 176.33 45.33 176.93C45.32 177.68 45.36 178.57 45.74 179.16C48.63 183.63 52.24 187.48 56.28 190.92C57 191.54 57.66 192.54 58.88 192.26C60.27 191.93 60.79 192.84 61.33 193.84C61.52 194.2 61.91 194.6 62.28 194.69C65.89 195.55 69.52 196.35 73.14 197.17C75.58 197.72 78.02 198.27 80.53 198.84L80.57 198.89ZM85.1 160.16C85.18 159.87 85.18 159.76 85.24 159.67C85.47 159.29 85.69 158.9 85.97 158.55C87.73 156.28 88.99 153.81 88.71 150.84C88.6 149.65 88.66 148.32 87.34 147.38C86.85 148.17 86.38 148.83 86 149.53C84.58 152.11 83.19 154.71 81.8 157.31C81.72 157.46 81.66 157.67 81.69 157.84C82.02 159.79 82.41 161.72 82.7 163.67C82.89 164.96 83.35 166.4 82.98 167.55C82.13 170.17 82.14 172.81 82.39 175.42C82.75 179.23 83.5 183.01 84.04 186.8C84.37 189.12 85.44 189.89 87.73 189.26C88.69 188.99 89.58 188.43 90.55 188.19C94.26 187.25 97.76 185.79 101.03 183.81C108.85 179.07 114.09 172.31 116.73 163.54C116.95 162.82 116.98 162.13 116.23 161.65C115.65 161.28 115.08 160.9 114.51 160.53C114.64 160.34 114.78 160.15 114.91 159.96C115.42 159.91 115.94 159.93 116.42 159.79C116.8 159.68 117.39 159.43 117.43 159.17C117.8 156.88 118.2 154.56 117.26 152.33C116.56 150.68 116.89 150.56 114.96 151.36C114.52 151.54 114.06 151.68 113.58 151.84C113.4 154.75 113.2 157.63 113.07 160.51C113.03 161.34 113.02 162 112.08 162.35C111.75 162.48 111.51 162.99 111.35 163.37C110.72 164.81 110.23 166.32 109.5 167.71C107.22 172.01 104.05 175.61 100.37 178.75C97.99 180.77 95.44 182.54 92.4 183.5C90.76 184.02 89.14 184.29 87.13 183.34C88.08 182.62 88.75 181.88 89.58 181.53C91.59 180.69 93.69 180.08 95.72 179.28C99.19 177.91 102.63 176.33 104.53 172.92C106.35 169.65 107.85 166.19 109.43 162.78C110.06 161.43 110.79 160.04 111 158.6C111.27 156.71 111.12 154.76 111.03 152.84C111 152.31 110.65 151.67 110.25 151.3C109.66 150.76 108.89 150.43 108.2 150.01C107.39 149.52 106.76 149.88 106.34 150.54C106.02 151.04 105.81 151.64 105.72 152.23C105.45 154.14 105.25 156.06 105.02 158.08C105.71 158.23 106.35 158.31 106.96 158.5C107.53 158.68 108.14 158.86 108.58 159.22C108.99 159.56 109.2 160.13 109.63 160.81C107.99 160.61 106.74 160.63 105.62 160.26C104.39 159.86 104.08 160.38 103.74 161.36C101.82 166.91 98.41 171.25 93.25 174.14C90.99 175.41 88.71 176.6 85.84 175.9C87.45 173.79 89.5 172.39 91.9 171.73C95.02 170.87 97.17 168.95 98.84 166.33C99 166.09 98.95 165.56 98.78 165.29C98.22 164.4 97.54 163.58 96.96 162.69C96.82 162.48 96.77 162.07 96.89 161.88C97.28 161.24 97.77 160.67 98.43 159.8C99.15 161.39 99.74 162.7 100.41 164.18C101.44 161.64 102.63 159.45 102.89 156.8C103.33 152.27 102.99 147.98 100.54 144.04C99.67 142.63 98.68 141.27 97.58 140.04C96.72 139.07 96.02 139.37 95.47 140.53C94.87 141.8 94.94 143 95.47 144.24C95.9 145.24 96.25 146.28 96.72 147.26C97.83 149.56 98.1 151.79 97.15 154.3C96.01 157.31 95.33 160.5 93.13 163.02C92.18 164.11 91.07 164.92 89.37 165.1C90 164.34 90.45 163.72 90.98 163.17C93.48 160.6 95.45 157.72 96.26 154.17C96.67 152.39 97.11 150.53 96.13 148.84C95.28 147.38 94.3 145.95 93.15 144.72C91.44 142.89 92.12 143.06 89.85 144.06C88.99 144.44 88.77 144.92 89.2 145.77C90.37 148.06 90.85 150.46 90.46 153.04C89.96 156.31 88.04 158.46 85.14 160.15L85.1 160.16ZM44.86 99.41C49.02 96.77 52.96 94 57.14 91.69C60.77 89.69 64.6 87.98 68.5 86.59C71.58 85.49 74.9 85.02 78.13 84.34C81.1 83.72 84.14 83.81 87.11 84.22C90.05 84.62 92.94 85.4 95.84 86.11C100.95 87.36 105.95 88.91 110.7 91.23C114.44 93.05 117.84 95.38 121 98.06C125.29 101.69 129.85 105.02 133.5 109.3C135 107.75 136.62 106.09 138.32 104.34C137.79 103.68 137.25 102.73 136.47 102.06C134.01 99.96 131.47 97.93 128.93 95.92C122.16 90.6 115.14 85.67 107.26 82.08C100.68 79.08 93.91 77.01 86.57 77.21C83.74 77.29 83.75 77.22 83.28 80.04C83.11 81.06 82.65 81.86 81.47 81.86C81.34 80.04 81.22 78.27 81.07 76.21C77.21 76.53 73.49 76.57 69.86 77.19C64.63 78.08 59.89 80.42 55.4 83.17C51.16 85.78 46.98 88.5 42.82 91.23C41.94 91.81 41.19 92.61 40.41 93.28C42.03 95.51 43.48 97.5 44.88 99.42L44.86 99.41ZM50.02 149.23C49.72 149.93 48.94 150.91 48.94 151.9C48.92 154.82 48.92 157.8 49.44 160.67C50.77 168.02 54.06 174.47 59.22 180.05C60.12 179.54 61.01 179.04 61.87 178.56C60.41 176.85 58.99 175.28 57.69 173.62C56.15 171.64 55.22 169.07 55.51 167.7C56.91 169.28 58.31 170.71 59.54 172.27C61.32 174.52 63.12 176.69 65.55 178.31C69.14 180.7 73.16 181.76 77.32 182.48C78.91 182.76 79.79 183.49 80.09 184.89C79.97 184.89 79.84 184.92 79.72 184.92C74.44 184.57 69.45 183.12 64.77 180.73C63.25 179.96 62.28 180.4 61.18 181.27C62.42 182.8 65.96 185.18 68.15 185.92C72.72 187.47 77.29 188.99 82.01 190.57C81.71 187.2 81.39 183.9 81.12 180.59C80.85 177.35 80.56 174.11 80.41 170.86C80.36 169.82 80 169.61 79.09 169.67C76.55 169.83 74.17 169.17 71.95 167.99C70.12 167.02 68.26 165.89 67.53 163.85C66.42 160.77 65.45 157.63 64.7 154.45C64.27 152.66 63.31 151.96 61.65 151.7C60.99 151.59 60.55 151.77 60.51 152.34C60.38 154.11 60.06 155.95 60.37 157.65C60.8 160.01 61.7 162.3 62.47 164.59C63.7 168.26 66.06 170.89 69.73 172.23C72.27 173.16 74.83 174.04 77.37 174.97C78.13 175.25 79.35 175.39 79.09 176.47C78.81 177.61 77.56 177.23 76.66 177.27C76.62 177.27 76.58 177.25 76.54 177.24C72.71 176.39 69.1 175.04 66.06 172.46C65.28 171.8 64.53 171.36 63.51 172.11C63.15 172.38 62.54 172.32 61.78 172.46C61.98 171.58 62.01 170.9 62.29 170.37C62.73 169.54 62.59 168.88 62.17 168.11C59.44 163.04 57.67 157.75 58.23 151.86C58.58 148.2 59.7 144.81 61.72 141.79C63.32 139.4 65.2 137.21 67.06 134.79C66.18 133.73 65.17 132.52 63.95 131.04C62.44 132.44 60.73 133.59 59.61 135.16C57.74 137.78 56.25 140.67 54.6 143.45C54.31 143.94 53.99 144.43 53.68 144.91C53.54 144.88 53.41 144.84 53.27 144.81C53.24 144.43 53.12 144.02 53.19 143.66C53.89 140.14 55.73 137.22 58.06 134.57C59.64 132.77 61.18 130.94 62.72 129.15C62.4 128.53 62.16 128.02 61.87 127.54C61.29 126.6 60.72 126.51 59.94 127.27C58.82 128.34 57.68 129.4 56.66 130.56C52.7 135.03 50.39 140.26 49.66 146.17C49.55 147.11 49.88 148.1 50.03 149.24L50.02 149.23ZM13.91 144.46C14.03 145.24 13.89 145.63 13.01 145.46C12.33 145.33 11.62 145.31 10.93 145.35C9.47001 145.42 8.38002 146.15 8.10002 147.28C7.05002 151.65 6.92003 156.11 7.67003 160.5C8.29003 164.15 9.26 167.75 10.3 171.3C11.5 175.42 12.91 179.48 14.28 183.55C14.83 185.19 16 185.64 17.44 184.75C18.54 184.07 19.54 183.22 20.53 182.39C20.75 182.2 20.89 181.71 20.82 181.42C19.66 176.43 18.51 171.43 17.24 166.47C15.81 160.88 14.39 155.31 15.22 149.47C15.64 146.56 15.97 143.62 16.64 140.76C18.36 133.43 21.59 126.72 25.73 120.49C28.49 116.33 31.41 112.25 34.64 108.46C37 105.69 39.98 103.44 42.72 101C43.22 100.55 43.3 100.14 42.91 99.67C41.38 97.85 39.82 96.05 38.28 94.25C21.24 106.26 12.84 123.19 8.55 142.73C10.43 143.34 12.18 143.9 13.91 144.46ZM82.11 72.83C85.42 73.33 88.56 73.82 91.7 74.28C96.81 75.04 101.69 76.58 106.35 78.81C110.46 80.78 114.58 82.74 118.67 84.77C120.48 85.66 122.34 86.53 123.96 87.69C126.2 89.3 128.25 91.18 130.37 92.95C133.75 95.77 137.11 98.61 140.51 101.4C140.78 101.62 141.31 101.69 141.67 101.61C143.99 101.1 145.4 99.19 147.6 97.81C146.81 97.16 146.24 96.64 145.62 96.17C141.99 93.44 138.36 90.72 134.72 88C132.6 86.42 130.49 84.82 128.33 83.29C127.2 82.49 126.73 82.65 126.18 83.77C127.7 85.03 129.22 86.28 130.76 87.55C129.57 88.47 127.1 87.69 122.56 85.02C123.24 83.76 123.92 82.5 124.63 81.17C123.4 80.06 122.3 78.9 121.03 77.96C118.04 75.75 115.11 73.4 111.88 71.58C109.65 70.31 107 69.7 104.48 69.02C99.78 67.77 95.08 66.45 90.14 66.62C89.05 66.66 88.31 66.92 88.43 68.23C88.46 68.61 88.35 69.05 88.17 69.4C88.03 69.67 87.69 69.84 87.45 70.05C87.31 69.8 87.05 69.55 87.04 69.29C86.99 68.31 87.09 67.32 86.98 66.35C86.94 66.01 86.51 65.51 86.18 65.44C81.56 64.41 76.87 64.38 72.22 64.97C67.52 65.57 62.97 66.91 58.56 68.68C57.05 69.28 55.57 69.93 53.79 70.68C54.93 71.33 55.72 72.06 56.6 72.2C57.54 72.34 58.58 71.97 59.56 71.73C60.84 71.42 62 71.38 63.23 72.07C65.12 73.12 67.22 73.6 69.4 73.56C73.24 73.49 77.08 73.4 80.91 73.31C81.03 73.31 81.14 73.26 81.38 73.2C81.53 71.35 81.69 69.47 81.85 67.56C84.71 69.11 82.9 70.92 82.12 72.85L82.11 72.83ZM143.28 197.78C142.03 196.7 140.78 195.62 139.53 194.55C139.6 194.43 139.67 194.3 139.74 194.18C141.59 193.74 142.41 195.82 143.95 196.2C144.03 196.13 144.14 196.07 144.21 195.98C147.71 191.35 150.32 186.26 152.03 180.71C152.11 180.45 151.96 179.9 151.75 179.8C149.82 178.82 147.85 177.92 145.87 176.98C145.63 177.83 145.44 178.53 145.22 179.22C143.47 184.79 140.99 190.01 137.58 194.74C135.31 197.88 132.59 200.67 129.47 202.97C126.18 205.4 122.82 207.78 119.32 209.88C114.72 212.64 109.74 214.55 104.44 215.54C100.44 216.29 96.45 217.09 92.45 217.84C90.8 218.15 89.14 218.38 87.54 218.64V225.83C99.25 224.6 110.45 221.82 121.23 217.18C120.41 215.49 119.16 214.18 119.49 212.14C120.76 213.48 122.03 214.81 123.29 216.14C131.54 211.78 137.15 204.63 143.3 197.78H143.28ZM64.42 128.12C65.53 127.49 66.51 126.91 67.49 126.37C70.81 124.53 74.29 123.32 78.16 123.73C78.65 123.78 79.11 124.15 79.58 124.37C79.15 124.63 78.76 125.01 78.3 125.14C76.94 125.52 75.54 125.76 74.17 126.14C71.14 126.98 68.25 128.1 66 130.54C66.61 131.6 67.17 132.63 67.81 133.61C68 133.9 68.45 134.22 68.77 134.21C69.97 134.17 71.95 131.85 72.03 130.63C72.08 129.8 72.32 128.98 72.48 128.16C73.05 128.74 73.58 129.36 74.21 129.87C74.68 130.25 75.26 130.72 75.8 130.73C78.34 130.77 80.89 130.56 83.44 130.62C86.55 130.69 89.4 131.73 91.97 133.44C95.28 135.64 98.51 137.95 101.73 140.18C102.55 139.67 103.31 139.2 104.05 138.74C105.28 140.3 105.25 140.58 103.71 141.78C103.13 142.24 102.76 142.7 103.17 143.54C103.69 144.59 104.03 145.72 104.49 146.8C104.93 147.82 105.85 148.21 106.85 148.25C107.51 148.27 108.21 148.06 108.83 147.79C109.17 147.64 109.59 147.16 109.59 146.83C109.58 143.21 108.39 140.11 105.44 137.82C105.22 137.65 105.09 137.34 104.96 137.08C104.76 136.67 104.67 136.16 104.39 135.82C103.33 134.53 102.13 133.35 101.13 132.02C100.29 130.91 99.44 130.44 98.16 131.19C98.12 131.21 98.02 131.13 97.8 131.03C98.23 129.8 97.35 129.29 96.42 128.78C96.14 128.63 95.81 128.38 95.74 128.11C95.64 127.76 95.68 127.29 95.84 126.98C95.92 126.83 96.5 126.81 96.76 126.93C97.78 127.42 98.89 127.83 99.73 128.55C101.69 130.22 103.53 132.02 105.37 133.81C107.98 136.34 110.28 139.1 111.56 142.59C112.08 144.01 112.38 145.63 113.91 146.42C114.35 146.65 114.93 146.89 115.35 146.77C115.59 146.7 115.74 145.93 115.75 145.48C115.89 141.71 113.9 138.79 111.85 135.89C111.02 134.72 110.14 133.86 108.58 134.49C108.55 134.5 108.47 134.39 108.3 134.25C109.62 132.35 108.2 131.25 107 130.08C103.38 126.56 99.31 123.7 94.6 121.87C90.09 120.12 85.46 118.82 80.55 119.04C79.1 119.11 77.65 119.3 76.21 119.53C72.52 120.11 68.95 121.13 65.74 123.07C64.77 123.66 64.01 124.63 63.23 125.5C63.05 125.7 63.08 126.27 63.23 126.55C63.53 127.11 63.99 127.59 64.42 128.15V128.12ZM127.97 165.81C126.04 169.96 124.36 174.08 122.26 177.97C119.81 182.51 116.54 186.43 112.42 189.64C108.83 192.44 104.93 194.53 100.55 195.72C99.08 196.12 97.62 196.57 96.14 196.91C95.85 196.98 95.47 196.65 95.14 196.5C95.41 196.32 95.66 196.07 95.96 195.97C97.4 195.5 98.71 194.96 99.69 193.64C100.4 192.67 101.53 192.26 102.84 192.77C103.29 192.94 104.04 192.95 104.38 192.68C106.52 190.99 108.64 189.27 110.64 187.42C114.51 183.84 117.89 179.82 120.41 175.18C122.13 172.01 123.57 168.68 125.14 165.39C123.06 164.33 121.3 163.43 119.52 162.52C119.38 162.85 119.25 163.1 119.15 163.36C119.06 163.58 118.99 163.82 118.92 164.05C116.29 171.75 112.38 178.59 105.8 183.67C100.29 187.92 94.13 190.38 87.16 190.79C85.66 190.88 84.71 191.79 84.76 193.27C84.79 194.19 84.99 195.1 85.14 196.02C85.29 196.96 85.87 197.34 86.78 197.22C88.11 197.04 89.43 196.83 90.75 196.64C91.86 196.48 92.45 196.82 92.73 197.99C90.41 198.18 88.12 198.37 85.82 198.57C85.73 198.86 85.6 199.2 85.52 199.55C85.24 200.92 86.67 202.29 88.02 201.99C90.14 201.52 92.26 201.09 94.39 200.64C97.67 199.95 100.96 199.3 103.78 197.3C104.03 197.12 104.38 197.08 104.68 196.98C105.9 196.59 107.2 196.33 108.34 195.77C109.93 194.98 111.44 194 112.92 193.02C114.84 191.75 116.96 190.64 118.54 189.02C120.54 186.98 122.15 184.55 123.83 182.21C126.91 177.92 128.65 172.95 130.84 168.2C130.95 167.97 130.74 167.4 130.51 167.25C129.64 166.68 128.69 166.21 127.95 165.8L127.97 165.81ZM115.28 206.75C116.67 207.2 117.82 206.62 118.94 206.19C122.67 204.76 125.49 202.07 128.21 199.27C132.67 194.68 136.93 189.94 139.89 184.2C141.84 180.42 143.3 176.49 143.27 172.17C143.27 170.87 143.39 169.74 144.31 168.69C144.88 168.04 145.18 167.13 145.48 166.3C147.26 161.33 147.7 156.17 147.44 150.94C147.4 150.03 147.08 149.13 146.8 148.25C146.71 147.98 146.34 147.63 146.08 147.62C145.48 147.59 144.84 147.65 144.28 147.85C143.89 147.99 143.35 148.39 143.31 148.73C142.91 151.99 142.69 155.28 142.25 158.54C141.8 161.82 141.38 165.14 140.52 168.32C139.8 170.99 138.35 173.45 137.39 176.06C134.89 182.88 131.01 188.81 125.95 193.95C121.79 198.17 116.99 201.58 111.73 204.33C105.98 207.34 99.91 209.42 93.5 210.47C91.75 210.76 89.97 210.91 88.22 211.22C86.76 211.48 86.85 212.72 87 213.74C87.16 214.82 86.92 216.22 88.42 216.68C88.61 216.74 88.83 216.75 89.03 216.72C92.2 216.26 95.43 216.04 98.53 215.27C103.97 213.91 108.91 211.22 113.92 208.76C114.8 208.33 115.35 207.77 115.27 206.76L115.28 206.75ZM135.28 110.88C135.68 111.47 135.97 112.06 136.4 112.52C139.2 115.44 141.48 118.74 143.4 122.28C148.06 130.88 150.04 140.19 150.35 149.88C150.45 153.08 150.17 156.3 149.87 159.5C149.61 162.27 149.18 165.03 148.66 167.76C148.15 170.43 147.42 173.06 146.78 175.75C148.92 176.49 151.05 177.23 153.22 177.98C153.31 177.74 153.37 177.59 153.43 177.44C156.11 170.59 157.69 163.53 157.54 156.14C157.49 153.63 157.26 151.11 157.06 148.6C156.97 147.43 156.36 146.15 156.69 145.15C157.07 143.99 156.79 143.07 156.62 142.04C156.44 140.92 156.27 139.81 156.08 138.69C155.58 135.74 155.08 132.8 153.82 130.03C153.3 128.9 152.76 128.71 151.68 129.24C150.86 129.64 149.94 129.89 149.04 130.03C148.51 130.11 147.85 129.8 148.42 129.08C149.2 128.09 149.94 126.91 151.56 127.38C151.8 127.45 152.09 127.33 152.33 127.3C153.4 123.24 144.24 109.83 139.49 107.81C138.16 108.79 136.82 109.77 135.3 110.88H135.28ZM17.28 65.07C18.9 65.4 20.26 65.62 21.58 65.97C22.39 66.18 23.13 66.64 23.94 66.89C24.28 66.99 24.8 66.96 25.08 66.76C27.84 64.84 30.79 63.31 33.88 61.98C43.39 57.89 52.97 54.03 63.05 51.54C68.97 50.08 74.97 49.14 81.07 49.25C83.67 49.3 86.27 49.69 88.99 49.93C89.3 48.03 89.64 45.98 90 43.79C89.34 43.79 88.81 43.78 88.29 43.79C85.64 43.85 82.99 43.94 80.34 43.98C77.25 44.02 74.14 43.8 71.07 44.09C67.71 44.41 64.37 45.12 61.05 45.78C53.47 47.29 45.94 48.94 38.71 51.8C32.21 54.37 26.29 57.91 20.78 62.17C19.58 63.09 18.45 64.1 17.27 65.07H17.28ZM52.49 112.02C53.44 111.46 54.32 110.96 55.17 110.43C58.95 108.08 62.59 105.48 66.51 103.41C74.12 99.39 82.23 98.9 90.55 100.77C96.34 102.07 101.77 104.32 106.83 107.38C110.14 109.39 113.31 111.66 116.41 113.98C118.82 115.77 121.03 117.82 123.44 119.84C124.01 118.87 124.6 117.95 125.07 116.98C125.21 116.68 125.18 116.07 124.97 115.86C123.07 114.02 121.27 112.04 119.15 110.5C115.56 107.88 111.76 105.53 108.04 103.09C104.44 100.73 100.71 98.6 96.54 97.47C93.51 96.65 90.41 96.12 87.35 95.42C85.24 94.94 83.43 95.16 82.29 97.27C82.23 97.39 82.05 97.45 81.84 97.6C81.59 96.51 81.37 95.51 81.17 94.62C69.42 96.58 58.45 99.98 50.07 109.06C50.86 110.03 51.65 111 52.49 112.02ZM137.53 57.05C134.48 55.6 131.51 54.46 128.82 52.82C125.45 50.77 121.81 49.5 118.07 48.48C114.3 47.45 110.5 46.49 106.65 45.84C103.14 45.25 99.56 44.99 96 44.83C94.96 44.78 93.44 44.48 92.83 45.99C92.28 47.34 91.78 48.7 91.21 50.18C93.06 50.46 94.82 50.67 96.56 51C101.52 51.94 106.48 52.88 111.42 53.91C116.45 54.96 121.44 56.24 126.02 58.6C128.87 60.07 131.5 61.98 134.33 63.75C135.32 61.68 136.41 59.4 137.53 57.04V57.05ZM83.03 92.69C96.63 93.16 107.99 99.05 118.52 106.7C119.3 106.26 119.92 105.9 120.52 105.56C120.66 106.39 120.52 107.35 120.94 107.84C123.16 110.43 125.52 112.89 127.89 115.47C129.03 113.84 130.06 112.36 131.17 110.78C128.59 108.35 126.17 105.98 123.67 103.72C120.41 100.77 116.76 98.34 112.92 96.21C105.03 91.85 96.54 89.16 87.69 87.6C86.48 87.39 85.21 87.53 83.97 87.58C83.74 87.58 83.35 87.93 83.33 88.15C83.19 89.63 83.13 91.13 83.03 92.7V92.69ZM34.75 147.82C35.39 147.3 35.78 147.04 36.08 146.72C36.37 146.41 36.75 146.05 36.81 145.66C37.46 141.34 38.79 137.24 40.82 133.38C43.34 128.58 46.67 124.4 50.83 120.9C52.07 119.85 53.27 118.76 54.49 117.69C54.22 117.05 53.91 116.47 53.73 115.86C53.42 114.81 52.79 115.05 52.16 115.43C51.85 115.61 51.64 115.95 51.37 116.19C49.63 117.71 47.84 119.19 46.15 120.76C44.03 122.73 41.69 124.55 39.96 126.82C35.7 132.41 32.41 138.52 31.74 145.81C32.52 146.25 33.31 146.7 34.22 147.21C33.58 147.59 33.09 147.98 32.54 148.2C31.8 148.49 31.63 148.96 31.66 149.7C31.77 152.67 31.78 155.65 31.93 158.61C32.17 163.26 33.39 167.7 35 172.16C36.48 171.32 37.93 170.49 39.29 169.71C38.77 168.22 38.26 166.95 37.87 165.64C36.55 161.25 36.58 156.73 36.63 152.21C36.65 150.6 36.98 148.87 34.77 147.83L34.75 147.82ZM93.64 135.57C89.84 134.07 86.11 132.52 82.07 132.09C79.62 131.83 77.25 132.39 75.94 134.71C75.25 135.93 74.42 135.81 73.42 135.66C72.91 135.58 72.39 135.42 71.92 135.2C71.13 134.83 70.56 134.87 70.11 135.73C69.87 136.18 69.53 136.71 69.09 136.91C66.17 138.29 64.48 140.82 62.9 143.43C61.67 145.47 60.56 147.61 60.98 150.18C61.75 150.35 62.5 150.47 63.23 150.68C64.23 150.96 64.77 150.68 65.14 149.64C66.24 146.55 67.69 143.68 70.58 141.8C70.79 141.66 70.88 141.14 70.82 140.84C70.67 140.06 70.4 139.3 70.17 138.53C70.35 138.44 70.52 138.35 70.7 138.26C72.45 140.61 74.19 142.96 75.96 145.33C76.69 144.84 77.45 144.34 78.11 143.9C78.85 145.25 79.39 146.58 80.24 147.69C80.8 148.42 81.73 148.94 82.6 149.3C82.82 149.39 83.44 148.55 83.9 148.11C83.45 147.63 83.12 147.28 82.79 146.92C82.46 146.57 82.14 146.21 81.82 145.85C83.35 144.7 83.66 144.74 85.47 146.34C86.49 144.93 87.51 143.52 88.55 142.07C88.21 141.89 87.96 141.77 87.72 141.63C86.85 141.13 85.93 140.69 85.14 140.08C84.82 139.83 84.8 139.2 84.65 138.74C85.05 138.74 85.48 138.67 85.85 138.78C86.78 139.05 87.68 139.44 88.6 139.73C90.1 140.2 90.86 139.93 91.72 138.63C92.37 137.65 92.97 136.64 93.65 135.56L93.64 135.57ZM28.34 197.6C29.97 199.5 31.54 201.31 33.08 203.15C34 204.25 33.78 205.39 32.49 206.02C31.82 206.34 31.06 206.48 30.13 206.76C35.67 212.57 41.86 217.25 49.51 220.04C49.74 218.66 49.95 217.51 50.12 216.36C50.27 215.37 50.03 214.65 49.04 214.08C47.25 213.05 45.56 211.83 43.84 210.69C42.6733 209.917 41.65 210.063 40.77 211.13C40.72 211.19 40.66 211.25 40.62 211.33C40.17 212.11 39.52 212.33 38.71 212.15C38.49 211.47 38.3 210.85 38.11 210.24C37.41 208.07 37.6 207.8 39.91 207.97C33.32 200.44 27.53 192.48 22.24 184.04C20.21 185.44 18.32 186.74 16.22 188.19C18.54 192 20.78 195.79 23.12 199.51C24.43 201.59 25.73 203.71 27.94 205.04C29 204.11 28.86 203.19 28.18 202.11C26.66 199.71 26.69 199.69 28.35 197.61L28.34 197.6ZM28.34 42.17C28.86 43.03 29.37 43.49 30.51 43.09C37.06 40.78 43.69 38.67 50.2 36.24C55.17 34.39 60.22 32.95 65.51 32.82C70.19 32.7 74.88 33.09 79.57 33.28C80.54 33.32 81.51 33.48 82.48 33.58C84.78 33.8 87.08 34.01 89.38 34.23C90.08 34.3 90.39 34.02 90.5 33.3C90.66 32.27 90.98 31.26 91.18 30.24C91.24 29.94 91.22 29.57 91.09 29.29C90.75 28.53 90.32 27.82 89.97 27.06C89.66 26.39 89.27 26.03 88.47 26.31C88.03 26.46 87.52 26.54 87.07 26.49C84.69 26.22 82.33 25.76 79.95 25.63C76.08 25.42 72.19 25.4 68.31 25.36C66.93 25.34 65.56 25.47 64.21 25.53V28.82C64.98 28.82 65.67 28.82 66.36 28.82C73.35 28.82 80.34 28.82 87.34 28.82C89.27 28.82 90.13 29.55 90.43 31.7C87.91 31.7 85.43 31.81 82.97 31.67C79.2 31.46 75.45 30.94 71.68 30.79C68.75 30.67 65.81 30.82 62.88 31.02C59.89 31.23 56.89 31.45 53.96 32.02C47.21 33.33 40.64 35.31 34.35 38.1C32.13 39.09 29.92 40.14 28.37 42.17H28.34ZM87.6 209.31C91.26 209.18 94.68 208.28 98.01 207C100.99 205.86 103.85 204.36 106.89 203.45C112.05 201.9 116.5 199.22 120.4 195.62C126.54 189.95 131.33 183.26 134.75 175.64C135.7 173.53 136.44 171.32 137.32 169.05C135.91 168.84 134.76 168.66 133.38 168.45C132.58 170.52 131.8 172.63 130.97 174.71C128.04 182.11 123.52 188.38 117.38 193.43C113.16 196.9 108.41 199.49 103.18 201.12C98.84 202.47 94.44 203.65 90.09 204.99C87.14 205.9 87.16 205.96 87.59 209.3L87.6 209.31ZM40.52 68.55C40.53 68.68 40.55 68.81 40.56 68.93C41.61 69.23 42.67 69.52 43.72 69.83C46.34 70.6 48.85 70.55 51.4 69.33C54.56 67.81 57.79 66.44 61.06 65.18C65.15 63.61 69.42 62.71 73.8 62.5C76.44 62.37 79.09 62.43 81.73 62.51C83.26 62.56 84.79 62.84 86.32 62.98C87.31 63.07 87.97 62.69 88.03 61.58C88.08 60.57 88.25 59.55 88.22 58.54C88.21 58.2 87.76 57.63 87.45 57.59C85.64 57.34 83.82 57.1 82 57.06C78.59 56.99 75.2 57.19 71.79 57.69C66.32 58.49 61.03 59.83 55.93 61.88C52 63.46 48.14 65.21 44.25 66.89C43.01 67.43 41.77 67.99 40.54 68.54L40.52 68.55ZM127.18 78.03C127.59 77.19 127.99 76.41 128.36 75.61C129.15 73.91 128.81 72.78 127.22 71.8C125.7 70.86 124.17 69.94 122.65 69C118.28 66.3 113.87 63.64 108.83 62.39C103.48 61.06 98.08 59.95 92.7 58.8C91.29 58.5 90.61 58.96 90.28 60.32C90.08 61.14 89.97 62 89.97 62.84C89.97 63.14 90.38 63.62 90.68 63.7C92.78 64.24 94.91 64.7 97.03 65.18C104.36 66.85 111.34 69.5 118.04 72.87C121.11 74.41 124.04 76.24 127.18 78.03ZM19.46 144.76C20.13 144.95 20.81 145.19 21.52 145.33C22.85 145.6 24.07 144.74 24.29 143.4C25.42 136.69 27.96 130.55 31.63 124.83C35.49 118.8 40.26 113.6 45.71 108.99C45.93 108.8 46.18 108.32 46.09 108.12C45.51 106.8 44.84 105.52 44.17 104.17C43.72 104.42 43.4 104.59 43.09 104.78C39.88 106.74 37.41 109.49 35.03 112.34C29.43 119.05 24.89 126.41 21.54 134.48C20.18 137.74 18.96 141.06 19.47 144.76H19.46ZM112.7 131.29C115.09 133.93 116.92 136.65 118.1 139.82C119.54 143.68 119.97 147.7 120.14 151.76C120.26 154.54 120.14 157.33 120.18 160.12C120.18 160.5 120.36 161.09 120.64 161.22C121.98 161.87 123.36 162.44 124.77 162.92C125.1 163.03 125.92 162.72 125.95 162.51C126.16 161.23 126.25 159.92 126.31 158.62C126.36 157.59 126.27 156.56 126.31 155.53C126.32 155.1 126.6 154.65 126.56 154.23C126.3 151.72 126.68 149.15 125.81 146.69C125.61 146.13 125.66 145.4 125.81 144.81C126.58 141.69 126.01 138.86 123.74 136.6C122.69 135.56 122.26 134.4 121.86 133.08C121.27 131.16 120.42 129.35 118.76 128.09C118.37 127.79 117.57 127.45 117.32 127.63C115.75 128.76 114.28 130.03 112.71 131.31L112.7 131.29ZM48.53 107.36C58.33 99.88 68.43 93.2 81.27 92.69V87.05C80.91 87.05 80.62 87.05 80.34 87.05C74.74 87.13 69.4 88.43 64.38 90.83C61.51 92.2 58.85 94.02 56.11 95.67C53.68 97.13 51.21 98.53 48.86 100.11C45.99 102.05 45.87 105.26 48.53 107.36ZM28.98 180.76C28.05 181.22 27.18 181.56 26.42 182.06C26.09 182.28 25.74 182.94 25.84 183.25C26.36 184.81 26.89 186.39 27.67 187.83C29.94 192.03 32.92 195.75 36.1 199.28C39.64 203.21 43.42 206.92 47.89 209.82C49.28 210.72 50.85 211.34 52.36 212.1C53.33 210.26 54.14 208.73 54.97 207.17C50.1 205.02 45.88 202.02 42.14 198.35C38.18 194.46 34.89 190.02 31.94 185.33C30.98 183.8 29.97 182.29 28.98 180.75V180.76ZM138.84 54.86C139.34 53.81 139.69 52.99 140.12 52.22C140.49 51.56 140.41 51.09 139.75 50.71C137.09 49.22 134.49 47.61 131.77 46.25C126.34 43.53 120.54 41.81 114.61 40.62C111.36 39.97 108.06 39.57 104.78 39.11C102.69 38.82 100.59 38.63 98.5 38.38C95.66 38.03 95.39 38.19 94.61 40.89C94.6 40.93 94.59 40.97 94.57 41.01C94.26 41.74 94.61 42.08 95.29 42.18C98.61 42.65 101.94 43.09 105.26 43.58C108.18 44.01 111.12 44.35 114 44.96C116.87 45.57 119.69 46.46 122.51 47.27C127.06 48.57 131.56 49.99 135.53 52.69C136.61 53.43 137.72 54.12 138.86 54.86H138.84ZM52.52 216.26C52.52 217.46 52.58 218.71 52.5 219.96C52.44 220.91 52.69 221.78 53.55 222.07C54.04 222.24 54.87 221.9 55.33 221.53C56.13 220.88 56.67 220.86 57.29 221.71C57.65 222.2 58.17 222.56 58.57 223.03C59.73 224.42 61.2 225.29 62.96 225.65C64.34 225.93 65.71 226.27 67.1 226.46C67.72 226.55 68.38 226.23 69.01 226.27C71.72 226.47 74.42 226.74 77.12 226.98C78.9 227.14 80.67 227.28 82.45 227.46C83.18 227.54 83.84 227.43 83.96 226.63C84.21 224.95 84.47 223.25 84.51 221.56C84.54 220.27 84.06 220.04 82.82 220.28C82.5 220.34 82.17 220.32 81.84 220.3C77.36 220.14 72.86 220.12 68.39 219.77C65.32 219.53 62.25 218.97 59.24 218.31C56.98 217.82 54.8 216.96 52.51 216.24L52.52 216.26ZM66.89 75.22C66.89 75.1 66.89 74.98 66.89 74.85C66.52 74.74 66.15 74.54 65.78 74.54C64.1 74.5 62.42 74.61 60.74 74.5C58.68 74.36 56.59 74.24 54.88 72.81C54.67 72.63 54.27 72.58 53.97 72.61C52.94 72.72 51.89 72.84 50.88 73.06C50.15 73.22 49.37 73.44 48.75 73.85C46.11 75.57 43.55 77.43 40.9 79.14C38.67 80.58 36.35 81.9 33.98 83.33C35.93 85.68 37.77 87.9 39.63 90.14C48.39 84.42 56.93 78.55 66.87 75.23L66.89 75.22ZM70.86 234.45C68.6 234.93 66.53 235.06 64.49 234.27C62.9 233.65 61.16 234.38 60.54 236.72C61.34 236.84 62.13 236.96 62.93 237.07C66.27 237.53 69.61 237.95 72.94 238.45C75.97 238.9 78.99 239.45 82.02 239.91C82.63 240 83.33 239.84 83.32 239.02C83.31 237.79 83.19 236.56 83.11 235.37C81.91 235.23 80.85 235.49 79.95 234.36C80.68 234.16 81.24 233.91 81.81 233.89C82.84 233.84 83.31 233.45 83.1 232.38C83.04 232.06 83.18 231.69 83.06 231.41C82.94 231.11 82.64 230.7 82.38 230.68C79.02 230.39 75.66 230.13 72.29 229.92C70.13 229.79 67.96 229.84 65.81 229.65C61.39 229.26 57.14 228.21 53.22 226.03C52.42 225.58 51.53 225.26 50.64 225.02C49.8 224.79 49.15 225.25 49.02 226.07C48.98 226.31 49.61 226.8 50.02 226.95C55.57 228.93 61.11 230.9 66.69 232.77C67.49 233.04 68.47 232.81 69.36 232.81C69.37 232.7 69.39 232.59 69.4 232.48C69.85 233.1 70.29 233.71 70.83 234.47L70.86 234.45ZM29.37 66.97C30.99 67.59 32.22 68.1 33.47 68.51C33.85 68.63 34.36 68.58 34.73 68.42C39.8 66.22 44.8 63.83 49.94 61.82C54.93 59.87 60.02 58.11 65.17 56.66C68.53 55.71 72.06 55.29 75.54 54.93C78.16 54.66 80.82 54.84 83.46 54.89C85.19 54.92 86.92 55.08 88.68 55.18C88.73 54.21 88.76 53.45 88.81 52.51C86.38 52.3 83.99 51.87 81.62 51.95C77.73 52.08 73.84 52.44 69.97 52.89C64.61 53.53 59.45 55.03 54.39 56.88C48.57 59.01 42.79 61.24 37.02 63.52C34.52 64.51 32.11 65.71 29.34 66.97H29.37ZM146.76 143.12C146.76 143.12 146.73 143.12 146.72 143.12C146.72 142.42 146.87 141.69 146.7 141.04C145.7 137.35 144.79 133.61 143.54 130.01C141.99 125.57 139.82 121.38 136.97 117.62C135.91 116.22 134.46 115.11 133.14 113.91C132.65 113.46 132.19 113.49 131.77 114.17C131.26 114.99 130.62 115.73 130 116.48C129.63 116.93 129.57 117.25 130.04 117.71C130.79 118.45 131.49 119.25 132.15 120.07C134.85 123.43 137.04 127.1 138.63 131.11C140.43 135.63 141.73 140.28 142.61 145.06C142.68 145.44 143.1 145.98 143.44 146.05C146.26 146.63 146.77 146.19 146.78 143.36C146.78 143.28 146.78 143.2 146.78 143.11L146.76 143.12ZM23.33 147.36C22.48 147.22 21.76 147.12 21.05 146.97C18.88 146.49 18.82 146.52 18.44 148.69C18.4 148.89 18.4 149.1 18.41 149.3C18.49 151.83 18.38 154.37 18.69 156.87C19.29 161.67 19.95 166.48 20.94 171.21C21.56 174.18 22.83 177.01 23.82 179.89C24.1 180.72 24.62 180.9 25.43 180.52C26.33 180.09 27.28 179.74 28.37 179.28C25.12 168.93 23.52 158.29 23.33 147.35V147.36ZM121.48 121.31C120.38 120.16 119.46 118.91 118.27 118.02C115.09 115.64 111.81 113.39 108.54 111.13C103.21 107.44 97.53 104.48 91.13 103.14C89 102.69 86.85 102.32 84.69 102.08C83.39 101.93 82.98 102.59 83.28 103.85C83.39 104.32 83.46 104.8 83.55 105.28C83.79 106.63 84.43 107.07 85.82 106.85C85.98 106.83 86.15 106.78 86.3 106.81C88.64 107.23 91.02 107.52 93.32 108.1C102.02 110.31 109.2 115.27 115.87 121.03C118.49 123.29 118.38 123.42 121.49 121.31H121.48ZM90.69 55.77C105.46 58.21 119.62 61.86 131.93 70.94C132.31 69.48 132.65 68.17 133.01 66.81C130.62 65.5 128.29 64.21 125.94 62.94C121.64 60.62 117.45 58.05 112.72 56.62C106.38 54.71 99.78 54.24 93.26 53.4C91.31 53.15 91.29 53.28 90.85 55.26C90.82 55.41 90.75 55.56 90.68 55.77H90.69ZM47.93 110.14C47.3 110.73 46.71 111.22 46.19 111.78C42.44 115.76 38.67 119.72 35 123.76C33.64 125.25 32.36 126.87 31.36 128.62C28.35 133.89 27.93 139.95 26.34 145.66C28.31 146.1 29.18 145.63 29.76 143.84C29.94 143.27 30.01 142.67 30.15 142.09C31.97 134.54 35.88 128.12 41.13 122.53C44.27 119.19 47.68 116.1 51.01 112.85C50.06 112.02 49.06 111.13 47.92 110.14H47.93ZM57.64 202.48C57.48 202.31 57.41 202.21 57.32 202.14C53.24 198.93 49.06 195.83 45.11 192.47C41.39 189.31 39.13 185.02 36.83 180.79C35.68 178.68 34.42 176.63 33.14 174.44C32.33 175.62 31.65 176.58 31.01 177.57C30.87 177.78 30.82 178.17 30.92 178.39C33.42 184.22 36.67 189.61 40.98 194.28C45.17 198.82 50.15 202.29 56.01 204.54C56.44 204.01 56.88 203.48 57.31 202.95C57.41 202.83 57.49 202.69 57.63 202.48H57.64ZM120.21 125.44C120.59 125.95 120.9 126.37 121.21 126.79C121.56 127.24 121.9 127.71 122.27 128.14C126.94 133.54 129.05 139.95 129.48 146.94C129.78 151.87 129.42 156.8 128.77 161.7C128.45 164.09 128.46 164.06 130.62 165C131.35 165.31 131.82 165.2 132 164.45C132.44 162.65 133.11 160.84 133.16 159.03C133.27 155.03 133.14 151.01 132.92 147.01C132.78 144.5 132.43 141.99 131.96 139.53C131.49 137.1 130.48 134.85 129.07 132.77C126.95 129.63 124.92 126.43 122.83 123.21C121.88 124.02 121.05 124.73 120.2 125.45L120.21 125.44ZM54.33 213.27C63.95 216.59 73.54 218.27 83.67 216.57C83.73 215.16 83.79 213.8 83.86 212.34C74.42 212.89 65.44 211.79 56.77 208.13C55.94 209.88 55.16 211.51 54.33 213.27ZM128.82 79.08C131.23 80.99 133.56 82.88 135.93 84.72C140.19 88.03 144.46 91.33 148.74 94.61C148.98 94.8 149.42 94.92 149.7 94.83C150.43 94.6 151.15 94.3 151.81 93.93C152.89 93.33 153.06 92.62 152.2 91.69C150.99 90.38 149.77 89.04 148.34 87.99C144.15 84.9 139.84 81.95 135.6 78.92C134.17 77.9 132.77 76.83 131.32 75.75C130.4 76.97 129.6 78.03 128.81 79.08H128.82ZM56.01 116.56C64.32 111.58 72.6 107.02 82.6 106.91C82.25 105.6 81.77 104.5 81.69 103.36C81.59 101.93 80.76 101.96 79.78 102.06C79.18 102.12 78.57 102.22 77.99 102.37C70.59 104.27 63.76 107.43 57.53 111.84C56.37 112.66 55.4 113.76 54.55 114.53C55.16 115.39 55.59 115.99 56.01 116.57V116.56ZM92.85 34.9C94.69 35.18 96.39 35.43 98.09 35.7C101.04 36.16 104 36.63 106.95 37.09C110.35 37.62 113.75 38.12 117.15 38.65C119.07 38.95 121.12 38.96 122.86 39.7C128.84 42.24 134.72 45.04 140.63 47.75C142.25 48.49 142.65 48.33 143.15 46.78C141.63 46.16 140.08 45.64 138.64 44.91C136.45 43.8 134.45 42.3 132.19 41.38C120.28 36.56 107.81 34 95.1 32.49C94.82 32.46 94.41 32.58 94.25 32.78C93.76 33.41 93.36 34.11 92.85 34.89V34.9ZM136.51 147.2C139.53 147.36 139.89 146.97 139.4 144.13C139.39 144.05 139.4 143.97 139.39 143.88C138.97 139.17 137.44 134.85 134.92 130.87C134.47 130.15 133.75 129.5 133.59 128.72C132.95 125.68 131.27 123.31 129.14 121.18C127.22 119.27 127.01 119.27 125.22 121.24C125.17 121.3 125.15 121.38 125.02 121.67C126.1 123.09 127.3 124.56 128.36 126.13C129.77 128.2 131.54 130.18 132.34 132.48C134.01 137.29 135.16 142.29 136.51 147.2ZM72.35 142.99C71.28 144.63 70.23 146.11 69.31 147.67C67.54 150.67 66.73 153.91 67.59 157.35C68.19 159.75 68.81 162.26 71.72 163.1C72.06 163.2 72.23 163.9 72.47 164.33C72.73 164.8 72.85 165.48 73.25 165.72C75.25 166.97 77.54 167.26 79.84 167.44C80.08 167.46 80.51 167.02 80.59 166.72C81.22 164.42 80.76 162.22 79.85 160.09C79.67 159.68 79.27 159.37 78.85 158.87C78.46 160.34 78.15 161.51 77.84 162.7C76.65 162.3 75.54 161.83 74.37 161.56C73.07 161.25 72.25 160.59 71.72 159.33C70.88 157.34 69.93 155.41 70.97 153.27C69.81 152.01 69.76 150.95 70.79 149.95C71.31 149.45 71.87 148.99 72.41 148.51C73.77 147.303 74.0067 145.897 73.12 144.29C72.91 143.9 72.68 143.52 72.38 142.98L72.35 142.99ZM46.4 72.76C46.42 72.6 46.45 72.44 46.47 72.29C45.36 72.07 44.24 71.84 43.13 71.63C38.31 70.72 33.86 71.49 29.88 74.48C28.36 75.62 28.32 75.64 29.29 77.16C30.17 78.55 31.12 79.9 32.04 81.28C36.93 78.38 41.67 75.58 46.41 72.77L46.4 72.76ZM92.5 27.16C93.02 28.52 93.77 29.58 95.11 29.76C97.76 30.12 100.44 30.21 103.09 30.56C106.69 31.03 110.32 31.44 113.86 32.23C117.95 33.14 121.94 34.45 125.98 35.57C127.21 35.91 128.45 36.19 129.68 36.5C129.78 36.39 129.88 36.27 129.97 36.16C129.63 35.63 129.4 34.93 128.92 34.6C127.82 33.86 126.6 33.29 125.42 32.67C125.24 32.58 124.98 32.65 124.76 32.62C123.78 32.49 122.79 32.42 121.84 32.18C121.03 31.97 120.29 31.44 119.48 31.25C116.06 30.47 112.62 29.74 109.18 29.03C106.96 28.58 104.74 28.06 102.5 27.83C99.23 27.49 95.93 27.37 92.49 27.15L92.5 27.16ZM83.79 205.56C79.69 206.29 75.88 206.28 72.14 205.71C68.44 205.15 64.79 204.19 61.14 203.34C59.01 202.84 59.02 202.79 58.61 204.97C58.6 205.04 58.63 205.12 58.65 205.27C62.49 207.1 66.46 208.68 70.77 209.02C74.58 209.32 78.4 209.4 82.22 209.5C82.73 209.51 83.64 209.12 83.7 208.79C83.9 207.79 83.77 206.73 83.77 205.57L83.79 205.56ZM32.9 173.26C30.25 165.4 28.53 157.5 29.13 149.23C29.15 149.01 28.94 148.67 28.75 148.57C27.98 148.2 27.16 147.9 26.31 147.55C26.29 147.88 26.26 148.04 26.27 148.2C26.51 152.83 26.73 157.46 27 162.08C27.23 166.06 28.22 169.89 29.48 173.65C29.76 174.48 30.12 174.95 31.03 174.22C31.55 173.8 32.23 173.58 32.9 173.25V173.26ZM138.06 167.43C140.18 161.31 140.82 155.02 140.01 148.59C139.23 148.65 138.48 148.63 137.78 148.81C137.36 148.92 136.72 149.31 136.69 149.64C136.36 152.46 136.16 155.29 135.89 158.12C135.77 159.45 135.66 160.79 135.43 162.1C134.76 165.93 134.89 166.27 137.87 167.45C137.9 167.46 137.95 167.45 138.06 167.44V167.43ZM129.15 24.66C129.19 24.59 129.22 24.52 129.26 24.45C128.95 24.22 128.67 23.91 128.32 23.77C125.57 22.63 122.88 21.25 120.03 20.48C115.01 19.12 109.92 18.02 104.81 17.05C102.88 16.68 100.82 16.99 98.82 16.99C104.02 17.69 109.13 18.66 114.13 20.14C119.14 21.62 124.14 23.15 129.15 24.66ZM79.31 155.94C80.46 156.04 82.54 154.38 82.59 153.32C82.63 152.49 81.41 151.6 80.02 151.47C78.37 151.31 76.81 152.47 76.66 153.96C76.54 155.11 77.44 155.78 79.31 155.93V155.94ZM26.05 74.08C27.98 72.92 29.85 71.8 31.87 70.59C30.78 70.22 29.91 69.96 29.08 69.62C27.78 69.1 26.62 69.48 25.49 70.11C24.9 70.44 24.6 70.86 25.01 71.6C25.42 72.33 25.67 73.15 26.05 74.08ZM91.83 15.5C86.66 15.5 81.55 15.83 76.52 15.38C73.09 15.07 69.79 15.56 66.44 15.73C64.85 15.81 63.26 15.85 61.68 16C58.82 16.27 55.96 16.63 53.1 16.91C50.64 17.15 48.17 17.34 45.71 17.55C45.66 17.45 45.62 17.35 45.57 17.26C46.03 16.93 46.47 16.56 46.96 16.28C49.13 15.04 51.57 14.82 53.98 14.56C55.36 14.41 56.75 14.4 58.14 14.29C58.41 14.27 58.71 14.18 58.94 14.04C59.23 13.87 59.46 13.61 59.72 13.39C59.46 13.19 59.21 12.97 58.92 12.81C58.68 12.68 58.39 12.62 58.13 12.54C58.13 12.4 58.12 12.27 58.11 12.13C58.55 12.1 59.09 11.89 59.41 12.07C62.21 13.62 65.2 13.93 68.36 13.84C75.64 13.65 82.93 13.64 90.22 13.56C91.81 13.54 91.95 13.72 91.84 15.49L91.83 15.5ZM54.06 10.76C54.57 9.16001 55.84 8.48001 57.22 8.23001C59.41 7.83001 61.64 7.64001 63.85 7.43001C66.87 7.15001 69.91 6.93001 72.93 6.68001C73.01 6.68001 73.12 6.70001 73.17 6.65001C74.61 5.36001 76.18 6.34001 77.69 6.40001C80.13 6.49001 82.58 6.51001 85.02 6.71001C87.38 6.90001 89.73 7.29001 92.08 7.59001V8.79001C85.7 8.79001 79.33 8.54001 73 8.86001C66.7 9.19001 60.42 10.09 54.05 10.76H54.06ZM92.93 3.86001C89.56 4.42001 86.32 4.16001 83.05 3.79001C80.47 3.50001 77.85 3.54001 75.24 3.49001C74.92 3.49001 74.51 3.81001 74.28 4.09001C73.9 4.56001 73.64 5.12001 73.24 5.80001C72.8 5.23001 72.34 4.77001 72.07 4.22001C71.53 3.12001 70.71 3.08001 69.66 3.30001C68.39 3.57001 67.1 3.73001 65.57 3.97001C67.71 1.96001 70.11 1.25001 72.65 1.30001C77.59 1.41001 82.52 1.73001 87.45 1.97001C88.63 2.03001 89.8 2.08001 90.97 2.19001C91.95 2.28001 92.52 2.89001 92.93 3.84001V3.86001ZM69.5 12.36C72.17 10.05 86.65 9.63001 89.55 11.65C88.2 13.31 86.47 12.19 84.9 12.22C82.13 12.28 79.37 12.27 76.6 12.22C74.29 12.17 72.01 13.31 69.5 12.37V12.36ZM157.99 120.65C156.8 118.58 155.69 116.6 154.52 114.66C154.35 114.38 153.91 114.2 153.55 114.11C152.78 113.9 152.34 113.47 152.05 112.7C151.46 111.11 150.75 109.57 150.1 108C150.01 107.79 150 107.56 149.94 107.29C153.58 108.93 159.53 118.48 157.98 120.65H157.99ZM110.62 11.56C114.61 11.05 118.13 12.27 121.39 14.44C117.88 13.18 113.91 13.64 110.62 11.56ZM96.57 165.33C95.47 166.52 94.32 167.66 93.3 168.91C92.58 169.79 91.82 170.05 90.79 169.62C90.47 169.48 90.12 169.4 89.64 169.24C91.47 167.73 93.2 166.25 95.02 164.88C95.35 164.63 96.02 164.84 96.53 164.84C96.55 165 96.56 165.17 96.58 165.33H96.57ZM54.83 149.89C53.94 150.3 53.05 150.71 52.18 151.11C50.92 149.25 50.88 148.9 51.8 148.34C52.94 147.64 53.94 148.12 54.83 149.89ZM86.19 124.74C86.85 123.78 87.44 123.47 88.51 123.86C90.5 124.59 92.57 125.12 94.69 125.76C94.61 126.22 94.54 126.59 94.41 127.3C91.59 126.42 88.93 125.6 86.19 124.74ZM75.68 142.78C75.15 142.03 74.62 141.52 74.41 140.9C74.19 140.28 74.11 139.5 74.3 138.89C74.53 138.17 75.21 137.8 76.08 137.96C76.84 138.1 77.62 138.1 78.37 138.27C79.09 138.42 79.53 138.84 78.87 139.54C77.87 140.61 76.82 141.63 75.69 142.78H75.68ZM54.67 74.37C54.96 74.91 55.11 75.18 55.37 75.65C51 78.2 46.7 80.73 42.37 83.22C41.11 83.94 39.79 84.56 38.47 85.16C38.25 85.26 37.88 85.06 37.59 85C37.67 84.78 37.69 84.46 37.85 84.37C43.43 81.04 49.02 77.73 54.68 74.38L54.67 74.37ZM492.09 225.25V232.14C492.09 232.86 492.16 233.06 492.32 233.15C492.48 233.24 492.84 233.26 493.56 233.35V233.7H489.03V233.35C489.39 233.31 489.88 233.24 490.08 233.22C490.43 233.17 490.49 232.94 490.49 232.1V227.94C490.49 226.38 490.36 226.37 490.12 226.37C490.04 226.37 489.89 226.38 489.68 226.42L488.8 226.57L488.69 226.22C489.78 225.82 490.84 225.46 491.89 225.1L492.09 225.25ZM503.03 225.25V232.14C503.03 232.86 503.1 233.06 503.26 233.15C503.42 233.24 503.78 233.26 504.5 233.35V233.7H499.97V233.35C500.33 233.31 500.82 233.24 501.02 233.22C501.37 233.17 501.43 232.94 501.43 232.1V227.94C501.43 226.38 501.3 226.37 501.06 226.37C500.98 226.37 500.83 226.38 500.62 226.42L499.74 226.57L499.63 226.22C500.72 225.82 501.78 225.46 502.83 225.1L503.03 225.25Z" fill="black"/>
<path fill-rule="evenodd" clip-rule="evenodd" d="M705.32 64C698.942 64 693.76 69.1814 693.76 75.57C693.76 81.9587 698.932 87.14 705.32 87.14C711.709 87.14 716.89 81.9585 716.89 75.57C716.89 69.1816 711.699 64 705.32 64ZM693.32 75.57C693.32 68.9386 698.698 63.56 705.32 63.56C711.941 63.56 717.33 68.9384 717.33 75.57C717.33 82.2015 711.952 87.58 705.32 87.58C698.688 87.58 693.32 82.2013 693.32 75.57Z" fill="#010201" stroke="black" stroke-miterlimit="3.86"/>
<path d="M705.96 69.11H706.4C707.07 69.11 708.39 69.33 708.83 69.55C709.28 69.77 709.94 70.21 710.16 70.65C710.6 71.09 710.83 71.98 710.83 72.64C710.83 73.53 710.6 74.2 709.95 74.85C709.54 75.27 708.84 75.95 707.73 75.95C709.06 77.72 710.6 80.37 711.71 81.92H709.72C708.39 80.15 707.5 78.07 705.95 76.52C705.51 76.32 705.3 76.17 704.2 76.17H702.43V81.92H700.67V69.1H705.97L705.96 69.11ZM705.96 74.63C706.62 74.63 706.94 74.59 707.6 74.47C708.08 74.35 708.39 74.18 708.7 73.77C708.98 73.4 709.07 73.09 709.05 72.63C709.03 72.05 708.8 71.72 708.4 71.31C707.83 70.73 707.23 70.67 706.41 70.64C706.24 70.64 705.97 70.64 705.97 70.64H702.43V74.62H705.97L705.96 74.63Z" fill="#010201"/>
</svg>
