<?xml version="1.0" encoding="utf-8"?>
<!-- Generator: Adobe Illustrator 28.1.0, SVG Export Plug-In . SVG Version: 6.00 Build 0)  -->
<svg version="1.1" id="Layer_1" xmlns="http://www.w3.org/2000/svg" xmlns:xlink="http://www.w3.org/1999/xlink" x="0px" y="0px"
	 viewBox="0 0 65 65" style="enable-background:new 0 0 65 65;" xml:space="preserve">
<style type="text/css">
	.st0{fill:#F5F5F5;}
</style>
<rect class="st0" width="65" height="65"/>
<path d="M43.6,31.3c-0.8,0.8-1.6,1.6-2.4,2.4c-2.9-2.9-5.8-5.8-8.8-8.8c-2.9,2.9-5.9,5.9-8.8,8.8c-0.8-0.8-1.6-1.6-2.4-2.4
	c0.1-0.1,0.2-0.2,0.3-0.3c3.1-3.1,6.3-6.3,9.4-9.4c1-1,1.9-1,2.8,0c3.1,3.1,6.3,6.3,9.4,9.4C43.4,31.1,43.5,31.2,43.6,31.3z
	 M43.3,17.8c-3.1-3.1-6.3-6.3-9.4-9.4c-1-1-1.8-1-2.8,0c-3.1,3.1-6.3,6.3-9.4,9.4c-0.1,0.1-0.3,0.3-0.3,0.3c0.8,0.8,1.6,1.6,2.4,2.4
	c2.9-2.9,5.8-5.8,8.8-8.8c2.9,2.9,5.9,5.9,8.8,8.8c0.8-0.8,1.6-1.6,2.4-2.4C43.5,18.1,43.4,18,43.3,17.8z"/>
<path d="M55,53.3c0,0.4,0.1,0.8,0.2,1.1c0.1,0.3,0.3,0.6,0.5,0.7c0.2,0.2,0.5,0.3,0.9,0.3c0.4,0,0.6-0.1,0.9-0.3
	c0.2-0.2,0.4-0.4,0.5-0.8c0.1-0.3,0.2-0.7,0.2-1.1c0-0.4-0.1-0.7-0.2-1c-0.1-0.3-0.3-0.6-0.5-0.7c-0.2-0.2-0.5-0.3-0.9-0.3
	c-0.3,0-0.6,0.1-0.9,0.3c-0.2,0.2-0.4,0.4-0.5,0.7C55,52.5,55,52.9,55,53.3z M54.2,58v-7.5H55v0.9h0.1c0.1-0.1,0.1-0.2,0.3-0.4
	c0.1-0.1,0.3-0.3,0.5-0.4c0.2-0.1,0.5-0.2,0.8-0.2c0.5,0,0.9,0.1,1.2,0.3c0.4,0.2,0.6,0.6,0.8,1c0.2,0.4,0.3,0.9,0.3,1.5
	c0,0.6-0.1,1.1-0.3,1.5c-0.2,0.4-0.5,0.7-0.8,1c-0.3,0.2-0.7,0.3-1.2,0.3c-0.4,0-0.6-0.1-0.8-0.2c-0.2-0.1-0.4-0.3-0.5-0.4
	c-0.1-0.2-0.2-0.3-0.3-0.4H55V58H54.2z M50.4,55.4c0.4,0,0.7-0.1,0.9-0.3s0.4-0.4,0.5-0.8c0.1-0.3,0.2-0.7,0.2-1s-0.1-0.7-0.2-1
	c-0.1-0.3-0.3-0.6-0.5-0.8c-0.2-0.2-0.5-0.3-0.9-0.3c-0.4,0-0.7,0.1-0.9,0.3c-0.2,0.2-0.4,0.4-0.5,0.8c-0.1,0.3-0.2,0.7-0.2,1
	s0.1,0.7,0.2,1s0.3,0.6,0.5,0.8C49.7,55.3,50,55.4,50.4,55.4z M50.4,56.1c-0.5,0-0.9-0.1-1.3-0.4c-0.4-0.2-0.7-0.6-0.9-1
	c-0.2-0.4-0.3-0.9-0.3-1.5c0-0.6,0.1-1.1,0.3-1.5c0.2-0.4,0.5-0.8,0.9-1c0.4-0.2,0.8-0.4,1.3-0.4s0.9,0.1,1.3,0.4
	c0.4,0.2,0.7,0.6,0.9,1c0.2,0.4,0.3,0.9,0.3,1.5c0,0.6-0.1,1.1-0.3,1.5c-0.2,0.4-0.5,0.7-0.9,1C51.3,56,50.9,56.1,50.4,56.1z
	 M45,49.2h0.8v5.2c0,0.2,0,0.4,0.1,0.5c0.1,0.1,0.2,0.2,0.3,0.2c0.1,0,0.2,0.1,0.4,0.1c0.1,0,0.2,0,0.2,0c0.1,0,0.1,0,0.1,0l0.2,0.8
	C47,56,47,56,46.8,56c-0.1,0-0.2,0-0.4,0c-0.2,0-0.5-0.1-0.7-0.2c-0.2-0.1-0.4-0.3-0.6-0.5C45.1,55.2,45,55,45,54.7V49.2z M47,50.5
	v0.7h-2.8v-0.7H47z M38.1,55.4c0.4,0,0.7-0.1,0.9-0.3s0.4-0.4,0.5-0.8c0.1-0.3,0.2-0.7,0.2-1s-0.1-0.7-0.2-1
	c-0.1-0.3-0.3-0.6-0.5-0.8c-0.2-0.2-0.5-0.3-0.9-0.3c-0.4,0-0.7,0.1-0.9,0.3c-0.2,0.2-0.4,0.4-0.5,0.8c-0.1,0.3-0.2,0.7-0.2,1
	s0.1,0.7,0.2,1s0.3,0.6,0.5,0.8C37.4,55.3,37.7,55.4,38.1,55.4z M38.1,56.1c-0.5,0-0.9-0.1-1.3-0.4c-0.4-0.2-0.7-0.6-0.9-1
	c-0.2-0.4-0.3-0.9-0.3-1.5c0-0.6,0.1-1.1,0.3-1.5c0.2-0.4,0.5-0.8,0.9-1c0.4-0.2,0.8-0.4,1.3-0.4s0.9,0.1,1.3,0.4
	c0.4,0.2,0.7,0.6,0.9,1c0.2,0.4,0.3,0.9,0.3,1.5c0,0.6-0.1,1.1-0.3,1.5c-0.2,0.4-0.5,0.7-0.9,1C39,56,38.5,56.1,38.1,56.1z
	 M32.6,49.2h0.8v5.2c0,0.2,0,0.4,0.1,0.5c0.1,0.1,0.2,0.2,0.3,0.2c0.1,0,0.2,0.1,0.4,0.1c0.1,0,0.2,0,0.2,0c0.1,0,0.1,0,0.1,0
	l0.2,0.8c-0.1,0-0.1,0-0.2,0.1c-0.1,0-0.2,0-0.4,0c-0.2,0-0.5-0.1-0.7-0.2c-0.2-0.1-0.4-0.3-0.6-0.5c-0.1-0.2-0.2-0.5-0.2-0.8V49.2z
	 M34.6,50.5v0.7h-2.8v-0.7H34.6z M27.5,56l-2.1-2.7l0.6-0.6l2.6,3.3H27.5z M24,56v-7.3h0.8V56H24z M24.8,54l0-1h0.2l2.4-2.4h1
	l-2.5,2.6h-0.1L24.8,54z M20.6,56.1c-0.5,0-1-0.1-1.3-0.4s-0.7-0.6-0.9-1c-0.2-0.4-0.3-0.9-0.3-1.5c0-0.6,0.1-1,0.3-1.5
	c0.2-0.4,0.5-0.8,0.9-1c0.4-0.2,0.8-0.4,1.3-0.4c0.4,0,0.7,0.1,1,0.2s0.6,0.3,0.8,0.6c0.2,0.3,0.3,0.6,0.4,0.9h-0.8
	c-0.1-0.2-0.2-0.5-0.4-0.7c-0.2-0.2-0.5-0.3-0.9-0.3c-0.3,0-0.6,0.1-0.9,0.3c-0.2,0.2-0.4,0.4-0.6,0.7c-0.1,0.3-0.2,0.7-0.2,1.1
	c0,0.4,0.1,0.8,0.2,1.1c0.1,0.3,0.3,0.6,0.6,0.7c0.2,0.2,0.5,0.3,0.9,0.3c0.2,0,0.4,0,0.6-0.1s0.3-0.2,0.5-0.3
	c0.1-0.1,0.2-0.3,0.3-0.5h0.8c0,0.3-0.2,0.6-0.4,0.9c-0.2,0.3-0.4,0.5-0.7,0.6C21.4,56,21,56.1,20.6,56.1z M14.5,55.4
	c0.3,0,0.6-0.1,0.8-0.2c0.2-0.1,0.4-0.3,0.5-0.5c0.1-0.2,0.2-0.4,0.2-0.6v-0.8c0,0-0.1,0.1-0.2,0.1c-0.1,0-0.3,0.1-0.4,0.1
	c-0.2,0-0.3,0-0.5,0.1c-0.1,0-0.3,0-0.4,0c-0.2,0-0.4,0.1-0.6,0.1c-0.2,0.1-0.3,0.2-0.5,0.3c-0.1,0.1-0.2,0.3-0.2,0.5
	c0,0.3,0.1,0.5,0.3,0.7C13.9,55.3,14.2,55.4,14.5,55.4z M14.4,56.1c-0.3,0-0.7-0.1-0.9-0.2c-0.3-0.1-0.5-0.3-0.7-0.6
	c-0.2-0.3-0.2-0.6-0.2-0.9c0-0.3,0.1-0.6,0.2-0.8c0.1-0.2,0.3-0.4,0.5-0.5c0.2-0.1,0.4-0.2,0.7-0.2c0.3-0.1,0.5-0.1,0.8-0.1
	c0.3,0,0.6-0.1,0.8-0.1c0.2,0,0.4-0.1,0.5-0.1c0.1-0.1,0.1-0.1,0.1-0.3v0c0-0.4-0.1-0.6-0.3-0.8c-0.2-0.2-0.5-0.3-0.9-0.3
	c-0.4,0-0.7,0.1-0.9,0.3c-0.2,0.2-0.4,0.4-0.5,0.6l-0.8-0.3c0.1-0.3,0.3-0.6,0.6-0.8c0.2-0.2,0.5-0.3,0.8-0.4
	c0.3-0.1,0.6-0.1,0.8-0.1c0.2,0,0.4,0,0.6,0.1c0.2,0,0.5,0.1,0.7,0.3c0.2,0.1,0.4,0.3,0.5,0.6s0.2,0.6,0.2,1V56h-0.8v-0.7h0
	c-0.1,0.1-0.2,0.2-0.3,0.4c-0.1,0.1-0.3,0.2-0.5,0.3S14.7,56.1,14.4,56.1z M7.3,51.9h1.6c0.3,0,0.5-0.1,0.7-0.2
	c0.2-0.1,0.4-0.3,0.5-0.4c0.1-0.2,0.2-0.4,0.2-0.7c0-0.3-0.1-0.6-0.3-0.8c-0.2-0.2-0.6-0.3-1.1-0.3H7.3V51.9z M7.3,55.2H9
	c0.6,0,1-0.1,1.2-0.3c0.2-0.2,0.4-0.5,0.4-0.8c0-0.2-0.1-0.5-0.2-0.7c-0.1-0.2-0.3-0.4-0.5-0.5c-0.2-0.1-0.5-0.2-0.8-0.2H7.3V55.2z
	 M6.4,56v-7.3h2.5c0.5,0,0.9,0.1,1.3,0.3c0.3,0.2,0.6,0.4,0.7,0.7c0.2,0.3,0.2,0.6,0.2,1c0,0.3-0.1,0.6-0.2,0.8
	c-0.1,0.2-0.3,0.4-0.4,0.5c-0.2,0.1-0.4,0.2-0.6,0.3v0.1c0.2,0,0.4,0.1,0.7,0.2c0.2,0.1,0.4,0.3,0.6,0.6s0.2,0.6,0.2,1
	c0,0.4-0.1,0.7-0.2,1c-0.2,0.3-0.4,0.5-0.8,0.7C10.1,55.9,9.6,56,9,56H6.4z"/>
</svg>
