<svg width="113" height="19" viewBox="0 0 113 19" fill="none" xmlns="http://www.w3.org/2000/svg">
<path d="M4.54573 15.8049C4.54815 15.8183 4.55057 15.84 4.55541 15.8679C4.54573 15.863 4.53605 15.8606 4.53242 15.8545C4.4816 15.7844 4.43078 15.7481 4.36061 15.8376C4.31221 15.8993 4.26623 15.8727 4.22993 15.8195C4.09079 15.9114 3.95528 16.001 3.81856 16.0905C3.80888 16.0772 3.7992 16.0639 3.78831 16.0506C3.82824 16.0191 3.87058 15.9889 3.90809 15.9538C3.93229 15.932 3.96617 15.9029 3.96738 15.8763C3.96738 15.8533 3.93108 15.8219 3.90325 15.8086C3.78952 15.7517 3.66973 15.7057 3.58988 15.5993C3.57899 15.5847 3.55963 15.5714 3.54148 15.5666C3.43259 15.5363 3.35757 15.4819 3.34426 15.3573C3.34184 15.3319 3.2874 15.3113 3.25473 15.2907C3.21117 15.2629 3.15188 15.246 3.12647 15.2072C3.0321 15.062 2.90989 14.9362 2.86755 14.7559C2.84698 14.6664 2.76833 14.589 2.71389 14.5067C2.65097 14.4123 2.6667 14.3034 2.75865 14.2248C2.79858 14.1897 2.84093 14.1582 2.88328 14.1256C2.89538 14.1159 2.91715 14.1001 2.9232 14.1038C2.98007 14.1413 3.02847 14.1243 3.07808 14.088C3.08897 14.0808 3.11437 14.0953 3.11558 14.0953C3.15914 14.0638 3.19423 14.0421 3.22327 14.0142C3.25473 13.9816 3.28014 13.9429 3.30796 13.9066C3.26683 13.8945 3.22327 13.8666 3.18576 13.8715C3.08171 13.8872 2.96434 13.8763 2.89659 13.9937C2.88449 14.0142 2.80463 14.0191 2.77438 14.0009C2.69937 13.9574 2.65581 13.9804 2.60257 14.0348C2.56506 14.0735 2.51546 14.1122 2.46464 14.1243C2.31945 14.1594 2.24201 14.1062 2.19361 13.9622C2.17425 13.9066 2.15127 13.8509 2.12344 13.7989C2.07141 13.7033 2.07625 13.6101 2.09198 13.5024C2.11013 13.3851 2.07383 13.2592 2.12344 13.1395C2.1307 13.1213 2.08593 13.0862 2.07746 13.0548C2.06657 13.0173 2.06778 12.9749 2.06294 12.935C2.05931 12.9035 2.06173 12.8721 2.05326 12.843C2.04479 12.8152 2.01938 12.791 2.01333 12.7632C1.98792 12.6422 1.94195 12.5563 1.79191 12.5926C1.76893 12.5986 1.72779 12.5599 1.70601 12.5333C1.62494 12.4341 1.52694 12.405 1.40353 12.4377C1.36602 12.4474 1.32125 12.4304 1.28979 12.4413C1.23413 12.4704 1.17122 12.5296 1.12282 12.52C1.04538 12.5054 0.998197 12.543 0.94133 12.5684C0.804607 12.6277 0.584399 12.5393 0.516643 12.3941C0.471875 12.2973 0.415008 12.2199 0.317003 12.1691C0.214159 12.1158 0.215369 12.0832 0.300064 11.9973C0.323053 11.9731 0.337572 11.9392 0.339992 11.8932C0.321843 11.9005 0.302484 11.9138 0.284335 11.9138C0.250457 11.915 0.19722 11.9223 0.18633 11.9053C0.140353 11.8339 0.104054 11.7553 0.075016 11.6754C0.0713862 11.6645 0.125833 11.6307 0.153662 11.6089C0.210529 11.5641 0.271026 11.5218 0.324263 11.4746C0.339992 11.4601 0.339992 11.4286 0.347252 11.4044C0.320633 11.4032 0.285545 11.3899 0.267396 11.402C0.200849 11.4455 0.140353 11.4964 0.0762259 11.5448C0.0617067 11.5556 0.0435577 11.5641 0.0278285 11.5738C0.018149 11.569 0.00846955 11.5653 0 11.5605C0.0302484 11.477 0.0641266 11.3947 0.0907452 11.31C0.102845 11.2713 0.105264 11.2278 0.106474 11.1866C0.106474 11.1479 0.0834856 11.0971 0.100425 11.0705C0.171811 10.9567 0.147612 10.8442 0.139143 10.722C0.133093 10.6264 0.19238 10.5272 0.214159 10.428C0.246827 10.2767 0.324263 10.1533 0.421058 10.036C0.445256 10.0069 0.458566 9.9549 0.452516 9.91619C0.433157 9.79761 0.462195 9.69235 0.516643 9.59071C0.56141 9.50723 0.55899 9.43463 0.521482 9.34631C0.468245 9.21926 0.475505 9.08859 0.56262 8.97002C0.580769 8.94582 0.600128 8.90347 0.590449 8.88169C0.552941 8.797 0.592868 8.74134 0.647316 8.6881C0.74895 8.58526 0.75379 8.47152 0.683614 8.35174C0.511803 8.06015 0.659415 7.88833 0.868734 7.78065C0.954639 7.73709 1.04296 7.69353 1.13492 7.66934C1.24139 7.6403 1.3031 7.57254 1.32851 7.47575C1.35513 7.37169 1.42288 7.30878 1.51 7.26159C1.66971 7.17689 1.83668 7.13212 2.01938 7.17568C2.12465 7.20109 2.22749 7.17931 2.2892 7.09099C2.37389 6.96999 2.45254 6.84174 2.51062 6.70623C2.57474 6.55741 2.66186 6.43157 2.81431 6.38438C2.94377 6.34325 3.01153 6.26097 3.0442 6.14603C3.09502 5.96817 3.13252 5.78668 3.17729 5.6064C3.18334 5.58099 3.18576 5.54711 3.2027 5.5338C3.35031 5.41765 3.35152 5.23858 3.40113 5.08249C3.45437 4.9131 3.556 4.85019 3.73144 4.88527C3.88994 4.91673 4.04723 4.76791 4.00489 4.60699C3.89115 4.17262 3.76653 3.73947 3.6407 3.30873C3.60924 3.20346 3.53906 3.10788 3.51365 3.0014C3.47977 2.85984 3.55237 2.72917 3.68183 2.6602C3.82461 2.58519 3.97585 2.55252 4.13435 2.60334C4.24203 2.63842 4.34367 2.65536 4.45014 2.59245C4.48523 2.57188 4.54331 2.57551 4.58566 2.58882C4.85668 2.6723 5.11077 2.63721 5.36969 2.52348C5.58748 2.4279 5.81616 2.47871 6.03032 2.56099C6.19971 2.62632 6.35579 2.63842 6.50582 2.51743C6.55785 2.47508 6.61351 2.43878 6.66796 2.40128C6.76354 2.33473 6.82767 2.25487 6.86275 2.1363C6.96439 1.78905 7.22453 1.61845 7.56089 1.5398C7.72181 1.50229 7.88273 1.46237 8.04244 1.4176C8.11504 1.39703 8.20215 1.39098 8.23482 1.29782C8.23966 1.2833 8.28806 1.27483 8.31347 1.27846C8.39695 1.28935 8.46471 1.26757 8.51916 1.20344C8.6099 1.09455 8.7309 1.06309 8.86641 1.06067C9.01886 1.05704 9.17131 1.04252 9.32497 1.04131C9.43387 1.04131 9.54397 1.05704 9.65287 1.05825C9.68917 1.05825 9.73151 1.04373 9.76055 1.02074C9.86582 0.939675 9.97108 0.940885 10.0872 0.992912C10.1405 1.01711 10.201 1.02437 10.2578 1.03889C10.3195 1.05462 10.3812 1.07519 10.4454 1.08366C10.5047 1.09092 10.5664 1.08487 10.6365 1.08487C10.6281 1.11028 10.6208 1.13205 10.6051 1.18045C10.7176 1.17077 10.8205 1.16109 10.9221 1.15262C11.0891 1.1381 11.2464 1.1623 11.4012 1.23006C11.5343 1.28814 11.6759 1.32564 11.8114 1.37767C11.9602 1.43454 12.1078 1.49504 12.253 1.56037C12.3002 1.58094 12.3498 1.61482 12.3789 1.65596C12.4321 1.73218 12.4974 1.72976 12.5724 1.7104C12.7479 1.66564 12.9245 1.62208 13.0988 1.57247C13.1508 1.55795 13.2028 1.53254 13.2488 1.50229C13.3674 1.42607 13.5005 1.38735 13.6299 1.42486C13.9917 1.52891 14.2869 1.43212 14.5471 1.17319C14.708 1.01227 14.9173 0.945724 15.1363 0.923945C15.2609 0.911846 15.3904 0.936045 15.5162 0.942095C15.6324 0.948144 15.7485 0.951774 15.8635 0.957824C15.9518 0.961454 16.0389 0.971133 16.1272 0.971133C16.195 0.971133 16.2664 0.971133 16.3305 0.949354C16.4091 0.923946 16.4539 0.862239 16.4346 0.770284C16.5301 0.732776 16.6039 0.767864 16.6717 0.829571C16.7261 0.877968 16.7794 0.929995 16.8399 0.969923C16.9222 1.02316 17.0069 1.01348 17.077 0.944514C17.2125 0.811422 17.336 0.673489 17.388 0.478689C17.4182 0.366165 17.4799 0.258481 17.5429 0.156846C17.6215 0.0298031 17.7389 -0.0246439 17.8925 0.0104442C18.0087 0.0370628 18.1273 0.0540019 18.2446 0.0733608C18.3874 0.0975595 18.4927 0.174995 18.5725 0.294779C18.6354 0.389154 18.7032 0.478689 18.7722 0.568224C18.8847 0.713417 19.0904 0.746085 19.2416 0.64445C19.2779 0.620252 19.3142 0.597263 19.3493 0.573064C19.4425 0.506518 19.5368 0.502888 19.6385 0.557335C19.7752 0.631141 19.9059 0.694058 19.9869 0.84893C20.0426 0.954194 20.1708 1.02679 20.2749 1.10181C20.437 1.21917 20.5641 1.34742 20.6161 1.55795C20.6645 1.75638 20.777 1.93908 20.9404 2.07459C20.9972 2.12178 21.0698 2.1484 21.1388 2.17986C21.1896 2.20406 21.2453 2.21737 21.2973 2.23915C21.4316 2.29843 21.5054 2.40249 21.5078 2.5501C21.509 2.67835 21.5647 2.76184 21.6833 2.81265C21.7498 2.84048 21.8163 2.87678 21.872 2.92276C21.9107 2.95422 21.9507 3.00261 21.9591 3.0498C21.9918 3.23613 22.1188 3.33293 22.2737 3.40794C22.3608 3.45029 22.4516 3.48538 22.5338 3.53378C22.6282 3.58943 22.6899 3.66808 22.6548 3.78907C22.6488 3.80843 22.6524 3.84231 22.6657 3.85441C22.777 3.94878 22.7371 4.06252 22.6996 4.16657C22.6633 4.26579 22.6718 4.34685 22.7444 4.42187C22.8847 4.56827 22.9416 4.73282 22.9162 4.94214C22.892 5.14662 22.9779 5.3269 23.0989 5.49629C23.2054 5.64632 23.2913 5.81087 23.3747 5.97543C23.3941 6.01293 23.3856 6.10247 23.3614 6.11578C23.3106 6.14482 23.2308 6.16176 23.1787 6.14119C23.117 6.11578 23.0686 6.05165 23.0214 5.99721C22.9658 5.93429 22.9125 5.90041 22.8291 5.97422C22.9125 6.12788 22.9948 6.28154 23.0807 6.4352C23.1194 6.50417 23.1751 6.49207 23.2211 6.44609C23.2743 6.39164 23.3191 6.32994 23.3687 6.26823C23.4352 6.26218 23.4679 6.29606 23.4957 6.35898C23.7414 6.91676 23.8853 7.49753 23.866 8.10854C23.8624 8.24648 23.9313 8.31544 24.0184 8.38199C24.0378 8.39651 24.0983 8.36505 24.1346 8.34569C24.1648 8.32875 24.1842 8.29124 24.2144 8.27551C24.2991 8.23317 24.3621 8.25857 24.379 8.35174C24.3935 8.43281 24.3923 8.5175 24.3887 8.59978C24.379 8.80547 24.3621 9.01116 24.3536 9.21684C24.3427 9.44915 24.3415 9.68267 24.3282 9.91498C24.3245 9.98273 24.2967 10.0493 24.2786 10.1158C24.2701 10.1485 24.2592 10.18 24.264 10.2163C24.3608 10.0965 24.3984 9.95732 24.4044 9.80729C24.4104 9.63306 24.5145 9.50602 24.6791 9.47698C24.7892 9.45762 24.8291 9.49997 24.8049 9.60765C24.7541 9.83633 24.6996 10.065 24.6512 10.2949C24.575 10.6639 24.5036 11.0354 24.431 11.4056C24.4008 11.5581 24.3415 11.598 24.1927 11.5448C24.0947 11.5097 23.9664 11.5157 23.9349 11.3984C23.8599 11.3984 23.791 11.3959 23.722 11.3996C23.6978 11.4008 23.6615 11.4129 23.653 11.4298C23.503 11.725 23.3554 12.0215 23.2078 12.3179C23.2041 12.3264 23.2029 12.3361 23.1957 12.3615C23.2985 12.3808 23.3977 12.405 23.4982 12.4159C23.6046 12.4268 23.6966 12.382 23.7595 12.2973C23.8309 12.2018 23.8986 12.1025 23.9579 11.9985C23.9894 11.9428 24.0196 11.9162 24.0874 11.9162C24.2556 11.9162 24.4032 11.9513 24.5339 12.0675C24.6549 12.1751 24.7843 12.2768 24.921 12.3639C25.0505 12.4462 25.111 12.5526 25.1304 12.7002C25.1534 12.8842 25.1969 13.0644 25.2247 13.2471C25.232 13.2919 25.2175 13.3476 25.1957 13.3887C25.013 13.736 24.8315 14.0832 24.6379 14.4244C24.5907 14.5079 24.5036 14.5696 24.4286 14.6337C24.016 14.9894 23.5998 15.3415 23.1872 15.6985C22.5351 16.2611 21.8829 16.8249 21.2356 17.3924C21.1473 17.4698 21.0456 17.4674 20.9476 17.4795C20.5834 17.5267 20.2168 17.5642 19.8514 17.6053C19.6808 17.6247 19.5078 17.6368 19.3384 17.6695C19.2404 17.6888 19.1472 17.7421 19.0541 17.7856C18.6403 17.9744 18.2253 18.1595 17.8163 18.3579C17.6397 18.4438 17.4533 18.4547 17.2682 18.4837C16.9742 18.5297 16.679 18.5696 16.3837 18.6132C16.0401 18.664 15.6965 18.7148 15.3529 18.7644C15.0093 18.8153 14.6644 18.8637 14.3208 18.9145C14.1284 18.9423 13.936 18.9883 13.7424 18.9992C13.6202 19.0064 13.4944 18.9641 13.371 18.9423C12.8011 18.837 12.2337 18.7233 11.6626 18.6265C10.956 18.5055 10.2639 18.3361 9.58753 18.0978C9.22213 17.9695 8.84463 17.8751 8.48165 17.7384C8.305 17.6719 8.14892 17.5485 7.98679 17.4444C7.49676 17.131 7.01279 16.8092 6.51792 16.5043C6.37031 16.4135 6.19487 16.37 6.03032 16.3071C5.6867 16.1764 5.34187 16.0481 4.99703 15.9187C4.91355 15.8872 4.82522 15.8787 4.75384 15.8074C4.72117 15.7759 4.63163 15.8025 4.55299 15.8025L4.54573 15.8049ZM23.2937 12.7002C23.1315 12.9543 22.9694 13.2012 22.8158 13.4528C22.7432 13.5714 22.6669 13.621 22.5314 13.6065C22.4286 13.5956 22.3294 13.5291 22.3415 13.4673C22.356 13.3948 22.3778 13.3197 22.4141 13.2544C22.4673 13.1588 22.5387 13.0753 22.5968 12.9822C22.6149 12.9519 22.6173 12.9108 22.6197 12.8733C22.6234 12.8031 22.5992 12.722 22.627 12.6664C22.6911 12.5405 22.7722 12.4208 22.8593 12.3094C22.9743 12.163 23.0081 12.0033 22.9803 11.8243C22.9743 11.7831 22.973 11.7359 22.9864 11.6972C23.0626 11.4818 23.14 11.2665 23.2259 11.0547C23.278 10.9241 23.2671 10.8091 23.1775 10.7026C23.1582 10.6797 23.1376 10.6579 23.1207 10.6337C23.0251 10.503 22.9658 10.3663 23.0311 10.2005C23.0819 10.0711 23.117 9.93918 23.0783 9.79398C23.0638 9.73833 23.0771 9.66452 23.1013 9.61007C23.1436 9.51328 23.14 9.43947 23.0626 9.36204C22.9936 9.29186 22.973 9.22168 23.065 9.13578C23.1594 9.04745 23.1473 8.98212 23.065 8.88774C23.0541 8.87564 23.0444 8.8587 23.042 8.84418C23.0323 8.75586 23.0009 8.66027 23.0214 8.578C23.0614 8.4195 23.0142 8.29608 22.9125 8.18598C22.8254 8.0916 22.8315 7.99723 22.8775 7.8835C22.9077 7.80727 22.9222 7.71289 22.9077 7.63425C22.8871 7.52172 22.84 7.41283 22.7879 7.30878C22.7601 7.25312 22.7008 7.21198 22.656 7.16479C22.6149 7.12003 22.558 7.08252 22.5375 7.02928C22.4274 6.75099 22.3378 6.46908 22.3511 6.16055C22.3584 6.00567 22.3318 5.84959 22.1479 5.7891C22.1358 5.78547 22.1237 5.77579 22.1164 5.76611C22.016 5.62333 21.9204 5.46725 21.9228 5.29423C21.9265 5.14662 21.8381 5.04015 21.8139 4.90947C21.8079 4.87802 21.7776 4.8393 21.7474 4.82599C21.6639 4.78848 21.6312 4.71346 21.6397 4.64087C21.6566 4.48963 21.5659 4.42671 21.4558 4.36984C21.4413 4.36258 21.428 4.35169 21.4134 4.34322C21.3287 4.29967 21.2888 4.23796 21.2912 4.13632C21.2973 3.93426 21.2247 3.83505 21.0396 3.76003C20.846 3.68139 20.8121 3.6342 20.8145 3.42367C20.8145 3.32446 20.8327 3.22524 20.829 3.12603C20.8242 3.00866 20.8 2.8913 20.794 2.77394C20.7867 2.62149 20.7431 2.59003 20.5931 2.61302C20.5072 2.62632 20.414 2.62511 20.3293 2.60697C20.2132 2.58277 20.0982 2.54526 19.9906 2.49565C19.9409 2.47266 19.8901 2.41096 19.8792 2.35772C19.8599 2.26818 19.8175 2.24278 19.7353 2.24762C19.5913 2.25487 19.486 2.19559 19.4267 2.06008C19.4098 2.02015 19.3892 1.98143 19.365 1.94634C19.2755 1.80841 19.1654 1.70193 18.9924 1.67048C18.7976 1.63418 18.6015 1.59546 18.4128 1.53859C18.224 1.48173 18.0426 1.46721 17.8586 1.54343C17.659 1.62571 17.4557 1.63902 17.2464 1.58457C17.2053 1.57368 17.1436 1.58578 17.1109 1.61119C16.9258 1.75396 16.7987 1.93908 16.7661 2.17381C16.754 2.25971 16.7153 2.30811 16.6451 2.33836C16.6027 2.35651 16.5555 2.36861 16.5108 2.36982C16.316 2.37829 16.1272 2.35288 15.947 2.2706C15.9264 2.26092 15.8961 2.25729 15.8744 2.26334C15.6626 2.32747 15.4533 2.39644 15.2416 2.46056C15.1932 2.47508 15.1399 2.47266 15.0891 2.47629C14.9875 2.48355 14.8725 2.46056 14.7854 2.50049C14.6366 2.56825 14.4926 2.58761 14.3402 2.54768C14.2276 2.51864 14.1587 2.55736 14.0957 2.64689C13.9856 2.8054 13.9131 2.82233 13.7739 2.69045C13.665 2.5864 13.5682 2.59124 13.4436 2.63963C12.9959 2.81144 13.0395 2.83322 12.6136 2.55978C12.4418 2.44967 12.247 2.41217 12.0449 2.50775C11.9905 2.53316 11.9154 2.54889 11.861 2.53195C11.694 2.48113 11.5295 2.41701 11.3673 2.34804C11.1145 2.24036 10.9451 2.26697 10.7551 2.46661C10.5736 2.65778 10.4357 2.88767 10.2191 3.05101C10.1417 3.10909 10.0788 3.14539 9.98076 3.13571C9.8634 3.12361 9.73635 3.09941 9.63835 3.19257C9.57664 3.25065 9.51009 3.2567 9.43629 3.24581C9.28747 3.22403 9.15195 3.25428 9.0358 3.35108C8.73332 3.60516 8.51069 3.92338 8.33646 4.27305C8.28806 4.36984 8.22998 4.43518 8.13682 4.46301C7.91903 4.52592 7.86337 4.69894 7.84159 4.89011C7.83191 4.97723 7.80408 5.02442 7.71455 5.00869C7.63227 4.99417 7.58509 5.03047 7.54516 5.0958C7.49555 5.17687 7.44473 5.26035 7.38061 5.33053C7.28986 5.43217 7.12289 5.44426 7.0636 5.58825C7.05755 5.60156 7.02005 5.61124 7.00069 5.60761C6.94382 5.59551 6.88937 5.57615 6.82646 5.558C6.89784 5.43459 6.96681 5.32932 7.02247 5.2168C7.18823 4.88769 7.34552 4.55496 7.51128 4.22586C7.72302 3.80117 7.99163 3.41883 8.36308 3.11756C8.78413 2.77636 9.20882 2.43999 9.6323 2.10121C9.79806 1.96812 9.96382 1.83503 10.1308 1.70193C10.2082 1.64023 10.2155 1.56279 10.1804 1.47931C10.1453 1.39582 10.0679 1.39824 10.0013 1.41639C9.90574 1.4418 9.81379 1.48294 9.72062 1.51681C9.60568 1.55674 9.48832 1.58941 9.37579 1.63418C9.26448 1.67895 9.10719 1.5882 9.03459 1.74912C9.03217 1.75396 9.01523 1.75396 9.00555 1.75275C8.92327 1.74549 8.841 1.73581 8.75873 1.72976C8.72364 1.72734 8.6825 1.71887 8.65588 1.73218C8.56876 1.77816 8.48044 1.82656 8.403 1.88705C8.24813 2.00805 8.0981 2.13388 7.95049 2.26334C7.77868 2.41459 7.60203 2.5622 7.44352 2.72675C7.2826 2.89372 7.14225 3.08126 6.99101 3.25791C6.90994 3.35229 6.80468 3.37165 6.68489 3.35955C6.53849 3.34503 6.47558 3.21919 6.59536 3.08852C6.7587 2.90945 6.91841 2.72554 7.07933 2.54405C7.14709 2.46782 7.21364 2.39039 7.28018 2.31295C7.27171 2.30569 7.26445 2.29722 7.25598 2.28996C7.03094 2.47508 6.79984 2.65415 6.58205 2.84774C6.49614 2.92397 6.4054 2.96511 6.29771 2.9639C6.24932 2.9639 6.20213 2.92034 6.15373 2.89977C6.12711 2.88767 6.09687 2.87315 6.06904 2.87557C6.04 2.87678 6.01217 2.89614 5.98434 2.90703C6.0037 2.93123 6.01822 2.96148 6.04242 2.97842C6.07025 2.99657 6.10534 3.00141 6.14042 3.0135C6.05936 3.14902 5.9178 3.23008 5.91296 3.4031C5.96982 3.38132 6.02306 3.3535 6.05694 3.30994C6.1259 3.21919 6.22633 3.19741 6.33885 3.2809C6.04726 3.61605 5.75687 3.9512 5.46649 4.28515C5.45439 4.28152 5.44108 4.2791 5.42898 4.27547C5.41204 4.23191 5.38905 4.19077 5.38058 4.146C5.34187 3.95846 5.49674 3.88587 5.62499 3.78665C5.504 3.72737 5.51731 3.67655 5.602 3.61968C5.64798 3.58943 5.67823 3.54225 5.65403 3.50837C5.58143 3.48296 5.53304 3.46602 5.48343 3.44908C5.504 3.39342 5.51489 3.33051 5.54876 3.28453C5.5899 3.23008 5.65403 3.19378 5.70122 3.14297C5.723 3.11998 5.72663 3.08126 5.73872 3.0498C5.70848 3.04254 5.67097 3.02197 5.64919 3.03165C5.58264 3.06432 5.504 3.09578 5.46407 3.15265C5.40115 3.24339 5.33703 3.2446 5.25233 3.20346C5.20877 3.18169 5.16522 3.1587 5.11803 3.1345C5.13255 3.10788 5.1386 3.08852 5.1507 3.07521C5.24386 2.97237 5.3334 2.86468 5.47012 2.81144C5.49553 2.80177 5.50763 2.76063 5.52578 2.7328C5.49311 2.72312 5.45923 2.70013 5.42898 2.70618C5.38542 2.71465 5.34187 2.73764 5.30436 2.76184C5.22208 2.81386 5.14223 2.85863 5.03817 2.85621C4.98856 2.85621 4.9317 2.89009 4.88814 2.92276C4.81433 2.976 4.75384 3.00141 4.68366 2.91429C4.66188 2.88767 4.60139 2.8913 4.55904 2.88162C4.57114 2.91671 4.57356 2.96027 4.59534 2.98689C4.65099 3.05706 4.69213 3.12724 4.63647 3.21193C4.53121 3.37406 4.41989 3.53136 4.31463 3.69228C4.24929 3.79149 4.1888 3.89434 4.12951 3.99839C4.12104 4.01291 4.13435 4.03953 4.13798 4.0601C4.15855 4.05405 4.18396 4.05405 4.19848 4.04074C4.22752 4.01412 4.24687 3.97661 4.27591 3.94999C4.44651 3.79028 4.63163 3.64388 4.70302 3.40552C4.70786 3.38858 4.72722 3.36923 4.74295 3.36318C4.78409 3.34866 4.83248 3.32688 4.86878 3.33656C4.88814 3.34261 4.90266 3.40915 4.90024 3.44666C4.89056 3.58338 4.80344 3.67655 4.70181 3.75519C4.54452 3.8774 4.45135 4.04074 4.39086 4.22828C4.4332 4.2065 4.46829 4.17867 4.49854 4.14721C4.64978 3.98387 4.79619 3.81448 4.95469 3.65719C4.99824 3.61363 5.07447 3.59185 5.1386 3.58217C5.21603 3.57007 5.25354 3.63904 5.2124 3.7068C5.19425 3.73705 5.16401 3.76245 5.1386 3.78786C4.87967 4.05042 4.67277 4.35048 4.48039 4.66144C4.37271 4.83446 4.39086 4.90221 4.55299 5.02079C4.66309 5.10185 4.66067 5.15146 4.53968 5.21922C4.52274 5.2289 4.50338 5.23616 4.48523 5.24463C4.29285 5.33174 4.26139 5.39829 4.311 5.6064C4.32068 5.64874 4.32431 5.69472 4.34609 5.72981C4.39691 5.81329 4.39933 5.89194 4.34246 5.96938C4.29285 6.03834 4.2505 6.12183 4.18275 6.16781C4.03272 6.27186 3.99884 6.3251 4.03272 6.50538C4.04723 6.57918 4.0303 6.63363 3.96859 6.68929C3.91777 6.73406 3.89357 6.80907 3.86211 6.8732C3.84881 6.89861 3.85364 6.93491 3.83913 6.95789C3.75564 7.08857 3.66732 7.21561 3.58141 7.34507C3.56689 7.36685 3.54148 7.39105 3.54269 7.41283C3.54874 7.53019 3.46526 7.54713 3.38177 7.5798C3.30433 7.61005 3.20633 7.64756 3.17124 7.71168C3.10227 7.8351 3.00185 7.90285 2.88207 7.95246C2.703 8.02748 2.6425 8.17146 2.63282 8.35295C2.6304 8.39772 2.60015 8.44732 2.56748 8.4812C2.52998 8.52113 2.47674 8.54896 2.42834 8.57679C2.35574 8.61914 2.30735 8.67358 2.29525 8.76312C2.29041 8.79579 2.25169 8.84055 2.21902 8.85023C2.10166 8.88411 2.05447 8.9676 2.06052 9.07407C2.0702 9.23862 2.08835 9.40317 2.11497 9.56651C2.13191 9.66694 2.20934 9.7722 2.18998 9.86053C2.14643 10.0614 2.24443 10.1666 2.3872 10.2634C2.39567 10.2695 2.40172 10.2767 2.40898 10.284C2.47553 10.3481 2.54449 10.3433 2.61467 10.2913C2.71631 10.215 2.76833 10.215 2.86876 10.3046C2.94619 10.3735 3.02363 10.3881 3.11316 10.3336C3.17245 10.2973 3.22932 10.2973 3.2886 10.3433C3.39024 10.4231 3.49308 10.5006 3.59956 10.5744C3.6528 10.6119 3.68062 10.653 3.68062 10.722C3.67941 10.9725 3.61408 11.1927 3.42412 11.3693C3.3733 11.4165 3.30796 11.4927 3.31401 11.5484C3.32369 11.6464 3.29102 11.7214 3.24263 11.7892C3.13615 11.9368 3.12889 12.0747 3.21238 12.2393C3.28377 12.3808 3.28256 12.3966 3.42533 12.3167C3.54995 12.2465 3.66489 12.2635 3.78589 12.3215C3.81977 12.3373 3.86332 12.3518 3.8972 12.3433C4.00368 12.3191 4.10773 12.284 4.21542 12.2526C4.2384 12.3022 4.25776 12.3433 4.26986 12.3699C4.20937 12.4099 4.16218 12.445 4.11136 12.4728C4.08958 12.4837 4.04482 12.4897 4.03635 12.4788C3.98553 12.4111 3.9214 12.428 3.86453 12.451C3.73991 12.5018 3.61892 12.5611 3.49913 12.6228C3.48098 12.6325 3.47615 12.6797 3.47736 12.7087C3.48219 12.8249 3.47736 12.9434 3.53785 13.0499C3.54148 13.0572 3.54148 13.0717 3.53664 13.079C3.45195 13.2314 3.53301 13.3754 3.58867 13.4988C3.66127 13.6597 3.74959 13.8122 3.81251 13.9792C3.86453 14.1195 4.02062 14.203 4.05207 14.3627C4.05449 14.3736 4.0799 14.3772 4.092 14.3881C4.12104 14.4135 4.14887 14.4401 4.17791 14.4668C4.14161 14.4897 4.10652 14.5285 4.06901 14.5309C3.99521 14.5357 3.96254 14.5708 3.94197 14.6422C3.97343 14.6446 4.00005 14.6531 4.02425 14.647C4.17428 14.6132 4.32431 14.5756 4.47434 14.5406C4.48644 14.5381 4.50459 14.5345 4.51064 14.5406C4.57356 14.6023 4.63284 14.5708 4.70665 14.5635C4.7986 14.5551 4.90145 14.6265 4.9934 14.6761C5.04785 14.7051 5.0902 14.7583 5.15433 14.8152C5.13497 14.9096 5.22087 14.9144 5.30557 14.9096C5.40962 14.9035 5.46165 14.9423 5.48343 15.0487C5.52215 15.2326 5.63951 15.3149 5.82705 15.3319C6.02427 15.35 6.21302 15.396 6.36426 15.5412C6.44049 15.615 6.52276 15.6852 6.61109 15.7432C6.7345 15.8255 6.85913 15.9163 7.02368 15.8691C7.26324 15.8001 7.49918 15.8086 7.73875 15.8751C7.83917 15.9029 7.94928 15.9114 8.05333 15.9042C8.23119 15.8908 8.40784 15.8558 8.58449 15.834C8.67161 15.8231 8.75873 15.8122 8.82769 15.8981C8.88093 15.9647 8.95473 16.0143 9.01765 16.0748C9.10235 16.1558 9.19672 16.2151 9.31167 16.2514C9.54155 16.324 9.77386 16.399 9.99528 16.4922C10.4333 16.6785 10.8519 16.8939 11.1943 17.2411C11.3577 17.4069 11.5162 17.609 11.8017 17.5872C11.9626 17.5751 12.1272 17.6138 12.2881 17.6017C12.4817 17.5872 12.6741 17.5448 12.8665 17.5097C13.0177 17.4831 13.181 17.4904 13.2972 17.3621C13.3516 17.3028 13.3976 17.2375 13.4472 17.1746C13.5416 17.2169 13.6432 17.2665 13.7473 17.3065C14.132 17.4517 14.5168 17.5956 14.9028 17.736C15.0673 17.7953 15.2246 17.8885 15.4182 17.834C15.5283 17.8025 15.6469 17.8013 15.763 17.7904C16.0014 17.7699 16.2398 17.7384 16.4781 17.7372C16.6717 17.736 16.8701 17.7312 17.0565 17.8171C17.1133 17.8437 17.1871 17.8497 17.2488 17.8388C17.3892 17.8146 17.5283 17.782 17.6638 17.7372C18.6124 17.4263 19.5114 16.9979 20.4177 16.5841C20.506 16.5442 20.5048 16.4849 20.4769 16.4051C20.4503 16.3313 20.4394 16.2514 20.4165 16.1558C20.6149 16.2212 20.7794 16.2792 20.9464 16.3288C20.99 16.3422 21.0456 16.3422 21.0892 16.3288C21.307 16.2587 21.5223 16.1837 21.7377 16.1074C21.7704 16.0953 21.8042 16.0748 21.8284 16.0493C22.2979 15.5642 22.8315 15.154 23.3905 14.7801C23.8176 14.4934 24.2096 14.18 24.4782 13.7311C24.5823 13.5581 24.667 13.3875 24.6343 13.1794C24.627 13.137 24.6198 13.0947 24.6161 13.0523C24.604 12.9168 24.4625 12.7862 24.3258 12.7741C24.2653 12.7692 24.2048 12.7462 24.1491 12.7208C24.0705 12.6833 23.9954 12.6361 23.9216 12.5938C23.6651 12.9374 23.6337 12.9434 23.2937 12.7087V12.7002ZM17.3916 16.716C17.3868 16.8237 17.3347 16.8515 17.2634 16.8709C16.8883 16.9689 16.5059 17.027 16.1188 17.0052C15.6675 16.9798 15.2149 16.9991 14.7673 16.9132C14.2446 16.8128 13.7618 16.6216 13.3057 16.3518C13.2682 16.3301 13.2306 16.3095 13.1943 16.2853C13.1157 16.2308 13.0346 16.2127 12.9415 16.2454C12.8737 16.2683 12.8011 16.278 12.7225 16.2962C12.7624 16.3797 12.7914 16.4559 12.685 16.5007C12.5398 16.8515 12.1877 16.8697 11.8985 16.9883C11.8864 16.9931 11.8707 16.9919 11.8598 16.9967C11.6239 17.1201 11.4424 17.0149 11.2826 16.8491C11.2016 16.7656 11.1145 16.7015 11.0019 16.6688C10.9681 16.6592 10.9293 16.6398 10.91 16.6132C10.8132 16.4752 10.6668 16.4135 10.5156 16.3797C10.2179 16.3131 10.0364 16.1111 9.87066 15.88C9.84041 15.8376 9.79201 15.8098 9.75813 15.7686C9.65287 15.644 9.50041 15.6235 9.35643 15.5799C9.32013 15.569 9.29231 15.5339 9.25964 15.5121C9.19551 15.4698 9.12897 15.4311 9.06484 15.3875C9.0358 15.3682 9.00918 15.344 8.9874 15.3173C8.94868 15.2689 8.91481 15.2169 8.87367 15.1576C8.79986 15.2556 8.75146 15.2218 8.69581 15.1528C8.6704 15.1213 8.61837 15.1129 8.58207 15.0899C8.54215 15.0645 8.49496 15.0415 8.46955 15.0052C8.41147 14.9193 8.35098 14.8406 8.25539 14.7922C8.19731 14.762 8.14892 14.7196 8.14771 14.6374C8.14771 14.6083 8.10052 14.5623 8.06785 14.5551C7.9154 14.5176 7.90935 14.3772 7.85127 14.272C7.82828 14.2296 7.80046 14.1885 7.77505 14.1485C7.77142 14.1437 7.76053 14.1401 7.76053 14.1364C7.76779 13.9707 7.55242 13.9162 7.56573 13.7432C7.56815 13.713 7.50644 13.6791 7.4774 13.6452C7.43384 13.5956 7.40239 13.523 7.34794 13.4976C7.24872 13.4516 7.22453 13.3209 7.09869 13.3088C7.04062 13.3028 6.97286 13.2774 6.93172 13.2375C6.89179 13.1987 6.86154 13.1322 6.8567 13.0753C6.84461 12.9144 6.81557 12.8878 6.6244 12.9277C6.65707 12.9543 6.67884 12.9761 6.70304 12.9918C6.75991 13.0306 6.76717 13.0777 6.73813 13.1382C6.70546 13.2072 6.66554 13.1782 6.61593 13.16C6.57842 13.1455 6.53244 13.1503 6.49009 13.1479C6.47316 13.1479 6.45259 13.1564 6.44049 13.1479C6.26626 13.0427 6.05089 13.0681 5.87545 12.9689C5.84762 12.9531 5.82584 12.9253 5.80285 12.9011C5.73872 12.8346 5.67702 12.7656 5.61047 12.7015C5.51731 12.6107 5.47375 12.3409 5.5415 12.2356C5.58022 12.1739 5.5536 12.1267 5.51368 12.0844C5.47012 12.0396 5.45681 12.0021 5.50521 11.9489C5.52336 11.9283 5.53304 11.8823 5.52336 11.8569C5.48948 11.7638 5.51368 11.6827 5.54755 11.598C5.55965 11.569 5.55481 11.5121 5.53425 11.4939C5.46165 11.4274 5.46407 11.3451 5.47375 11.2628C5.49069 11.1225 5.47254 11.1043 5.33582 11.1249C5.30799 11.1285 5.27169 11.108 5.24749 11.0886C5.19909 11.0511 5.15433 11.0088 5.11077 10.9664C5.07568 10.9325 5.03696 10.8999 5.01276 10.8587C4.94501 10.745 4.8712 10.6313 4.8228 10.5091C4.78772 10.4207 4.76836 10.3155 4.77562 10.2211C4.7986 9.9174 4.84821 9.61491 4.86757 9.31122C4.88572 9.04261 4.97042 8.78853 5.01276 8.52476C5.08778 8.05652 5.18457 7.5919 5.36364 7.15027C5.49553 6.8248 5.62741 6.49933 5.7605 6.17386C5.81495 6.03955 5.80406 5.91493 5.71695 5.79757C5.64556 5.70077 5.57538 5.70561 5.52094 5.81209C5.26322 6.31179 5.05027 6.82843 4.91718 7.37653C4.86636 7.58585 4.7986 7.79154 4.75021 8.00086C4.70181 8.20897 4.66551 8.4195 4.60985 8.62761C4.56025 8.81394 4.5663 9.03293 4.71875 9.20354C4.70181 9.21321 4.6885 9.22289 4.67398 9.23015C4.53484 9.2967 4.52879 9.33663 4.53968 9.48908C4.55057 9.63911 4.52879 9.79156 4.51669 9.9416C4.51427 9.96821 4.49249 9.99362 4.47555 10.0287C4.36424 9.91861 4.31705 9.79519 4.33157 9.65242C4.38844 9.12126 4.49128 8.59857 4.61711 8.08071C4.74053 7.57617 4.8591 7.06921 4.99098 6.56708C5.03333 6.40495 5.10472 6.24887 5.17247 6.09521C5.27169 5.87016 5.37937 5.65116 5.48343 5.42854C5.53546 5.31722 5.57659 5.20107 5.63588 5.09459C5.66492 5.04378 5.72542 5.01232 5.77018 4.96997C5.8331 4.91068 5.91175 4.85866 5.95409 4.78606C6.17793 4.40614 6.39088 4.01775 6.61351 3.63783C6.69578 3.49627 6.71393 3.49869 6.85912 3.57612C7.07449 3.69107 7.07691 3.69228 6.95471 3.90039C6.79621 4.1702 6.63529 4.4376 6.47558 4.7062C6.43686 4.77154 6.39451 4.83567 6.34369 4.91552C6.35337 4.91552 6.33643 4.91915 6.32312 4.9131C6.22512 4.87076 6.14284 4.86834 6.07146 4.96876C6.04726 5.00385 5.98918 5.02442 5.9432 5.03168C5.86456 5.04378 5.82342 5.08007 5.79317 5.15509C5.75929 5.23979 5.70848 5.31843 5.65524 5.39224C5.60563 5.46241 5.60926 5.52412 5.64677 5.59551C5.78833 5.86653 6.02911 5.96212 6.31586 5.98148C6.33643 5.98269 6.3691 6.00567 6.37152 6.0214C6.38725 6.15329 6.4913 6.19321 6.59294 6.22104C6.69457 6.24887 6.80105 6.26218 6.90631 6.27186C6.94019 6.27428 6.99101 6.25492 7.00916 6.2283C7.05029 6.16781 7.10474 6.13998 7.16645 6.10731C7.22816 6.07343 7.28381 5.99962 7.31043 5.93187C7.39029 5.72013 7.56331 5.57978 7.78836 5.59067C8.00009 5.60035 8.20336 5.5701 8.40179 5.50113C8.44293 5.48661 8.48528 5.45394 8.50948 5.41765C8.91844 4.81268 9.46049 4.34201 10.0328 3.90281C10.5494 3.50595 11.0673 3.11151 11.5694 2.72796C11.6759 2.75095 11.6916 2.80177 11.6783 2.87315C11.6614 2.9639 11.6577 3.05827 11.6323 3.1466C11.6178 3.1962 11.5779 3.24581 11.5355 3.27727C11.1302 3.5737 10.7128 3.8532 10.3183 4.16173C9.95414 4.44607 9.60205 4.74855 9.26811 5.06676C9.06484 5.26035 8.90513 5.49871 8.72727 5.71892C8.71154 5.73828 8.69339 5.77216 8.69944 5.7891C8.743 5.90646 8.65951 5.98148 8.61595 6.07101C8.51553 6.2767 8.4151 6.48239 8.32315 6.69171C8.27233 6.80786 8.30984 6.88288 8.42841 6.94095C8.49738 6.97483 8.56756 7.00387 8.63773 7.03291C8.78171 7.09462 8.8652 7.05348 8.93174 6.91071C9.06484 6.62516 9.19551 6.3372 9.34675 6.06133C9.58995 5.61608 9.94083 5.26156 10.3486 4.96392C10.5119 4.84414 10.6753 4.72435 10.8398 4.60578C10.8689 4.584 10.9052 4.54649 10.9318 4.55133C11.1229 4.58884 11.2572 4.4618 11.4097 4.39404C11.567 4.32507 11.7231 4.24885 11.8755 4.16899C12.1429 4.02864 12.4103 3.88587 12.6741 3.73947C12.7455 3.69954 12.7842 3.7189 12.8302 3.77697C12.8749 3.83263 12.933 3.8774 12.9874 3.9258C13.025 3.95846 13.0782 3.98145 13.1 4.02138C13.1447 4.10729 13.221 4.11818 13.2984 4.12543C13.4763 4.14237 13.6553 4.1581 13.8344 4.16415C13.901 4.16657 13.9748 4.15326 14.0353 4.12543C14.4684 3.92096 14.9246 3.82053 15.4025 3.8048C15.7945 3.7927 16.1853 3.75761 16.5785 3.74915C17.2428 3.73463 17.8974 3.82779 18.5495 3.94878C18.6282 3.9633 18.6512 4.01412 18.6354 4.08914C18.6221 4.15568 18.61 4.22223 18.5967 4.29483C18.6185 4.28999 18.627 4.28999 18.6294 4.28636C18.7516 4.08672 18.9234 4.06252 19.1388 4.11455C19.6542 4.23675 20.0958 4.49205 20.4927 4.83083C20.8424 5.12847 21.1775 5.44305 21.5187 5.75038C21.5453 5.77458 21.5744 5.79999 21.5949 5.82902C21.6409 5.89194 21.6687 5.95728 21.5949 6.02261C21.4727 6.13393 21.3529 6.25008 21.2283 6.35898C21.1594 6.41947 21.146 6.4715 21.1969 6.5562C21.5792 7.19746 21.9168 7.86051 22.1902 8.55622C22.2047 8.59252 22.2447 8.6385 22.2773 8.64334C22.3076 8.64697 22.3451 8.6022 22.379 8.57679C22.3886 8.56953 22.3971 8.55864 22.4165 8.53807C22.4661 8.58284 22.5133 8.6264 22.5786 8.68447C22.506 8.71109 22.4516 8.73408 22.3947 8.75102C22.3015 8.77764 22.2543 8.83329 22.2628 8.93251C22.2834 9.19023 22.2991 9.44915 22.3294 9.70566C22.3354 9.75648 22.3899 9.81576 22.4383 9.8448C22.5169 9.89199 22.6089 9.9174 22.6948 9.95369C22.8666 10.0251 22.8944 10.1679 22.7468 10.2804C22.6573 10.3493 22.6415 10.4086 22.6827 10.5103C22.8315 10.8696 22.7057 11.1939 22.5508 11.5181C22.4637 11.6996 22.3971 11.892 22.3233 12.0808C22.2471 12.2756 22.1842 12.4752 22.0971 12.6652C22.0571 12.7511 21.9688 12.8128 21.9131 12.8938C21.7425 13.1395 21.5719 13.3851 21.4098 13.6355C21.0408 14.2042 20.6294 14.7378 20.1745 15.2411C20.0825 15.3427 19.9893 15.442 19.8938 15.54C19.803 15.6331 19.7595 15.6283 19.6844 15.5206C19.6663 15.494 19.6457 15.4698 19.6264 15.4444C19.6179 15.448 19.6094 15.4516 19.6022 15.4553C19.6203 15.5085 19.6324 15.563 19.6566 15.6126C19.6978 15.6973 19.6699 15.7505 19.601 15.8074C19.2114 16.1292 18.7661 16.3506 18.3015 16.5394C18.068 16.6337 17.832 16.7209 17.5973 16.8152C17.5114 16.8491 17.4424 16.8479 17.3928 16.7281L17.3916 16.716ZM20.3898 13.8848L20.3572 13.8545C20.3402 13.8678 20.3221 13.8811 20.3063 13.8969C20.1019 14.0929 19.9047 14.2974 19.6917 14.4825C19.5598 14.5974 19.4582 14.7632 19.261 14.791C19.2489 14.7922 19.2368 14.8128 19.2283 14.8261C19.0795 15.0741 18.8629 15.2508 18.6124 15.3815C18.0341 15.6852 17.4315 15.9296 16.783 16.0385C16.316 16.1171 15.8562 16.1098 15.4134 15.9078C15.3444 15.8763 15.2549 15.8872 15.1738 15.8872C15.1048 15.8872 15.0347 15.909 14.9657 15.9042C14.4769 15.8642 14.0219 15.7154 13.5985 15.4722C13.4823 15.4057 13.3589 15.3306 13.3637 15.1867C13.2948 15.1867 13.2234 15.2036 13.1677 15.183C13.0504 15.1395 12.9257 15.0959 12.8302 15.0185C12.4684 14.7245 12.1115 14.4232 11.8138 14.0614C11.5053 13.6876 11.2343 13.2907 11.1278 12.8043C11.1048 12.7002 11.1411 12.6385 11.2464 12.6204C11.3177 12.6083 11.3891 12.5938 11.4605 12.578C11.5912 12.549 11.6142 12.5587 11.6638 12.6833C11.7945 13.0124 11.9626 13.3222 12.1768 13.6041C12.5059 14.0372 12.904 14.399 13.3371 14.7245C13.44 14.8019 13.4617 14.8576 13.4315 14.9798C13.4267 14.9967 13.4267 15.0161 13.4206 15.062C13.5198 14.935 13.619 14.9423 13.7376 14.9858C14.0244 15.0899 14.3135 15.1867 14.6051 15.2762C14.9161 15.3718 15.227 15.4662 15.5586 15.4613C15.7582 15.4589 15.9591 15.4577 16.1587 15.4613C16.7818 15.4722 17.3723 15.3306 17.9312 15.0633C18.8798 14.6107 19.6264 13.9223 20.2229 13.0644C20.3269 12.9144 20.4177 12.7559 20.5181 12.6035C20.5725 12.5212 20.6476 12.4558 20.7516 12.5018C20.9149 12.5744 21.0444 12.6349 21.0384 12.7571C21.0371 12.7874 21.042 12.8188 21.0444 12.8588C21.1259 12.7741 21.2194 12.7543 21.3251 12.7995C21.3675 12.8176 21.4086 12.843 21.4534 12.8527C21.486 12.86 21.5284 12.8563 21.5586 12.8406C21.7014 12.768 21.7643 12.647 21.7994 12.4885C21.8611 12.2066 21.9386 11.9247 21.9035 11.6355C21.8696 11.3572 21.8793 11.0874 21.9579 10.8212C22.0922 10.3651 22.1805 9.90409 22.1515 9.42616C22.143 9.28339 22.1394 9.13941 22.1188 8.99905C22.0511 8.55985 21.9095 8.14242 21.7389 7.73467C21.584 7.36564 21.4146 7.00387 21.1158 6.72438C21.0045 6.62032 20.9609 6.48602 20.9549 6.34083C20.9512 6.25492 20.9198 6.20047 20.8532 6.14966C20.529 5.90041 20.2096 5.64632 19.8853 5.39587C19.6167 5.18776 19.3457 4.97844 19.0214 4.86713C18.5023 4.68926 17.9748 4.55617 17.4219 4.52229C17.0105 4.49689 16.6039 4.5114 16.1974 4.56585C15.9627 4.59731 15.7328 4.5961 15.5102 4.5114C15.2549 4.4134 15.0093 4.44849 14.7636 4.54407C14.5531 4.62635 14.3414 4.70378 14.1296 4.78243C13.9917 4.83446 13.9493 4.81752 13.8864 4.68443C13.8513 4.60941 13.8235 4.53076 13.7848 4.45696C13.74 4.37105 13.6759 4.33354 13.5718 4.36137C13.4182 4.40251 13.2633 4.4376 13.106 4.4618C12.9693 4.48358 12.8302 4.50293 12.6922 4.49447C12.5785 4.48842 12.4672 4.44365 12.3559 4.41219C12.2845 4.39162 12.224 4.40009 12.1586 4.44002C11.8513 4.62393 11.5755 4.84656 11.3177 5.09459C11.0503 5.35352 10.7721 5.60277 10.4986 5.85685C10.4357 5.91493 10.357 5.96212 10.3111 6.03229C10.2179 6.16902 10.1465 6.32147 10.0582 6.46182C9.98076 6.58402 9.91058 6.71954 9.80411 6.81028C9.69401 6.90466 9.60084 6.98209 9.63351 7.14059C9.63835 7.16116 9.62141 7.18536 9.62141 7.20835C9.62383 7.27006 9.61173 7.34023 9.63835 7.39105C9.69763 7.50841 9.69158 7.61489 9.64803 7.73346C9.46654 8.2247 9.38547 8.73287 9.39394 9.25798C9.4012 9.7347 9.39394 10.2114 9.39757 10.6881C9.39757 10.7837 9.40725 10.8817 9.43024 10.9737C9.54034 11.4177 9.66013 11.8581 9.76781 12.3022C9.83557 12.5817 9.91542 12.8563 9.94567 13.1467C9.9735 13.4105 10.0509 13.6718 10.1235 13.9295C10.1514 14.03 10.2227 14.1195 10.2808 14.2248C10.0642 14.2453 9.89001 14.186 9.75813 14.0239C9.64924 13.8896 9.54639 13.7505 9.44355 13.6125C9.33949 13.4722 9.21487 13.3451 9.18946 13.1588C9.17373 13.0439 9.14348 12.9313 9.12049 12.8188C9.00918 12.2744 8.89545 11.7311 8.79018 11.1854C8.76114 11.0366 8.77203 10.8793 8.74179 10.7317C8.67524 10.411 8.58086 10.0965 8.524 9.77462C8.48286 9.54474 8.46592 9.30638 8.47318 9.07407C8.47923 8.87443 8.53489 8.67479 8.56997 8.47636C8.62563 8.15815 8.6946 7.84599 8.86641 7.56407C8.93296 7.45518 8.98014 7.33418 9.05032 7.18899C8.97288 7.19746 8.91481 7.19504 8.86157 7.21077C8.65588 7.27127 8.47681 7.38379 8.34977 7.55318C8.21909 7.7262 8.04123 7.77218 7.85006 7.76371C7.70003 7.75766 7.61412 7.81816 7.56452 7.94278C7.48345 8.14968 7.40844 8.35779 7.33826 8.56953C7.28986 8.71714 7.23904 8.86596 7.21848 9.01841C7.18944 9.22894 7.18944 9.44189 7.17492 9.65363C7.16766 9.74922 7.16282 9.84601 7.14467 9.94039C7.13378 9.99241 7.09627 10.0396 7.07086 10.0892C7.02005 10.0444 6.96681 10.0021 6.92204 9.95249C6.90631 9.93434 6.91115 9.89562 6.91115 9.86658C6.90268 9.38745 6.99222 8.92162 7.12652 8.46426C7.28986 7.9089 7.46167 7.35475 7.63106 6.8006C7.65889 6.70744 7.62501 6.65904 7.52822 6.64694C7.45925 6.63847 7.3915 6.62153 7.32253 6.61427C7.07449 6.58644 7.01279 6.5562 6.87001 6.84537C6.60504 7.385 6.42113 7.95004 6.29529 8.53686C6.18398 9.0535 6.11501 9.57014 6.19729 10.0977C6.24085 10.3711 6.28562 10.6458 6.62319 10.722C6.68368 10.7353 6.69336 10.7801 6.66191 10.8297C6.59657 10.9325 6.59778 11.0463 6.62077 11.1564C6.64739 11.2846 6.67884 11.4092 6.80105 11.4964C6.90026 11.5677 6.96318 11.6694 6.94019 11.8134C6.91599 11.9731 6.95713 12.0166 7.11079 12.065C7.13862 12.0735 7.16766 12.0844 7.1967 12.088C7.25235 12.0953 7.27655 12.1279 7.29349 12.18C7.37456 12.428 7.53064 12.5466 7.79078 12.5623C7.88515 12.5684 7.93597 12.6204 7.93597 12.7148C7.93597 12.7644 7.92992 12.814 7.91903 12.8624C7.89241 12.9797 7.90572 13.0935 7.95291 13.2024C7.99284 13.2955 8.04849 13.3064 8.11988 13.235C8.14408 13.2108 8.16102 13.177 8.18521 13.1419C8.2687 13.2907 8.29895 13.4528 8.27959 13.5871C8.25781 13.7408 8.31831 13.8727 8.43325 13.9223C8.57118 13.9804 8.59175 14.0203 8.56029 14.1764C8.53489 14.307 8.55546 14.3651 8.67282 14.4329C8.73816 14.4704 8.81075 14.4994 8.88335 14.5188C9.01039 14.5527 9.11324 14.6132 9.1943 14.7196C9.26448 14.8116 9.35643 14.8612 9.48227 14.8152C9.59237 14.7753 9.70247 14.7765 9.79927 14.8612C9.82347 14.8818 9.85735 14.8951 9.8888 14.9011C10.0413 14.9265 10.201 14.9132 10.3377 15.0088C10.3546 15.0197 10.3873 15.0052 10.4127 15.0064C10.4889 15.0088 10.5773 14.9907 10.6402 15.0221C10.7696 15.0862 10.8422 15.0959 10.9572 15.0088C10.9765 15.0245 10.9995 15.0391 11.0177 15.0584C11.0975 15.1443 11.1774 15.2266 11.3141 15.1855C11.3347 15.1794 11.3637 15.1976 11.3879 15.2048C11.4339 15.2193 11.4787 15.2339 11.5246 15.2484C11.5174 15.1976 11.4968 15.1649 11.475 15.1334C11.2464 14.8116 11.0019 14.4982 10.7926 14.1643C10.5954 13.8497 10.4248 13.5145 10.3861 13.1346C10.3825 13.0947 10.4042 13.0342 10.4357 13.0136C10.5434 12.9422 10.6595 12.8842 10.7733 12.8225C10.8374 12.7886 10.8894 12.8019 10.9209 12.8708C10.962 12.958 11.0032 13.0439 11.0419 13.131C11.3431 13.8098 11.786 14.3808 12.3498 14.86C12.7685 15.2157 13.2294 15.5049 13.7328 15.7251C14.3535 15.9973 15.0068 16.1534 15.6711 16.2671C15.688 16.2696 15.7062 16.2599 15.7243 16.2562C15.7715 16.2466 15.8199 16.2248 15.8647 16.232C16.2264 16.2865 16.5882 16.2829 16.9488 16.2393C17.5162 16.1703 18.0341 15.9695 18.5072 15.6464C18.9718 15.3294 19.4497 15.0282 19.8212 14.5974C20.0184 14.37 20.1962 14.1268 20.3838 13.8908L20.3898 13.8848ZM18.8218 3.29905C18.8508 3.21919 18.7939 3.18169 18.7383 3.15265C18.6318 3.0982 18.5265 3.03407 18.414 3.00382C17.7292 2.82233 17.0323 2.7449 16.3232 2.77515C15.878 2.7933 15.4376 2.85621 15.0093 2.97479C14.4708 3.12361 13.9385 3.29663 13.4049 3.46118C13.3831 3.46723 13.3577 3.49869 13.3553 3.52047C13.3456 3.59427 13.4968 3.73826 13.5682 3.72253C13.7062 3.69107 13.8453 3.6584 13.9808 3.61726C14.4406 3.47812 14.8955 3.32446 15.3589 3.19741C15.7231 3.09699 16.0994 3.08852 16.4745 3.14297C16.6935 3.17443 16.9137 3.19741 17.1339 3.22645C17.4134 3.26275 17.6917 3.30147 17.97 3.33777C18.1926 3.36681 18.4164 3.39342 18.6705 3.42609C18.731 3.4273 18.7915 3.38495 18.8218 3.29905ZM6.47316 3.35108C6.44896 3.3414 6.40177 3.36076 6.37999 3.38253C6.32433 3.4394 6.27352 3.50111 6.22875 3.56644C5.97466 3.94152 5.79317 4.36742 5.44592 4.67717C5.42656 4.6941 5.42656 4.76307 5.44592 4.78364C5.46528 4.80421 5.52941 4.81268 5.55239 4.79695C5.65282 4.72798 5.74719 4.65055 5.83794 4.56827C5.87666 4.53439 5.91175 4.48721 5.92747 4.43881C6.03032 4.12301 6.23117 3.87377 6.44533 3.63057C6.48888 3.58217 6.50461 3.50837 6.53365 3.44424C6.50945 3.40552 6.49735 3.35955 6.47195 3.34987L6.47316 3.35108ZM15.0056 11.9936C15.0056 11.9936 14.9984 11.9936 14.9959 11.9973C14.8048 12.2308 14.7636 12.2126 14.4926 12.0191C14.3135 11.8908 14.1998 11.7117 14.1441 11.4976C14.1345 11.4625 14.1248 11.4226 14.1006 11.3984C13.9469 11.235 13.9179 11.01 13.815 10.8224C13.7957 10.7873 13.7824 10.7293 13.7993 10.6978C13.8792 10.5454 13.7316 10.4425 13.7461 10.307C13.7316 10.307 13.717 10.3082 13.7025 10.3094C13.7025 10.3844 13.6868 10.4643 13.7049 10.5357C13.8175 10.9616 13.9155 11.3947 14.1454 11.7783C14.2276 11.9162 14.3438 12.0348 14.4515 12.157C14.5507 12.2695 14.6184 12.3881 14.5809 12.5442C14.5628 12.6204 14.5216 12.6567 14.4357 12.6337C14.2288 12.5768 14.0812 12.4377 13.9578 12.2756C13.8695 12.1594 13.7933 12.0324 13.7316 11.9005C13.6892 11.8097 13.6795 11.7033 13.6493 11.5798C13.561 11.5496 13.5101 11.4528 13.469 11.3367C13.3105 10.8878 13.2427 10.4268 13.2742 9.95369C13.3395 8.9918 13.7582 8.22349 14.5507 7.66934C14.6451 7.604 14.7673 7.57254 14.881 7.54108C14.9742 7.51567 15.0407 7.58101 15.0915 7.71168C15.1242 7.79759 15.0782 7.83994 15.0141 7.87987C14.7503 8.04321 14.4938 8.21744 14.3196 8.48362C14.2809 8.54291 14.2494 8.60825 14.2143 8.67116C14.2228 8.67842 14.2325 8.68447 14.2409 8.69173C14.3014 8.62277 14.3619 8.5538 14.4224 8.48483C14.6039 8.27793 14.8024 8.0916 15.0613 7.98392C15.198 7.92705 15.2101 7.93189 15.2996 8.05168C15.3105 8.0662 15.3238 8.07709 15.3517 8.08192C15.3335 8.03474 15.3178 7.98513 15.2948 7.94036C15.2524 7.85446 15.2791 7.80485 15.3674 7.77218C15.4472 7.74314 15.5235 7.70442 15.5936 7.64635C15.4993 7.66934 15.4061 7.69111 15.3117 7.71531C15.1883 7.74677 15.1 7.68265 15.0516 7.52535C15.025 7.43824 15.0685 7.38258 15.192 7.33539C15.5453 7.19988 15.9082 7.10914 16.2882 7.10793C16.5785 7.10793 16.8653 7.14422 17.1412 7.23981C17.1726 7.2507 17.2029 7.26643 17.2283 7.287C17.2984 7.34507 17.3783 7.35596 17.4678 7.36322C17.5671 7.3729 17.6675 7.40799 17.7594 7.44792C18.5302 7.78428 19.0637 8.34932 19.3759 9.12973C19.4074 9.20958 19.3904 9.2604 19.3239 9.30759C19.1218 9.45157 19.1 9.4794 18.9996 9.21443C18.9428 9.06318 18.8641 8.9192 18.7915 8.77401C18.7722 8.73408 18.7346 8.70383 18.7056 8.66874C18.6971 8.67237 18.6899 8.676 18.6814 8.67963C18.6899 8.71109 18.6959 8.74255 18.708 8.77159C18.7915 8.98454 18.8907 9.19265 18.9585 9.41043C19.0831 9.81334 19.0093 10.2126 18.904 10.6071C18.8762 10.7123 18.8532 10.8188 18.8278 10.9253C18.8423 10.9301 18.8556 10.9337 18.8702 10.9386C18.8859 10.9059 18.9028 10.8732 18.9149 10.8382C19.0359 10.4873 19.1158 10.1291 19.1146 9.75527C19.1146 9.62217 19.1388 9.49755 19.2622 9.41527C19.3541 9.35357 19.4086 9.36567 19.4388 9.47214C19.5138 9.74196 19.5175 10.0154 19.4703 10.2913C19.417 10.6071 19.3699 10.9241 19.3203 11.2411C19.3178 11.258 19.3239 11.2774 19.3263 11.2955C19.3372 11.2979 19.3481 11.3004 19.3578 11.3028C19.4279 11.0596 19.5126 10.82 19.5671 10.5732C19.6675 10.1146 19.6481 9.64758 19.6288 9.18176C19.6288 9.15756 19.6131 9.11763 19.5985 9.11521C19.5126 9.09948 19.5017 9.02204 19.4654 8.96518C19.3142 8.73045 19.1509 8.50298 19.0141 8.25978C18.8774 8.01417 18.6814 7.84962 18.4382 7.71652C18.1938 7.58343 17.9603 7.42856 17.7256 7.27732C17.659 7.23497 17.6094 7.16721 17.5465 7.11882C17.5223 7.10067 17.4811 7.10067 17.4485 7.09946C17.3372 7.09704 17.2186 7.12366 17.117 7.09341C16.46 6.89861 15.8223 6.96394 15.198 7.22166C14.5289 7.49632 13.9711 7.91616 13.5634 8.5175C13.2754 8.94098 13.1496 9.41648 13.1339 9.92829C13.1193 10.4207 13.2379 10.889 13.3432 11.3621C13.4133 11.6791 13.4496 11.6186 13.1544 11.7662C13.0685 11.8085 12.9826 11.8545 12.8919 11.8848C12.8362 11.9041 12.7685 11.909 12.7104 11.8993C12.6317 11.886 12.6039 11.8122 12.6608 11.7589C12.7648 11.6609 12.7467 11.5496 12.6801 11.4613C12.4478 11.1588 12.4466 10.7994 12.4067 10.4473C12.3583 10.019 12.4067 9.59797 12.495 9.17934C12.5349 8.98938 12.6112 8.81878 12.783 8.70625C12.7987 8.69657 12.8072 8.676 12.8241 8.65422C12.6886 8.53444 12.7334 8.40982 12.8072 8.27793C12.9512 8.0178 13.1714 7.82905 13.3916 7.64272C13.6251 7.4455 13.8671 7.25796 14.097 7.05711C14.2724 6.90345 14.4648 6.8369 14.6874 6.88772C14.6983 6.8732 14.7056 6.86715 14.7043 6.86231C14.6874 6.73648 14.754 6.68082 14.8653 6.6421C15.0564 6.57676 15.2391 6.48481 15.4327 6.42915C15.5598 6.39285 15.7001 6.40495 15.8332 6.39164C15.9445 6.38075 16.0558 6.35656 16.1684 6.35414C16.397 6.35051 16.6257 6.34809 16.8532 6.36261C17.071 6.37592 17.2876 6.41342 17.5053 6.43399C17.6457 6.4473 17.6808 6.48239 17.6554 6.6179C17.6445 6.67961 17.6312 6.74011 17.6203 6.80181C17.6203 6.80423 17.6227 6.80786 17.6324 6.8248C17.688 6.78003 17.7461 6.74011 17.7969 6.69171C17.8441 6.64815 17.8877 6.64089 17.9385 6.67961C18.0873 6.79334 18.2579 6.84295 18.4406 6.87925C18.7044 6.93128 18.9198 7.08494 19.1255 7.2507C19.192 7.30394 19.2694 7.35233 19.3166 7.4213C19.3868 7.52414 19.2295 7.55318 19.2235 7.65482C19.2694 7.63425 19.3106 7.61973 19.3481 7.59916C19.4134 7.56286 19.4606 7.58101 19.4981 7.6403C19.5138 7.66571 19.5332 7.68869 19.5477 7.71531C19.6215 7.84115 19.6748 7.98392 19.8321 8.042C19.8659 8.0541 19.8889 8.10491 19.9107 8.14121C20.1503 8.55138 20.2822 9.00027 20.3886 9.45762C20.4007 9.50844 20.3753 9.57498 20.3499 9.6258C20.3172 9.68872 20.3051 9.73954 20.3523 9.79882C20.408 9.87021 20.4092 9.95006 20.3862 10.036C20.2664 10.497 20.1491 10.9592 20.0317 11.4213C20.0232 11.4552 20.0196 11.4903 20.0123 11.5351C20.039 11.5278 20.0559 11.5278 20.0619 11.5206C20.2543 11.2762 20.3717 10.9979 20.4528 10.6978C20.5483 10.3457 20.6125 9.9912 20.581 9.62701C20.5665 9.46367 20.535 9.29791 20.4903 9.14062C20.4116 8.8708 20.3197 8.60462 20.2265 8.33843C20.1454 8.10854 19.9821 7.94036 19.797 7.7867C19.7062 7.71168 19.6312 7.61489 19.5574 7.52172C19.5066 7.4576 19.5126 7.39468 19.5961 7.34991C19.6772 7.30515 19.7558 7.25312 19.8333 7.2023C19.8877 7.16721 19.9409 7.17568 19.9736 7.22287C20.2979 7.69233 20.6766 8.13274 20.8254 8.7002C20.8944 8.96518 20.9355 9.23862 20.9742 9.51086C20.9839 9.57982 20.9355 9.65726 20.9089 9.74438C20.9658 9.77704 20.9573 9.84238 20.9416 9.91982C20.7988 10.6071 20.5871 11.2689 20.2253 11.8763C20.1297 12.0372 20.1261 12.042 19.97 11.944C19.7667 11.817 19.5647 11.69 19.365 11.5569C19.3275 11.5315 19.3033 11.4843 19.2791 11.4528C19.2295 11.4371 19.1763 11.4286 19.1327 11.4044C18.6814 11.1576 18.2313 10.9071 17.7812 10.6591C17.6747 10.5998 17.6191 10.555 17.7001 10.4062C17.8586 10.1146 17.8744 9.80487 17.7921 9.48787C17.78 9.43947 17.7473 9.38986 17.7098 9.35478C17.5295 9.18297 17.3468 9.01116 17.1593 8.8466C17.0141 8.71956 17.0044 8.71714 16.9524 8.54654C16.8834 8.67237 16.7806 8.68205 16.6536 8.66753C16.4128 8.64212 16.1768 8.676 15.9566 8.78974C15.9058 8.81636 15.8393 8.81273 15.7618 8.82603C15.7957 8.88169 15.8356 8.94461 15.8756 9.00752L15.8731 9.00148C15.9022 9.07165 15.9288 9.14183 15.9615 9.21079C16.0171 9.32937 16.0159 9.33905 15.9094 9.41043C15.8877 9.42495 15.8683 9.44189 15.8429 9.46125C15.8949 9.53869 15.953 9.60886 15.9905 9.68751C16.0244 9.75769 16.0413 9.83633 16.0571 9.91377C16.0776 10.0154 16.0232 10.065 15.9288 10.0916C15.8526 10.1134 15.8066 10.0916 15.78 10.0202C15.7655 9.98152 15.7509 9.94281 15.7364 9.90409C15.7243 9.90409 15.711 9.90409 15.6989 9.90409C15.6941 9.94643 15.6747 9.99241 15.6868 10.0299C15.7171 10.1291 15.6808 10.1727 15.5864 10.1896C15.4763 10.2102 15.3662 10.2368 15.2549 10.2538C15.1811 10.2659 15.1339 10.2356 15.1327 10.1521C15.1327 10.0686 15.1266 9.98636 15.1242 9.90409C15.1121 9.90409 15.1012 9.90409 15.0891 9.90409C15.0794 9.97305 15.0673 10.0432 15.0601 10.1122C15.0431 10.2755 14.9814 10.3506 14.8193 10.3856C14.7322 10.4038 14.6426 10.4123 14.5543 10.4207C14.4866 10.4268 14.4539 10.4437 14.4684 10.526C14.5047 10.7184 14.5289 10.912 14.5592 11.1043C14.5737 11.1951 14.5555 11.2677 14.4636 11.31C14.4345 11.3233 14.4115 11.3475 14.3861 11.3669C14.4188 11.4443 14.466 11.4177 14.512 11.3984C14.6741 11.3306 14.685 11.333 14.8024 11.4601C14.8253 11.4843 14.8459 11.5109 14.8713 11.5327C15.0141 11.6573 15.0855 11.8025 15.0008 11.9912L15.0044 11.9876L15.0056 11.9936ZM15.3734 8.45337C15.3928 8.45459 15.4158 8.46426 15.4315 8.457C15.5041 8.42676 15.5755 8.39409 15.6445 8.35779C15.9699 8.18598 16.3208 8.14605 16.679 8.16541C16.8072 8.17267 16.9464 8.19929 17.0105 8.32754C17.0589 8.31786 17.1097 8.29003 17.1448 8.30455C17.3081 8.36747 17.486 8.41708 17.6215 8.51992C17.8199 8.66874 17.9954 8.85023 18.1636 9.03293C18.3148 9.19749 18.3886 9.4068 18.3753 9.62943C18.3596 9.88715 18.3184 10.1424 18.2894 10.399C18.2809 10.4764 18.2712 10.5538 18.2628 10.6313C18.2761 10.6349 18.2894 10.6385 18.3039 10.6409C18.3317 10.5841 18.3717 10.5308 18.3862 10.4715C18.4672 10.1437 18.5084 9.81455 18.4285 9.47698C18.414 9.41648 18.466 9.34026 18.4927 9.27371C18.5023 9.25072 18.5314 9.23499 18.5519 9.21684C18.5532 9.20716 18.5556 9.19869 18.5568 9.18902C18.3148 9.22652 18.2422 9.03656 18.1297 8.89984C17.8647 8.57679 17.5477 8.32875 17.1448 8.19687C16.731 8.06015 16.3208 8.09281 15.9082 8.19445C15.7534 8.23317 15.5961 8.26221 15.4339 8.29608C15.4194 8.33359 15.3976 8.38804 15.3722 8.45337H15.3734ZM14.7261 9.04019C14.8447 8.98696 14.9584 8.91315 15.0818 8.88774C15.1883 8.86596 15.2295 8.81394 15.2512 8.7244C15.2706 8.64333 15.2875 8.56106 15.3021 8.50056C15.1581 8.51145 15.002 8.52234 14.8568 8.53323C14.8568 8.60704 14.8749 8.70625 14.852 8.79458C14.829 8.88532 14.7661 8.9676 14.7273 9.0414L14.7261 9.04019ZM15.3432 9.30275C15.4618 9.2604 15.5513 9.23015 15.6396 9.19748C15.6505 9.19386 15.6675 9.17571 15.6675 9.1745C15.6336 9.1261 15.6057 9.07165 15.5622 9.03414C15.5162 8.99422 15.4581 8.99906 15.4303 9.06076C15.3989 9.12852 15.3795 9.20111 15.3432 9.30275ZM14.4345 10.065C14.4769 9.83754 14.5192 9.61128 14.5628 9.38381C14.4333 9.59555 14.3898 9.82181 14.4345 10.065ZM16.5955 7.52172C16.3813 7.46002 15.9893 7.50841 15.8489 7.59674C16.1079 7.57012 16.3511 7.54592 16.5955 7.52172ZM17.2162 7.74677C17.2464 7.69353 17.2718 7.64998 17.296 7.60642C17.2658 7.59795 17.2259 7.57375 17.2077 7.58464C17.146 7.61973 17.1496 7.67297 17.2162 7.74677ZM15.002 11.9973C15.1206 11.9005 15.25 11.9053 15.3868 11.9513C15.515 11.9949 15.6445 12.0372 15.7739 12.0783C15.8429 12.1001 15.8671 12.1376 15.8465 12.2126C15.826 12.2913 15.8223 12.3736 15.8114 12.4546C15.8223 12.4571 15.8332 12.4595 15.8441 12.4619C15.8647 12.399 15.8986 12.3373 15.9034 12.2719C15.9167 12.1267 16.0195 12.0844 16.1454 12.1038C16.3922 12.1413 16.6306 12.1038 16.8641 12.036C17.2234 11.9319 17.5271 11.7335 17.78 11.4576C17.8139 11.4201 17.8357 11.3729 17.855 11.3209C17.6893 11.3621 17.5562 11.4516 17.4521 11.5774C17.2658 11.8049 17.0238 11.9307 16.7407 11.984C16.6644 11.9985 16.6039 11.9731 16.5652 11.9017C16.5386 11.8521 16.5047 11.8049 16.4842 11.7529C16.4491 11.667 16.3983 11.6561 16.3136 11.7117C16.3668 11.7746 16.42 11.8327 16.4648 11.8969C16.483 11.9223 16.4938 11.967 16.483 11.9924C16.4721 12.0166 16.4309 12.042 16.4019 12.0433C15.8574 12.059 15.3807 11.892 14.9935 11.5C14.8229 11.327 14.7164 11.1104 14.6233 10.8878C14.57 10.7607 14.6318 10.6688 14.7697 10.6603C14.9415 10.6494 15.0673 10.7389 15.1726 10.8624C15.2028 10.8974 15.2319 10.9313 15.2803 10.9555C15.2428 10.8696 15.2041 10.7849 15.1678 10.699C15.0831 10.4982 15.1266 10.3977 15.3299 10.3118C15.4134 10.2767 15.4654 10.3215 15.509 10.3784C15.6638 10.5865 15.8695 10.7111 16.126 10.745C16.2022 10.7547 16.2797 10.7462 16.3571 10.7462C16.3571 10.7341 16.3571 10.7208 16.3571 10.7087C16.3257 10.7075 16.2954 10.7039 16.264 10.7051C16.0607 10.7135 15.8877 10.6325 15.728 10.5187C15.6965 10.4957 15.6687 10.4643 15.6469 10.4316C15.5828 10.3324 15.607 10.2719 15.7255 10.255C15.8538 10.2368 15.9832 10.2296 16.1115 10.2175C16.1599 10.2126 16.2071 10.2042 16.2591 10.1969C16.1587 9.97547 16.2022 9.78188 16.3777 9.68388C16.4297 9.65484 16.4963 9.64153 16.5568 9.63911C16.6778 9.63548 16.7395 9.70566 16.7431 9.82302C16.7479 9.97305 16.6717 10.0783 16.5362 10.1666C16.8399 10.1715 16.9948 10.4147 17.221 10.526C17.3118 10.5708 17.4025 10.6276 17.4993 10.6446C17.8199 10.7002 18.0861 10.8696 18.3535 11.0366C18.5314 11.1467 18.7032 11.2665 18.8774 11.3826C18.996 11.4613 19.0976 11.5496 19.0553 11.7214C19.3082 11.6113 19.5538 11.7093 19.6663 11.9501C19.7982 11.9295 19.8938 11.9646 19.9422 12.0529C20.0014 12.163 19.9772 12.261 19.9034 12.3566C19.7147 12.6059 19.5332 12.86 19.3408 13.1056C19.261 13.2072 19.1618 13.2943 19.0698 13.3851C18.9875 13.4661 18.9016 13.5448 18.8181 13.6234C18.7092 13.7251 18.6076 13.8364 18.4902 13.9271C18.3087 14.0675 18.12 14.1969 17.9276 14.324C17.6953 14.4776 17.4255 14.5273 17.1629 14.5986C16.662 14.7342 16.1502 14.7281 15.6372 14.7221C15.6057 14.7221 15.5682 14.6979 15.544 14.6749C15.4969 14.6301 15.4666 14.3905 15.5065 14.3409C15.5307 14.3095 15.5815 14.2828 15.6203 14.2816C15.8368 14.2756 16.0534 14.2816 16.27 14.2756C16.7298 14.2611 17.1823 14.2042 17.6106 14.0179C17.953 13.8703 18.264 13.6742 18.5435 13.4286C18.558 13.4165 18.5677 13.3996 18.5713 13.3693C18.4939 13.4093 18.4152 13.448 18.339 13.4903C17.8768 13.7456 17.3989 13.961 16.875 14.0493C16.656 14.0868 16.4333 14.1038 16.2119 14.1219C16.0401 14.1364 15.8659 14.1389 15.6941 14.1425C15.5936 14.1449 15.5549 14.1074 15.5537 14.007C15.5513 13.8606 15.5537 13.7142 15.5513 13.5666C15.5489 13.4843 15.5864 13.4528 15.6662 13.4565C15.8719 13.4649 16.0788 13.4807 16.2845 13.4758C17.2089 13.4552 17.976 13.0874 18.5931 12.4038C18.702 12.2828 18.7927 12.1461 18.8907 12.0166C18.9137 11.9864 18.9294 11.9501 18.9488 11.9162C18.9415 11.9102 18.9343 11.9041 18.9282 11.8993C18.8726 11.9561 18.8121 12.0106 18.7613 12.0711C18.2918 12.6325 17.728 13.056 17.0202 13.2701C16.6124 13.3935 16.1962 13.4105 15.7764 13.3633C15.6554 13.35 15.6154 13.2629 15.59 13.131C15.4848 13.3101 15.3589 13.2532 15.227 13.2096C15.0516 13.1516 14.9028 13.0596 14.7878 12.9132C14.7394 12.8515 14.7406 12.7995 14.7927 12.745C14.7951 12.7426 14.7975 12.7402 14.7999 12.7378C15.0105 12.5321 14.9294 12.543 15.2016 12.6446C15.3686 12.7075 15.5344 12.7753 15.7001 12.8418C15.7546 12.8636 15.7993 12.8672 15.8574 12.837C15.9094 12.8104 15.9796 12.8176 16.0413 12.8128C16.2797 12.7934 16.5168 12.7765 16.7552 12.7559C16.7903 12.7535 16.8242 12.7378 16.8592 12.7123C16.8363 12.7099 16.8133 12.7039 16.7903 12.7051C16.5374 12.7111 16.2833 12.7027 16.0316 12.7305C15.7461 12.7607 15.4993 12.6773 15.25 12.5563C15.0262 12.4474 14.9802 12.3191 15.002 12.0396C15.0032 12.0239 15.0056 12.007 15.008 11.9912L15.0044 11.9949L15.002 11.9973ZM17.6179 12.4268C17.9204 12.2852 18.1926 12.1074 18.3705 11.8158C18.391 11.7819 18.3983 11.7408 18.4104 11.7021C18.4019 11.6972 18.3934 11.6912 18.385 11.6863C18.0958 11.8969 17.8901 12.1981 17.6179 12.4268ZM18.9331 13.0124C18.6741 13.039 18.6657 13.0935 18.6354 13.3524C18.7443 13.2278 18.8387 13.1201 18.9331 13.0124ZM17.2125 11.4359C17.2053 11.425 17.1992 11.4141 17.192 11.4032C17.0795 11.4601 16.9669 11.5181 16.8544 11.575C16.8605 11.5859 16.8653 11.5956 16.8713 11.6065C16.9802 11.5399 17.1399 11.5726 17.2125 11.4371V11.4359ZM10.4986 7.34023C10.4684 7.33418 10.4369 7.32934 10.4067 7.32087C10.1356 7.24102 10.1018 7.25554 9.96745 7.50599C9.96382 7.51204 9.9614 7.51809 9.95777 7.52293C9.62988 8.11217 9.53187 8.75707 9.51614 9.41648C9.50404 9.91498 9.55123 10.4135 9.64682 10.9047C9.72425 11.3076 9.8029 11.7117 9.89727 12.111C9.95172 12.3409 10.0376 12.5647 10.1114 12.791C10.1332 12.8588 10.1852 12.8854 10.253 12.8624C10.4224 12.8067 10.5918 12.7486 10.7612 12.6906C10.8229 12.6688 10.8338 12.6228 10.8168 12.5647C10.6934 12.1521 10.5652 11.742 10.449 11.327C10.3147 10.849 10.2215 10.3639 10.2445 9.86416C10.2651 9.42616 10.357 8.99785 10.4357 8.56711C10.57 7.83147 10.9003 7.21198 11.4291 6.68929C11.7557 6.36745 12.1151 6.08795 12.5071 5.85322C12.8483 5.64874 13.2004 5.4612 13.5501 5.27003C13.6336 5.22406 13.6444 5.17203 13.6009 5.09338C13.5198 4.94456 13.4412 4.79453 13.3637 4.6445C13.3299 4.57916 13.2839 4.55133 13.2113 4.58158C13.1254 4.61788 13.0371 4.64571 12.9548 4.68926C12.57 4.89132 12.1841 5.09338 11.8041 5.30391C11.4012 5.52775 11.0128 5.77821 10.7225 6.14361C10.5313 6.38559 10.3691 6.65057 10.1973 6.90587C10.1005 7.04985 10.1066 7.07042 10.2542 7.15874C10.3135 7.19504 10.3752 7.22771 10.4357 7.26401C10.4623 7.27974 10.4853 7.30031 10.5095 7.31966C10.5059 7.32692 10.5022 7.33418 10.4998 7.34144L10.4986 7.34023ZM11.4327 8.29971C11.3613 8.57558 11.2693 8.84781 11.2246 9.12731C11.1822 9.38745 11.1689 9.65726 11.181 9.92103C11.1967 10.238 11.2536 10.5526 11.2911 10.8684C11.3371 11.2507 11.3928 11.6307 11.5271 11.9949C11.6287 12.2707 11.5742 12.3252 11.982 12.2719C12.0679 12.261 12.0873 12.2139 12.0691 12.1413C12.0497 12.0638 12.0268 11.9876 12.0062 11.9114C11.8429 11.3173 11.74 10.7123 11.7037 10.0989C11.6759 9.63548 11.7352 9.17692 11.8586 8.72682C12.0522 8.02506 12.42 7.44066 13.0407 7.04259C13.3904 6.81875 13.757 6.62153 14.1139 6.411C14.3861 6.25129 14.345 6.29122 14.2325 6.02624C14.1744 5.89073 14.1599 5.8871 14.0219 5.93308C13.8695 5.9839 13.7183 6.03955 13.567 6.094C13.5864 6.06375 13.6118 6.0456 13.6396 6.03229C13.7715 5.96938 13.9046 5.90767 14.0353 5.84354C14.0885 5.81692 14.132 5.78305 14.1103 5.71166C14.0655 5.56889 13.9784 5.46725 13.8332 5.42007C13.6807 5.37046 13.544 5.42007 13.4133 5.48903C13.2754 5.56163 13.1399 5.64027 13.0068 5.72134C12.668 5.92461 12.3208 6.11578 11.9953 6.33962C11.6009 6.61064 11.2923 6.96878 11.0564 7.38742C10.9874 7.50962 10.9971 7.5435 11.1193 7.60279C11.2234 7.65361 11.3286 7.70322 11.4339 7.75282C11.4992 7.78428 11.5513 7.77823 11.5924 7.70805C11.9167 7.16116 12.3849 6.76309 12.9149 6.42915C12.9391 6.41342 12.9669 6.40374 12.9923 6.39164C12.9826 6.42431 12.9657 6.43883 12.9475 6.45214C12.4781 6.77882 12.0885 7.18778 11.7376 7.63546C11.6142 7.79275 11.6154 7.79275 11.7461 7.94883C11.5646 8.00207 11.4762 8.13274 11.4327 8.29971ZM12.0618 8.41829C12.0473 8.45942 12.0352 8.50056 12.0195 8.54049C11.8029 9.13215 11.7448 9.74317 11.8174 10.3663C11.8586 10.7184 11.913 11.0693 11.9784 11.4165C12.0195 11.6367 12.0933 11.8497 12.1538 12.0662C12.1707 12.1279 12.2119 12.1642 12.2808 12.14C12.4877 12.0675 12.5519 11.9416 12.5047 11.7299C12.4321 11.4032 12.3583 11.0765 12.299 10.7486C12.207 10.2429 12.2216 9.73712 12.3462 9.2362C12.3849 9.07891 12.4176 8.91315 12.4914 8.7728C12.5603 8.64091 12.5313 8.45821 12.691 8.37352C12.6983 8.36989 12.7007 8.35658 12.7055 8.34811C12.8786 8.05289 13.0951 7.79396 13.3516 7.56649C13.6892 7.26643 14.0643 7.02202 14.4466 6.78729C14.4829 6.76551 14.5241 6.72559 14.5325 6.68687C14.5579 6.56708 14.4043 6.44367 14.2869 6.48239C13.9348 6.59854 13.6275 6.79818 13.3274 7.0075C12.9512 7.26885 12.6063 7.5677 12.3184 7.92463C12.2095 8.06015 12.2131 8.0916 12.3002 8.23196C12.1405 8.24769 12.1151 8.26825 12.0631 8.4195L12.0618 8.41829ZM11.1943 11.2253C11.1617 10.8853 11.0963 10.5478 11.0818 10.2078C11.0661 9.86053 11.077 9.50965 11.112 9.16361C11.1556 8.74013 11.279 8.33238 11.4629 7.9452C11.4956 7.87624 11.4762 7.82905 11.4097 7.80001C11.3068 7.75403 11.204 7.70805 11.0987 7.66813C11.031 7.64272 10.9644 7.65482 10.9281 7.7262C10.8701 7.84115 10.7999 7.95367 10.7624 8.07588C10.6075 8.578 10.5059 9.09101 10.4684 9.61733C10.4333 10.1146 10.4345 10.6119 10.541 11.0959C10.6438 11.5629 10.7999 12.0191 10.9378 12.4788C10.9463 12.5079 11.0044 12.543 11.0358 12.5393C11.1738 12.5236 11.3093 12.497 11.446 12.4704C11.5476 12.451 11.5658 12.4099 11.5258 12.3094C11.4629 12.1521 11.4073 11.9924 11.3371 11.8388C11.2693 11.69 11.2439 11.5181 11.1193 11.4165C11.1496 11.3439 11.1992 11.2822 11.1943 11.2253ZM20.4503 6.43641C20.333 6.32752 20.2144 6.21862 20.0873 6.12304C19.6288 5.78063 19.0952 5.57252 18.5955 5.30512C18.5181 5.26398 18.4612 5.30633 18.4539 5.39345C18.4515 5.42975 18.4455 5.46604 18.4394 5.50113C18.4261 5.57615 18.4479 5.63301 18.5217 5.66205C18.5834 5.68746 18.6463 5.70803 18.7068 5.73344C19.2126 5.94639 19.6506 6.26339 20.0571 6.62516C20.1236 6.68445 20.2192 6.72075 20.2676 6.79092C20.4661 7.07284 20.6536 7.36322 20.8411 7.65119C20.9875 7.87503 21.1061 8.11096 21.1533 8.37836C21.2247 8.78248 21.2985 9.1866 21.3723 9.5895C21.388 9.67783 21.4304 9.70566 21.5175 9.68388C21.5502 9.67662 21.5816 9.66694 21.6131 9.65847C21.6808 9.64153 21.7183 9.60644 21.7256 9.52901C21.7571 9.18902 21.7546 8.85144 21.6893 8.51629C21.5586 7.83873 21.2283 7.26038 20.7891 6.73769C20.7395 6.6784 20.6814 6.64573 20.5967 6.68566C20.5314 6.71591 20.4697 6.69655 20.4298 6.62879C20.5338 6.5562 20.5399 6.51869 20.4479 6.43399L20.4503 6.43641ZM18.2979 5.07281C18.3535 4.88164 18.3426 4.86229 18.1599 4.78001C17.8925 4.66023 17.6046 4.65055 17.3202 4.64208C16.6003 4.62151 15.8865 4.69047 15.1823 4.8393C14.8024 4.91915 14.4249 5.00869 14.08 5.19865C13.9481 5.27124 13.936 5.33053 14.0316 5.44184C14.2422 5.68504 14.1708 5.72739 14.5434 5.58462C15.0685 5.38377 15.6094 5.24584 16.1696 5.18171C16.6584 5.12605 17.1436 5.12484 17.6288 5.20591C17.7594 5.22769 17.8877 5.26035 18.0014 5.28455C18.1466 5.28697 18.2616 5.19986 18.2979 5.07281ZM15.5029 13.7396C15.5029 13.713 15.4993 13.6851 15.5029 13.6597C15.5259 13.5266 15.4678 13.4492 15.3456 13.3984C15.1956 13.3367 15.048 13.2677 14.9028 13.1951C14.5785 13.033 14.2615 12.8588 13.9917 12.6107C13.7545 12.3941 13.5839 12.1304 13.4581 11.8364C13.4097 11.7226 13.3795 11.7117 13.2694 11.765C13.1677 11.8134 13.0649 11.8606 12.9657 11.9114C12.8241 11.9828 12.7975 12.0469 12.8374 12.2005C12.8495 12.2453 12.8628 12.2925 12.8894 12.3288C12.9645 12.4329 13.0479 12.5321 13.1266 12.6349C13.1883 12.716 13.2706 12.7898 13.3069 12.8805C13.423 13.1733 13.6239 13.356 13.9312 13.4262C13.9869 13.4383 14.0389 13.4722 14.0885 13.5036C14.1925 13.5678 14.2893 13.6464 14.397 13.7021C14.5434 13.7783 14.6959 13.8412 14.8483 13.9066C14.9947 13.9683 15.1411 14.0288 15.29 14.0844C15.3807 14.1183 15.4533 14.082 15.4763 13.9852C15.4956 13.9053 15.4969 13.8219 15.5065 13.7396C15.5053 13.7396 15.5029 13.7396 15.5017 13.7396H15.5029ZM7.59598 10.2876C7.70971 10.866 7.83191 11.4419 7.94807 12.0191C7.96259 12.0892 7.99888 12.1231 8.06543 12.1328C8.16344 12.1449 8.26265 12.1606 8.36066 12.1691C8.43446 12.1763 8.47076 12.1304 8.45019 12.059C8.43567 12.0082 8.41389 11.9598 8.39816 11.909C8.12956 11.0898 8.04849 10.2465 8.08237 9.38986C8.09084 9.18418 8.11504 8.9797 8.13803 8.77522C8.16102 8.56106 8.19489 8.34811 8.21546 8.13395C8.2203 8.08434 8.20941 8.01417 8.17796 7.9815C8.08358 7.88471 7.88394 7.94883 7.85369 8.08071C7.81981 8.22954 7.79199 8.37957 7.76053 8.52839C7.66494 8.99059 7.58509 9.4552 7.57662 9.96095C7.58146 10.0481 7.5742 10.1703 7.59719 10.2864L7.59598 10.2876ZM17.8078 5.8871C17.4715 5.80725 17.1339 5.78063 16.7891 5.81571C16.4575 5.84838 16.1321 5.89315 15.8175 6.01051C15.6566 6.07101 15.4932 6.15087 15.3275 6.16176C15.1387 6.17386 14.9645 6.21257 14.7927 6.28033C14.6826 6.32268 14.6717 6.37833 14.7382 6.47513C14.8048 6.57192 14.8798 6.5562 14.9621 6.51627C15.0758 6.46182 15.1823 6.38801 15.2996 6.3493C15.5356 6.27428 15.7751 6.19926 16.0183 6.15813C16.3051 6.10973 16.5991 6.0698 16.8871 6.08069C17.152 6.09037 17.4146 6.17144 17.6759 6.22588C17.7135 6.23314 17.7582 6.26218 17.7752 6.29485C17.809 6.35656 17.8478 6.38438 17.9216 6.35051C17.9567 6.50296 18.0837 6.54168 18.1999 6.58886C18.6149 6.75704 19.0202 6.93974 19.3215 7.28821C19.3687 7.34265 19.4195 7.33539 19.4727 7.30152C19.5586 7.24586 19.6445 7.18778 19.7292 7.1297C19.8066 7.07647 19.8115 7.02928 19.7389 6.96394C19.6155 6.85263 19.4909 6.74253 19.3614 6.63847C19.0722 6.40737 18.731 6.27307 18.4007 6.1182C18.2737 6.05891 18.1515 5.98027 17.9954 6.11941C18.0353 5.93308 17.9179 5.91493 17.809 5.88831L17.8078 5.8871ZM15.1992 14.2018C14.7818 14.0747 14.3765 13.9211 13.9965 13.7057C13.4654 13.4056 13.0528 12.9967 12.806 12.4304C12.7721 12.3518 12.7285 12.2768 12.6922 12.1981C12.6571 12.1219 12.6027 12.1074 12.5301 12.1413C12.4793 12.1655 12.4285 12.1897 12.3776 12.2151C12.2821 12.2623 12.2712 12.301 12.328 12.3941C12.4648 12.6216 12.6087 12.8454 12.7346 13.079C12.933 13.4431 13.2052 13.7311 13.5634 13.9356C13.861 14.105 14.1623 14.2659 14.466 14.4256C14.7019 14.549 14.9463 14.647 15.2174 14.6724C15.3843 14.6882 15.4388 14.6507 15.44 14.4764C15.44 14.3058 15.4085 14.2647 15.2004 14.2006L15.1992 14.2018ZM17.8417 5.56526C17.8695 5.49387 17.8526 5.45394 17.7727 5.43821C17.5949 5.40313 17.417 5.36199 17.2392 5.3269C16.8895 5.25672 16.5374 5.20349 16.1853 5.29665C15.7025 5.4237 15.221 5.56163 14.7419 5.70077C14.4491 5.78547 14.4962 5.76732 14.5604 6.03108C14.5894 6.15087 14.616 6.16176 14.7358 6.12304C15.1073 6.00083 15.4751 5.86653 15.8514 5.76127C16.2664 5.64511 16.6911 5.59188 17.1242 5.64632C17.2815 5.66568 17.4388 5.68867 17.5961 5.71045C17.7304 5.71287 17.7994 5.67173 17.8417 5.56647V5.56526ZM11.8392 12.6446C11.9312 12.9471 12.0618 13.229 12.3171 13.4335C12.3426 13.454 12.3643 13.4807 12.3801 13.5097C12.5156 13.7686 12.6874 14.0021 12.9088 14.1921C13.0842 14.3433 13.2778 14.474 13.4702 14.6047C13.5694 14.6724 13.6505 14.6482 13.711 14.5611C13.8126 14.4159 13.815 14.3518 13.7183 14.2671C13.4993 14.0784 13.2754 13.8945 13.0625 13.6997C12.8689 13.523 12.668 13.3512 12.547 13.1092C12.4357 12.8866 12.3171 12.6676 12.1974 12.4486C12.1756 12.4099 12.1369 12.3796 12.1199 12.3603C11.9154 12.359 11.792 12.4909 11.8392 12.6434V12.6446ZM15.9784 9.14062C16.0837 9.28339 16.1442 9.30033 16.3099 9.23499C16.3898 9.20354 16.4696 9.16966 16.5495 9.1382C16.6209 9.11037 16.6729 9.12731 16.7213 9.19265C16.7491 9.22894 16.8012 9.25919 16.8471 9.26887C17.0879 9.3209 17.2779 9.59071 17.2355 9.82665C17.2234 9.89441 17.2295 9.99725 17.1908 10.0202C17.1412 10.0493 17.054 10.0118 16.9827 10.0021C16.9149 9.99362 16.8677 10.0202 16.8726 10.0916C16.875 10.1316 16.8992 10.1763 16.9258 10.2066C17.0565 10.359 17.2101 10.474 17.4134 10.5163C17.509 10.5357 17.5719 10.5054 17.6021 10.4183C17.6433 10.3034 17.6893 10.1872 17.7122 10.0686C17.7389 9.93192 17.7485 9.79156 17.6239 9.68025C17.5961 9.65484 17.584 9.59676 17.5864 9.55563C17.5913 9.43584 17.5574 9.33179 17.4799 9.24346C17.2428 8.96881 16.9464 8.81515 16.581 8.82362C16.3862 8.82845 16.1926 8.86233 15.999 8.88532C15.924 8.89379 15.8804 8.93614 15.8792 9.01478L15.8768 9.00873C15.9119 9.05229 15.9482 9.09585 15.9808 9.14062H15.9784ZM21.5332 10.2913C21.509 10.2598 21.4909 10.2175 21.4594 10.1981C21.3421 10.1255 21.2755 10.157 21.2344 10.2973C21.0734 10.8539 20.9488 11.425 20.5919 11.9029C20.5568 11.9489 20.5592 12.0033 20.6246 12.0348C20.6572 12.0505 20.6863 12.0735 20.7189 12.0892C20.8182 12.14 20.8774 12.1255 20.9319 12.0287C20.9767 11.9513 21.013 11.869 21.0517 11.788C21.284 11.3161 21.5054 10.8418 21.5042 10.2973C21.5139 10.2949 21.5223 10.2925 21.532 10.2901L21.5332 10.2913ZM15.3021 15.1516C15.3347 14.9592 15.2863 14.883 15.1024 14.8225C14.8193 14.7305 14.5374 14.6374 14.2555 14.5442C14.0945 14.491 14.0147 14.5297 13.9469 14.6906C13.9239 14.7462 13.9312 14.7825 13.9856 14.8152C14.3498 15.033 14.7406 15.1685 15.1629 15.2109C15.2803 15.2181 15.2924 15.2133 15.3021 15.1516Z" fill="black"/>
<path d="M34.5485 8.08074C34.5485 5.99481 32.3391 6.09403 32.3391 6.87806C32.3391 7.5157 33.0143 8.01903 33.86 8.37475C35.6761 9.16 36.3017 9.63793 36.3017 11.1225C36.3017 12.6071 35.4305 13.7965 32.9647 13.7965C32.2036 13.7965 30.2254 13.4553 30.3766 13.4553L30.3911 10.7414H31.0566C31.0566 11.8824 32.0209 13.0318 33.0506 13.0015C34.3621 12.9628 34.5049 11.4129 33.5563 10.9326C33.2841 10.7946 32.9852 10.716 32.7118 10.5805C31.1861 9.82547 30.229 9.0983 30.229 7.96943C30.229 6.54533 31.1292 5.6403 32.7191 5.46244C32.9102 5.44066 34.632 5.54592 35.4087 5.54592V8.07953H34.5473L34.5485 8.08074Z" fill="black"/>
<path d="M40.5921 12.2913C40.5921 12.8926 40.6417 12.9664 41.3398 12.9906V13.6016H37.0833V12.9906C37.7705 12.9664 37.831 12.8926 37.831 12.2913V7.0317C37.831 6.43036 37.7693 6.34446 37.0833 6.32026V5.62817H41.3398V6.32026C40.6405 6.34446 40.5921 6.43036 40.5921 7.0317V12.2913Z" fill="black"/>
<path d="M45.94 12.4111C45.94 13.0003 46.9442 12.8769 47.6181 12.8769C48.3659 12.8769 48.6611 12.8031 49.421 11.0245H50.0126V13.6004H42.7603V12.9713C43.4475 12.9471 43.508 12.8733 43.508 12.2719V7.00507C43.508 6.40373 43.4463 6.31783 42.7603 6.29363V5.62695H47.0616V6.29363C46.3005 6.31783 45.94 6.40373 45.94 7.00507V12.4111Z" fill="black"/>
<path d="M53.6279 13.6004H52.6878C52.401 12.9495 50.5208 8.71106 49.7452 6.99416C49.4391 6.42065 49.1366 6.32627 48.6575 6.27667V5.62693H52.9031V6.31417C52.8027 6.31417 52.7023 6.33716 52.6103 6.3783C52.2631 6.53317 52.055 6.94697 52.2026 7.29664C52.6527 8.35534 53.4319 10.0831 53.8723 11.0583H53.9134C54.2788 10.0928 55.2686 7.56888 55.5553 6.81267C55.5916 6.61666 55.5553 6.43275 55.3593 6.40734L54.6963 6.32143V5.62451H57C57 5.62451 54.3684 11.9331 53.6255 13.598L53.6279 13.6004Z" fill="black"/>
<path d="M58.654 6.71953C58.654 6.28153 58.5923 6.30694 57.9062 6.28153V5.62695H64.7351V7.71651H64.1423C63.6643 6.3384 63.1816 6.32872 62.1991 6.32872H61.4187C61.0751 6.32872 61.0509 6.37832 61.0509 6.74614V9.08616H61.8313C62.5669 9.08616 62.6383 8.92282 62.6383 8.08191H63.351V10.849H62.7678C62.7678 10.019 62.5681 9.84358 61.8325 9.84358H61.0521V12.1594C61.0521 12.8212 61.1138 12.8345 61.9474 12.8345C62.8428 12.8345 64.5452 13.1213 64.5452 11.0112H65.1477L65.1622 13.5992H57.9075V12.9955C58.5947 12.9713 58.6552 12.8975 58.6552 12.2961V6.71711L58.654 6.71953Z" fill="black"/>
<path d="M69.1564 12.2828C69.1564 12.8842 69.4843 12.958 70.1824 12.9822V13.6016H65.9622V12.9822C66.6494 12.958 66.7099 12.8842 66.7099 12.2828V6.95184C66.7099 6.35051 66.6482 6.2646 65.9622 6.2404V5.62817H70.7462C72.2308 5.62817 73.4819 5.79998 73.4819 7.51688C73.4819 8.53444 73.6005 9.62096 71.8824 9.69356C72.768 10.3723 73.7529 12.964 74.8382 12.964V13.6016H72.3034C72.1377 13.4359 70.4619 10.7704 70.2913 10.5103C70.0336 10.1146 69.9598 10.1122 69.6416 10.1122H69.1552V12.284L69.1564 12.2828ZM69.1564 9.21079H69.6682C70.6011 9.21079 71.2266 8.99663 71.2266 7.72499C71.2266 6.31905 69.3705 6.53563 69.1564 6.53563V9.212V9.21079Z" fill="black"/>
<path d="M85.9443 5.62694V6.37347C85.4784 6.39767 85.2824 6.49568 85.1711 6.87681C84.7295 8.3856 83.7289 11.7964 83.1445 13.7517H82.1547L80.1075 8.54168H80.0712L78.3205 13.7517H77.0137C76.4378 11.408 75.7554 9.64514 75.142 7.3148C74.8213 6.27184 74.6386 6.29604 74.1111 6.25853V5.62815H78.0119V6.31419L77.6453 6.35169C77.5207 6.365 77.4336 6.48237 77.4602 6.60578C77.6126 7.32811 78.0168 9.29184 78.3059 10.728H78.3422L79.9406 5.62573H81.1626L83.1336 10.6978H83.1953C83.4699 9.79638 83.9503 8.11094 84.0205 7.59672C84.1729 6.46664 83.3973 6.29846 83.3973 6.29846V5.62936H85.9455L85.9443 5.62694Z" fill="black"/>
<path d="M94.4523 9.61372C94.4523 12.2538 93.0779 13.9005 89.9441 13.9005C86.8104 13.9005 85.4492 12.2417 85.4492 9.61372C85.4492 6.98574 86.837 5.32812 89.9441 5.32812C93.0512 5.32812 94.4523 6.94944 94.4523 9.61372ZM89.9417 12.9749C91.3162 12.9749 91.8486 12.0094 91.8486 9.61251C91.8486 8.01418 91.684 6.23921 89.9417 6.23921C88.9157 6.23921 88.0542 6.84901 88.0542 9.61251C88.0542 12.1534 88.7136 12.9749 89.9417 12.9749Z" fill="black"/>
<path d="M104.103 9.61372C104.103 12.2538 102.728 13.9005 99.5945 13.9005C96.4608 13.9005 95.0996 12.2417 95.0996 9.61372C95.0996 6.98574 96.4874 5.32812 99.5945 5.32812C102.702 5.32812 104.103 6.94944 104.103 9.61372ZM99.5921 12.9749C100.967 12.9749 101.499 12.0094 101.499 9.61251C101.499 8.01418 101.334 6.23921 99.5921 6.23921C98.5661 6.23921 97.7046 6.84901 97.7046 9.61251C97.7046 12.1534 98.364 12.9749 99.5921 12.9749Z" fill="black"/>
<path d="M108.559 5.62694C109.994 5.62694 110.963 5.81085 111.675 6.52229C112.35 7.18413 112.644 8.14119 112.644 9.50358C112.644 11.2822 111.883 12.4232 110.939 12.9507C110.02 13.4661 109.234 13.6004 107.909 13.6004H104.04V13.0257C104.727 13.0015 105.023 12.9277 105.023 12.3264V7.4854C105.023 6.88407 104.726 6.29362 104.04 6.26942V5.62573H108.559V5.62694ZM107.186 12.2586C107.186 12.5817 107.348 12.699 107.959 12.699C108.948 12.699 110.294 12.2901 110.294 9.5798C110.294 7.43943 109.432 6.51503 107.886 6.51503C107.365 6.51503 107.186 6.55859 107.186 6.79453V12.2574V12.2586Z" fill="black"/>
</svg>
