<svg width="48" height="19" viewBox="0 0 48 19" fill="none" xmlns="http://www.w3.org/2000/svg">
<path fill-rule="evenodd" clip-rule="evenodd" d="M42.7316 9.14504L40.1367 18.7972H38.9827L41.5776 9.14504H36.4088C36.4822 7.76017 36.72 6.54316 38.021 5.85073C38.3567 5.68286 38.7169 5.61292 39.0771 5.53948C39.2939 4.46586 39.7031 3.31879 40.8327 2.91312C41.1439 2.79422 41.5531 2.76974 41.8923 2.72078C42.0357 1.76606 42.277 1.07362 43.1163 0.500092C43.7423 0.069943 44.4872 0.0454629 45.2076 0C45.3265 0.716915 45.5433 1.31493 45.8546 1.9584C46.0714 2.45849 46.3127 2.72078 46.7219 3.08099H45.5433C45.6168 3.86784 45.8546 4.5393 46.3372 5.18277C46.5785 5.53948 46.9142 5.82625 47.2255 6.11301H45.8791C45.928 6.80545 46.1204 7.4734 46.526 8.04694C46.8618 8.54703 47.2465 8.83379 47.778 9.14504H42.7316ZM43.3576 11.2363C43.3576 10.7013 43.7913 10.2641 44.3298 10.2641C44.8684 10.2641 45.302 10.6978 45.302 11.2363C45.302 11.7749 44.8684 12.2085 44.3298 12.2085C43.7913 12.2085 43.3576 11.7749 43.3576 11.2363ZM44.3823 10.7048H44.4172C44.4732 10.7048 44.5816 10.7223 44.6166 10.7397C44.6551 10.7572 44.7075 10.7957 44.725 10.8307C44.76 10.8656 44.781 10.9391 44.781 10.995C44.781 11.0685 44.7635 11.1244 44.7075 11.1769C44.6725 11.2119 44.6166 11.2678 44.5257 11.2678C44.6341 11.4147 44.7635 11.6315 44.8544 11.7609H44.69C44.5816 11.614 44.5082 11.4427 44.3788 11.3168C44.3438 11.2993 44.3263 11.2888 44.2354 11.2888H44.0885V11.7609H43.9416V10.7048H44.3788H44.3823ZM44.3823 11.1594C44.4347 11.1594 44.4627 11.1594 44.5187 11.1454C44.5571 11.1349 44.5851 11.1209 44.6096 11.0895C44.6341 11.058 44.6411 11.0335 44.6376 10.995C44.6376 10.9461 44.6166 10.9181 44.5851 10.8866C44.5397 10.8377 44.4872 10.8342 44.4207 10.8307C44.4068 10.8307 44.3858 10.8307 44.3858 10.8307H44.0955V11.1594H44.3858H44.3823ZM10.1837 16.0554C10.2327 17.3319 11.3412 17.734 12.5163 17.734C13.4046 17.734 14.6146 17.5312 14.6146 16.4436C14.6146 15.356 13.2052 15.1531 11.7784 14.8349C10.369 14.5167 8.94569 14.048 8.94569 12.3869C8.94569 10.6418 10.6733 9.92141 12.184 9.92141C14.097 9.92141 15.6217 10.5264 15.7406 12.6387H14.3138C14.2124 11.5301 13.2402 11.1804 12.303 11.1804C11.4462 11.1804 10.4565 11.4147 10.4565 12.289C10.4565 13.3101 11.9672 13.478 13.2926 13.7997C14.7195 14.118 16.1253 14.5866 16.1253 16.2652C16.1253 18.3285 14.1984 19 12.4359 19C10.4914 19 8.84778 18.2131 8.76385 16.0659H10.1907L10.1837 16.0554ZM30.7259 14.4257C30.7259 16.9402 32.1318 18.9196 34.7826 18.9196C37.4334 18.9196 38.8393 16.9402 38.8393 14.4257C38.8393 11.9113 37.4334 9.91441 34.7826 9.91441C32.1318 9.91441 30.7259 11.8938 30.7259 14.4257ZM32.1807 14.4257C32.1807 12.3274 33.3453 11.1629 34.7826 11.1629C36.2199 11.1629 37.3845 12.3274 37.3845 14.4257C37.3845 16.524 36.2199 17.6711 34.7826 17.6711C33.3453 17.6711 32.1807 16.5065 32.1807 14.4257ZM17.2234 10.1172H18.5663V11.3937H18.5978C19.2343 10.4215 20.2065 9.91791 21.399 9.91791C22.4552 9.91791 23.4274 10.3376 23.7806 11.3937C24.3681 10.4705 25.3893 9.91791 26.4979 9.91791C28.2255 9.91791 29.383 10.6383 29.383 12.4324V18.7902H27.9562V13.1038C27.9562 12.0302 27.6694 11.1769 26.2775 11.1769C24.8857 11.1769 24.0149 12.0477 24.0149 13.3906V18.7902H22.5881V13.1038C22.5881 11.9812 22.2349 11.1769 20.9619 11.1769C19.2658 11.1769 18.6468 12.7366 18.6468 13.3906V18.7902H17.2199V10.1172H17.2234ZM0 14.4257C0 16.9402 1.40584 18.9196 4.05668 18.9196C6.70752 18.9196 8.11336 16.9402 8.11336 14.4257C8.11336 11.9113 6.70752 9.91441 4.05668 9.91441C1.40584 9.91441 0 11.8938 0 14.4257ZM1.4548 14.4257C1.4548 12.3274 2.61935 11.1629 4.05668 11.1629C5.49401 11.1629 6.65856 12.3274 6.65856 14.4257C6.65856 16.524 5.49401 17.6711 4.05668 17.6711C2.61935 17.6711 1.4548 16.5065 1.4548 14.4257Z" fill="#010201"/>
</svg>
