<?xml version="1.0" encoding="UTF-8"?>
<svg id="Layer_1" xmlns="http://www.w3.org/2000/svg" version="1.1" viewBox="0 0 251.8 126.9">
  <!-- Generator: Adobe Illustrator 29.3.1, SVG Export Plug-In . SVG Version: 2.1.0 Build 151)  -->
  <defs>
    <style>
      .st0 {
        fill: #231f20;
      }
    </style>
  </defs>
  <g>
    <g>
      <g>
        <g>
          <g>
            <path class="st0" d="M147.2,27.4c-2.9,1.8-7.4,2.5-11,3.9-1.8.7-3.7,1.1-5.6,1.8l3.5-17.2h10.9c0,0,2.1,11.5,2.1,11.5h0Z"/>
            <path class="st0" d="M148.6,34.5l12,65.5h-10.3l-2.9-18.5h-15.4s-3.6,18.5-3.6,18.5h-10.2l11-59.3c3.3-1.2,6.5-2.2,9.8-3.4l-5.5,34.1h12l-5.8-34.3c.7-.2,1.4-.5,2.1-.8,2.1-.9,4.5-1.2,6.8-1.8h0Z"/>
          </g>
          <g>
            <path class="st0" d="M102.8,52.8c5.1,9.8,12.1,21.2,10.5,32.7-1.9,14.2-15.8,20-27.8,12.5v-10.9c1,.4,1.7,1.3,2.6,1.9,7.6,5,16.3,1.8,14.9-8-1.1-7.8-6.7-15.7-10.1-22.7,3.2-1.8,6.6-3.8,9.8-5.5h0Z"/>
            <path class="st0" d="M85.8,29c.6-5.3,4.8-10.5,9.7-12.5,5.3-2.2,10.6-1.2,15.8.8v10.3c-1.4-.5-2.7-1.5-4.2-1.9-4.1-1.3-9.4-.8-11.1,3.8-2.1,5.7,1.8,12.9,4,18.1-3.3,1.8-6.4,3.4-9.6,5.3-2.8-5.8-5.9-13.4-5.3-19.9.1-1.2.5-2.3.7-3.8Z"/>
          </g>
        </g>
        <path class="st0" d="M49.7,36.8c2.3-.5,3.3,1,3.2,3.2-.3,3.4-3,9.6-4,13.3-1.7,6.8-2.7,13.9-3.4,20.8-.3,2.7,0,6-.6,8.5-.8,3.9-6.1,3.7-6.4-1.3-.2-3.2.4-8.4.7-11.8.9-9,3.5-19.6,7-28,.7-1.6,1.6-4.3,3.5-4.7h0Z"/>
        <path class="st0" d="M147.2,27.4c0,0,.9,0,1.2,0,3.6-.9,8.9-2.8,12.6-2.3,2.6.3,3.7,3.8,2,5.7-1,1.1-11.6,2.9-13.9,3.5-.3,0-.4.4-.4.4-2.3.7-4.7,1-6.8,1.8-.7.3-1.4.6-2.1.8-.2,0-.5.2-.7.2-3.3,1.1-6.6,2.2-9.8,3.4-9.5,3.4-17.6,7.2-26.4,12-3.2,1.8-6.6,3.7-9.8,5.5-8.8,5.1-17.9,10-26.3,15.8-2.9,1.9-6.4,6.5-10,3.7-2.1-1.7-.6-5.6,0-7.9,2.1-6.9,6.5-15.3,10.1-21.6,2.1-3.5,4.6-6.7,6.7-10.1.2-.4.5-.9.6-1.3,0-.7-7.1,2.3-7.6,2.5-2.3.7-5.6,1.4-7.7.2-1.5-.8-1.9-2.9-1.1-4.4,1-1.7,5.8-1.6,7.8-2,1.6-.3,3.6-1,5.1-1.6,2.9-1,7.7-4.1,10.1-4.5s3.6.5,5.1,2.1c-.2,1.5-.6,2.6-.7,3.8-8.3,10.8-16.4,22.1-20.6,35.3l25.3-14.7c.3,0,.5-.6.6-.7,3.2-1.8,6.3-3.5,9.6-5.3,9.5-5.1,20.7-10.6,30.7-14.4,1.9-.7,3.8-1.1,5.6-1.8,3.6-1.4,8-2.2,11-3.9h0Z"/>
      </g>
      <path class="st0" d="M25.2,1.3c1,1,1.2,2.7,1,4.1-4.1,15.1-9.7,29.8-12.2,45.3.4,0,.5-.2.7-.4,2.9-2.9,5.6-6.8,10.4-6.3,11.2,1,6,23.2,3.4,29.8-3.3,8.5-10.8,22.9-22,17-.8,2.2-.2,6.4-3.7,5.7-1-.2-2.6-1.5-2.8-2.5-.3-1.5,0-4.1.2-5.7,2.1-21.9,8.1-47,14-68.3,1.4-5.1,3.1-12.2,5.1-17,.8-1.9,1.5-3.4,3.9-2.7.5.1,1.5.7,1.9,1.1h0ZM16.5,82.4c3.7-3.9,6.3-11.7,7.4-16.9.8-3.7,3.5-18.2-4.6-12.5-3.1,2.2-6.1,8.2-7.4,11.8-2.2,5.9-3.5,12.5-4.3,18.7,3.2,2.5,6.3,1.7,9-1h0Z"/>
    </g>
    <g>
      <polygon class="st0" points="190.9 16.3 190.9 26.4 175.5 26.4 175.5 100.1 164.7 100.1 164.7 16.3 190.9 16.3"/>
      <g>
        <polygon class="st0" points="205.3 90 225.2 90 225.2 100.1 194.5 100.1 194.5 81.1 204.9 81.1 205.3 81.5 205.3 90"/>
        <polygon class="st0" points="224.2 16.3 224.2 26.4 205.3 26.4 205.3 31.9 194.5 31.9 194.5 16.3 224.2 16.3"/>
        <path class="st0" d="M205.3,51.3h17.3c-.2,1.9-.9,4.3-1.7,6.1-.4.9-2.1,4-3.2,4h-12.4v17.5h-10.8v-26.2c-.4,0-.4.5-.5.8-.5,1.4-.7,2.8-1.4,4.2-.6,1.2-2.1,3.7-3.5,3.7h-11.9v-9.5c0,0-.3-.3-.2-.6h17.5v-17.3h10.8c0-.1,0,17.3,0,17.3h0Z"/>
      </g>
    </g>
  </g>
  <path class="st0" d="M251.6,110.4c.7.4-.4,4.8-1,5.4-.7.7-4.3-.3-5.5,0l.2,9.2c-.4,1.7-3.7,1.9-5.1,1.8l-.4-.6.2-10.7-17.1-.6-.2-1.7c6.4-8.1,13.9-15.7,19.3-24.7.6-.5,2.7-.2,3.2.4.6.6-.2,4.9-.3,6-.2,5.6.1,11.2,0,16.8l.2.3c.6.4,3.4-.3,4.1-.8.7-.5,1-1.4,2.1-1h0ZM240.1,112.1v-15.1l-11.3,14.8,11.3.4Z"/>
  <path class="st0" d="M55.7,7.7c2.7-.6,4.2.8,4.4,3.4.3,3.7-3.2,12-7.7,11.1-5.7-1.2-.5-13.7,3.4-14.5h0Z"/>
</svg>