<svg width="50" height="50" viewBox="0 0 50 50" fill="none" xmlns="http://www.w3.org/2000/svg">
<rect width="50" height="50" fill="white"/>
<path d="M39.7466 16.0272C39.7113 16.0095 39.67 15.9978 39.6346 15.9861L14.1072 1.08808L13.954 1L11.8326 2.26841V7.79423L10.3771 9.60876L10 18.975L11.8326 20.0966V21.9875L10.3771 23.8021L10 33.1683L35.716 48.9119L35.8692 49L37.8079 47.9254V45.7468L40 44.6545V16.4617C40 16.2797 39.8998 16.1094 39.7348 16.0213L39.7466 16.0272ZM13.9599 1.68118L38.9275 16.2503L37.5133 17.1899L12.7048 2.43284L13.9599 1.68118ZM12.2039 8.27575L37.1008 23.0915L35.7985 24.9706L11.1078 9.63812L12.2039 8.27575ZM10.9487 10.2312L35.5863 25.5285V33.9435L10.607 18.6521L10.9428 10.2253L10.9487 10.2312ZM12.2039 22.4749L37.1008 37.2907L35.7985 39.1698L11.1078 23.8373L12.2039 22.4749ZM10.9487 24.4304L35.5863 39.7277V48.1427L10.607 32.8512L10.9428 24.4245L10.9487 24.4304ZM39.4225 44.3022L37.2304 45.3944V47.5848L36.1756 48.1661V39.6572L37.8197 37.2907V31.5535L39.4225 30.7548V44.2963V44.3022ZM39.4225 30.103L37.2304 31.1953V33.3856L36.1756 33.967V25.458L37.8197 23.0915V17.6949L39.4225 16.632V30.0971V30.103Z" fill="black"/>
</svg>
