<svg width="50" height="50" viewBox="0 0 50 50" fill="none" xmlns="http://www.w3.org/2000/svg">
<g clip-path="url(#clip0_85_2695)">
<rect width="50" height="50" fill="white"/>
<g clip-path="url(#clip1_85_2695)">
<path d="M47 11.5797L44.5731 11.5493V9.13353L44.6159 9.09104H27.7804L27.6826 8.99393L27.5848 9.09104H11.703L11.3851 9.12746L-12.9083 32.915L-13 33.0061V36.1563L-10.5731 36.1806V37.9833H-13V40.9879L20.567 41L21.2394 40.3323L42.9898 17.9712L46.9878 13.9894V13.9226H46.9939V11.5797H47ZM46.3887 12.1806L22.8777 35.5797L20.8788 35.5554L44.3958 12.1563L46.3887 12.1806ZM19.8456 37.9894V40.3991H3.78044V38.5964H6.20734V35.5857L3.78044 35.5615V33.3824H19.8456V36.1624L22.2725 36.1866V37.9894H19.8456ZM43.9618 11.7253L20.4508 35.1184V33.1275H20.4081L43.9618 9.74051V11.7193V11.7253ZM19.9068 32.7693H4.26949L27.8355 9.70409H43.1426L19.9129 32.7633L19.9068 32.7693ZM11.6663 9.71016H26.9613L3.40754 32.7693H-11.8874L11.6663 9.71016ZM-12.3887 38.5903H-9.96179V35.5797L-12.3887 35.5554V33.3763H3.16302V36.1563L5.58991 36.1806V37.9833H3.16302V40.3869H-12.3887V38.5903ZM20.8054 39.9074L20.457 40.2534V38.5903H22.083L20.8054 39.9074Z" fill="black"/>
</g>
</g>
<defs>
<clipPath id="clip0_85_2695">
<rect width="50" height="50" fill="white"/>
</clipPath>
<clipPath id="clip1_85_2695">
<rect width="60" height="32" fill="white" transform="translate(-13 9)"/>
</clipPath>
</defs>
</svg>
