<svg width="50" height="50" viewBox="0 0 50 50" fill="none" xmlns="http://www.w3.org/2000/svg">
<g clip-path="url(#clip0_85_2693)">
<rect width="50" height="50" fill="white"/>
<path d="M-15.2316 8L-31.1478 23.8291H-31.3223V24.0026L-38.9128 31.5485L-38.7757 31.6848H-39V42H23.3251V41.8141L46.919 16.5805L47 16.4938V8H-15.2316ZM23.3188 32.2981H23.3625L30.8594 24.7274V26.9763L23.3188 34.609V32.2919V32.2981ZM30.8781 23.8229H-0.561741L7.43999 15.8681L7.40884 15.8371H38.7864L30.8781 23.8291V23.8229ZM31.4826 24.0955L39.2039 16.3017V18.5197H39.2164L31.4826 26.3444V24.0955ZM39.8271 15.6698L46.3706 9.0594V11.2773L39.8271 17.9001V15.6698ZM-14.9761 8.62573H45.9343L39.3971 15.2238H-21.6068L-14.9761 8.62573ZM-22.2362 15.8433H6.59246L-1.44667 23.8353H-30.2691L-22.23 15.8433H-22.2362ZM30.2612 24.4548L23.1007 31.691H-38.1712L-30.8923 24.4548C-31.3099 24.0397 30.2674 24.4548 30.2674 24.4548H30.2612ZM-38.383 32.3043H22.6956V35.0674H-38.383V32.3043ZM-28.3996 36.164V35.687H-28.3871C-28.3871 35.8232 -28.3933 35.9843 -28.3996 36.164ZM-38.383 41.3805V35.687H-29.0228V41.3805H-38.383ZM-11.1622 41.3805V35.687H-2.71174V41.3805H-11.1622ZM14.2452 41.3805V35.687H22.6956V41.3805H14.2452ZM23.3188 40.9034V35.5011L46.3706 12.1633V16.2398L23.3188 40.8972V40.9034Z" fill="black"/>
</g>
<defs>
<clipPath id="clip0_85_2693">
<rect width="50" height="50" fill="white"/>
</clipPath>
</defs>
</svg>
