<svg width="50" height="50" viewBox="0 0 50 50" fill="none" xmlns="http://www.w3.org/2000/svg">
<g clip-path="url(#clip0_85_2694)">
<rect width="50" height="50" fill="white"/>
<path fill-rule="evenodd" clip-rule="evenodd" d="M46.4342 13.1756V14.3971L47.02 13.7988V16.9522L23.1259 41.6628V41.8498H-29V38.7337H-28.1337L-28.1338 36.9014L-28.1337 36.8952H-28.9938V33.5859L-4.50758 9.09971H30.0997L30.1994 9L30.2929 9.09971H47.02V12.6084L46.8206 12.7892L46.4342 13.1756ZM-27.5043 36.9068C-20.3078 36.9694 -14.1212 37.0794 -8.80777 37.2192V38.7399H-27.5043V36.9068ZM-8.18456 37.2358C-1.63543 37.4132 3.5607 37.636 7.67008 37.8701V38.7337H-8.18456V37.2358ZM7.67008 36.9014L-8.18456 36.9014V36.8952H7.67008V36.9014ZM8.2933 37.9062V38.7399H18.553C16.385 38.488 13.1213 38.1901 8.2933 37.9062ZM22.5026 38.7399V36.9014L22.5026 36.9014V38.7399H22.5026ZM5.81913 36.2595L6.8412 36.272H22.4964V34.0222H5.81913V36.2595ZM-8.18456 39.3569V39.3756H-10.6587V41.2265H5.19591V39.3569H-8.18456ZM-10.6587 36.2533L-9.63665 36.2657H5.19591V34.0159H-10.6587V36.2533ZM6.41118 33.3927H22.727V33.4052L45.9605 9.72293H30.3552L6.41118 33.3927ZM46.3905 10.1779L23.1196 33.8788L23.1259 33.8913V35.7734L46.3905 12.328V10.1779ZM-10.0729 33.3927H5.51998L5.53245 33.3989L29.4702 9.7167H13.8399L13.8586 9.74163L-10.0729 33.3927ZM12.9924 9.72293H-4.24582L-27.9281 33.4052H-10.9516L12.9924 9.72293ZM-11.2819 34.0284H-28.3706H-28.3768V36.2782H-11.2819V34.0284ZM-11.2819 39.3631H-28.3706V41.2328H-11.2819V39.3631ZM5.82536 39.3818V41.2328H22.5026H22.5089V39.3631H8.29953V39.3818H5.82536ZM23.1259 40.7716L46.3968 16.6967V15.3257L23.1259 39.1076V40.7716Z" fill="black"/>
</g>
<defs>
<clipPath id="clip0_85_2694">
<rect width="50" height="50" fill="white"/>
</clipPath>
</defs>
</svg>
