<?xml version="1.0" encoding="UTF-8"?>
<svg id="Inforgraphics" xmlns="http://www.w3.org/2000/svg" viewBox="0 0 121.01 121.02">
  <defs>
    <style>
      .cls-1 {
        fill: #545456;
      }

      .cls-1, .cls-2 {
        stroke-width: 0px;
      }

      .cls-2 {
        fill: #fff;
      }
    </style>
  </defs>
  <g id="ftb4Bt.tif">
    <g>
      <path class="cls-1" d="M121.01,60.62c0,17.48,0,34.96,0,52.44,0,4.13-2.9,7.37-7.02,7.84-.58.07-1.16.12-1.74.12-34.53,0-69.05,0-103.58,0-2.16,0-4.16-.52-5.82-1.97C.89,117.34.02,115.09.01,112.53c-.02-6.1,0-12.21,0-18.31,0-5.11,0-10.21,0-15.32,0-15.92,0-31.84,0-47.76,0-7.54.03-15.07.03-22.61,0-2.2.63-4.17,2.11-5.82C3.79.86,5.89,0,8.33,0,31.56,0,54.79,0,78.02,0c11.61,0,23.21,0,34.82,0,3.75,0,7,2.49,7.94,6.08.14.54.21,1.1.21,1.66.01,17.62,0,35.25,0,52.87h0ZM87.09,85.51c-.06-.08-.12-.16-.18-.23-.26,0-.53,0-.79,0-1.76,0-3.53-.01-5.29,0-.45,0-.62-.13-.61-.6.03-4.55.02-9.09.07-13.64.02-1.36.01-2.76.31-4.07,1.53-6.68,7.93-11.02,14.45-10.06,6.2.91,11.12,6.55,11.13,12.92,0,14.97,0,29.94,0,44.9v.88c1.68,0,3.25,0,4.83,0,2.77-.01,4.96-2.07,5.09-4.84.06-1.28.05-2.57.05-3.86,0-8.32.01-16.65.01-24.97,0-3.69-.09-7.39.02-11.08.1-3.19-.45-6.27-1.57-9.19-1.95-5.1-5.35-9.07-10.16-11.76-4.1-2.3-8.47-3.39-13.19-3-3.76.31-7.2,1.59-10.35,3.6-3.16,2.02-5.72,4.66-7.52,7.98-1.86,3.41-3.04,7.04-3.07,10.96-.04,5,0,10.01,0,15.01,0,.85,0,.85-.84.84-1.85,0-3.7,0-5.54,0-.48,0-.62.14-.33.58.19.29.34.62.51.92,3.58,6.2,7.15,12.39,10.73,18.58.11.19.25.36.45.65,3.98-6.91,7.89-13.7,11.81-20.5ZM50.93,85.2c0-.34,0-.59,0-.84,0-5.23,0-10.46,0-15.69,0-.7-.04-1.42-.16-2.11-1.32-7.34-5.04-13.03-11.59-16.74-4.29-2.43-8.92-3.48-13.82-2.88-3.49.43-6.76,1.69-9.71,3.58-1.54.99-2.98,2.22-4.21,3.58-4.15,4.61-6.35,10.01-6.32,16.29.05,9.34.03,18.68.03,28.02,0,4.03,0,8.05,0,12.08,0,2.5,1.71,4.64,4.18,4.96,1.57.2,3.19.1,4.78.14.3,0,.61,0,.96,0,0-.36,0-.62,0-.89,0-14.76,0-29.52.01-44.28,0-.95.07-1.91.24-2.84,1.32-7.05,7.86-11.66,14.5-10.69,6.17.9,11.08,6.27,11.18,12.52.09,5.08.03,10.17.04,15.26,0,.46-.15.61-.62.61-1.87-.02-3.74-.01-5.61,0-.21,0-.43.02-.78.04,4.01,6.94,7.95,13.77,11.99,20.75,4.03-6.99,7.98-13.84,11.93-20.69-.05-.06-.1-.12-.15-.19h-6.87ZM3.91,20.81c2.36,0,4.66.04,6.95,0,4.44-.1,8.88-.25,13.32-.37,1.45-.04,2.9-.03,4.36-.07,3.26-.09,6.51-.21,9.77-.27,3.94-.08,7.88-.13,11.82-.15,6-.02,12-.02,18,0,3.73.01,7.47.07,11.2.12,3.11.04,6.22.06,9.33.12,4.42.08,8.83.16,13.25.26,2.57.06,5.14.15,7.71.22,2.43.07,4.85.11,7.28.2.52.02.58-.19.57-.62-.02-1.74-.01-3.49-.02-5.23,0-1.45.12-1.24-1.21-1.24-27.44,0-54.89,0-82.33,0-9.74,0-19.47,0-29.21-.02-.54,0-.84.05-.81.72.05,1.39.02,2.78.02,4.17,0,.76,0,1.52,0,2.17ZM3.95,47.7c1.21-.61,2.32-1.21,3.46-1.74,6.13-2.88,12.6-4.72,19.2-6.08,3.59-.74,7.21-1.31,10.83-1.86,2.6-.39,5.22-.66,7.84-.89,2.81-.24,5.63-.43,8.44-.55,3.32-.15,6.64-.34,9.95-.26,4.98.11,9.95.39,14.92.69,2.63.16,5.25.41,7.86.78,3.71.53,7.41,1.13,11.09,1.83,5.99,1.14,11.85,2.75,17.51,5.05.76.31,1.51.63,2.31.96.04-.13.09-.23.09-.32,0-2.3,0-4.61-.03-6.91,0-.2-.29-.53-.49-.57-3.24-.7-6.47-1.43-9.72-2-3.04-.53-6.1-.92-9.17-1.29-3.78-.46-7.58-.86-11.37-1.22-2.46-.23-4.92-.38-7.38-.49-3.52-.16-7.05-.36-10.57-.36-6.58,0-13.15.11-19.73.21-1.6.02-3.19.16-4.78.26-2.59.17-5.18.31-7.76.54-2.93.27-5.86.57-8.77.96-3.8.51-7.6.99-11.36,1.71-3.94.75-7.83,1.76-11.75,2.65-.48.11-.67.31-.67.84.02,2.53,0,5.06-.01,7.6,0,.12.03.24.07.46ZM117.47,31.53c0-1.66,0-3.21,0-4.76,0-.33-.16-.41-.46-.43-2.52-.15-5.05-.34-7.57-.48-2.3-.14-4.6-.26-6.9-.35-4.27-.18-8.54-.35-12.81-.51-2.67-.1-5.35-.19-8.02-.23-4.09-.07-8.17-.15-12.26-.14-6.21,0-12.41.05-18.62.12-4.48.05-8.96.16-13.44.25-2.03.04-4.07.09-6.1.15-1.31.04-2.61.07-3.92.13-3.15.15-6.3.29-9.45.47-2.51.14-5.01.31-7.51.47-1.97.13-3.93.28-5.89.39-.53.03-.61.28-.62.71-.02,1.41-.05,2.82-.09,4.23-.01.42.08.59.57.53,4.82-.57,9.63-1.18,14.46-1.64,4.36-.42,8.72-.71,13.09-1,3.29-.22,6.59-.38,9.88-.5,4.17-.15,8.34-.32,12.51-.35,6.21-.04,12.41,0,18.62.09,4.13.06,8.25.22,12.38.37,2.74.1,5.47.22,8.21.39,3.19.2,6.37.45,9.55.72,3.35.29,6.69.62,10.03.94,1.42.14,2.84.29,4.35.45Z"/>
      <path class="cls-2" d="M87.09,85.51c-3.91,6.8-7.83,13.59-11.81,20.5-.2-.29-.34-.46-.45-.65-3.58-6.19-7.16-12.39-10.73-18.58-.18-.3-.32-.63-.51-.92-.29-.44-.15-.59.33-.58,1.85,0,3.7,0,5.54,0,.84,0,.84,0,.84-.84,0-5-.03-10.01,0-15.01.03-3.92,1.22-7.54,3.07-10.96,1.8-3.32,4.37-5.96,7.52-7.98,3.14-2.01,6.59-3.29,10.35-3.6,4.71-.39,9.09.71,13.19,3,4.8,2.69,8.2,6.66,10.16,11.76,1.12,2.92,1.67,6,1.57,9.19-.11,3.69-.02,7.39-.02,11.08,0,8.32,0,16.65-.01,24.97,0,1.29.01,2.57-.05,3.86-.13,2.77-2.32,4.83-5.09,4.84-1.58,0-3.15,0-4.83,0v-.88c0-14.97,0-29.94,0-44.9,0-6.36-4.92-12-11.13-12.92-6.51-.96-12.92,3.38-14.45,10.06-.3,1.31-.3,2.71-.31,4.07-.05,4.55-.04,9.09-.07,13.64,0,.48.17.61.61.6,1.76-.02,3.53,0,5.29,0,.26,0,.53,0,.79,0,.06.08.12.16.18.23Z"/>
      <path class="cls-2" d="M50.93,85.2h6.87c.05.06.1.12.15.19-3.95,6.85-7.9,13.7-11.93,20.69-4.03-6.99-7.98-13.81-11.99-20.75.35-.02.57-.04.78-.04,1.87,0,3.74-.01,5.61,0,.46,0,.62-.15.62-.61-.02-5.09.04-10.17-.04-15.26-.11-6.25-5.01-11.62-11.18-12.52-6.64-.97-13.18,3.64-14.5,10.69-.17.93-.24,1.89-.24,2.84-.01,14.76-.01,29.52-.01,44.28,0,.27,0,.53,0,.89-.35,0-.65,0-.96,0-1.6-.03-3.21.06-4.78-.14-2.48-.32-4.19-2.46-4.18-4.96,0-4.03.01-8.05,0-12.08,0-9.34.02-18.68-.03-28.02-.03-6.28,2.16-11.68,6.32-16.29,1.22-1.36,2.67-2.59,4.21-3.58,2.95-1.9,6.22-3.16,9.71-3.58,4.91-.6,9.54.45,13.82,2.88,6.54,3.71,10.27,9.4,11.59,16.74.12.69.16,1.4.16,2.11.01,5.23,0,10.46,0,15.69,0,.25,0,.49,0,.84Z"/>
      <path class="cls-2" d="M3.91,20.81c0-.64,0-1.4,0-2.17,0-1.39.04-2.78-.02-4.17-.02-.67.27-.72.81-.72,9.74.01,19.47.02,29.21.02,27.44,0,54.89,0,82.33,0,1.34,0,1.21-.21,1.21,1.24,0,1.74,0,3.49.02,5.23,0,.42-.05.64-.57.62-2.42-.09-4.85-.14-7.28-.2-2.57-.07-5.14-.16-7.71-.22-4.42-.1-8.83-.18-13.25-.26-3.11-.05-6.22-.08-9.33-.12-3.73-.04-7.47-.11-11.2-.12-6-.02-12-.02-18,0-3.94.02-7.88.07-11.82.15-3.26.06-6.51.19-9.77.27-1.45.04-2.9.03-4.36.07-4.44.12-8.88.27-13.32.37-2.3.05-4.59,0-6.95,0Z"/>
      <path class="cls-2" d="M3.95,47.7c-.03-.22-.07-.34-.07-.46,0-2.53.03-5.06.01-7.6,0-.53.19-.73.67-.84,3.92-.88,7.81-1.9,11.75-2.65,3.76-.71,7.57-1.2,11.36-1.71,2.92-.39,5.84-.69,8.77-.96,2.58-.24,5.17-.37,7.76-.54,1.59-.1,3.19-.24,4.78-.26,6.58-.1,13.15-.21,19.73-.21,3.52,0,7.05.2,10.57.36,2.46.11,4.93.26,7.38.49,3.8.36,7.59.76,11.37,1.22,3.06.37,6.13.76,9.17,1.29,3.26.57,6.49,1.3,9.72,2,.2.04.49.37.49.57.04,2.3.03,4.61.03,6.91,0,.09-.05.19-.09.32-.79-.33-1.55-.66-2.31-.96-5.66-2.3-11.52-3.92-17.51-5.05-3.68-.7-7.38-1.3-11.09-1.83-2.6-.37-5.23-.62-7.86-.78-4.97-.3-9.94-.58-14.92-.69-3.31-.07-6.64.12-9.95.26-2.82.12-5.63.31-8.44.55-2.62.23-5.24.5-7.84.89-3.62.54-7.25,1.11-10.83,1.86-6.6,1.37-13.07,3.21-19.2,6.08-1.14.54-2.25,1.13-3.46,1.74Z"/>
      <path class="cls-2" d="M117.47,31.53c-1.51-.16-2.93-.31-4.35-.45-3.34-.32-6.68-.65-10.03-.94-3.18-.27-6.37-.52-9.55-.72-2.73-.17-5.47-.29-8.21-.39-4.13-.15-8.25-.31-12.38-.37-6.21-.08-12.41-.13-18.62-.09-4.17.02-8.34.19-12.51.35-3.3.12-6.59.28-9.88.5-4.37.29-8.74.58-13.09,1-4.83.47-9.64,1.07-14.46,1.64-.49.06-.58-.11-.57-.53.04-1.41.07-2.82.09-4.23,0-.43.09-.69.62-.71,1.97-.1,3.93-.26,5.89-.39,2.5-.16,5.01-.33,7.51-.47,3.15-.17,6.3-.32,9.45-.47,1.31-.06,2.61-.09,3.92-.13,2.03-.05,4.06-.11,6.1-.15,4.48-.09,8.96-.2,13.44-.25,6.21-.07,12.41-.12,18.62-.12,4.09,0,8.18.07,12.26.14,2.67.05,5.35.14,8.02.23,4.27.16,8.54.33,12.81.51,2.3.1,4.6.22,6.9.35,2.52.15,5.05.33,7.57.48.3.02.46.1.46.43,0,1.55,0,3.11,0,4.76Z"/>
    </g>
  </g>
</svg>