<?xml version="1.0" encoding="UTF-8"?>
<svg id="Inforgraphics" xmlns="http://www.w3.org/2000/svg" viewBox="0 0 121.05 121.03">
  <defs>
    <style>
      .cls-1 {
        fill: #545456;
      }

      .cls-1, .cls-2 {
        stroke-width: 0px;
      }

      .cls-2 {
        fill: #fff;
      }
    </style>
  </defs>
  <g id="_0kqaWx.tif" data-name="0kqaWx.tif">
    <g>
      <path class="cls-1" d="M121.03,60.49c0,16.69-.03,33.38.02,50.07.01,4.29-2.73,8.41-6.71,9.73-1.29.43-2.58.73-3.95.73-21.18-.01-42.35-.01-63.53-.01-12,0-24-.04-36,.02-5.4.03-9.84-3.56-10.68-9.16-.26-1.75-.14-3.56-.14-5.35,0-14.86,0-29.73,0-44.59,0-10.63,0-21.26,0-31.89,0-5.83.04-11.67.02-17.5,0-1.9-.01-3.77.62-5.59C2.11,2.81,6.06,0,10.53,0c8.8,0,17.61,0,26.41,0C61.5,0,86.07,0,110.63,0c5.23,0,9.73,3.96,10.36,9.17.09.72.03,1.45.03,2.18,0,16.38,0,32.76,0,49.14ZM42.32,75.4c.12,1.76.18,3.52.36,5.27.48,4.62,1.73,9.02,3.88,13.15,1.76,3.37,4.12,6.23,7.28,8.37,3.16,2.13,6.64,2.85,10.37,1.94,3.77-.92,6.65-3.2,8.99-6.21,4-5.13,5.88-11.11,6.59-17.45.45-4.06.4-8.15-.31-12.22-.81-4.66-2.39-9.04-4.8-13.11-.38-.64-.4-1.13-.15-1.77.86-2.14,1.33-4.34,1.09-6.67-.41-4.1-2.11-7.5-5.34-10.1-2.98-2.41-6.39-3.65-10.21-3.26-6.31.65-10.98,4.53-12.77,10.67-.99,3.41-.72,6.76.84,9.98.09.19.03.52-.08.72-.71,1.33-1.55,2.61-2.17,3.98-2.38,5.31-3.62,10.87-3.59,16.71ZM87.2,87.12c-.23.1-.7.22-1.09.47-.82.52-1.61,1.1-2.39,1.68-1.24.93-1.43,2.12-.53,3.41,1.08,1.55,2.17,3.09,3.26,4.62,1.58,2.23,3.15,4.47,4.76,6.68.95,1.29,1.95,1.42,3.27.5.8-.55,1.59-1.12,2.36-1.73.96-.75,1.14-1.69.57-2.75-.19-.36-.41-.72-.64-1.06-1.06-1.53-2.13-3.06-3.21-4.58-1.47-2.08-2.94-4.16-4.42-6.24-.41-.58-.94-.99-1.93-1ZM101.42,79.89c-.13-1.06-.74-1.73-1.32-2.41-1.46-1.69-2.93-3.38-4.42-5.06-1.45-1.65-2.91-3.29-4.4-4.91-.93-1.02-1.73-1.11-2.84-.29-.91.67-1.77,1.43-2.6,2.22-.8.76-.83,2-.13,2.86.89,1.09,1.81,2.16,2.73,3.23,2.16,2.49,4.32,4.99,6.49,7.46,1.07,1.22,2.16,1.31,3.42.29.79-.64,1.56-1.31,2.27-2.03.35-.36.53-.89.79-1.34ZM92.31,60.05c.26-.12.74-.25,1.1-.52.89-.65,1.73-1.36,2.58-2.06.16-.13.29-.3.4-.47.56-.89.52-1.64-.26-2.63-2.48-3.11-4.99-6.2-7.5-9.29-.54-.66-1.08-1.32-1.66-1.93-.69-.72-1.75-.84-2.55-.25-.96.72-1.91,1.47-2.8,2.27-1,.91-1.02,1.84-.17,2.9,2.99,3.71,5.99,7.42,8.98,11.13.44.54,1.02.75,1.89.85ZM53.09,28.8c.28-.04.59-.02.85-.13,1.02-.45,2.03-.93,3.03-1.43.62-.31,1-.84.95-1.55-.03-.48-.12-1-.31-1.44-1.1-2.48-2.23-4.95-3.37-7.41-.83-1.78-1.65-3.57-2.55-5.32-.67-1.3-1.69-1.58-3.03-.97-.68.31-1.37.59-2.04.92-.68.34-1.39.66-1.69,1.46-.27.71-.16,1.37.16,2.04,1.96,4.16,3.9,8.32,5.86,12.48.41.88,1.09,1.4,2.13,1.34ZM38.32,70.97c-.32-.57-.51-1.19-.91-1.6-.78-.8-1.66-1.5-2.53-2.21-.82-.67-1.73-.65-2.55.03-.32.26-.59.58-.86.9-1.54,1.77-3.06,3.54-4.59,5.31-1.45,1.68-2.94,3.33-4.34,5.04-.83,1.02-.74,1.83.2,2.74.83.8,1.71,1.57,2.61,2.3.83.67,1.87.61,2.67-.1.26-.23.5-.49.73-.76,2.94-3.38,5.88-6.76,8.79-10.16.33-.38.48-.92.77-1.49ZM30.16,105.05c.99-.04,1.61-.37,2.07-1.04,2.31-3.32,4.64-6.63,6.95-9.95.46-.66.95-1.32,1.33-2.02.45-.82.2-1.94-.52-2.48-.93-.69-1.89-1.36-2.87-1.98-1.15-.72-2.11-.51-2.89.6-2.77,3.93-5.53,7.87-8.29,11.82-.67.95-.53,1.98.39,2.69.95.73,1.96,1.4,2.97,2.05.3.19.69.25.86.31ZM26.44,55.95c.28.5.43,1,.76,1.32.76.74,1.57,1.41,2.41,2.06,1.31,1.01,2.26.93,3.38-.29.66-.72,1.25-1.5,1.86-2.25,2.31-2.85,4.64-5.69,6.93-8.56.96-1.21.84-2.31-.32-3.34-.73-.64-1.5-1.24-2.27-1.85-.21-.16-.45-.31-.7-.38-1.02-.3-1.83.09-2.46.88-1.65,2.05-3.3,4.11-4.95,6.16-1.24,1.53-2.51,3.04-3.72,4.59-.37.47-.59,1.06-.91,1.66ZM70.32,28.82c.88.07,1.42-.41,1.87-1.05.16-.24.29-.5.41-.76,1.45-3.09,2.91-6.18,4.35-9.28.51-1.11,1.03-2.22,1.42-3.37.39-1.14-.06-2.05-1.11-2.59-.76-.38-1.51-.77-2.28-1.12-1.7-.79-2.68-.49-3.48,1.21-2,4.23-3.96,8.48-5.91,12.73-.56,1.22-.23,2.14.95,2.75.9.46,1.83.88,2.76,1.27.31.13.68.15,1.02.22Z"/>
      <path class="cls-2" d="M42.32,75.4c-.03-5.85,1.21-11.41,3.59-16.71.62-1.37,1.46-2.65,2.17-3.98.11-.2.17-.53.08-.72-1.56-3.22-1.84-6.57-.84-9.98,1.79-6.14,6.46-10.02,12.77-10.67,3.82-.39,7.23.85,10.21,3.26,3.22,2.6,4.93,6,5.34,10.1.23,2.33-.24,4.53-1.09,6.67-.25.64-.23,1.13.15,1.77,2.41,4.06,3.99,8.44,4.8,13.11.71,4.06.77,8.16.31,12.22-.71,6.35-2.59,12.32-6.59,17.45-2.34,3.01-5.22,5.29-8.99,6.21-3.73.91-7.22.19-10.37-1.94-3.16-2.13-5.52-5-7.28-8.37-2.16-4.13-3.4-8.53-3.88-13.15-.18-1.75-.24-3.51-.36-5.27Z"/>
      <path class="cls-2" d="M87.2,87.12c.99.02,1.52.42,1.93,1,1.48,2.08,2.95,4.16,4.42,6.24,1.08,1.52,2.14,3.05,3.21,4.58.24.34.45.7.64,1.06.57,1.07.39,2-.57,2.75-.76.6-1.56,1.17-2.36,1.73-1.31.91-2.32.78-3.27-.5-1.62-2.2-3.18-4.45-4.76-6.68-1.09-1.54-2.18-3.08-3.26-4.62-.9-1.29-.71-2.48.53-3.41.78-.58,1.57-1.16,2.39-1.68.39-.25.86-.38,1.09-.47Z"/>
      <path class="cls-2" d="M101.42,79.89c-.26.45-.44.98-.79,1.34-.71.73-1.48,1.39-2.27,2.03-1.26,1.03-2.35.94-3.42-.29-2.18-2.48-4.33-4.97-6.49-7.46-.92-1.07-1.84-2.14-2.73-3.23-.7-.86-.66-2.1.13-2.86.82-.78,1.68-1.54,2.6-2.22,1.11-.82,1.91-.72,2.84.29,1.49,1.62,2.94,3.27,4.4,4.91,1.48,1.68,2.95,3.37,4.42,5.06.58.67,1.19,1.35,1.32,2.41Z"/>
      <path class="cls-2" d="M92.31,60.05c-.87-.09-1.45-.3-1.89-.85-2.99-3.71-5.98-7.42-8.98-11.13-.85-1.06-.83-1.99.17-2.9.89-.8,1.84-1.56,2.8-2.27.8-.59,1.85-.48,2.55.25.59.61,1.13,1.27,1.66,1.93,2.51,3.09,5.02,6.18,7.5,9.29.79.98.82,1.74.26,2.63-.11.17-.24.34-.4.47-.85.7-1.69,1.41-2.58,2.06-.37.27-.84.4-1.1.52Z"/>
      <path class="cls-2" d="M53.09,28.8c-1.04.06-1.72-.46-2.13-1.34-1.96-4.16-3.9-8.32-5.86-12.48-.32-.67-.43-1.33-.16-2.04.3-.8,1.01-1.12,1.69-1.46.67-.33,1.36-.62,2.04-.92,1.34-.6,2.35-.33,3.03.97.9,1.75,1.72,3.54,2.55,5.32,1.14,2.46,2.27,4.93,3.37,7.41.2.44.28.95.31,1.44.05.71-.33,1.24-.95,1.55-1,.5-2.01.98-3.03,1.43-.25.11-.56.09-.85.13Z"/>
      <path class="cls-2" d="M38.32,70.97c-.29.57-.45,1.11-.77,1.49-2.91,3.4-5.85,6.78-8.79,10.16-.23.27-.47.53-.73.76-.8.71-1.84.78-2.67.1-.9-.73-1.78-1.5-2.61-2.3-.94-.91-1.03-1.72-.2-2.74,1.4-1.72,2.89-3.37,4.34-5.04,1.53-1.77,3.06-3.55,4.59-5.31.27-.31.54-.63.86-.9.82-.68,1.73-.7,2.55-.03.87.7,1.75,1.41,2.53,2.21.4.41.6,1.03.91,1.6Z"/>
      <path class="cls-2" d="M30.16,105.05c-.18-.06-.56-.12-.86-.31-1.01-.65-2.01-1.32-2.97-2.05-.92-.7-1.05-1.74-.39-2.69,2.76-3.95,5.52-7.89,8.29-11.82.78-1.11,1.75-1.32,2.89-.6.98.62,1.94,1.29,2.87,1.98.72.53.97,1.66.52,2.48-.39.71-.87,1.36-1.33,2.02-2.31,3.32-4.64,6.63-6.95,9.95-.47.67-1.08,1-2.07,1.04Z"/>
      <path class="cls-2" d="M26.44,55.95c.32-.6.54-1.19.91-1.66,1.21-1.55,2.48-3.06,3.72-4.59,1.66-2.05,3.3-4.11,4.95-6.16.64-.79,1.44-1.18,2.46-.88.25.07.5.22.7.38.77.6,1.54,1.2,2.27,1.85,1.16,1.02,1.28,2.13.32,3.34-2.29,2.87-4.61,5.71-6.93,8.56-.61.76-1.2,1.54-1.86,2.25-1.12,1.22-2.07,1.3-3.38.29-.84-.64-1.66-1.32-2.41-2.06-.33-.32-.48-.82-.76-1.32Z"/>
      <path class="cls-2" d="M70.32,28.82c-.34-.07-.71-.08-1.02-.22-.93-.4-1.86-.81-2.76-1.27-1.18-.61-1.51-1.52-.95-2.75,1.95-4.25,3.91-8.5,5.91-12.73.8-1.69,1.78-1.99,3.48-1.21.77.36,1.53.74,2.28,1.12,1.05.53,1.5,1.45,1.11,2.59-.4,1.15-.91,2.26-1.42,3.37-1.43,3.1-2.89,6.19-4.35,9.28-.12.26-.25.53-.41.76-.45.64-1,1.12-1.87,1.05Z"/>
    </g>
  </g>
</svg>