<?xml version="1.0" encoding="UTF-8"?>
<svg id="Inforgraphics" xmlns="http://www.w3.org/2000/svg" viewBox="0 0 121.02 121.06">
  <defs>
    <style>
      .cls-1 {
        fill: #545456;
      }

      .cls-1, .cls-2 {
        stroke-width: 0px;
      }

      .cls-2 {
        fill: #fff;
      }
    </style>
  </defs>
  <g id="ZgRnhM.tif">
    <g>
      <path class="cls-1" d="M121.01,60.5c0,16.61,0,33.21,0,49.82,0,2.19-.46,4.2-1.71,6.05-2.1,3.1-5.08,4.59-8.7,4.61-12.12.07-24.25.03-36.37.03-21.05,0-42.1-.06-63.15.04-5.4.03-10.11-3.54-10.93-9.11-.23-1.55-.15-3.15-.15-4.72-.01-5.42,0-10.84,0-16.25,0-10.63,0-21.25,0-31.88,0-10.63,0-21.25,0-31.88,0-5.42,0-10.83,0-16.25,0-2.67.69-5.13,2.45-7.2C4.6,1.25,7.32,0,10.61,0c6.89,0,13.78,0,20.68,0,26.36,0,52.73,0,79.09,0,5.48,0,9.8,3.71,10.57,9.12.1.69.06,1.41.06,2.11,0,16.42,0,32.84,0,49.26ZM47.86,96.99h67.76c.02-.2.04-.36.04-.52-.01-3.05-.04-6.1-.04-9.15-.01-8.99-.02-17.97-.01-26.96,0-.55-.18-.65-.68-.65-4.63.02-9.26.01-13.89.01-5.19,0-10.38,0-15.57.02-.38,0-.87.12-1.12.37-2.85,2.85-5.65,5.73-8.48,8.6-3.82,3.86-7.66,7.71-11.49,11.57-5.4,5.43-10.79,10.86-16.19,16.3-.1.1-.17.21-.33.41ZM59.37,59.89c-.03-.06-.06-.12-.09-.17-.2,0-.41,0-.61,0-5.58,0-11.17.01-16.75.01-11.87,0-23.74,0-35.62-.02-.64,0-.8.14-.8.78.02,11.95.01,23.91.02,35.86,0,.22.02.44.03.68.33,0,.57,0,.82,0,4.48,0,8.97-.08,13.45.04,1.77.05,3-.47,4.26-1.74,11.61-11.72,23.3-23.36,34.97-35.03.12-.12.21-.27.32-.41ZM32.46,52.83s0-.01,0-.02c8.78,0,17.56,0,26.34,0,.54,0,.75-.12.75-.72-.02-6.81-.02-13.61,0-20.42,0-.5-.16-.63-.64-.63-17.56.01-35.12.02-52.68,0-.54,0-.71.13-.7.69.02,6.81.02,13.61,0,20.42,0,.52.15.67.67.66,8.76-.01,17.52-.01,26.28-.01ZM101.04,31.07c-4.59,0-9.17.01-13.76-.01-.62,0-.8.14-.8.79.03,6.72.03,13.45,0,20.17,0,.62.14.81.78.81,9.15-.02,18.3-.01,27.46-.01.88,0,.88,0,.88-.87,0-6.74-.02-13.49,0-20.23,0-.54-.18-.65-.68-.65-4.63.02-9.26,0-13.88.01ZM43.04,92.36c.32-.28.59-.5.83-.74,11.23-11.23,22.46-22.46,33.69-33.69.7-.7,1.42-1.4,2.08-2.14.19-.21.32-.55.32-.82.01-6.39,0-12.79,0-19.18,0-.19-.03-.38-.07-.7-.3.28-.48.44-.66.61-4.34,4.34-8.69,8.69-13.02,13.04-.15.15-.25.43-.26.65-.06,3.48-.16,6.97-.1,10.45.02,1.34-.38,2.28-1.33,3.21-7.02,6.96-13.99,13.96-20.97,20.96-.23.23-.5.58-.5.88-.04,2.44-.02,4.89-.02,7.48Z"/>
      <path class="cls-2" d="M47.86,96.99c.16-.2.24-.31.33-.41,5.4-5.43,10.79-10.87,16.19-16.3,3.83-3.86,7.67-7.71,11.49-11.57,2.83-2.86,5.63-5.75,8.48-8.6.25-.25.74-.37,1.12-.37,5.19-.02,10.38-.01,15.57-.02,4.63,0,9.26,0,13.89-.01.5,0,.68.1.68.65-.01,8.99,0,17.97.01,26.96,0,3.05.03,6.1.04,9.15,0,.16-.02.32-.04.52H47.86Z"/>
      <path class="cls-2" d="M59.37,59.89c-.11.14-.2.29-.32.41-11.66,11.67-23.35,23.31-34.97,35.03-1.26,1.27-2.48,1.79-4.26,1.74-4.48-.12-8.96-.04-13.45-.04-.25,0-.5,0-.82,0-.01-.24-.03-.46-.03-.68,0-11.95,0-23.91-.02-35.86,0-.64.16-.78.8-.78,11.87.02,23.74.02,35.62.02,5.58,0,11.17,0,16.75-.01.2,0,.41,0,.61,0,.03.06.06.12.09.17Z"/>
      <path class="cls-2" d="M32.46,52.83c-8.76,0-17.52,0-26.28.01-.52,0-.67-.15-.67-.66.02-6.81.02-13.62,0-20.42,0-.56.17-.69.7-.69,17.56.01,35.12,0,52.68,0,.49,0,.64.13.64.63-.01,6.81-.01,13.61,0,20.42,0,.6-.21.72-.75.72-8.78-.01-17.56,0-26.34,0,0,0,0,.01,0,.02Z"/>
      <path class="cls-2" d="M101.04,31.07c4.63,0,9.26,0,13.88,0,.5,0,.68.11.68.65-.01,6.74,0,13.49,0,20.23,0,.87,0,.87-.88.87-9.15,0-18.3,0-27.46.01-.64,0-.79-.18-.78-.81.02-6.72.02-13.45,0-20.17,0-.65.18-.79.8-.79,4.59.03,9.17.01,13.76.01Z"/>
      <path class="cls-2" d="M43.04,92.36c0-2.59-.02-5.03.02-7.48,0-.3.27-.64.5-.88,6.98-7,13.95-14,20.97-20.96.94-.93,1.35-1.87,1.33-3.21-.06-3.48.04-6.97.1-10.45,0-.22.1-.49.26-.65,4.33-4.35,8.68-8.7,13.02-13.04.17-.17.36-.33.66-.61.03.33.07.51.07.7,0,6.39.02,12.79,0,19.18,0,.28-.13.62-.32.82-.67.74-1.38,1.44-2.08,2.14-11.23,11.23-22.46,22.46-33.69,33.69-.24.24-.51.46-.83.74Z"/>
    </g>
  </g>
</svg>