<?xml version="1.0" encoding="UTF-8"?>
<svg id="Inforgraphics" xmlns="http://www.w3.org/2000/svg" viewBox="0 0 121.02 121.01">
  <defs>
    <style>
      .cls-1 {
        fill: #545456;
      }

      .cls-1, .cls-2 {
        stroke-width: 0px;
      }

      .cls-2 {
        fill: #fff;
      }
    </style>
  </defs>
  <g id="XWKm8g.tif">
    <g>
      <path class="cls-1" d="M.02,60.36c0-6.14,0-12.29,0-18.43C.01,32.13,0,22.34,0,12.54c0-1.64,0-3.28.07-4.92C.22,4.16,2.61,1.16,5.95.24,6.54.08,7.17,0,7.79,0,25.85,0,43.91.02,61.97.02c13.95,0,27.9,0,41.85-.01,3.03,0,6.06,0,9.09,0,4.38-.01,7.89,3.27,8.05,7.66.1,2.67.04,5.36.04,8.03,0,32.05,0,64.1,0,96.16,0,.75-.02,1.49-.07,2.24-.25,3.74-4.04,6.66-6.97,6.8-2.71.13-5.43.12-8.15.13-23.54,0-47.08,0-70.63,0-8.76,0-17.52,0-26.28,0-2.02,0-3.9-.43-5.58-1.62-2.05-1.44-3.12-3.49-3.2-5.92-.14-4.17-.1-8.34-.1-12.51,0-13.53,0-27.07,0-40.6h.01ZM61.17,62.46H5.57v6.49h110.57v-6.53h-54.5c8.11-9,16.1-17.88,24.1-26.76-.03-.06-.06-.11-.09-.17-.28-.02-.55-.06-.83-.06-2.49,0-4.98-.02-7.47,0-.48,0-.65-.13-.65-.63.03-3.53.03-7.05.02-10.58,0-6.41-.01-12.83-.02-19.24q0-.82-.8-.82c-9.69,0-19.39,0-29.08,0-.82,0-.82,0-.82.8,0,9.9,0,19.8,0,29.7,0,.59-.15.78-.76.77-2.49-.03-4.98-.01-7.47-.01-.21,0-.42.02-.63.03-.03.07-.07.13-.1.2,8.01,8.9,16.03,17.81,24.12,26.8ZM26.77,94.42h-.01c0-6.79,0-13.58,0-20.36,0-.88,0-.88-.9-.88-6.52,0-13.04.01-19.56-.01-.63,0-.8.15-.79.79.02,12.37,0,24.74.04,37.12,0,.76.27,1.62.67,2.27,1.05,1.71,2.71,2.3,4.68,2.28,5.09-.04,10.17-.03,15.26-.02.53,0,.66-.17.62-.63-.02-.21,0-.41,0-.62,0-6.64,0-13.29,0-19.93ZM94.96,94.31h0c0,6.83,0,13.66-.02,20.49,0,.64.18.81.8.8,5.15-.02,10.3-.02,15.44,0,1.3,0,2.38-.52,3.33-1.33,1.12-.95,1.63-2.15,1.62-3.67-.03-7.49,0-14.99,0-22.48,0-4.79-.05-9.59-.06-14.38,0-.48-.16-.59-.61-.58-1.41.03-2.82,0-4.23,0-5.19,0-10.38,0-15.57,0-.54,0-.73.11-.73.72.03,6.81.02,13.62.02,20.43Z"/>
      <path class="cls-2" d="M61.17,62.46c-8.09-8.99-16.11-17.9-24.12-26.8.03-.07.07-.13.1-.2.21-.01.42-.03.63-.03,2.49,0,4.98-.02,7.47.01.61,0,.76-.18.76-.77-.02-9.9-.01-19.8,0-29.7,0-.8,0-.8.82-.8,9.69,0,19.39,0,29.08,0q.8,0,.8.82c0,6.41.02,12.83.02,19.24,0,3.53,0,7.05-.02,10.58,0,.51.17.64.65.63,2.49-.02,4.98,0,7.47,0,.28,0,.55.04.83.06.03.06.06.11.09.17-8,8.88-16,17.76-24.1,26.76h54.5v6.53H5.57v-6.49h55.59Z"/>
      <path class="cls-2" d="M26.77,94.42c0,6.64,0,13.29,0,19.93,0,.21-.02.42,0,.62.04.46-.09.63-.62.63-5.09-.02-10.17-.02-15.26.02-1.97.02-3.63-.58-4.68-2.28-.4-.65-.66-1.51-.67-2.27-.04-12.37-.02-24.74-.04-37.12,0-.64.16-.79.79-.79,6.52.02,13.04.01,19.56.01.89,0,.9,0,.9.88,0,6.79,0,13.58,0,20.36h.01Z"/>
      <path class="cls-2" d="M94.96,94.31c0-6.81.01-13.62-.02-20.43,0-.62.19-.72.73-.72,5.19.01,10.38,0,15.57,0,1.41,0,2.82.02,4.23,0,.45,0,.61.1.61.58,0,4.79.05,9.59.06,14.38,0,7.49-.03,14.99,0,22.48,0,1.51-.5,2.71-1.62,3.67-.95.81-2.03,1.33-3.33,1.33-5.15-.01-10.3-.02-15.44,0-.62,0-.8-.16-.8-.8.03-6.83.02-13.66.02-20.49h0Z"/>
    </g>
  </g>
</svg>