<?xml version="1.0" encoding="UTF-8"?>
<svg id="Inforgraphics" xmlns="http://www.w3.org/2000/svg" viewBox="0 0 121.01 121.16">
  <defs>
    <style>
      .cls-1 {
        fill: #545456;
      }

      .cls-1, .cls-2 {
        stroke-width: 0px;
      }

      .cls-2 {
        fill: #fff;
      }
    </style>
  </defs>
  <g id="KrjBpK.tif">
    <g>
      <path class="cls-1" d="M0,60.19c0-12.23,0-24.46,0-36.68,0-5.02.01-10.05,0-15.07C-.01,5.42,1.22,3.07,3.71,1.39,4.9.58,6.25.15,7.69.12,11.15.05,14.62,0,18.09,0,44.43,0,70.78,0,97.13,0c4.88,0,9.76,0,14.64,0,1.98,0,3.89.3,5.58,1.44,2.66,1.79,3.66,4.39,3.66,7.48,0,8.66,0,17.31,0,25.97,0,25.76,0,51.53,0,77.29,0,1.76-.19,3.49-1.15,5.03-1.69,2.7-4.2,3.91-7.33,3.92-9.3.01-18.6,0-27.9,0-22.44,0-44.89,0-67.33,0-3.03,0-6.06.05-9.09-.01-2.25-.05-4.25-.84-5.87-2.47C.81,117.11,0,115.24,0,113.07c0-8.84.01-17.69.01-26.53,0-8.78,0-17.56,0-26.34h0ZM115.86,64.18c-1.19-.77-2.28-1.49-3.39-2.18-.12-.08-.43-.01-.56.1-.49.44-.93.94-1.42,1.4-.72.68-1.67.64-2.37-.06-1.22-1.22-2.43-2.44-3.67-3.63-.22-.21-.55-.41-.84-.43-.81-.06-1.62,0-2.43-.02-.4-.01-.49.17-.48.53.02.58.05,1.17-.01,1.74-.04.34-.17.74-.39.98-.73.79-1.51,1.54-2.3,2.28-.18.17-.46.32-.7.32-1.58.03-3.16,0-4.73.01-.41,0-.53-.16-.52-.56.02-1.39.02-2.78,0-4.17,0-.44.15-.58.58-.57,1.29.02,2.57-.03,3.86.01.48.02.57-.16.55-.57-.02-.6.01-1.2-.02-1.81-.02-.5.17-.84.55-1.17,1.93-1.64,3.83-3.32,5.75-4.97.33-.28.45-.59.44-1.02-.02-1.93,0-3.86,0-5.79v-.89c.64,0,1.2-.03,1.76,0,.44.03.63-.15.76-.54.8-2.44,1.64-4.87,2.4-7.32.18-.59.45-.75,1-.74,1.83.02,3.65-.02,5.48.02.61.01.72-.19.71-.75-.03-1.74-.03-3.49,0-5.23,0-.5-.15-.88-.51-1.21-2.51-2.21-5.03-4.39-7.8-6.28-5.45-3.72-11.32-6.57-17.67-8.39-.71-.2-1.42-.38-2.21-.59-.02.34-.04.57-.04.79,0,2.97-.02,5.94,0,8.91,0,.64-.21.93-.87,1.1-2.7.72-5.38,1.5-8.06,2.29-.3.09-.59.3-.82.52-2.31,2.3-4.6,4.62-6.9,6.92-.16.16-.42.31-.64.32-1,.03-1.99.03-2.99,0-.16,0-.44-.25-.45-.41-.19-2.67-.36-5.34-.52-8.01-.1-1.72-.19-3.44-.29-5.16-.02-.35-.07-.67-.47-.86-1.99-.94-3.95-1.93-5.94-2.85-.49-.23-.69-.48-.66-1.02.05-.82.01-1.64.01-2.58-9.05,2.23-17,6.27-24.08,12.11.3.11.58.15.86.15,3.4,0,6.81,0,10.21-.01,1.12,0,2.24.02,3.36.01.45,0,.63.17.61.63-.03.52-.02,1.04.02,1.56.04.56-.19.93-.6,1.28-1.92,1.62-3.79,3.29-5.73,4.88-.77.63-1.21,1.29-1.05,2.32.08.51.05,1.04.01,1.55-.04.49.16.6.61.59,2.3-.02,4.61,0,6.91-.01.16,0,.32-.03.53-.06,0-.26,0-.48,0-.71,0-1.02.01-2.03.01-3.05,0-.35.08-.53.5-.51,2.2.11,4.4.19,6.59.27.37.01.6.14.77.49,1.72,3.47,3.46,6.94,5.18,10.41.09.19.16.4.28.7-.35,0-.57,0-.79,0-2.18,0-4.36,0-6.54.02-.28,0-.67.09-.82.29-1.53,1.94-3.05,3.89-4.5,5.88-1.54,2.11-2.99,4.3-5.06,5.96-.95.76-1.43,1.67-1.19,2.9.04.22,0,.46,0,.68,0,.9-.7,1.28-1.51.81-.18-.1-.34-.24-.49-.39-.82-.79-1.65-1.58-2.44-2.4-.37-.39-.77-.57-1.31-.56-1.33.01-2.66-.03-3.98-.04-.14,0-.28.04-.42.06-.02.11-.04.19-.05.27-.15,2.3-.29,4.59-.45,6.89-.03.47.21.51.57.49,1.41-.04,2.82-.07,4.23-.12.46-.02.71.15.91.57.84,1.8,1.71,3.59,2.58,5.38.14.29.34.6.6.77.84.56,1.71,1.1,2.61,1.58.35.19.79.28,1.18.28,2.72.02,5.44,0,8.16.03.32,0,.69.13.96.32,5.1,3.67,10.2,7.35,15.28,11.06.25.18.45.59.47.91.06.99-.07,2,.05,2.99.17,1.38-.4,2.4-1.21,3.44-2.67,3.44-5.29,6.93-7.88,10.42-2.26,3.05-4.43,6.16-6.72,9.19-.69.92-.66,1.9-.8,3.02h.92c7.83,0,15.65,0,23.48,0,10.17,0,20.34,0,30.52,0,1.23,0,2.39-.24,3.43-.91.2-.13.36-.33.54-.49-.03-.05-.06-.1-.08-.16-1.07,0-2.15-.02-3.22,0-.43.01-.65-.13-.71-.57-.06-.47-.16-.94-.26-1.4-1.04-4.88-2.03-9.77-3.16-14.63-.62-2.7-1.05-5.4-.9-8.18.05-.99-.02-1.99,0-2.99.01-.49-.16-.66-.65-.65-1.25.03-2.49-.04-3.74.03-.71.04-1.44.17-2.09.43-1.29.51-2.56.88-3.98.82-1.45-.07-2.91-.04-4.36,0-.59.02-1.03-.16-1.43-.58-1.71-1.76-3.37-3.56-5.17-5.22-.92-.85-1.18-1.75-1.17-2.94.01-1.21.26-2.08,1.25-2.94,3.01-2.6,5.92-5.34,8.82-8.07.53-.5,1.07-.64,1.73-.64,2.74,0,5.48.03,8.22-.01,1.02-.02,1.91.22,2.75.78.77.52,1.6.82,2.57.74.74-.06,1.49-.01,2.24.03.49.02.87-.13,1.22-.49,1.01-1.04,2.06-2.05,3.08-3.09.18-.19.33-.41.57-.69ZM19.81,43.68c-.15.05-.21.05-.22.08-.14.25-.27.51-.39.77-2.87,5.8-4.68,11.94-5.69,18.31-.68,4.32-.61,8.68-.38,13.04.21,4.16.98,8.22,2.14,12.21,1.63,5.63,4.02,10.91,7.24,15.81,2.77,4.22,5.89,8.13,9.62,11.54.31.28.56.54,1.05.53,5.79-.02,11.58-.02,17.37,0,.54,0,.65-.18.65-.68-.02-2.95-.02-5.89.01-8.84.02-1.45.08-2.9.19-4.34.15-1.96.37-3.92.52-5.88.02-.25-.08-.6-.25-.77-1.86-1.75-3.72-3.49-5.64-5.18-.45-.39-.59-.77-.58-1.32.02-4.09.01-8.18,0-12.27,0-.25-.11-.6-.29-.72-1.56-.99-3.15-1.93-4.71-2.9-3.49-2.16-6.98-4.33-10.45-6.52-.24-.15-.43-.56-.46-.86-.06-.78-.05-1.58-.01-2.36.03-.58-.14-1.02-.5-1.47-2.9-3.6-5.78-7.22-8.68-10.83-.37-.46-.56-.93-.55-1.53.04-1.49.02-2.99.03-4.48,0-.42,0-.85,0-1.34ZM24.57,115.92c-.12-.17-.15-.25-.21-.3-1.64-1.47-2.89-3.25-4.16-5.02-1.95-2.72-3.8-5.49-5.35-8.45-5.45-10.43-8.07-21.52-7.61-33.29.12-2.93.42-5.88.9-8.77,1.14-6.89,3.39-13.44,6.68-19.62,5.42-10.2,12.99-18.44,22.68-24.73,6.35-4.12,13.21-7.07,20.6-8.75,2.46-.56,4.96-.89,7.45-1.33.68-.12,1.37-.25,2.05-.38-.94-.11-1.85-.11-2.75-.11-6.66,0-13.33,0-19.99.01-.4,0-.84.07-1.2.24-1.8.85-3.6,1.7-5.35,2.65-4.16,2.27-8.09,4.93-11.69,8-3.21,2.75-6.19,5.77-8.89,9.05-4.83,5.85-8.67,12.28-11.54,19.3-.79,1.92-1.19,3.85-1.18,5.96.06,14.63.03,29.27.04,43.9,0,.55.09,1.12.27,1.64,2.53,7.16,6.19,13.7,10.86,19.68.15.19.47.35.71.35,2.39.03,4.77.02,7.16.01.14,0,.27-.02.51-.04ZM78.91,5.17c3.44.66,6.74,1.23,10.01,1.93,3.29.71,6.45,1.82,9.56,3.11,3.12,1.3,6.18,2.76,9.02,4.6,2.82,1.83,5.54,3.81,8.33,5.73.02-.16.07-.36.07-.56-.01-2.03-.07-4.07-.04-6.1,0-.69-.24-1.11-.79-1.48-3.73-2.53-7.5-4.96-11.65-6.76-.7-.3-1.38-.5-2.15-.5-6.71.02-13.41.02-20.12.02-.69,0-1.38,0-2.23,0Z"/>
      <path class="cls-2" d="M115.86,64.18c-.23.28-.38.5-.57.69-1.02,1.03-2.07,2.05-3.08,3.09-.35.36-.72.51-1.22.49-.75-.04-1.5-.09-2.24-.03-.97.08-1.8-.22-2.57-.74-.84-.56-1.73-.8-2.75-.78-2.74.04-5.48.01-8.22.01-.65,0-1.2.14-1.73.64-2.9,2.73-5.8,5.47-8.82,8.07-.99.86-1.24,1.73-1.25,2.94-.01,1.19.24,2.09,1.17,2.94,1.8,1.66,3.46,3.46,5.17,5.22.4.42.84.59,1.43.58,1.45-.05,2.91-.08,4.36,0,1.41.07,2.69-.3,3.98-.82.65-.26,1.39-.39,2.09-.43,1.24-.07,2.49,0,3.74-.03.49-.01.66.16.65.65-.02,1,.05,1.99,0,2.99-.14,2.78.28,5.48.9,8.18,1.12,4.86,2.11,9.75,3.16,14.63.1.47.2.93.26,1.4.06.44.28.58.71.57,1.07-.03,2.15,0,3.22,0,.03.05.06.1.08.16-.18.17-.34.36-.54.49-1.04.67-2.2.91-3.43.91-10.17,0-20.34,0-30.52,0-7.83,0-15.65,0-23.48,0h-.92c.14-1.11.11-2.1.8-3.02,2.29-3.03,4.46-6.15,6.72-9.19,2.6-3.5,5.22-6.98,7.88-10.42.81-1.04,1.38-2.06,1.21-3.44-.12-.98.01-1.99-.05-2.99-.02-.32-.22-.73-.47-.91-5.08-3.71-10.17-7.39-15.28-11.06-.26-.19-.63-.31-.96-.32-2.72-.02-5.44,0-8.16-.03-.4,0-.84-.09-1.18-.28-.89-.48-1.76-1.01-2.61-1.58-.26-.17-.46-.48-.6-.77-.88-1.78-1.74-3.58-2.58-5.38-.2-.42-.45-.59-.91-.57-1.41.06-2.82.08-4.23.12-.35.01-.6-.02-.57-.49.16-2.3.3-4.59.45-6.89,0-.08.03-.16.05-.27.14-.02.28-.06.42-.06,1.33.01,2.66.05,3.98.04.54,0,.94.17,1.31.56.79.82,1.62,1.61,2.44,2.4.15.14.31.28.49.39.81.46,1.5.08,1.51-.81,0-.23.04-.46,0-.68-.23-1.23.24-2.14,1.19-2.9,2.07-1.66,3.52-3.84,5.06-5.96,1.45-1.99,2.97-3.94,4.5-5.88.15-.19.54-.28.82-.29,2.18-.02,4.36-.02,6.54-.02.22,0,.44,0,.79,0-.12-.31-.18-.51-.28-.7-1.73-3.47-3.46-6.93-5.18-10.41-.17-.35-.4-.48-.77-.49-2.2-.08-4.4-.16-6.59-.27-.42-.02-.5.16-.5.51,0,1.02,0,2.03-.01,3.05,0,.22,0,.45,0,.71-.21.02-.37.06-.53.06-2.3,0-4.61,0-6.91.01-.45,0-.64-.11-.61-.59.04-.52.06-1.05-.01-1.55-.16-1.03.29-1.69,1.05-2.32,1.94-1.59,3.82-3.26,5.73-4.88.41-.35.64-.73.6-1.28-.04-.52-.05-1.04-.02-1.56.03-.46-.16-.63-.61-.63-1.12,0-2.24-.01-3.36-.01-3.4,0-6.81.01-10.21.01-.28,0-.55-.04-.86-.15,7.08-5.84,15.03-9.88,24.08-12.11,0,.95.04,1.77-.01,2.58-.03.54.17.79.66,1.02,1.99.92,3.95,1.91,5.94,2.85.4.19.45.51.47.86.1,1.72.19,3.44.29,5.16.16,2.67.33,5.34.52,8.01.01.15.29.4.45.41.99.04,1.99.04,2.99,0,.22,0,.47-.16.64-.32,2.31-2.3,4.6-4.62,6.9-6.92.23-.22.52-.44.82-.52,2.68-.79,5.36-1.57,8.06-2.29.66-.17.87-.47.87-1.1-.02-2.97,0-5.94,0-8.91,0-.22.02-.44.04-.79.79.21,1.51.38,2.21.59,6.35,1.82,12.21,4.67,17.67,8.39,2.77,1.89,5.3,4.07,7.8,6.28.37.32.52.71.51,1.21-.02,1.74-.03,3.49,0,5.23.01.55-.1.76-.71.75-1.83-.04-3.65,0-5.48-.02-.55,0-.82.16-1,.74-.76,2.45-1.6,4.88-2.4,7.32-.13.39-.32.57-.76.54-.55-.04-1.11,0-1.76,0v.89c0,1.93-.01,3.86,0,5.79,0,.43-.12.74-.44,1.02-1.92,1.65-3.82,3.33-5.75,4.97-.39.33-.57.67-.55,1.17.03.6,0,1.2.02,1.81.02.41-.07.58-.55.57-1.29-.04-2.57,0-3.86-.01-.43,0-.59.13-.58.57.02,1.39.02,2.78,0,4.17,0,.4.11.56.52.56,1.58-.01,3.16.01,4.73-.01.24,0,.52-.15.7-.32.79-.74,1.57-1.49,2.3-2.28.23-.25.36-.64.39-.98.06-.57.03-1.16.01-1.74-.01-.35.08-.54.48-.53.81.02,1.62-.03,2.43.02.29.02.62.22.84.43,1.24,1.2,2.45,2.42,3.67,3.63.7.7,1.65.74,2.37.06.48-.46.92-.96,1.42-1.4.12-.11.43-.17.56-.1,1.11.68,2.2,1.4,3.39,2.18ZM94.98,53.72s.08.09.12.13c.24.04.48.08.71.13,1.56.37,2.79.05,3.88-1.28.69-.84.95-1.61.88-2.62-.04-.48-.11-.87-.55-1.16-.39-.26-.7-.64-1.07-.94-.37-.31-.32-.57,0-.87.37-.34.73-.7,1.1-1.04-.98-.15-1.89-.12-2.79-.16-.49-.02-.6.17-.59.61.03,1.14-.05,2.28.06,3.41.15,1.61-.15,2.96-1.75,3.79ZM87.7,28.04c-.51-.04-.98-.08-1.45-.11-.99-.07-1.98-.14-2.97-.17-.18,0-.5.19-.52.32-.06.52-.02,1.05-.02,1.62.91,0,1.73-.09,2.51.02,1.29.19,2.09-.25,2.43-1.51,0-.04,0-.08.02-.17ZM94.72,48.74h-1.93c0,.74-.03,1.45.03,2.14.01.14.38.36.56.34.45-.06.99.33,1.34-.24,0-.02,0-.04,0-.06,0-.72,0-1.44,0-2.19Z"/>
      <path class="cls-2" d="M19.81,43.68c0,.49,0,.91,0,1.34,0,1.49.01,2.99-.03,4.48-.01.6.18,1.07.55,1.53,2.9,3.61,5.78,7.23,8.68,10.83.36.45.53.9.5,1.47-.04.79-.05,1.58.01,2.36.02.3.21.71.46.86,3.47,2.2,6.96,4.36,10.45,6.52,1.57.97,3.16,1.91,4.71,2.9.18.12.29.47.29.72.02,4.09.02,8.18,0,12.27,0,.56.14.93.58,1.32,1.91,1.69,3.78,3.43,5.64,5.18.17.16.27.51.25.77-.16,1.96-.37,3.92-.52,5.88-.11,1.44-.18,2.9-.19,4.34-.03,2.95-.03,5.89-.01,8.84,0,.5-.11.68-.65.68-5.79-.02-11.58-.02-17.37,0-.49,0-.74-.25-1.05-.53-3.73-3.41-6.85-7.32-9.62-11.54-3.22-4.91-5.61-10.19-7.24-15.81-1.16-3.99-1.93-8.06-2.14-12.21-.22-4.35-.3-8.71.38-13.04,1.01-6.38,2.82-12.51,5.69-18.31.13-.26.26-.52.39-.77.01-.03.07-.03.22-.08Z"/>
      <path class="cls-2" d="M24.57,115.92c-.24.02-.38.04-.51.04-2.39,0-4.77.01-7.16-.01-.24,0-.57-.16-.71-.35-4.67-5.98-8.34-12.51-10.86-19.68-.18-.51-.27-1.09-.27-1.64-.01-14.63.02-29.27-.04-43.9,0-2.11.4-4.04,1.18-5.96,2.87-7.02,6.7-13.45,11.54-19.3,2.71-3.28,5.68-6.3,8.89-9.05,3.6-3.08,7.52-5.73,11.69-8,1.74-.95,3.55-1.79,5.35-2.65.36-.17.8-.24,1.2-.24,6.66-.01,13.33-.01,19.99-.01.91,0,1.81,0,2.75.11-.68.13-1.37.26-2.05.38-2.48.44-4.99.77-7.45,1.33-7.39,1.68-14.25,4.63-20.6,8.75-9.68,6.29-17.25,14.53-22.68,24.73-3.28,6.18-5.54,12.72-6.68,19.62-.48,2.9-.79,5.84-.9,8.77-.46,11.77,2.16,22.86,7.61,33.29,1.55,2.97,3.4,5.74,5.35,8.45,1.27,1.77,2.52,3.55,4.16,5.02.06.05.1.13.21.3Z"/>
      <path class="cls-2" d="M78.91,5.17c.85,0,1.54,0,2.23,0,6.71,0,13.41,0,20.12-.02.77,0,1.45.19,2.15.5,4.15,1.8,7.93,4.24,11.65,6.76.55.37.8.79.79,1.48-.03,2.03.02,4.07.04,6.1,0,.2-.05.4-.07.56-2.79-1.93-5.51-3.9-8.33-5.73-2.84-1.84-5.89-3.3-9.02-4.6-3.1-1.3-6.27-2.41-9.56-3.11-3.27-.7-6.57-1.28-10.01-1.93Z"/>
      <path class="cls-1" d="M94.98,53.72c1.6-.83,1.9-2.18,1.75-3.79-.1-1.13-.03-2.28-.06-3.41-.01-.44.1-.63.59-.61.9.04,1.81.01,2.79.16-.36.35-.72.71-1.1,1.04-.33.3-.38.56,0,.87.37.3.68.68,1.07.94.44.29.52.68.55,1.16.08,1.01-.19,1.78-.88,2.62-1.09,1.33-2.32,1.65-3.88,1.28-.23-.06-.47-.09-.71-.13-.04-.04-.08-.09-.12-.13Z"/>
      <path class="cls-1" d="M87.7,28.04c-.01.1,0,.14-.02.17-.34,1.26-1.14,1.7-2.43,1.51-.79-.11-1.6-.02-2.51-.02,0-.57-.04-1.1.02-1.62.02-.13.34-.33.52-.32.99.03,1.98.11,2.97.17.47.03.94.07,1.45.11Z"/>
      <path class="cls-1" d="M94.72,48.74c0,.74,0,1.47,0,2.19,0,.02,0,.05,0,.06-.35.57-.89.18-1.34.24-.18.02-.54-.21-.56-.34-.06-.7-.03-1.4-.03-2.14h1.93Z"/>
    </g>
  </g>
</svg>