<?xml version="1.0" encoding="UTF-8"?>
<svg id="Inforgraphics" xmlns="http://www.w3.org/2000/svg" viewBox="0 0 121 121.05">
  <defs>
    <style>
      .cls-1 {
        fill: #545456;
      }

      .cls-1, .cls-2 {
        stroke-width: 0px;
      }

      .cls-2 {
        fill: #fff;
      }
    </style>
  </defs>
  <g id="aLmMvq.tif">
    <g>
      <path class="cls-1" d="M0,60.45C0,50.97,0,41.48,0,31.99c0-7.91.01-15.82.05-23.73C.07,3.51,3.68,0,8.5,0,32.42,0,56.34,0,80.26,0c10.84,0,21.68,0,32.51,0,3.83,0,7.2,2.6,8.02,6.22.17.74.19,1.52.19,2.29.01,24.36.01,48.71.01,73.07,0,10.49,0,20.97,0,31.46,0,2.9-1.23,5.13-3.62,6.69-1.44.94-3.08,1.31-4.79,1.31-23.02,0-46.05,0-69.07,0-11.67,0-23.34.02-35-.02-3.03,0-5.61-1.07-7.24-3.82-.84-1.42-1.24-2.97-1.24-4.63,0-3.59,0-7.18,0-10.78,0-7.35-.02-14.7-.03-22.05,0-6.44,0-12.87,0-19.31ZM77.04,25.88c-.15.12-.19.14-.21.18-1.98,3.16-3.9,6.36-5.94,9.49-2.16,3.32-4.39,6.59-6.67,9.84-1.06,1.51-2.21,2.97-3.47,4.31-2.04,2.15-4.66,3.49-7.24,4.87-1.79.95-3.62,1.83-5.12,3.26-1.29,1.23-2.6,2.46-4.01,3.54-3.21,2.46-6.54,4.74-10.79,4.93-1.69.08-3.39.29-5.06-.28-.22-.07-.51-.07-.72.01-1.55.6-2.09,2.35-1.02,3.6.77.9,1.68,1.74,2.68,2.38.71.45,1.68.75,2.51.71,2.6-.13,5.06.37,7.53,1.07.94.26,1.97.48,2.93.39,1.47-.14,2.97-.41,4.36-.9,2.89-1,5.72-2.2,8.58-3.29,2.96-1.12,5.98-1.69,9.12-.85,1.35.36,2.47,1.13,3.64,1.84,4.13,2.53,8.7,3.21,13.44,2.98,1.29-.06,2.38-.66,3.27-1.61,1.74-1.88,2.37-4.15,2.02-6.62-.38-2.74-.71-5.47-.58-8.24.07-1.42.23-2.85.48-4.25.49-2.68,1.98-4.9,3.53-7.06,1.34-1.87,2.78-3.67,4.18-5.5.24-.31.41-.55-.02-.86-.77-.56-1.52-1.16-2.26-1.75-4.48-3.6-8.96-7.2-13.44-10.8-.58-.46-1.15-.94-1.72-1.41ZM13.62,83.16c-.15-1.04-.22-1.11-1.21-1.11-.64,0-1.29.03-1.93-.02-.57-.04-.74.15-.73.73.03,3.95.02,7.89.02,11.84,0,.18.03.36.04.59h.97c32.58,0,65.15,0,97.73,0,.77,0,1.54-.01,2.3,0,.38,0,.56-.07.55-.51-.02-4.05-.01-8.1,0-12.15,0-.38-.14-.51-.51-.5-1.04.02-2.08.03-3.11,0-.41,0-.62.12-.68.52-.07.47-.35.63-.83.62-1.47-.03-2.95-.03-4.42,0-.45,0-.72-.11-.78-.57-.06-.46-.32-.58-.77-.58-7.12.02-14.24.02-21.36.01-.5,0-.76.15-.89.64-.05.19-.3.46-.46.46-1.86.03-3.73.02-5.57.02-.29-1.11-.29-1.12-1.4-1.12-6.52,0-13.04,0-19.56,0-.68,0-1.36,0-2.02,0q-.46,1.13-1.64,1.13c-1.27,0-2.53-.02-3.8.01-.45.01-.7-.13-.79-.56-.09-.44-.34-.58-.79-.58-7.23.01-14.45.02-21.68,0-.51,0-.76.15-.82.68-.02.16-.26.42-.41.42-1.8.03-3.6.02-5.43.02Z"/>
      <path class="cls-2" d="M77.04,25.88c.58.47,1.15.95,1.72,1.41,4.48,3.6,8.96,7.2,13.44,10.8.74.6,1.49,1.19,2.26,1.75.43.31.26.55.02.86-1.4,1.83-2.83,3.63-4.18,5.5-1.55,2.16-3.05,4.38-3.53,7.06-.25,1.4-.42,2.83-.48,4.25-.13,2.76.2,5.5.58,8.24.35,2.47-.28,4.74-2.02,6.62-.88.95-1.97,1.55-3.27,1.61-4.75.23-9.31-.46-13.44-2.98-1.17-.71-2.29-1.48-3.64-1.84-3.15-.84-6.17-.27-9.12.85-2.86,1.08-5.69,2.28-8.58,3.29-1.39.48-2.89.76-4.36.9-.96.09-1.98-.13-2.93-.39-2.47-.69-4.94-1.19-7.53-1.07-.83.04-1.8-.26-2.51-.71-1-.63-1.91-1.48-2.68-2.38-1.07-1.25-.52-3,1.02-3.6.21-.08.5-.09.72-.01,1.66.56,3.37.36,5.06.28,4.25-.19,7.58-2.47,10.79-4.93,1.41-1.08,2.72-2.31,4.01-3.54,1.5-1.43,3.33-2.31,5.12-3.26,2.58-1.38,5.21-2.72,7.24-4.87,1.27-1.33,2.41-2.8,3.47-4.31,2.28-3.24,4.51-6.52,6.67-9.84,2.04-3.13,3.96-6.32,5.94-9.49.02-.03.06-.05.21-.18Z"/>
      <path class="cls-2" d="M13.62,83.16c1.83,0,3.63,0,5.43-.02.14,0,.39-.26.41-.42.06-.53.31-.68.82-.68,7.23,0,14.45,0,21.68,0,.45,0,.71.14.79.58.09.43.34.57.79.56,1.27-.03,2.53-.01,3.8-.01q1.19,0,1.64-1.13c.66,0,1.34,0,2.02,0,6.52,0,13.04,0,19.56,0,1.11,0,1.11,0,1.4,1.12,1.85,0,3.71.01,5.57-.02.16,0,.41-.27.46-.46.13-.49.4-.64.89-.64,7.12,0,14.24,0,21.36-.01.45,0,.71.12.77.58.06.45.33.57.78.57,1.47-.03,2.95-.03,4.42,0,.48,0,.76-.15.83-.62.06-.41.28-.53.68-.52,1.04.03,2.08.02,3.11,0,.37,0,.51.12.51.5,0,4.05-.01,8.1,0,12.15,0,.44-.17.52-.55.51-.77-.02-1.54,0-2.3,0-32.58,0-65.15,0-97.73,0h-.97c-.02-.24-.04-.41-.04-.59,0-3.95,0-7.89-.02-11.84,0-.58.16-.77.73-.73.64.05,1.29.01,1.93.02.99,0,1.06.07,1.21,1.11Z"/>
    </g>
  </g>
</svg>