<?xml version="1.0" encoding="UTF-8"?>
<svg id="Inforgraphics" xmlns="http://www.w3.org/2000/svg" viewBox="0 0 121.02 121.03">
  <defs>
    <style>
      .cls-1 {
        fill: #545456;
      }

      .cls-1, .cls-2 {
        stroke-width: 0px;
      }

      .cls-2 {
        fill: #fff;
      }
    </style>
  </defs>
  <g id="fxZe8R.tif">
    <g>
      <path class="cls-1" d="M121,60.56c0,16.65-.01,33.3.01,49.95,0,2.81-.91,5.22-2.86,7.19-2.15,2.18-4.81,3.31-7.87,3.31-15.34.01-30.68,0-46.03,0-10.15,0-20.3,0-30.46,0-7.43,0-14.86,0-22.3.03-2.56.01-4.95-.51-7.03-2.05C1.67,116.9.1,114.12.08,110.59c-.05-10.65-.06-21.3-.07-31.95-.01-11.58,0-23.17,0-34.75,0-10.98-.02-21.96,0-32.94C.02,7.07,1.47,3.89,4.77,1.67,6.48.53,8.36,0,10.41,0c11.98,0,23.96,0,35.94,0C67.79.01,89.24.02,110.68,0c5.67,0,10.32,4.78,10.32,10.3-.01,14.78,0,29.56,0,44.34,0,1.97,0,3.94,0,5.92ZM18.96,57.21l.21.33h13.32c.03.06.07.12.1.19-7.26,7.28-14.52,14.56-21.78,21.84.03.05.05.1.08.16.39,0,.78,0,1.17,0,14.74,0,29.48,0,44.22-.02.51,0,.69.14.68.67-.03,1.64,0,3.28,0,4.92q0,.83-.81.83c-16.59,0-33.18,0-49.77,0-.87,0-.87,0-.87.89,0,7.81,0,15.61,0,23.42,0,2.25,1.6,4.42,3.81,4.85,1.26.25,2.6.16,3.9.16,22.15,0,44.3,0,66.46,0,10.28,0,20.55,0,30.83.01.98,0,1.89-.21,2.72-.73,1.57-.97,2.28-2.46,2.32-4.23.07-2.72.04-5.44.04-8.15,0-5.19-.02-10.38-.02-15.57,0-.5-.11-.67-.66-.67-9.78.02-19.56.02-29.34.02-6.89,0-13.79,0-20.68.01-.64,0-.81-.19-.8-.82.04-1.62.04-3.24,0-4.86-.02-.61.19-.76.78-.76,13.39.01,26.78.01,40.17.01,1.77,0,3.54,0,5.52,0-7.41-7.43-14.7-14.73-21.99-22.04.03-.06.06-.11.09-.17h13.31c-7.84-7.87-15.59-15.65-23.34-23.43.04-.05.07-.1.11-.16h9.38c-.13-.18-.2-.32-.31-.43-1.5-1.55-2.98-3.12-4.51-4.64-3.15-3.13-6.33-6.23-9.47-9.37-4.25-4.26-8.48-8.54-12.71-12.83-.42-.43-.67-.43-1.1,0-5.3,5.33-10.6,10.65-15.92,15.96-3.54,3.54-7.1,7.05-10.65,10.58-.19.19-.35.41-.64.76h9.55c-7.86,7.8-15.64,15.53-23.43,23.26Z"/>
      <path class="cls-2" d="M18.96,57.21c7.78-7.73,15.57-15.45,23.43-23.26h-9.55c.29-.35.45-.57.64-.76,3.55-3.53,7.11-7.04,10.65-10.58,5.32-5.31,10.62-10.63,15.92-15.96.43-.43.68-.43,1.1,0,4.22,4.29,8.45,8.57,12.71,12.83,3.14,3.14,6.33,6.24,9.47,9.37,1.53,1.52,3.01,3.09,4.51,4.64.1.11.18.25.31.43h-9.38c-.04.05-.07.1-.11.16,7.75,7.78,15.49,15.55,23.34,23.43h-13.31c-.03.06-.06.11-.09.17,7.29,7.31,14.58,14.62,21.99,22.04-1.97,0-3.74,0-5.52,0-13.39,0-26.78,0-40.17-.01-.59,0-.79.15-.78.76.04,1.62.04,3.24,0,4.86-.02.63.16.82.8.82,6.89-.02,13.79-.01,20.68-.01,9.78,0,19.56,0,29.34-.02.55,0,.66.17.66.67,0,5.19.01,10.38.02,15.57,0,2.72.03,5.44-.04,8.15-.05,1.77-.76,3.26-2.32,4.23-.83.52-1.74.73-2.72.73-10.28,0-20.55-.01-30.83-.01-22.15,0-44.3,0-66.46,0-1.3,0-2.64.09-3.9-.16-2.21-.43-3.81-2.6-3.81-4.85,0-7.81,0-15.61,0-23.42,0-.89,0-.89.87-.89,16.59,0,33.18,0,49.77,0q.81,0,.81-.83c0-1.64-.02-3.28,0-4.92,0-.53-.18-.67-.68-.67-14.74.01-29.48.02-44.22.02-.39,0-.78,0-1.17,0-.03-.05-.05-.1-.08-.16,7.26-7.28,14.52-14.56,21.78-21.84-.03-.06-.07-.12-.1-.19h-13.32l-.21-.33ZM47.31,63.13c-.16-.33-.27-.55-.36-.77-1.02-2.38-2.03-4.76-3.04-7.15-.33-.77-.93-1.11-1.69-.87-1.76.55-3.51,1.11-5.25,1.72-.84.29-1.06.87-.72,1.68,1.91,4.54,3.82,9.09,5.74,13.62.64,1.52,1.85,2.15,3.47,1.72,1.32-.35,2.61-.8,3.9-1.24.37-.12.73-.32,1.02-.57.92-.77,1.87-1.52,2.71-2.38,3.27-3.33,6.5-6.7,9.74-10.06,3.38-3.51,6.76-7.02,10.13-10.54,1.68-1.75,3.34-3.53,5.06-5.24.67-.67.74-1.29.38-2.11-.72-1.63-1.39-3.28-2.07-4.92-.68-1.63-1.13-1.71-2.35-.43-1.48,1.57-2.97,3.13-4.47,4.68-3.4,3.52-6.81,7.04-10.21,10.56-3.72,3.85-7.45,7.69-11.17,11.54-.23.24-.47.45-.81.77Z"/>
      <path class="cls-1" d="M47.31,63.13c.33-.32.58-.54.81-.77,3.72-3.85,7.45-7.69,11.17-11.54,3.41-3.52,6.81-7.04,10.21-10.56,1.5-1.55,2.99-3.11,4.47-4.68,1.22-1.29,1.67-1.21,2.35.43.68,1.64,1.36,3.29,2.07,4.92.36.82.29,1.45-.38,2.11-1.72,1.71-3.38,3.49-5.06,5.24-3.38,3.51-6.75,7.03-10.13,10.54-3.24,3.36-6.47,6.73-9.74,10.06-.84.86-1.79,1.61-2.71,2.38-.3.25-.66.45-1.02.57-1.29.44-2.58.9-3.9,1.24-1.62.43-2.83-.2-3.47-1.72-1.92-4.54-3.83-9.08-5.74-13.62-.34-.81-.12-1.39.72-1.68,1.74-.6,3.5-1.17,5.25-1.72.76-.24,1.36.1,1.69.87,1.02,2.38,2.03,4.76,3.04,7.15.1.22.21.44.36.77Z"/>
    </g>
  </g>
</svg>