<?xml version="1.0" encoding="UTF-8"?>
<svg id="Inforgraphics" xmlns="http://www.w3.org/2000/svg" viewBox="0 0 121.15 121.2">
  <defs>
    <style>
      .cls-1 {
        fill: #545456;
      }

      .cls-1, .cls-2 {
        stroke-width: 0px;
      }

      .cls-2 {
        fill: #fff;
      }
    </style>
  </defs>
  <g id="X9B3cW.tif">
    <g>
      <path class="cls-2" d="M121.15,60.71c0,16.73,0,33.47,0,50.2,0,5.02-3.92,9.56-8.9,10.2-1.21.15-2.45.06-3.67.06-10.28,0-20.55,0-30.83,0-21.55,0-43.1,0-64.65,0-1.76,0-3.51.12-5.26-.27-3.79-.83-7.16-4.38-7.7-8.24-.09-.63-.13-1.28-.13-1.92C0,77.33,0,43.9,0,10.48,0,5.19,3.83.81,9.06.13c.74-.1,1.49-.12,2.23-.13C44.14,0,76.98,0,109.83,0c2.38,0,4.63.44,6.61,1.81,2.98,2.07,4.71,4.87,4.71,8.57,0,16.78,0,33.55,0,50.33ZM36.23,68.71s.1-.03.15-.04c0-.51,0-1.02,0-1.52,0-18.5,0-37-.01-55.5,0-.6.11-.81.78-.8,15.26.02,30.52.01,45.78.01q.98,0,.98.96c0,17.23,0,34.47,0,51.7,0,1.72,0,3.44,0,5.17,1.2-3.02,2.78-5.77,4.89-8.24-.82,5.76-1.74,11.48-1.71,17.32.94-2.46,2.03-4.8,3.55-6.93,2.11-2.97,4.41-5.47,5.26-5.62-1.49,4.15-3.08,8.26-4.14,12.57,2.6-3.17,5.92-5.31,9.44-7.2.04.04.08.09.12.13-1.61,2.35-3.22,4.7-4.88,7.11h19.15v-.85c0-14.68,0-29.36,0-44.04,0-7.31-.02-14.62.01-21.93.02-3.49-2.61-5.56-5.46-5.45-2.72.1-5.44.02-8.16.02-30.44,0-60.87,0-91.31,0-.51,0-1.04.05-1.54.19-2.04.54-3.56,2.37-3.61,4.48-.07,2.95-.06,5.89-.06,8.84-.01,8.2-.03,16.4-.03,24.6,0,3.99.04,7.97.04,11.96,0,7.12-.04,14.24-.06,21.36,0,.87,0,.87.89.87,5.61,0,11.21,0,16.82,0h.76c-1.72-2.48-3.36-4.84-5-7.2.05-.05.11-.11.16-.16,3.5,1.93,6.83,4.11,9.4,7.3.08-.06.17-.11.25-.17-1.42-4.17-2.85-8.33-4.27-12.5.05-.03.09-.06.14-.08,3.99,3.47,6.87,7.72,8.56,12.8.1-.04.19-.08.29-.12-.25-2.88-.42-5.77-.76-8.65-.34-2.88-.83-5.75-1.26-8.62.05-.02.11-.04.16-.06,1.99,2.51,3.66,5.2,4.64,8.29ZM36.34,115.24h.84c15.32,0,30.64,0,45.96,0q.82,0,.82-.81c0-11.81,0-23.62,0-35.44,0-1.26.22-1.18-1.15-1.18-15.26,0-30.51,0-45.77,0-.59,0-.73.19-.73.75.03,4.86.04,9.71.04,14.57,0,6.16-.01,12.33-.02,18.49,0,1.18,0,2.36,0,3.62ZM79.96,59.65c0-1.03.08-2.01-.02-2.98-.18-1.68-.34-3.38-.74-5.02-.69-2.82-2.27-5.01-5.1-6.07-1.85-.69-3.78-.76-5.71-.52-2.98.36-5.24,1.84-6.58,4.59-.76,1.56-1.23,3.23-1.32,4.95-.13,2.52-.13,5.06-.14,7.58,0,1.81.34,3.58.87,5.31.97,3.16,3.05,5.17,6.28,5.9,2,.46,4.01.34,5.96-.22,3.52-1.02,5.22-3.64,6.02-7.03.51-2.16.53-4.35.47-6.5ZM46.22,55.79c0-.21-.01-.35,0-.49.16-1.65.35-3.3.46-4.95.04-.6.23-.77.82-.76,2.82.03,5.65.01,8.47,0,.35,0,.71-.03,1.04-.13.45-.13.76-.44.77-.94.02-.66.03-1.33,0-1.99-.04-.8-.44-1.2-1.24-1.28-.43-.04-.87-.06-1.3-.06-3.11,0-6.23,0-9.34,0-.66,0-1.33,0-1.99.05-1.06.09-1.43.55-1.5,1.6-.13,1.9-.3,3.8-.46,5.7-.18,2.09-.39,4.17-.54,6.26-.07.96.13,1.13,1.08,1.14,1.45,0,2.91-.08,4.36.02,1.42.1,2.84.31,4.22.63,1.27.3,2.1,1.26,2.26,2.54.14,1.11.1,2.27-.02,3.4-.09.9-.52,1.78-1.4,2.15-.88.37-1.85.74-2.79.74-2.23-.01-4.47-.22-6.7-.4-.89-.07-1.3.18-1.34,1.07-.02.58.06,1.16.04,1.74,0,.46.21.7.62.8.87.2,1.73.43,2.61.58,2.96.51,5.93.75,8.86-.19,2.62-.83,4.41-2.48,5.09-5.21.38-1.52.53-3.04.4-4.62-.27-3.08-1.78-5.2-4.66-6.32-2.26-.87-4.64-1.03-7.03-1.05-.26,0-.52-.02-.8-.04Z"/>
      <path class="cls-1" d="M36.23,68.71c-.98-3.1-2.65-5.79-4.64-8.29-.05.02-.11.04-.16.06.43,2.87.92,5.74,1.26,8.62.33,2.87.51,5.76.76,8.65-.1.04-.19.08-.29.12-1.7-5.08-4.57-9.33-8.56-12.8-.05.03-.09.06-.14.08,1.42,4.17,2.85,8.33,4.27,12.5-.08.06-.17.11-.25.17-2.57-3.19-5.9-5.37-9.4-7.3-.05.05-.11.11-.16.16,1.64,2.36,3.28,4.72,5,7.2h-.76c-5.61,0-11.21,0-16.82,0-.89,0-.9,0-.89-.87.02-7.12.05-14.24.06-21.36,0-3.99-.04-7.97-.04-11.96,0-8.2.01-16.4.03-24.6,0-2.95-.01-5.9.06-8.84.05-2.11,1.57-3.94,3.61-4.48.49-.13,1.02-.19,1.54-.19,30.44,0,60.87,0,91.31,0,2.72,0,5.44.08,8.16-.02,2.85-.11,5.48,1.96,5.46,5.45-.03,7.31-.01,14.62-.01,21.93,0,14.68,0,29.36,0,44.04v.85h-19.15c1.65-2.41,3.27-4.76,4.88-7.11-.04-.04-.08-.09-.12-.13-3.52,1.88-6.84,4.03-9.44,7.2,1.06-4.31,2.65-8.42,4.14-12.57-.85.15-3.15,2.65-5.26,5.62-1.52,2.14-2.61,4.48-3.55,6.93-.04-5.84.89-11.56,1.71-17.32-2.11,2.47-3.69,5.22-4.89,8.24,0-1.72,0-3.44,0-5.17,0-17.23,0-34.47,0-51.7q0-.96-.98-.96c-15.26,0-30.52,0-45.78-.01-.66,0-.78.2-.78.8.01,18.5.01,37,.01,55.5,0,.51,0,1.02,0,1.52-.05.01-.1.03-.15.04Z"/>
      <path class="cls-1" d="M36.34,115.24c0-1.26,0-2.44,0-3.62,0-6.16.02-12.33.02-18.49,0-4.86,0-9.71-.04-14.57,0-.57.14-.75.73-.75,15.26.01,30.51,0,45.77,0,1.37,0,1.15-.07,1.15,1.18,0,11.81,0,23.62,0,35.44q0,.8-.82.81c-15.32,0-30.64,0-45.96,0h-.84ZM67.31,86.9c.31,0,.54,0,.76,0,2.84,0,5.69,0,8.53,0,1.05,0,1.42-.39,1.43-1.43,0-.44,0-.87,0-1.31,0-1.18-.38-1.55-1.58-1.55-3.82,0-7.64,0-11.46,0-1.39,0-1.85.44-1.97,1.81-.23,2.54-.48,5.08-.71,7.62-.12,1.28-.23,2.56-.33,3.84-.08,1.03.13,1.24,1.18,1.24,1.56,0,3.11-.02,4.67.02.93.02,1.87.06,2.78.23,1.55.29,2.93.98,3.19,2.7.17,1.14.11,2.36-.07,3.51-.2,1.34-1.07,2.28-2.41,2.66-.55.16-1.14.29-1.71.26-2.19-.11-4.38-.26-6.57-.44-.81-.06-1.25.29-1.26,1.11,0,.54.04,1.08-.01,1.62-.05.54.19.75.66.85.77.15,1.54.33,2.31.47,2.58.47,5.17.73,7.78.19,2.88-.59,4.97-2.12,5.94-4.96.31-.91.56-1.88.63-2.84.3-3.88-1.1-7.33-5.45-8.65-2.06-.63-4.18-.82-6.33-.79-.5,0-.67-.16-.57-.67.11-.57.15-1.15.21-1.73.12-1.24.24-2.47.36-3.78ZM50.59,110.2s0,.01,0,.02c.31,0,.62,0,.93,0,2.16,0,4.32,0,6.48-.02.84,0,1.21-.41,1.23-1.23,0-.41,0-.83,0-1.25,0-1.21-.47-1.68-1.7-1.68-3.22,0-6.44,0-9.65,0-.44,0-.88.04-1.3-.03-.15-.02-.4-.31-.38-.45.22-1.55.71-3.02,1.85-4.12.96-.93,2.03-1.77,3.11-2.56,1.79-1.31,3.69-2.47,5.44-3.84,2.06-1.62,3.1-3.79,2.88-6.48-.15-1.84-.68-3.49-2.3-4.61-1.24-.86-2.65-1.27-4.12-1.44-3.25-.39-6.45-.03-9.64.63-.81.17-1.19.66-1.2,1.49,0,.39,0,.79,0,1.18.02.7.47,1.12,1.17,1.06,1.51-.13,3.01-.34,4.52-.39,1.51-.06,3.03-.03,4.53.08.92.07,1.79.5,2.05,1.47.4,1.47.31,2.89-.94,4-.4.36-.8.73-1.24,1.03-1.68,1.14-3.42,2.21-5.07,3.39-2.42,1.73-4.06,4.05-4.91,6.92-.53,1.79-.35,3.62-.36,5.44,0,1.03.36,1.39,1.38,1.39,2.41,0,4.82,0,7.22,0Z"/>
      <path class="cls-1" d="M79.96,59.65c.06,2.15.04,4.34-.47,6.5-.8,3.39-2.5,6.01-6.02,7.03-1.95.57-3.96.68-5.96.22-3.24-.74-5.31-2.74-6.28-5.9-.53-1.73-.88-3.5-.87-5.31.01-2.53.01-5.06.14-7.58.09-1.72.55-3.39,1.32-4.95,1.34-2.75,3.6-4.23,6.58-4.59,1.92-.23,3.86-.17,5.71.52,2.83,1.06,4.41,3.25,5.1,6.07.4,1.64.56,3.34.74,5.02.1.96.02,1.95.02,2.98ZM74.79,59.92c-.1-2-.11-3.49-.26-4.97-.15-1.49-.47-2.96-1.4-4.19-1.67-2.2-4.87-1.99-6.26.39-.73,1.24-1.12,2.62-1.19,4.02-.13,2.54-.18,5.1-.09,7.65.04,1.2.35,2.42.72,3.57.41,1.27,1.16,2.38,2.53,2.8,2.04.62,3.78-.14,4.73-2.05.38-.77.73-1.61.84-2.45.23-1.74.29-3.5.38-4.76Z"/>
      <path class="cls-1" d="M46.22,55.79c.28.01.54.04.8.04,2.39.01,4.77.17,7.03,1.05,2.88,1.11,4.39,3.24,4.66,6.32.14,1.57-.01,3.1-.4,4.62-.69,2.73-2.47,4.38-5.09,5.21-2.93.93-5.9.7-8.86.19-.88-.15-1.74-.37-2.61-.58-.41-.1-.63-.33-.62-.8.01-.58-.07-1.16-.04-1.74.04-.89.45-1.14,1.34-1.07,2.23.18,4.47.39,6.7.4.93,0,1.9-.37,2.79-.74.89-.37,1.31-1.25,1.4-2.15.12-1.12.16-2.28.02-3.4-.16-1.29-.99-2.24-2.26-2.54-1.38-.33-2.8-.53-4.22-.63-1.45-.11-2.9-.02-4.36-.02-.95,0-1.15-.17-1.08-1.14.16-2.09.36-4.17.54-6.26.16-1.9.33-3.8.46-5.7.07-1.05.45-1.51,1.5-1.6.66-.06,1.33-.05,1.99-.05,3.11,0,6.23,0,9.34,0,.44,0,.87.02,1.3.06.8.08,1.2.48,1.24,1.28.03.66.02,1.33,0,1.99-.01.5-.33.81-.77.94-.33.1-.69.13-1.04.13-2.82.01-5.65.02-8.47,0-.59,0-.78.17-.82.76-.11,1.65-.31,3.3-.46,4.95-.01.14,0,.28,0,.49Z"/>
      <path class="cls-2" d="M67.31,86.9c-.12,1.31-.24,2.55-.36,3.78-.06.58-.1,1.16-.21,1.73-.1.51.07.67.57.67,2.14-.03,4.26.17,6.33.79,4.35,1.33,5.75,4.77,5.45,8.65-.07.96-.32,1.92-.63,2.84-.97,2.84-3.06,4.37-5.94,4.96-2.61.53-5.2.27-7.78-.19-.77-.14-1.54-.32-2.31-.47-.47-.09-.71-.31-.66-.85.05-.53,0-1.08.01-1.62,0-.82.45-1.17,1.26-1.11,2.19.17,4.38.33,6.57.44.57.03,1.16-.11,1.71-.26,1.34-.38,2.21-1.31,2.41-2.66.18-1.15.24-2.37.07-3.51-.26-1.72-1.64-2.41-3.19-2.7-.91-.17-1.85-.21-2.78-.23-1.56-.04-3.11-.01-4.67-.02-1.05,0-1.26-.22-1.18-1.24.1-1.28.21-2.56.33-3.84.23-2.54.48-5.08.71-7.62.12-1.38.58-1.81,1.97-1.81,3.82,0,7.64,0,11.46,0,1.2,0,1.57.37,1.58,1.55,0,.44,0,.87,0,1.31,0,1.04-.39,1.43-1.43,1.43-2.84,0-5.69,0-8.53,0-.23,0-.45,0-.76,0Z"/>
      <path class="cls-2" d="M50.59,110.2c-2.41,0-4.82,0-7.22,0-1.03,0-1.39-.36-1.38-1.39.01-1.82-.17-3.65.36-5.44.85-2.87,2.49-5.18,4.91-6.92,1.65-1.18,3.39-2.25,5.07-3.39.44-.3.84-.67,1.24-1.03,1.25-1.11,1.33-2.54.94-4-.26-.97-1.14-1.4-2.05-1.47-1.5-.11-3.02-.14-4.53-.08-1.51.06-3.01.27-4.52.39-.7.06-1.15-.36-1.17-1.06-.01-.39,0-.79,0-1.18,0-.83.39-1.32,1.2-1.49,3.18-.66,6.39-1.02,9.64-.63,1.47.18,2.88.58,4.12,1.44,1.61,1.12,2.14,2.77,2.3,4.61.22,2.69-.82,4.86-2.88,6.48-1.74,1.37-3.65,2.53-5.44,3.84-1.08.79-2.15,1.63-3.11,2.56-1.14,1.1-1.64,2.57-1.85,4.12-.02.14.23.43.38.45.43.06.87.03,1.3.03,3.22,0,6.44,0,9.65,0,1.23,0,1.7.47,1.7,1.68,0,.42.01.83,0,1.25-.02.82-.39,1.22-1.23,1.23-2.16.02-4.32.02-6.48.02-.31,0-.62,0-.93,0,0,0,0-.01,0-.02Z"/>
      <path class="cls-2" d="M74.79,59.92c-.09,1.26-.15,3.02-.38,4.76-.11.84-.46,1.68-.84,2.45-.95,1.91-2.69,2.67-4.73,2.05-1.37-.42-2.12-1.53-2.53-2.8-.37-1.15-.68-2.37-.72-3.57-.08-2.55-.04-5.1.09-7.65.07-1.4.46-2.77,1.19-4.02,1.39-2.38,4.59-2.59,6.26-.39.94,1.23,1.25,2.7,1.4,4.19.15,1.48.16,2.98.26,4.97Z"/>
    </g>
  </g>
</svg>