<?xml version="1.0" encoding="UTF-8"?>
<svg id="Inforgraphics" xmlns="http://www.w3.org/2000/svg" viewBox="0 0 121.02 121.02">
  <defs>
    <style>
      .cls-1 {
        fill: #545456;
      }

      .cls-1, .cls-2 {
        stroke-width: 0px;
      }

      .cls-2 {
        fill: #fff;
      }
    </style>
  </defs>
  <g id="_3b60DZ.tif" data-name="3b60DZ.tif">
    <g>
      <path class="cls-1" d="M60.51,0C77.87,0,95.23,0,112.58,0c4.14,0,7.4,2.6,8.24,6.64.2.96.19,1.98.19,2.97.01,14.78,0,29.56,0,44.34,0,19.37,0,38.74,0,58.11,0,1.72-.16,3.39-1.07,4.91-1.68,2.8-4.24,4.02-7.39,4.03-16.4.02-32.8.01-49.21.01-18.25,0-36.5,0-54.75,0-2.42,0-4.61-.67-6.3-2.47C.86,117.02,0,115.22,0,113.06c.01-11.4.02-22.79.02-34.19,0-10.63,0-21.26,0-31.89,0-10.63,0-21.26,0-31.89,0-2.41.01-4.82.03-7.22C.07,3.99,3.1.59,6.95.12c.64-.08,1.28-.12,1.92-.12C26.09,0,43.3,0,60.51,0ZM60.82,83.28c-12.91,0-25.82,0-38.74,0-5.36,0-10.71,0-16.07,0-.4,0-.74-.05-.74.59.02,6.35,0,12.7,0,19.05,0,2.62.02,5.23,0,7.85-.01,2.65,2.65,5,5.02,4.97,5.63-.05,11.25-.01,16.88-.01,27.67,0,55.34.01,83.02.01.6,0,1.21.02,1.8-.09,2.66-.51,4.22-2.44,4.22-5.2,0-8.8,0-17.6.02-26.4,0-.65-.18-.78-.8-.78-18.21.02-36.41.01-54.62.01ZM60.77,52.59c.01.07.03.14.04.2-.14.15-.26.31-.41.45-4.1,4.12-8.2,8.23-12.29,12.36-.34.34-.53.37-.89,0-4.11-4.14-8.23-8.27-12.35-12.4-.16-.16-.31-.35-.55-.62.29,0,.41,0,.53,0,1.79,0,3.57-.01,5.36,0,.31,0,.52-.01.52-.41-.02-1.99.15-3.98-.34-5.94-1.11-4.44-3.27-8.19-6.98-11.01-4.12-3.12-8.74-4.5-13.82-3.95-5.8.63-10.45,3.4-13.83,8.22-.32.46-.49.92-.49,1.49.01,12.1,0,24.2.01,36.31,0,.93,0,.93.93.93,18.21,0,36.41,0,54.62.02.62,0,.86-.17.96-.78.3-1.83.68-3.64,1.03-5.53.16.13.27.22.37.31,1.5,1.5,3.08,2.92,4.46,4.52,1.03,1.19,2.16,1.66,3.68,1.48.52-.06.83-.23,1.06-.68.52-.99.52-2.01.29-3.08-1.13-5.18-2.25-10.36-3.38-15.53-.24-1.12-.49-2.25-.76-3.47.28.09.45.14.62.21,2.41,1.05,4.82,2.1,7.23,3.16,1.2.53,2.65-.27,2.82-1.6.14-1.12-.01-2.18-.72-3.13-.57-.76-1.08-1.57-1.62-2.36-3.05-4.47-6.11-8.94-9.16-13.41-.1-.14-.18-.3-.2-.34,2.88,0,5.76,0,8.64,0,.97,0,1.36-.18,1.62-1.11.16-.56.14-1.23-.01-1.8-.29-1.11-1.21-1.75-2.11-2.36-5.39-3.61-10.79-7.22-16.19-10.83-.14-.1-.27-.21-.48-.38.3-.13.5-.22.71-.3,2.62-1.03,5.24-2.07,7.86-3.09.59-.23.82-.62.84-1.23.04-1.59-.98-2.93-2.58-3.25-3.09-.61-6.18-1.18-9.27-1.77-3.49-.67-6.98-1.34-10.55-2.03,1.78-1.7,3.5-3.34,5.21-4.98-.04-.08-.08-.15-.13-.23-.3,0-.61,0-.91,0-13.18,0-26.37.02-39.55,0-2.76,0-5.42,2.03-5.36,5.3.07,3.84-.02,7.68-.03,11.52,0,.09.05.19.1.36.26-.13.47-.23.68-.35,6.65-3.63,13.72-4.96,21.21-3.65,5.34.93,10.17,3.07,14.47,6.39,5.38,4.15,9.1,9.49,11.24,15.92,1.27,3.81,1.72,7.76,1.68,11.76,0,.48.13.66.63.65,1.25-.02,2.49,0,3.74,0,.6,0,1.19,0,1.79,0Z"/>
      <path class="cls-2" d="M60.82,83.28c18.21,0,36.41,0,54.62-.01.62,0,.8.13.8.78-.02,8.8-.01,17.6-.02,26.4,0,2.76-1.57,4.69-4.22,5.2-.58.11-1.2.09-1.8.09-27.67,0-55.34,0-83.02-.01-5.63,0-11.25-.04-16.88.01-2.36.02-5.03-2.32-5.02-4.97.01-2.62,0-5.23,0-7.85,0-6.35.01-12.7,0-19.05,0-.64.34-.59.74-.59,5.36,0,10.71,0,16.07,0,12.91,0,25.82,0,38.74,0Z"/>
      <path class="cls-2" d="M60.77,52.59c-.6,0-1.19,0-1.79,0-1.25,0-2.49-.03-3.74,0-.5,0-.64-.17-.63-.65.04-4.01-.41-7.95-1.68-11.76-2.14-6.43-5.86-11.76-11.24-15.92-4.3-3.32-9.14-5.46-14.47-6.39-7.49-1.3-14.55.03-21.21,3.65-.21.11-.42.22-.68.35-.05-.18-.1-.27-.1-.36.01-3.84.1-7.68.03-11.52-.06-3.27,2.6-5.31,5.36-5.3,13.18.01,26.37,0,39.55,0,.3,0,.61,0,.91,0,.04.08.08.15.13.23-1.72,1.64-3.43,3.28-5.21,4.98,3.57.69,7.06,1.36,10.55,2.03,3.09.59,6.19,1.16,9.27,1.77,1.6.32,2.62,1.66,2.58,3.25-.02.61-.25,1-.84,1.23-2.63,1.02-5.24,2.06-7.86,3.09-.21.08-.41.17-.71.3.21.16.34.28.48.38,5.4,3.61,10.79,7.22,16.19,10.83.9.61,1.82,1.25,2.11,2.36.15.57.17,1.24.01,1.8-.26.92-.65,1.11-1.62,1.11-2.88,0-5.76,0-8.64,0,.03.04.11.2.2.34,3.05,4.47,6.11,8.94,9.16,13.41.54.79,1.05,1.6,1.62,2.36.71.95.86,2.01.72,3.13-.16,1.33-1.61,2.13-2.82,1.6-2.41-1.06-4.82-2.11-7.23-3.16-.16-.07-.34-.11-.62-.21.27,1.23.52,2.35.76,3.47,1.13,5.18,2.24,10.36,3.38,15.53.23,1.07.24,2.09-.29,3.08-.24.45-.54.62-1.06.68-1.52.18-2.65-.29-3.68-1.48-1.38-1.6-2.96-3.02-4.46-4.52-.1-.1-.21-.18-.37-.31-.36,1.89-.73,3.7-1.03,5.53-.1.61-.34.78-.96.78-18.21-.02-36.41-.02-54.62-.02-.92,0-.93,0-.93-.93,0-12.1,0-24.2-.01-36.31,0-.57.17-1.03.49-1.49,3.38-4.82,8.03-7.59,13.83-8.22,5.09-.56,9.71.83,13.82,3.95,3.71,2.82,5.87,6.57,6.98,11.01.49,1.96.32,3.96.34,5.94,0,.4-.21.41-.52.41-1.79,0-3.57,0-5.36,0-.12,0-.24,0-.53,0,.24.28.39.46.55.62,4.12,4.13,8.24,8.26,12.35,12.4.36.36.55.34.89,0,4.09-4.13,8.2-8.24,12.29-12.36.14-.14.27-.3.41-.45-.01-.07-.03-.14-.04-.2ZM22.23,53.81c2.39-.04,4.15-1.84,4.12-4.22-.03-2.15-2.01-4.03-4.2-4-2.12.03-4.1,2.04-4.05,4.12.06,2.19,2.02,4.14,4.13,4.1Z"/>
      <path class="cls-1" d="M22.23,53.81c-2.11.04-4.07-1.91-4.13-4.1-.05-2.07,1.93-4.09,4.05-4.12,2.19-.03,4.17,1.85,4.2,4,.03,2.38-1.72,4.18-4.12,4.22Z"/>
    </g>
  </g>
</svg>