<?xml version="1.0" encoding="UTF-8"?>
<svg id="Inforgraphics" xmlns="http://www.w3.org/2000/svg" viewBox="0 0 121.15 121.21">
  <defs>
    <style>
      .cls-1 {
        fill: #545456;
      }

      .cls-1, .cls-2 {
        stroke-width: 0px;
      }

      .cls-2 {
        fill: #fff;
      }
    </style>
  </defs>
  <g id="Db41ma.tif">
    <g>
      <path class="cls-2" d="M121.15,60.58c0,16.71,0,33.42,0,50.14,0,5.15-3.7,9.53-8.78,10.38-.63.11-1.28.11-1.93.11-23.21,0-46.42-.02-69.63-.04-9.34,0-18.68,0-28.03,0-1.51,0-3.05.08-4.52-.17-4.04-.68-7.52-4.36-8.13-8.41-.09-.57-.13-1.15-.13-1.73C0,77.39-.01,43.92.02,10.46.02,6.18,2.06,3.05,5.88,1.07,7.42.28,9.05,0,10.75,0c21.4,0,42.81,0,64.21,0,11.81,0,23.62,0,35.44,0,4.79,0,8.75,2.84,10.3,7.38.3.88.44,1.87.44,2.8.03,16.8.02,33.59.02,50.39ZM115.18,108.93c.08-.07.17-.15.25-.22.01-.06.03-.12.03-.17,0-9.84.01-19.68-.01-29.52,0-.4-.23-.89-.52-1.18-1.6-1.63-3.25-3.2-4.87-4.82-7.86-7.85-15.71-15.7-23.56-23.55-.95-.94-.95-.94-1.88,0-4.63,4.62-9.26,9.24-13.89,13.84-.32.31-.38.53-.02.86.5.46.95.99,1.43,1.48,3.32,3.34,6.65,6.68,9.98,10.01,5.48,5.49,10.96,10.99,16.46,16.47,2.97,2.96,5.97,5.89,8.94,8.85,2.43,2.41,4.83,4.84,7.24,7.28.18.19.29.45.43.68ZM12.05,67.62c-.02.08-.03.15-.05.23.05.06.08.13.14.19,2.05,2.06,4.12,4.1,6.16,6.17.47.48.96.68,1.64.68,11.13-.02,22.25,0,33.38-.03.69,0,1.17.18,1.67.68,6.19,6.23,12.42,12.42,18.62,18.63,6.96,6.96,13.91,13.92,20.85,20.9.4.4.79.6,1.36.56.81-.05,1.62-.02,2.43-.02,3.65,0,7.31,0,10.96-.02.81,0,1.61-.1,2.42-.15.05-.11.1-.22.15-.33-.27-.19-.57-.35-.8-.58-15.51-15.49-31.01-30.99-46.5-46.5-.51-.51-1.02-.7-1.7-.69-2.86.05-5.73.09-8.59.1-5.85.02-11.71,0-17.56.03-1.45,0-2.9.14-4.35.15-6.74.02-13.48,0-20.22,0ZM53.65,82.4c-.27.28-.58.61-.9.93-4.61,4.61-9.22,9.22-13.84,13.82-.28.28-.34.47-.02.76.35.32.65.7.99,1.04,2.76,2.76,5.52,5.52,8.27,8.28,2.64,2.65,5.27,5.3,7.9,7.96.31.32.64.45,1.1.45,5.85-.02,11.71-.02,17.56-.02,4.06,0,8.12,0,12.14,0-11.05-11.05-22.09-22.1-33.2-33.21ZM43.26,28.02l.15.27c.81,0,1.61,0,2.42,0,16.04,0,32.09,0,48.13.02.79,0,1.38-.22,1.93-.78,4.38-4.42,8.78-8.83,13.17-13.24.06-.06.08-.16.15-.34-.6,0-1.11,0-1.63,0-6.64-.01-13.28-.03-19.92-.03-9.8,0-19.59-.01-29.39,0-.39,0-.89.16-1.15.42-4.36,4.32-8.7,8.68-13.04,13.02-.24.24-.54.44-.81.66ZM11.83,60.76c.03.06.07.11.1.17.23,0,.45,0,.68,0,16.4,0,32.8-.01,49.2.02,1.24,0,2.28-.13,2.98-1.25.03-.05.09-.09.13-.13,4.22-4.23,8.44-8.47,12.66-12.7.06-.06.1-.16.21-.32h-.88c-16.73,0-33.47,0-50.2.02-.33,0-.74.16-.98.39-3.92,3.89-7.82,7.8-11.73,11.7-.72.71-1.45,1.41-2.18,2.11ZM43.16,35.07c.16.19.21.26.26.32,2.16,2.16,4.33,4.3,6.47,6.47.44.45.9.63,1.53.63,11.75-.02,23.5-.01,35.25,0,.32,0,.73.1.94.31,3.09,3.04,6.16,6.11,9.23,9.17,6,5.98,11.99,11.96,17.99,17.93.17.17.34.33.58.56.03-.2.05-.27.05-.35,0-4.8.02-9.59,0-14.39,0-.37-.19-.83-.45-1.09-2.66-2.68-5.35-5.32-8.03-7.99-3.32-3.31-6.7-6.57-9.91-9.99-1.35-1.43-2.76-1.91-4.68-1.87-6.24.14-12.49.12-18.74.16-5.15.03-10.29.07-15.44.08-4.75.02-9.51.02-14.26.02-.22,0-.44,0-.8,0ZM45.97,80.49c-.02-.06-.04-.12-.06-.18-13.45,0-26.89-.03-40.33.01v14.36c.26,0,.48,0,.7,0,8.24,0,16.48,0,24.72.02.62,0,1.05-.2,1.47-.62,4.26-4.28,8.53-8.55,12.79-12.83.25-.25.47-.51.71-.77ZM5.64,101.23c-.01.06-.03.12-.04.18-.01.04-.04.08-.04.11,0,2.91-.08,5.81.01,8.72.1,3.29,2.34,5.37,5.62,5.37,11.46,0,22.92,0,34.38-.01.25,0,.51,0,.88,0-.14-.21-.17-.28-.22-.33-4.4-4.38-8.82-8.74-13.17-13.16-.73-.75-1.47-1.02-2.45-.99-3.61.08-7.22.15-10.83.17-3.61.02-7.22-.03-10.83-.05-1.1,0-2.19,0-3.29,0ZM101.7,31.32c4.48,4.46,9.04,9,13.69,13.63v-27.33c-4.55,4.55-9.07,9.07-13.69,13.69Z"/>
      <path class="cls-1" d="M115.18,108.93c-.14-.23-.24-.5-.43-.68-2.41-2.43-4.81-4.86-7.24-7.28-2.97-2.96-5.97-5.88-8.94-8.85-5.49-5.48-10.98-10.98-16.46-16.47-3.33-3.33-6.65-6.67-9.98-10.01-.48-.49-.93-1.01-1.43-1.48-.36-.33-.3-.54.02-.86,4.64-4.61,9.26-9.23,13.89-13.84.93-.93.94-.94,1.88,0,7.86,7.85,15.7,15.7,23.56,23.55,1.62,1.61,3.27,3.18,4.87,4.82.28.29.52.78.52,1.18.03,9.84.02,19.68.01,29.52,0,.06-.02.12-.03.17-.08.07-.17.15-.25.22Z"/>
      <path class="cls-1" d="M12.05,67.62c6.74,0,13.48,0,20.22,0,1.45,0,2.9-.14,4.35-.15,5.85-.02,11.71-.01,17.56-.03,2.86,0,5.73-.05,8.59-.1.68-.01,1.19.18,1.7.69,15.49,15.51,30.99,31.01,46.5,46.5.23.23.53.39.8.58-.05.11-.1.22-.15.33-.81.05-1.61.15-2.42.15-3.65.02-7.31.01-10.96.02-.81,0-1.62-.03-2.43.02-.57.03-.96-.16-1.36-.56-6.94-6.97-13.89-13.94-20.85-20.9-6.21-6.21-12.43-12.4-18.62-18.63-.5-.51-.98-.68-1.67-.68-11.13.02-22.25,0-33.38.03-.68,0-1.17-.2-1.64-.68-2.04-2.07-4.1-4.12-6.16-6.17-.05-.05-.09-.13-.14-.19.02-.08.03-.15.05-.23Z"/>
      <path class="cls-1" d="M53.65,82.4c11.11,11.11,22.15,22.16,33.2,33.21-4.01,0-8.07,0-12.14,0-5.85,0-11.71,0-17.56.02-.45,0-.78-.13-1.1-.45-2.62-2.66-5.26-5.31-7.9-7.96-2.75-2.76-5.52-5.52-8.27-8.28-.34-.34-.63-.72-.99-1.04-.32-.29-.26-.48.02-.76,4.62-4.6,9.23-9.21,13.84-13.82.32-.32.63-.65.9-.93Z"/>
      <path class="cls-1" d="M43.26,28.02c.27-.22.56-.41.81-.66,4.35-4.34,8.68-8.7,13.04-13.02.27-.26.76-.42,1.15-.42,9.8-.02,19.59-.01,29.39,0,6.64,0,13.28.02,19.92.03.52,0,1.03,0,1.63,0-.08.18-.09.28-.15.34-4.39,4.41-8.79,8.82-13.17,13.24-.55.55-1.13.78-1.93.78-16.04-.02-32.09-.02-48.13-.02-.81,0-1.61,0-2.42,0l-.15-.27Z"/>
      <path class="cls-1" d="M11.83,60.76c.73-.7,1.46-1.4,2.18-2.11,3.91-3.9,7.8-7.81,11.73-11.7.23-.23.65-.39.98-.39,16.73-.02,33.47-.02,50.2-.02h.88c-.11.17-.14.26-.21.32-4.22,4.24-8.44,8.47-12.66,12.7-.04.04-.1.08-.13.13-.7,1.13-1.74,1.26-2.98,1.25-16.4-.04-32.8-.02-49.2-.02-.23,0-.45,0-.68,0-.03-.06-.07-.11-.1-.17Z"/>
      <path class="cls-1" d="M43.16,35.07c.36,0,.58,0,.8,0,4.75,0,9.51,0,14.26-.02,5.15-.02,10.29-.05,15.44-.08,6.25-.04,12.49-.02,18.74-.16,1.92-.04,3.33.43,4.68,1.87,3.21,3.42,6.59,6.67,9.91,9.99,2.67,2.67,5.37,5.31,8.03,7.99.26.26.44.72.45,1.09.02,4.79,0,9.59,0,14.39,0,.07-.02.15-.05.35-.24-.24-.42-.4-.58-.56-6-5.98-11.99-11.95-17.99-17.93-3.07-3.06-6.14-6.13-9.23-9.17-.21-.21-.62-.31-.94-.31-11.75-.02-23.5-.02-35.25,0-.63,0-1.09-.18-1.53-.63-2.14-2.17-4.31-4.32-6.47-6.47-.06-.06-.1-.12-.26-.32Z"/>
      <path class="cls-1" d="M45.97,80.49c-.24.26-.46.52-.71.77-4.26,4.28-8.53,8.55-12.79,12.83-.42.42-.85.62-1.47.62-8.24-.02-16.48-.02-24.72-.02-.22,0-.44,0-.7,0v-14.36c13.44-.04,26.88-.01,40.33-.01.02.06.04.12.06.18Z"/>
      <path class="cls-1" d="M5.64,101.23c1.1,0,2.19,0,3.29,0,3.61.02,7.22.07,10.83.05,3.61-.02,7.22-.09,10.83-.17.98-.02,1.72.25,2.45.99,4.35,4.42,8.77,8.78,13.17,13.16.05.05.09.13.22.33-.37,0-.62,0-.88,0-11.46,0-22.92,0-34.38.01-3.28,0-5.52-2.08-5.62-5.37-.09-2.9-.01-5.81-.01-8.72,0-.04.02-.08.04-.11.01-.06.03-.12.04-.18Z"/>
      <path class="cls-1" d="M101.7,31.32c4.63-4.63,9.14-9.14,13.69-13.69v27.33c-4.66-4.64-9.21-9.17-13.69-13.63Z"/>
    </g>
  </g>
</svg>