<?xml version="1.0" encoding="UTF-8"?>
<svg id="Inforgraphics" xmlns="http://www.w3.org/2000/svg" viewBox="0 0 121.25 121.21">
  <defs>
    <style>
      .cls-1 {
        fill: #545456;
      }

      .cls-1, .cls-2 {
        stroke-width: 0px;
      }

      .cls-2 {
        fill: #fff;
      }
    </style>
  </defs>
  <g id="fdDQqr.tif">
    <g>
      <path class="cls-2" d="M61.09,121.19c-15.9,0-31.81,0-47.71,0-1.37,0-2.74.04-4.1-.02-4.24-.18-8.53-4.08-9.13-8.3-.12-.84-.14-1.69-.14-2.54,0-32.7,0-65.4-.01-98.1,0-1.85-.07-3.71.66-5.45C2.25,2.99,5.06.73,9.15.15,10.13.01,11.14.02,12.13.02,44.6.01,77.07.02,109.54,0c1.93,0,3.82.14,5.56,1.04,4.13,2.13,6.09,5.59,6.15,10.17.03,2.78-.04,5.56-.04,8.34,0,7.24.02,14.49.02,21.73,0,6.81-.02,13.62-.02,20.42,0,6.29,0,12.58,0,18.87,0,4.94,0,9.88,0,14.82,0,4.21,0,8.43-.03,12.64-.01,1.53.02,3.08-.18,4.59-.61,4.6-4.83,8.45-9.48,8.54-5.5.1-11,.03-16.5.03-11.31,0-22.63,0-33.94,0h0ZM49.78,38.11c-1.25-1.03-2.45-2.05-3.68-3.03-.89-.71-.89-.67-1.77.26-3.93,4.14-7.83,8.3-11.8,12.4-6.06,6.26-12.41,12.19-19.56,17.21-2.25,1.58-4.63,2.99-6.98,4.43-.39.24-.57.43-.57.89.02,3.82.02,7.64,0,11.46,0,.59.14.79.75.78,5.31-.06,10.62-.05,15.92-.16,3.23-.07,6.46-.29,9.69-.47,4.98-.27,9.88-1.13,14.74-2.17,5.98-1.28,11.69-3.4,17.2-6.01,4.65-2.21,8.86-5.13,12.89-8.31,1.15-.91,2.23-1.9,3.4-2.9-1.6-1.31-3.1-2.54-4.61-3.79-6.6,5.93-14.09,10.2-22.48,12.96,3.56-2.09,6.96-4.42,10.24-6.91,3.32-2.52,6.36-5.35,9.37-8.29-1.55-1.25-3.04-2.45-4.56-3.68-7.98,7.67-16.83,13.82-26.96,18.06,4.46-2.77,8.58-6,12.51-9.48,3.94-3.49,7.86-7.01,11.41-10.98-.15-.14-.27-.28-.41-.39-1.22-.99-2.47-1.97-3.67-2.99-.4-.34-.6-.21-.92.09-3.17,3.07-6.28,6.23-9.57,9.17-4.71,4.21-9.74,8.03-15.25,11.15-2.99,1.7-6.12,3.14-9.19,4.69-.13.06-.28.08-.43.11,12.06-7.7,22.14-17.6,31.87-28-1.59-1.29-3.06-2.49-4.53-3.7-.14.12-.24.19-.32.28-4.27,4.59-8.67,9.05-13.33,13.26-7.48,6.77-15.52,12.73-24.58,17.24-.12.06-.26.07-.39.11.4-.42.88-.7,1.33-1.01,5.49-3.83,10.58-8.15,15.37-12.83,2.2-2.15,4.48-4.2,6.61-6.41,4-4.15,7.92-8.39,11.87-12.59.12-.13.23-.28.36-.45ZM114.5,7.16c-.21-.17-.33-.26-.44-.35-1.18-1.07-2.61-1.35-4.15-1.35-7.02,0-14.03.01-21.05-.02-1.07,0-1.73.2-2.37,1.24-2.91,4.71-5.97,9.33-8.97,13.98-.99,1.53-1.46,1.71-3.25,1.29-.28-.07-.57-.13-.83-.25-1.9-.88-3.8-1.75-5.68-2.67-1.75-.85-3.42-1.87-5.34-2.32-2.27-.54-4.18-.29-5.74,1.77-1.82,2.41-3.9,4.64-5.86,6.95-1.02,1.2-2.03,2.4-3.07,3.63,1.5,1.29,2.94,2.57,4.41,3.81,5.94,4.97,11.88,9.93,17.83,14.87,4.61,3.83,9.25,7.64,13.86,11.47.37.31.58.32.91-.05,1.18-1.32,2.38-2.61,3.58-3.9,2.26-2.44,4.5-4.88,6.78-7.3.9-.96,1.2-2.03.9-3.31-.3-1.3-.83-2.5-1.67-3.51-1.4-1.67-2.92-3.23-4.32-4.9-.94-1.12-1.82-2.31-2.6-3.55-.54-.87-.37-1.38.4-2.08,1.21-1.1,2.42-2.21,3.66-3.28,6.7-5.83,13.4-11.66,20.1-17.49.97-.84,1.89-1.73,2.92-2.68ZM115.71,109.22c-1.4,0-2.77,0-4.13,0-34.79,0-69.58,0-104.37,0-1.84,0-1.82,0-1.79,1.85.04,2.16,2.45,4.61,4.71,4.59,14.49-.08,28.98-.05,43.47-.04,19.2,0,38.4,0,57.6.01.86,0,1.62-.23,2.32-.75,1.85-1.37,2.31-3.29,2.19-5.67ZM115.71,98.51c-1.29,0-2.51,0-3.73,0-27.03,0-54.05,0-81.08,0-8.24,0-16.48.04-24.72.03-.65,0-.77.19-.76.75.02,1.6.03,3.2,0,4.79-.02.59.18.72.74.72,36.3-.01,72.61-.01,108.91-.01.22,0,.43,0,.65,0v-6.28ZM60.52,93.96c15.51,0,31.02,0,46.52,0,2.68,0,5.36,0,8.03.01.51,0,.68-.14.67-.66-.03-1.68-.02-3.36,0-5.04,0-.38-.08-.56-.52-.56-1.14.01-2.28-.03-3.42-.03-30.45,0-60.91,0-91.36,0-4.77,0-9.55,0-14.32,0-.37,0-.7-.04-.69.51.02,1.76.01,3.53,0,5.29,0,.35.14.49.48.48.29-.01.58,0,.87,0,17.92,0,35.83,0,53.75,0Z"/>
      <path class="cls-1" d="M49.78,38.11c-.13.17-.24.32-.36.45-3.95,4.2-7.87,8.44-11.87,12.59-2.13,2.21-4.42,4.27-6.61,6.41-4.79,4.68-9.87,9-15.37,12.83-.45.31-.92.6-1.33,1.01.13-.03.27-.05.39-.11,9.06-4.52,17.1-10.48,24.58-17.24,4.65-4.21,9.05-8.67,13.33-13.26.08-.09.18-.16.32-.28,1.47,1.2,2.94,2.4,4.53,3.7-9.73,10.4-19.8,20.3-31.87,28,.14-.04.3-.05.43-.11,3.07-1.55,6.2-2.99,9.19-4.69,5.5-3.13,10.54-6.94,15.25-11.15,3.29-2.94,6.4-6.1,9.57-9.17.32-.31.52-.43.92-.09,1.2,1.02,2.45,1.99,3.67,2.99.14.11.26.25.41.39-3.55,3.97-7.47,7.5-11.41,10.98-3.93,3.47-8.04,6.7-12.51,9.48,10.12-4.25,18.98-10.4,26.96-18.06,1.52,1.22,3.01,2.43,4.56,3.68-3.01,2.94-6.05,5.77-9.37,8.29-3.28,2.49-6.68,4.83-10.24,6.91,8.38-2.75,15.88-7.02,22.48-12.96,1.51,1.24,3.01,2.47,4.61,3.79-1.17,1-2.25,1.99-3.4,2.9-4.03,3.18-8.24,6.1-12.89,8.31-5.51,2.62-11.23,4.73-17.2,6.01-4.86,1.04-9.76,1.9-14.74,2.17-3.23.17-6.46.4-9.69.47-5.31.11-10.61.09-15.92.16-.61,0-.76-.19-.75-.78.02-3.82.02-7.64,0-11.46,0-.46.18-.65.57-.89,2.35-1.44,4.73-2.85,6.98-4.43,7.15-5.02,13.5-10.95,19.56-17.21,3.97-4.1,7.88-8.26,11.8-12.4.88-.93.88-.97,1.77-.26,1.23.98,2.43,2,3.68,3.03Z"/>
      <path class="cls-1" d="M114.5,7.16c-1.03.95-1.96,1.84-2.92,2.68-6.7,5.83-13.4,11.66-20.1,17.49-1.24,1.08-2.45,2.18-3.66,3.28-.77.7-.95,1.2-.4,2.08.78,1.24,1.66,2.43,2.6,3.55,1.4,1.67,2.92,3.23,4.32,4.9.84,1.01,1.37,2.21,1.67,3.51.3,1.28,0,2.35-.9,3.31-2.27,2.42-4.52,4.86-6.78,7.3-1.2,1.29-2.4,2.58-3.58,3.9-.33.37-.54.36-.91.05-4.61-3.83-9.25-7.64-13.86-11.47-5.95-4.95-11.89-9.91-17.83-14.87-1.48-1.24-2.92-2.51-4.41-3.81,1.04-1.23,2.05-2.43,3.07-3.63,1.96-2.31,4.03-4.54,5.86-6.95,1.56-2.06,3.47-2.31,5.74-1.77,1.92.46,3.6,1.47,5.34,2.32,1.88.92,3.78,1.79,5.68,2.67.26.12.55.18.83.25,1.79.42,2.26.24,3.25-1.29,3.01-4.65,6.07-9.27,8.97-13.98.64-1.04,1.3-1.24,2.37-1.24,7.02.04,14.03.03,21.05.02,1.54,0,2.97.27,4.15,1.35.11.1.22.18.44.35Z"/>
      <path class="cls-1" d="M115.71,109.22c.12,2.37-.34,4.29-2.19,5.67-.69.52-1.45.75-2.32.75-19.2,0-38.4-.01-57.6-.01-14.49,0-28.98-.04-43.47.04-2.26.01-4.68-2.43-4.71-4.59-.03-1.85-.06-1.85,1.79-1.85,34.79,0,69.58,0,104.37,0,1.36,0,2.73,0,4.13,0Z"/>
      <path class="cls-1" d="M115.71,98.51v6.28c-.22,0-.43,0-.65,0-36.3,0-72.61,0-108.91.01-.56,0-.75-.13-.74-.72.04-1.6.03-3.2,0-4.79,0-.56.1-.76.76-.75,8.24.02,16.48-.02,24.72-.03,27.03,0,54.05,0,81.08,0,1.22,0,2.44,0,3.73,0Z"/>
      <path class="cls-1" d="M60.52,93.96c-17.92,0-35.83,0-53.75,0-.29,0-.58-.01-.87,0-.34.01-.48-.12-.48-.48.01-1.76.02-3.53,0-5.29,0-.56.32-.51.69-.51,4.77,0,9.55,0,14.32,0,30.45,0,60.91,0,91.36,0,1.14,0,2.28.05,3.42.03.44,0,.52.18.52.56-.01,1.68-.03,3.36,0,5.04,0,.53-.16.67-.67.66-2.68-.02-5.36-.01-8.03-.01-15.51,0-31.02,0-46.52,0Z"/>
    </g>
  </g>
</svg>