<?xml version="1.0" encoding="UTF-8"?>
<svg id="Inforgraphics" xmlns="http://www.w3.org/2000/svg" viewBox="0 0 121.02 121.02">
  <defs>
    <style>
      .cls-1 {
        fill: #545456;
      }

      .cls-1, .cls-2 {
        stroke-width: 0px;
      }

      .cls-2 {
        fill: #fff;
      }
    </style>
  </defs>
  <g id="Jv9kCR.tif">
    <g>
      <path class="cls-1" d="M.03,60.2c0-10.28,0-20.55,0-30.83,0-7,.04-13.99-.02-20.99C-.02,4.39,2.43,1.45,5.41.47,6.32.17,7.32.02,8.27.02,25.46,0,42.66,0,59.85,0,77.47,0,95.1,0,112.72,0c4.05,0,7.23,2.5,8.08,6.47.21,1,.21,2.06.21,3.1.01,17.69,0,35.37,0,53.06,0,16.5,0,33.01,0,49.51,0,1.85-.18,3.67-1.31,5.22-1.63,2.26-3.81,3.65-6.66,3.65-34.07.01-68.14,0-102.21,0-1.59,0-3.24.08-4.76-.28-3.61-.86-6.03-3.97-6.05-7.4-.07-11.56-.02-23.13-.01-34.69,0-6.14,0-12.29,0-18.43ZM82.06,65.87c.19-.1.3-.18.43-.22,4.31-1.33,8.48-2.99,12.45-5.12,2.31-1.24,4.52-2.64,6.2-4.71.65-.81.64-.81-.09-1.57-2.26-2.33-5-4.02-7.7-5.75-.17-.11-.33-.21-.57-.35.53-.45.99-.83,1.44-1.22,3.03-2.61,5.55-5.65,7.68-9.02,1.5-2.38,2.57-4.92,2.61-7.8.01-1.02-.09-1.11-1.09-1.26-3.15-.45-6.22.02-9.18,1.07-3.75,1.33-7.15,3.38-10.47,5.54-.18.12-.36.23-.58.37-.09-.31-.17-.52-.23-.74-.84-3.12-2.08-6.07-3.79-8.82-.32-.51-.67-.67-1.17-.35-1.16.75-2.41,1.41-3.45,2.3-3.7,3.15-6.54,7.04-9.29,11.01-.6.87-1.16,1.77-1.8,2.74.08-.38.16-.66.2-.94.7-4.19.98-8.41.59-12.64-.18-1.91-.45-3.83-1.26-5.61-.21-.46-.48-.6-.98-.5-1.69.36-3.23,1.03-4.61,2.08-.39.3-.77.61-1.21.95-.09-.24-.18-.4-.22-.57-.96-3.97-3.01-7.33-5.76-10.31-.41-.44-.68-.46-1.02,0-.1.13-.21.25-.31.39-1.44,1.86-2.38,3.98-3.2,6.16-1.41,3.74-2.54,7.57-3.32,11.5-.03.14-.12.28-.18.4-.11-.03-.16-.03-.19-.06-.08-.07-.15-.15-.22-.22-1.64-1.55-3.45-2.84-5.59-3.65-.46-.18-.72-.08-.95.35-.81,1.53-1.25,3.18-1.4,4.87-.4,4.68.13,9.31,1.04,13.91.05.23.04.47.05.69-5.15-.41-10.23-.82-15.43-1.23,2.55,12.76,8.15,23.39,19.69,30.31-2.23,1.46-4.32,2.92-6.51,4.22-3.1,1.85-6.29,3.53-9.82,4.44-1.49.38-2.97.74-4.54.5-.72-.11-1.49-.1-2.22,0-.82.1-1.27.81-1.07,1.59.47,1.81,1.62,3.06,3.35,3.73.4.16.93.2,1.34.09,1.57-.43,3.16-.86,4.68-1.44,6-2.28,11.51-5.51,16.82-9.07.14-.1.3-.18.46-.27,4.11,12.37,12.95,20.08,24.41,25.56.85-5.23,1.66-10.25,2.49-15.33.35.16.57.26.8.36,4.1,1.79,8.22,3.58,12.72,4.09,1.62.18,3.27.19,4.89.1,1.15-.06,1.16-.2,1.04-1.34-.24-2.17-.89-4.21-2.11-6.04-.06-.09-.08-.21-.13-.34.24,0,.43,0,.61,0,4.36.07,8.71-.03,13.04-.64,1.93-.27,3.84-.68,5.62-1.51.97-.46.98-.52.4-1.39-1.83-2.75-4.17-4.99-6.85-6.89-.67-.48-1.37-.9-2.06-1.34.04-.08.05-.13.08-.15.04-.04.1-.08.15-.11,1.83-1.11,3.18-2.63,4.06-4.58.22-.5.17-.83-.29-1.08-1.32-.73-2.58-1.63-3.98-2.13-2.29-.81-4.67-1.4-7.04-2.01-2.43-.63-4.9-.95-7.5-.98Z"/>
      <path class="cls-2" d="M82.06,65.87c2.6.03,5.08.35,7.5.98,2.36.62,4.74,1.2,7.04,2.01,1.4.5,2.66,1.4,3.98,2.13.46.26.51.59.29,1.08-.88,1.96-2.23,3.48-4.06,4.58-.05.03-.11.07-.15.11-.03.03-.04.07-.08.15.68.44,1.39.87,2.06,1.34,2.68,1.9,5.02,4.15,6.85,6.89.58.87.57.93-.4,1.39-1.78.83-3.69,1.24-5.62,1.51-4.33.61-8.68.7-13.04.64-.19,0-.37,0-.61,0,.05.13.07.25.13.34,1.22,1.83,1.87,3.87,2.11,6.04.12,1.14.11,1.28-1.04,1.34-1.63.09-3.28.08-4.89-.1-4.51-.51-8.62-2.3-12.72-4.09-.23-.1-.45-.2-.8-.36-.82,5.08-1.64,10.1-2.49,15.33-11.46-5.48-20.31-13.19-24.41-25.56-.16.1-.32.18-.46.27-5.32,3.56-10.82,6.79-16.82,9.07-1.52.58-3.11,1.01-4.68,1.44-.41.11-.94.07-1.34-.09-1.73-.67-2.88-1.92-3.35-3.73-.2-.78.25-1.49,1.07-1.59.73-.09,1.49-.1,2.22,0,1.57.24,3.05-.11,4.54-.5,3.53-.91,6.72-2.59,9.82-4.44,2.19-1.3,4.28-2.77,6.51-4.22-11.54-6.92-17.14-17.55-19.69-30.31,5.2.42,10.27.82,15.43,1.23-.02-.22,0-.46-.05-.69-.91-4.59-1.45-9.22-1.04-13.91.15-1.69.59-3.34,1.4-4.87.23-.44.48-.53.95-.35,2.13.8,3.95,2.09,5.59,3.65.08.07.14.15.22.22.03.02.08.02.19.06.06-.13.15-.26.18-.4.78-3.93,1.91-7.76,3.32-11.5.82-2.18,1.75-4.3,3.2-6.16.1-.13.21-.25.31-.39.34-.46.61-.44,1.02,0,2.75,2.98,4.8,6.33,5.76,10.31.04.17.13.33.22.57.44-.35.82-.66,1.21-.95,1.37-1.05,2.92-1.72,4.61-2.08.5-.11.77.04.98.5.81,1.78,1.09,3.7,1.26,5.61.39,4.24.11,8.45-.59,12.64-.05.28-.12.56-.2.94.63-.97,1.19-1.87,1.8-2.74,2.75-3.96,5.59-7.86,9.29-11.01,1.05-.89,2.29-1.56,3.45-2.3.5-.32.85-.17,1.17.35,1.71,2.75,2.96,5.69,3.79,8.82.06.22.13.43.23.74.22-.14.4-.25.58-.37,3.33-2.16,6.72-4.21,10.47-5.54,2.95-1.05,6.02-1.52,9.18-1.07,1,.14,1.11.24,1.09,1.26-.04,2.87-1.1,5.42-2.61,7.8-2.13,3.37-4.65,6.41-7.68,9.02-.45.39-.91.77-1.44,1.22.23.15.4.25.57.35,2.71,1.73,5.44,3.42,7.7,5.75.73.75.74.76.09,1.57-1.68,2.07-3.9,3.47-6.2,4.71-3.97,2.13-8.14,3.79-12.45,5.12-.13.04-.24.12-.43.22Z"/>
    </g>
  </g>
</svg>